<?xml version="1.0" encoding="UTF-8" standalone="no"?>
<!-- Created with Inkscape (http://www.inkscape.org/) -->

<svg
   xmlns:dc="http://purl.org/dc/elements/1.1/"
   xmlns:cc="http://creativecommons.org/ns#"
   xmlns:rdf="http://www.w3.org/1999/02/22-rdf-syntax-ns#"
   xmlns:svg="http://www.w3.org/2000/svg"
   xmlns="http://www.w3.org/2000/svg"
   xmlns:sodipodi="http://sodipodi.sourceforge.net/DTD/sodipodi-0.dtd"
   xmlns:inkscape="http://www.inkscape.org/namespaces/inkscape"
   width="34mm"
   height="58.5mm"
   viewBox="0 0 120.47243 207.28346"
   id="svg11021"
   version="1.1"
   inkscape:version="0.91 r13725"
   sodipodi:docname="Ndogo_shield_PCB.svg">
  <defs
     id="defs11023" />
  <sodipodi:namedview
     id="base"
     pagecolor="#ffffff"
     bordercolor="#666666"
     borderopacity="1.0"
     inkscape:pageopacity="0.0"
     inkscape:pageshadow="2"
     inkscape:zoom="2.8284271"
     inkscape:cx="-72.821571"
     inkscape:cy="78.031386"
     inkscape:document-units="px"
     inkscape:current-layer="layer9"
     showgrid="true"
     showguides="false"
     inkscape:guide-bbox="true"
     inkscape:snap-nodes="false"
     inkscape:snap-global="true"
     inkscape:window-width="1920"
     inkscape:window-height="1017"
     inkscape:window-x="-8"
     inkscape:window-y="1072"
     inkscape:window-maximized="1"
     inkscape:snap-object-midpoints="true"
     inkscape:snap-center="false"
     inkscape:snap-bbox="true"
     inkscape:bbox-nodes="false"
     inkscape:snap-bbox-edge-midpoints="false"
     inkscape:snap-grids="false"
     inkscape:snap-to-guides="false"
     inkscape:object-nodes="true"
     inkscape:snap-intersection-paths="true"
     inkscape:object-paths="true"
     inkscape:snap-smooth-nodes="true"
     inkscape:snap-midpoints="true"
     inkscape:snap-bbox-midpoints="true">
    <inkscape:grid
       type="xygrid"
       id="grid11569"
       empspacing="10"
       units="mm"
       spacingx="7.0866141"
       spacingy="7.0866141" />
    <sodipodi:guide
       position="0,207"
       orientation="1,0"
       id="guide11584" />
    <sodipodi:guide
       position="119.72834,190"
       orientation="1,0"
       id="guide11586"
       inkscape:label=""
       inkscape:color="rgb(39,255,0)" />
    <sodipodi:guide
       position="94.642856,0"
       orientation="0,1"
       id="guide11588"
       inkscape:label=""
       inkscape:color="rgb(0,0,255)" />
    <sodipodi:guide
       position="6.2007872,181.19611"
       orientation="1,0"
       id="guide11607"
       inkscape:label=""
       inkscape:color="rgb(0,0,255)" />
    <sodipodi:guide
       position="114.41338,-29.464285"
       orientation="1,0"
       id="guide12223"
       inkscape:label=""
       inkscape:color="rgb(0,0,255)" />
    <sodipodi:guide
       position="76.181101,-6.5659915"
       orientation="1,0"
       id="guide12486"
       inkscape:label=""
       inkscape:color="rgb(0,0,255)" />
    <sodipodi:guide
       position="82.57997,24.803149"
       orientation="0,1"
       id="guide12488"
       inkscape:label=""
       inkscape:color="rgb(0,0,255)" />
    <sodipodi:guide
       position="-44.999999,26.574803"
       orientation="0,1"
       id="guide13154"
       inkscape:label=""
       inkscape:color="rgb(0,0,255)" />
    <sodipodi:guide
       position="-8.9999999,53.149606"
       orientation="0,1"
       id="guide13156"
       inkscape:label=""
       inkscape:color="rgb(0,0,255)" />
    <sodipodi:guide
       position="0,79.724408"
       orientation="0,1"
       id="guide13277"
       inkscape:label=""
       inkscape:color="rgb(0,0,255)" />
    <sodipodi:guide
       position="144,106.29921"
       orientation="0,1"
       id="guide13279"
       inkscape:label=""
       inkscape:color="rgb(0,0,255)" />
    <sodipodi:guide
       position="162,132.87401"
       orientation="0,1"
       id="guide13281"
       inkscape:label=""
       inkscape:color="rgb(0,0,255)" />
    <sodipodi:guide
       position="243.98437,217.34375"
       orientation="0,1"
       id="guide13283" />
    <sodipodi:guide
       position="135,159.44882"
       orientation="0,1"
       id="guide13423"
       inkscape:label=""
       inkscape:color="rgb(0,0,255)" />
    <sodipodi:guide
       position="37.204724,62.25065"
       orientation="1,0"
       id="guide4530"
       inkscape:label=""
       inkscape:color="rgb(0,0,255)" />
    <sodipodi:guide
       position="81.496062,56.189735"
       orientation="1,0"
       id="guide4532"
       inkscape:label=""
       inkscape:color="rgb(0,0,255)" />
    <sodipodi:guide
       position="96.520074,186.024"
       orientation="0,1"
       id="guide7052"
       inkscape:label=""
       inkscape:color="rgb(255,0,23)" />
    <sodipodi:guide
       position="83.267999,207.28346"
       orientation="1,0"
       id="guide7054"
       inkscape:label=""
       inkscape:color="rgb(255,55,0)" />
    <sodipodi:guide
       position="113.52756,194.88189"
       orientation="0,1"
       id="guide7056"
       inkscape:label=""
       inkscape:color="rgb(12,255,0)" />
    <sodipodi:guide
       position="26.870057,207.28346"
       orientation="0,1"
       id="guide8688"
       inkscape:label=""
       inkscape:color="rgb(0,0,255)" />
    <sodipodi:guide
       position="65.55118,199.75766"
       orientation="1,0"
       id="guide8690"
       inkscape:label=""
       inkscape:color="rgb(0,0,255)" />
    <sodipodi:guide
       position="15.944882,204.17708"
       orientation="1,0"
       id="guide8692"
       inkscape:label=""
       inkscape:color="rgb(0,0,255)" />
    <sodipodi:guide
       position="26.575,201.375"
       orientation="1,0"
       id="guide8694"
       inkscape:label=""
       inkscape:color="rgb(255,0,248)" />
    <sodipodi:guide
       position="54.920999,207.28346"
       orientation="1,0"
       id="guide8696"
       inkscape:label=""
       inkscape:color="rgb(255,0,213)" />
    <sodipodi:guide
       position="23.375,196.654"
       orientation="0,1"
       id="guide8797"
       inkscape:label=""
       inkscape:color="rgb(0,0,0)" />
    <sodipodi:guide
       position="23.031,198"
       orientation="1,0"
       id="guide8799"
       inkscape:label=""
       inkscape:color="rgb(0,0,0)" />
    <sodipodi:guide
       position="40.561999,200.197"
       orientation="0,1"
       id="guide8821"
       inkscape:label=""
       inkscape:color="rgb(0,0,0)" />
    <sodipodi:guide
       position="59.172999,204.5"
       orientation="1,0"
       id="guide8823"
       inkscape:label=""
       inkscape:color="rgb(0,0,0)" />
    <sodipodi:guide
       position="42.812499,190.62992"
       orientation="0,1"
       id="guide8829"
       inkscape:label=""
       inkscape:color="rgb(0,0,0)" />
    <sodipodi:guide
       position="49.497474,186.02362"
       orientation="0,1"
       id="guide8831"
       inkscape:label=""
       inkscape:color="rgb(0,0,0)" />
    <sodipodi:guide
       position="32.598425,194.88189"
       orientation="1,0"
       id="guide8853"
       inkscape:label=""
       inkscape:color="rgb(0,0,0)" />
    <sodipodi:guide
       position="46.062991,203.73514"
       orientation="1,0"
       id="guide8855"
       inkscape:label=""
       inkscape:color="rgb(0,0,0)" />
    <sodipodi:guide
       position="90.70866,15.4375"
       orientation="1,0"
       id="guide8859"
       inkscape:label=""
       inkscape:color="rgb(249,255,0)" />
    <sodipodi:guide
       position="70.51181,21.5"
       orientation="1,0"
       id="guide8861"
       inkscape:label=""
       inkscape:color="rgb(255,237,0)" />
    <sodipodi:guide
       position="97.687498,23.385826"
       orientation="0,1"
       id="guide8863"
       inkscape:label=""
       inkscape:color="rgb(255,253,0)" />
    <sodipodi:guide
       position="97.999998,14.527559"
       orientation="0,1"
       id="guide8865"
       inkscape:label=""
       inkscape:color="rgb(255,252,0)" />
    <sodipodi:guide
       position="98.937498,5.3149606"
       orientation="0,1"
       id="guide8867"
       inkscape:label=""
       inkscape:color="rgb(255,250,0)" />
    <sodipodi:guide
       position="0.88582674,173.15277"
       orientation="1,0"
       id="guide8983"
       inkscape:label=""
       inkscape:color="rgb(13,255,0)" />
    <sodipodi:guide
       position="27.374999,73.218749"
       orientation="1,0"
       id="guide4818" />
    <sodipodi:guide
       position="36.312499,78.156249"
       orientation="1,0"
       id="guide4820" />
    <sodipodi:guide
       position="69.898608,157.78425"
       orientation="1,0"
       id="guide4822" />
    <sodipodi:guide
       position="93.082029,157.82031"
       orientation="1,0"
       id="guide4824" />
    <sodipodi:guide
       position="78.832029,133.9375"
       orientation="1,0"
       id="guide4826" />
    <sodipodi:guide
       position="84.093748,160.8125"
       orientation="1,0"
       id="guide4828" />
  </sodipodi:namedview>
  <metadata
     id="metadata11026">
    <rdf:RDF>
      <cc:Work
         rdf:about="">
        <dc:format>image/svg+xml</dc:format>
        <dc:type
           rdf:resource="http://purl.org/dc/dcmitype/StillImage" />
        <dc:title />
      </cc:Work>
    </rdf:RDF>
  </metadata>
  <g
     inkscape:groupmode="layer"
     id="layer5"
     inkscape:label="Board"
     style="display:inline"
     sodipodi:insensitive="true">
    <path
       style="display:inline;fill:none;fill-opacity:1;fill-rule:evenodd;stroke:#000000;stroke-width:1;stroke-linecap:butt;stroke-linejoin:miter;stroke-miterlimit:4;stroke-dasharray:none;stroke-opacity:1"
       d="m 26.574219,0 -10.628907,12.402344 -8.8789058,0 c -3.4236426,3e-4 -6.17968745,2.756067 -6.17968745,6.179687 l 0,182.521489 c 0,3.4236 2.75604595,6.17968 6.17968745,6.17968 l 106.4824238,0 c 3.42364,0 6.17969,-2.75608 6.17969,-6.17968 l 0,-182.521489 c 0,-3.42362 -2.75605,-6.179687 -6.17969,-6.179687 l -47.998049,0 L 54.921875,0 Z"
       transform="translate(-7.6293945e-6,0)"
       id="silkscreen"
       inkscape:connector-curvature="0"
       sodipodi:nodetypes="cccsssssssccc" />
  </g>
  <g
     inkscape:groupmode="layer"
     id="layer9"
     inkscape:label="copper"
     style="display:inline">
    <g
       id="copper0"
       inkscape:label="">
      <g
         inkscape:label=""
         id="copper1">
        <path
           style="display:inline;fill:#f7bd13;fill-opacity:1;stroke:none"
           inkscape:connector-curvature="0"
           d="m 28.32859,50.53639 c -1.48447,0 -2.69006,-1.2056 -2.69006,-2.6901 -10e-6,-1.4845 1.20559,-2.6901 2.69006,-2.6901 1.4845,0 2.69009,1.2056 2.6901,2.6901 0,1.4845 -1.2056,2.6901 -2.6901,2.6901 z m 0,-1.3566 c 0.74538,0 1.35655,-0.5881 1.35654,-1.3335 10e-6,-0.7454 -0.61116,-1.3565 -1.35654,-1.3565 -0.74537,0 -1.35651,0.6111 -1.35652,1.3565 0,0.7454 0.61115,1.3335 1.35654,1.3335 z"
           id="connector1pin"
           inkscape:label="" />
        <path
           style="display:inline;fill:#f7bd13;fill-opacity:1;stroke:none"
           inkscape:connector-curvature="0"
           d="m 35.368827,50.53639 c -1.484474,0 -2.69006,-1.2056 -2.69006,-2.6901 -1.3e-5,-1.4845 1.205586,-2.6901 2.69006,-2.6901 1.484499,0 2.690086,1.2056 2.690098,2.6901 0,1.4845 -1.205599,2.6901 -2.690098,2.6901 z m 0,-1.3566 c 0.745375,0 1.356549,-0.5881 1.356537,-1.3335 1.2e-5,-0.7454 -0.611162,-1.3565 -1.356537,-1.3565 -0.745374,0 -1.356511,0.6111 -1.356524,1.3565 0,0.7454 0.61115,1.3335 1.356537,1.3335 z"
           id="connector2pin"
           inkscape:label="" />
        <path
           style="display:inline;fill:#f7bd13;fill-opacity:1;stroke:none"
           inkscape:connector-curvature="0"
           d="m 42.524313,50.53639 c -1.484474,0 -2.69006,-1.2056 -2.69006,-2.6901 -1.3e-5,-1.4845 1.205586,-2.6901 2.69006,-2.6901 1.484499,0 2.690086,1.2056 2.690098,2.6901 0,1.4845 -1.205599,2.6901 -2.690098,2.6901 z m 0,-1.3566 c 0.745375,0 1.356549,-0.5881 1.356537,-1.3335 1.2e-5,-0.7454 -0.611162,-1.3565 -1.356537,-1.3565 -0.745374,0 -1.356511,0.6111 -1.356524,1.3565 0,0.7454 0.61115,1.3335 1.356537,1.3335 z"
           id="connector3pin"
           inkscape:label="" />
        <path
           style="display:inline;fill:#f7bd13;fill-opacity:1;stroke:none"
           inkscape:connector-curvature="0"
           d="m 49.622175,50.53639 c -1.484474,0 -2.69006,-1.2056 -2.69006,-2.6901 -1.3e-5,-1.4845 1.205586,-2.6901 2.69006,-2.6901 1.484499,0 2.690086,1.2056 2.690098,2.6901 0,1.4845 -1.205599,2.6901 -2.690098,2.6901 z m 0,-1.3566 c 0.745375,0 1.356549,-0.5881 1.356537,-1.3335 1.2e-5,-0.7454 -0.611162,-1.3565 -1.356537,-1.3565 -0.745374,0 -1.356511,0.6111 -1.356524,1.3565 0,0.7454 0.61115,1.3335 1.356537,1.3335 z"
           id="connector4pin"
           inkscape:label="" />
        <path
           style="display:inline;fill:#f7bd13;fill-opacity:1;stroke:none"
           inkscape:connector-curvature="0"
           d="m 28.32859,77.11117 c -1.484474,0 -2.69006,-1.2056 -2.69006,-2.6901 -1.3e-5,-1.4845 1.205586,-2.6901 2.69006,-2.6901 1.484499,0 2.690086,1.2056 2.690098,2.6901 0,1.4845 -1.205599,2.6901 -2.690098,2.6901 z m 0,-1.3566 c 0.745375,0 1.356549,-0.5881 1.356537,-1.3335 1.2e-5,-0.7454 -0.611162,-1.3565 -1.356537,-1.3565 -0.745374,0 -1.356511,0.6111 -1.356524,1.3565 0,0.7454 0.61115,1.3335 1.356537,1.3335 z"
           id="connector5pin"
           inkscape:label="" />
        <path
           style="display:inline;fill:#f7bd13;fill-opacity:1;stroke:none"
           inkscape:connector-curvature="0"
           d="m 35.368826,77.11117 c -1.484474,0 -2.69006,-1.2056 -2.69006,-2.6901 -1.3e-5,-1.4845 1.205586,-2.6901 2.69006,-2.6901 1.484499,0 2.690086,1.2056 2.690098,2.6901 0,1.4845 -1.205599,2.6901 -2.690098,2.6901 z m 0,-1.3566 c 0.745375,0 1.356549,-0.5881 1.356537,-1.3335 1.2e-5,-0.7454 -0.611162,-1.3565 -1.356537,-1.3565 -0.745374,0 -1.356511,0.6111 -1.356524,1.3565 0,0.7454 0.61115,1.3335 1.356537,1.3335 z"
           id="connector6pin"
           inkscape:label="" />
        <path
           style="display:inline;fill:#f7bd13;fill-opacity:1;stroke:none"
           inkscape:connector-curvature="0"
           d="m 42.524312,77.11117 c -1.484474,0 -2.69006,-1.2056 -2.69006,-2.6901 -1.3e-5,-1.4845 1.205586,-2.6901 2.69006,-2.6901 1.484499,0 2.690086,1.2056 2.690098,2.6901 0,1.4845 -1.205599,2.6901 -2.690098,2.6901 z m 0,-1.3566 c 0.745375,0 1.356549,-0.5881 1.356537,-1.3335 1.2e-5,-0.7454 -0.611162,-1.3565 -1.356537,-1.3565 -0.745374,0 -1.356511,0.6111 -1.356524,1.3565 0,0.7454 0.61115,1.3335 1.356537,1.3335 z"
           id="connector7pin"
           inkscape:label="" />
        <path
           style="display:inline;fill:#f7bd13;fill-opacity:1;stroke:none"
           inkscape:connector-curvature="0"
           d="m 49.622174,77.11117 c -1.484474,0 -2.69006,-1.2056 -2.69006,-2.6901 -1.3e-5,-1.4845 1.205586,-2.6901 2.69006,-2.6901 1.484499,0 2.690086,1.2056 2.690098,2.6901 0,1.4845 -1.205599,2.6901 -2.690098,2.6901 z m 0,-1.3566 c 0.745375,0 1.356549,-0.5881 1.356537,-1.3335 1.2e-5,-0.7454 -0.611162,-1.3565 -1.356537,-1.3565 -0.745374,0 -1.356511,0.6111 -1.356524,1.3565 0,0.7454 0.61115,1.3335 1.356537,1.3335 z"
           id="connector8pin"
           inkscape:label="" />
        <path
           style="display:inline;fill:#f7bd13;fill-opacity:1;stroke:none"
           inkscape:connector-curvature="0"
           d="m 28.32859,103.68597 c -1.484474,0 -2.69006,-1.2056 -2.69006,-2.6901 -1.3e-5,-1.4845 1.205586,-2.6901 2.69006,-2.6901 1.484499,0 2.690086,1.2056 2.690098,2.6901 0,1.4845 -1.205599,2.6901 -2.690098,2.6901 z m 0,-1.3566 c 0.745375,0 1.356549,-0.5881 1.356537,-1.3335 1.2e-5,-0.7454 -0.611162,-1.3565 -1.356537,-1.3565 -0.745374,0 -1.356511,0.6111 -1.356524,1.3565 0,0.7454 0.61115,1.3335 1.356537,1.3335 z"
           id="connector9pin"
           inkscape:label="" />
        <path
           style="display:inline;fill:#f7bd13;fill-opacity:1;stroke:none"
           inkscape:connector-curvature="0"
           d="m 35.368826,103.68597 c -1.484474,0 -2.69006,-1.2056 -2.69006,-2.6901 -1.3e-5,-1.4845 1.205586,-2.6901 2.69006,-2.6901 1.484499,0 2.690086,1.2056 2.690098,2.6901 0,1.4845 -1.205599,2.6901 -2.690098,2.6901 z m 0,-1.3566 c 0.745375,0 1.356549,-0.5881 1.356537,-1.3335 1.2e-5,-0.7454 -0.611162,-1.3565 -1.356537,-1.3565 -0.745374,0 -1.356511,0.6111 -1.356524,1.3565 0,0.7454 0.61115,1.3335 1.356537,1.3335 z"
           id="connector10pin"
           inkscape:label="" />
        <path
           style="display:inline;fill:#f7bd13;fill-opacity:1;stroke:none"
           inkscape:connector-curvature="0"
           d="m 42.524312,103.68597 c -1.484474,0 -2.69006,-1.2056 -2.69006,-2.6901 -1.3e-5,-1.4845 1.205586,-2.6901 2.69006,-2.6901 1.484499,0 2.690086,1.2056 2.690098,2.6901 0,1.4845 -1.205599,2.6901 -2.690098,2.6901 z m 0,-1.3566 c 0.745375,0 1.356549,-0.5881 1.356537,-1.3335 1.2e-5,-0.7454 -0.611162,-1.3565 -1.356537,-1.3565 -0.745374,0 -1.356511,0.6111 -1.356524,1.3565 0,0.7454 0.61115,1.3335 1.356537,1.3335 z"
           id="connector11pin"
           inkscape:label="" />
        <path
           style="display:inline;fill:#f7bd13;fill-opacity:1;stroke:none"
           inkscape:connector-curvature="0"
           d="m 49.622174,103.68597 c -1.484474,0 -2.69006,-1.2056 -2.69006,-2.6901 -1.3e-5,-1.4845 1.205586,-2.6901 2.69006,-2.6901 1.484499,0 2.690086,1.2056 2.690098,2.6901 0,1.4845 -1.205599,2.6901 -2.690098,2.6901 z m 0,-1.3566 c 0.745375,0 1.356549,-0.5881 1.356537,-1.3335 1.2e-5,-0.7454 -0.611162,-1.3565 -1.356537,-1.3565 -0.745374,0 -1.356511,0.6111 -1.356524,1.3565 0,0.7454 0.61115,1.3335 1.356537,1.3335 z"
           id="connector12pin"
           inkscape:label="" />
        <path
           style="display:inline;fill:#f7bd13;fill-opacity:1;stroke:none"
           inkscape:connector-curvature="0"
           d="m 28.32859,130.26078 c -1.484474,0 -2.69006,-1.2056 -2.69006,-2.6901 -1.3e-5,-1.4845 1.205586,-2.6901 2.69006,-2.6901 1.484499,0 2.690086,1.2056 2.690098,2.6901 0,1.4845 -1.205599,2.6901 -2.690098,2.6901 z m 0,-1.3566 c 0.745375,0 1.356549,-0.5881 1.356537,-1.3335 1.2e-5,-0.7454 -0.611162,-1.3565 -1.356537,-1.3565 -0.745374,0 -1.356511,0.6111 -1.356524,1.3565 0,0.7454 0.61115,1.3335 1.356537,1.3335 z"
           id="connector13pin"
           inkscape:label="" />
        <path
           style="display:inline;fill:#f7bd13;fill-opacity:1;stroke:none"
           inkscape:connector-curvature="0"
           d="m 35.368826,130.26078 c -1.484474,0 -2.69006,-1.2056 -2.69006,-2.6901 -1.3e-5,-1.4845 1.205586,-2.6901 2.69006,-2.6901 1.484499,0 2.690086,1.2056 2.690098,2.6901 0,1.4845 -1.205599,2.6901 -2.690098,2.6901 z m 0,-1.3566 c 0.745375,0 1.356549,-0.5881 1.356537,-1.3335 1.2e-5,-0.7454 -0.611162,-1.3565 -1.356537,-1.3565 -0.745374,0 -1.356511,0.6111 -1.356524,1.3565 0,0.7454 0.61115,1.3335 1.356537,1.3335 z"
           id="connector14pin"
           inkscape:label="" />
        <path
           style="display:inline;fill:#f7bd13;fill-opacity:1;stroke:none"
           inkscape:connector-curvature="0"
           d="m 42.524312,130.26078 c -1.484474,0 -2.69006,-1.2056 -2.69006,-2.6901 -1.3e-5,-1.4845 1.205586,-2.6901 2.69006,-2.6901 1.484499,0 2.690086,1.2056 2.690098,2.6901 0,1.4845 -1.205599,2.6901 -2.690098,2.6901 z m 0,-1.3566 c 0.745375,0 1.356549,-0.5881 1.356537,-1.3335 1.2e-5,-0.7454 -0.611162,-1.3565 -1.356537,-1.3565 -0.745374,0 -1.356511,0.6111 -1.356524,1.3565 0,0.7454 0.61115,1.3335 1.356537,1.3335 z"
           id="connector15pin"
           inkscape:label="" />
        <path
           style="display:inline;fill:#f7bd13;fill-opacity:1;stroke:none"
           inkscape:connector-curvature="0"
           d="m 49.622174,130.26078 c -1.484474,0 -2.69006,-1.2056 -2.69006,-2.6901 -1.3e-5,-1.4845 1.205586,-2.6901 2.69006,-2.6901 1.484499,0 2.690086,1.2056 2.690098,2.6901 0,1.4845 -1.205599,2.6901 -2.690098,2.6901 z m 0,-1.3566 c 0.745375,0 1.356549,-0.5881 1.356537,-1.3335 1.2e-5,-0.7454 -0.611162,-1.3565 -1.356537,-1.3565 -0.745374,0 -1.356511,0.6111 -1.356524,1.3565 0,0.7454 0.61115,1.3335 1.356537,1.3335 z"
           id="connector16pin"
           inkscape:label="" />
        <path
           style="display:inline;fill:#f7bd13;fill-opacity:1;stroke:none"
           inkscape:connector-curvature="0"
           d="m 49.622174,156.83558 c -1.484474,0 -2.69006,-1.2056 -2.69006,-2.6901 -1.3e-5,-1.4845 1.205586,-2.6901 2.69006,-2.6901 1.484499,0 2.690086,1.2056 2.690098,2.6901 0,1.4845 -1.205599,2.6901 -2.690098,2.6901 z m 0,-1.3566 c 0.745375,0 1.356549,-0.5881 1.356537,-1.3335 1.2e-5,-0.7454 -0.611162,-1.3565 -1.356537,-1.3565 -0.745374,0 -1.356511,0.6111 -1.356524,1.3565 0,0.7454 0.61115,1.3335 1.356537,1.3335 z"
           id="connector20pin"
           inkscape:label="" />
        <path
           style="display:inline;fill:#f7bd13;fill-opacity:1;stroke:none"
           inkscape:connector-curvature="0"
           d="m 42.524312,156.83558 c -1.484474,0 -2.69006,-1.2056 -2.69006,-2.6901 -1.3e-5,-1.4845 1.205586,-2.6901 2.69006,-2.6901 1.484499,0 2.690086,1.2056 2.690098,2.6901 0,1.4845 -1.205599,2.6901 -2.690098,2.6901 z m 0,-1.3566 c 0.745375,0 1.356549,-0.5881 1.356537,-1.3335 1.2e-5,-0.7454 -0.611162,-1.3565 -1.356537,-1.3565 -0.745374,0 -1.356511,0.6111 -1.356524,1.3565 0,0.7454 0.61115,1.3335 1.356537,1.3335 z"
           id="connector19pin"
           inkscape:label="" />
        <path
           style="display:inline;fill:#f7bd13;fill-opacity:1;stroke:none"
           inkscape:connector-curvature="0"
           d="m 35.368826,156.83558 c -1.484474,0 -2.69006,-1.2056 -2.69006,-2.6901 -1.3e-5,-1.4845 1.205586,-2.6901 2.69006,-2.6901 1.484499,0 2.690086,1.2056 2.690098,2.6901 0,1.4845 -1.205599,2.6901 -2.690098,2.6901 z m 0,-1.3566 c 0.745375,0 1.356549,-0.5881 1.356537,-1.3335 1.2e-5,-0.7454 -0.611162,-1.3565 -1.356537,-1.3565 -0.745374,0 -1.356511,0.6111 -1.356524,1.3565 0,0.7454 0.61115,1.3335 1.356537,1.3335 z"
           id="connector18pin"
           inkscape:label="" />
        <path
           style="display:inline;fill:#f7bd13;fill-opacity:1;stroke:none"
           inkscape:connector-curvature="0"
           d="m 28.32859,156.83558 c -1.484474,0 -2.69006,-1.2056 -2.69006,-2.6901 -1.3e-5,-1.4845 1.205586,-2.6901 2.69006,-2.6901 1.484499,0 2.690086,1.2056 2.690098,2.6901 0,1.4845 -1.205599,2.6901 -2.690098,2.6901 z m 0,-1.3566 c 0.745375,0 1.356549,-0.5881 1.356537,-1.3335 1.2e-5,-0.7454 -0.611162,-1.3565 -1.356537,-1.3565 -0.745374,0 -1.356511,0.6111 -1.356524,1.3565 0,0.7454 0.61115,1.3335 1.356537,1.3335 z"
           id="connector17pin"
           inkscape:label="" />
        <path
           style="display:inline;fill:#f7bd13;fill-opacity:1;stroke:none"
           inkscape:connector-curvature="0"
           d="m 28.32859,183.40971 c -1.484474,0 -2.69006,-1.2056 -2.69006,-2.6901 -1.3e-5,-1.4845 1.205586,-2.6901 2.69006,-2.6901 1.484499,0 2.690086,1.2056 2.690098,2.6901 0,1.4845 -1.205599,2.6901 -2.690098,2.6901 z m 0,-1.3566 c 0.745375,0 1.356549,-0.5881 1.356537,-1.3335 1.2e-5,-0.7454 -0.611162,-1.3565 -1.356537,-1.3565 -0.745374,0 -1.356511,0.6111 -1.356524,1.3565 0,0.7454 0.61115,1.3335 1.356537,1.3335 z"
           id="connector21pin"
           inkscape:label="" />
        <path
           style="display:inline;fill:#f7bd13;fill-opacity:1;stroke:none"
           inkscape:connector-curvature="0"
           d="m 35.368826,183.40971 c -1.484474,0 -2.69006,-1.2056 -2.69006,-2.6901 -1.3e-5,-1.4845 1.205586,-2.6901 2.69006,-2.6901 1.484499,0 2.690086,1.2056 2.690098,2.6901 0,1.4845 -1.205599,2.6901 -2.690098,2.6901 z m 0,-1.3566 c 0.745375,0 1.356549,-0.5881 1.356537,-1.3335 1.2e-5,-0.7454 -0.611162,-1.3565 -1.356537,-1.3565 -0.745374,0 -1.356511,0.6111 -1.356524,1.3565 0,0.7454 0.61115,1.3335 1.356537,1.3335 z"
           id="connector22pin"
           inkscape:label="" />
        <path
           style="display:inline;fill:#f7bd13;fill-opacity:1;stroke:none"
           inkscape:connector-curvature="0"
           d="m 42.524312,183.40971 c -1.484474,0 -2.69006,-1.2056 -2.69006,-2.6901 -1.3e-5,-1.4845 1.205586,-2.6901 2.69006,-2.6901 1.484499,0 2.690086,1.2056 2.690098,2.6901 0,1.4845 -1.205599,2.6901 -2.690098,2.6901 z m 0,-1.3566 c 0.745375,0 1.356549,-0.5881 1.356537,-1.3335 1.2e-5,-0.7454 -0.611162,-1.3565 -1.356537,-1.3565 -0.745374,0 -1.356511,0.6111 -1.356524,1.3565 0,0.7454 0.61115,1.3335 1.356537,1.3335 z"
           id="connector23pin"
           inkscape:label="" />
        <path
           style="display:inline;fill:#f7bd13;fill-opacity:1;stroke:none"
           inkscape:connector-curvature="0"
           d="m 49.622174,183.40971 c -1.484474,0 -2.69006,-1.2056 -2.69006,-2.6901 -1.3e-5,-1.4845 1.205586,-2.6901 2.69006,-2.6901 1.484499,0 2.690086,1.2056 2.690098,2.6901 0,1.4845 -1.205599,2.6901 -2.690098,2.6901 z m 0,-1.3566 c 0.745375,0 1.356549,-0.5881 1.356537,-1.3335 1.2e-5,-0.7454 -0.611162,-1.3565 -1.356537,-1.3565 -0.745374,0 -1.356511,0.6111 -1.356524,1.3565 0,0.7454 0.61115,1.3335 1.356537,1.3335 z"
           id="connector24pin"
           inkscape:label="" />
        <path
           style="display:inline;fill:#f7bd13;fill-opacity:1;stroke:none"
           inkscape:connector-curvature="0"
           d="m 70.849261,156.8356 c -1.484474,0 -2.69006,-1.2056 -2.69006,-2.6901 -1.3e-5,-1.4845 1.205586,-2.6901 2.69006,-2.6901 1.484499,0 2.690086,1.2056 2.690098,2.6901 0,1.4845 -1.205599,2.6901 -2.690098,2.6901 z m 0,-1.3566 c 0.745375,0 1.356549,-0.5881 1.356537,-1.3335 1.2e-5,-0.7454 -0.611162,-1.3565 -1.356537,-1.3565 -0.745374,0 -1.356511,0.6111 -1.356524,1.3565 0,0.7454 0.61115,1.3335 1.356537,1.3335 z"
           id="connector41pin"
           inkscape:label="" />
        <path
           style="display:inline;fill:#f7bd13;fill-opacity:1;stroke:none"
           inkscape:connector-curvature="0"
           d="m 77.889497,156.8356 c -1.484474,0 -2.69006,-1.2056 -2.69006,-2.6901 -1.3e-5,-1.4845 1.205586,-2.6901 2.69006,-2.6901 1.484499,0 2.690086,1.2056 2.690098,2.6901 0,1.4845 -1.205599,2.6901 -2.690098,2.6901 z m 0,-1.3566 c 0.745375,0 1.356549,-0.5881 1.356537,-1.3335 1.2e-5,-0.7454 -0.611162,-1.3565 -1.356537,-1.3565 -0.745374,0 -1.356511,0.6111 -1.356524,1.3565 0,0.7454 0.61115,1.3335 1.356537,1.3335 z"
           id="connector42pin"
           inkscape:label="" />
        <path
           style="display:inline;fill:#f7bd13;fill-opacity:1;stroke:none"
           inkscape:connector-curvature="0"
           d="m 85.044983,156.8356 c -1.484474,0 -2.69006,-1.2056 -2.69006,-2.6901 -1.3e-5,-1.4845 1.205586,-2.6901 2.69006,-2.6901 1.484499,0 2.690086,1.2056 2.690098,2.6901 0,1.4845 -1.205599,2.6901 -2.690098,2.6901 z m 0,-1.3566 c 0.745375,0 1.356549,-0.5881 1.356537,-1.3335 1.2e-5,-0.7454 -0.611162,-1.3565 -1.356537,-1.3565 -0.745374,0 -1.356511,0.6111 -1.356524,1.3565 0,0.7454 0.61115,1.3335 1.356537,1.3335 z"
           id="connector43pin"
           inkscape:label="" />
        <path
           style="display:inline;fill:#f7bd13;fill-opacity:1;stroke:none"
           inkscape:connector-curvature="0"
           d="m 92.142845,156.8356 c -1.484474,0 -2.69006,-1.2056 -2.69006,-2.6901 -1.3e-5,-1.4845 1.205586,-2.6901 2.69006,-2.6901 1.484499,0 2.690086,1.2056 2.690098,2.6901 0,1.4845 -1.205599,2.6901 -2.690098,2.6901 z m 0,-1.3566 c 0.745375,0 1.356549,-0.5881 1.356537,-1.3335 1.2e-5,-0.7454 -0.611162,-1.3565 -1.356537,-1.3565 -0.745374,0 -1.356511,0.6111 -1.356524,1.3565 0,0.7454 0.61115,1.3335 1.356537,1.3335 z"
           id="connector44pin"
           inkscape:label="" />
        <path
           style="display:inline;fill:#f7bd13;fill-opacity:1;stroke:none"
           inkscape:connector-curvature="0"
           d="m 92.142805,130.26078 c -1.484474,0 -2.69006,-1.2056 -2.69006,-2.6901 -1.3e-5,-1.4845 1.205586,-2.6901 2.69006,-2.6901 1.484499,0 2.690086,1.2056 2.690098,2.6901 0,1.4845 -1.205599,2.6901 -2.690098,2.6901 z m 0,-1.3566 c 0.745375,0 1.356549,-0.5881 1.356537,-1.3335 1.2e-5,-0.7454 -0.611162,-1.3565 -1.356537,-1.3565 -0.745374,0 -1.356511,0.6111 -1.356524,1.3565 0,0.7454 0.61115,1.3335 1.356537,1.3335 z"
           id="connector40pin"
           inkscape:label="" />
        <path
           style="display:inline;fill:#f7bd13;fill-opacity:1;stroke:none"
           inkscape:connector-curvature="0"
           d="m 92.142845,77.11117 c -1.484474,0 -2.690061,-1.2056 -2.690061,-2.6901 -1.3e-5,-1.4845 1.205587,-2.6901 2.690061,-2.6901 1.484499,0 2.690086,1.2056 2.690098,2.6901 0,1.4845 -1.205599,2.6901 -2.690098,2.6901 z m 0,-1.3566 c 0.745375,0 1.356549,-0.5881 1.356537,-1.3335 1.2e-5,-0.7454 -0.611162,-1.3565 -1.356537,-1.3565 -0.745374,0 -1.356511,0.6111 -1.356524,1.3565 0,0.7454 0.61115,1.3335 1.356537,1.3335 z"
           id="connector32pin"
           inkscape:label="" />
        <path
           style="display:inline;fill:#f7bd13;fill-opacity:1;stroke:none"
           inkscape:connector-curvature="0"
           d="m 92.142805,50.53636 c -1.484474,0 -2.69006,-1.2056 -2.69006,-2.6901 -1.3e-5,-1.4845 1.205586,-2.6901 2.69006,-2.6901 1.484499,0 2.690086,1.2056 2.690098,2.6901 0,1.4845 -1.205599,2.6901 -2.690098,2.6901 z m 0,-1.3566 c 0.745375,0 1.356549,-0.5881 1.356537,-1.3335 1.2e-5,-0.7454 -0.611162,-1.3565 -1.356537,-1.3565 -0.745374,0 -1.356511,0.6111 -1.356524,1.3565 0,0.7454 0.61115,1.3335 1.356537,1.3335 z"
           id="connector28pin"
           inkscape:label="" />
        <path
           style="display:inline;fill:#f7bd13;fill-opacity:1;stroke:none"
           inkscape:connector-curvature="0"
           d="m 85.044943,50.53636 c -1.484474,0 -2.69006,-1.2056 -2.69006,-2.6901 -1.3e-5,-1.4845 1.205586,-2.6901 2.69006,-2.6901 1.484499,0 2.690086,1.2056 2.690098,2.6901 0,1.4845 -1.205599,2.6901 -2.690098,2.6901 z m 0,-1.3566 c 0.745375,0 1.356549,-0.5881 1.356537,-1.3335 1.2e-5,-0.7454 -0.611162,-1.3565 -1.356537,-1.3565 -0.745374,0 -1.356511,0.6111 -1.356524,1.3565 0,0.7454 0.61115,1.3335 1.356537,1.3335 z"
           id="connector27pin"
           inkscape:label="" />
        <path
           style="display:inline;fill:#f7bd13;fill-opacity:1;stroke:none"
           inkscape:connector-curvature="0"
           d="m 77.889457,50.53636 c -1.484474,0 -2.69006,-1.2056 -2.69006,-2.6901 -1.3e-5,-1.4845 1.205586,-2.6901 2.69006,-2.6901 1.484499,0 2.690086,1.2056 2.690098,2.6901 0,1.4845 -1.205599,2.6901 -2.690098,2.6901 z m 0,-1.3566 c 0.745375,0 1.356549,-0.5881 1.356537,-1.3335 1.2e-5,-0.7454 -0.611162,-1.3565 -1.356537,-1.3565 -0.745374,0 -1.356511,0.6111 -1.356524,1.3565 0,0.7454 0.61115,1.3335 1.356537,1.3335 z"
           id="connector26pin"
           inkscape:label="" />
        <path
           style="display:inline;fill:#f7bd13;fill-opacity:1;stroke:none"
           inkscape:connector-curvature="0"
           d="m 70.849221,50.53636 c -1.484474,0 -2.69006,-1.2056 -2.69006,-2.6901 -1.3e-5,-1.4845 1.205586,-2.6901 2.69006,-2.6901 1.484499,0 2.690086,1.2056 2.690098,2.6901 0,1.4845 -1.205599,2.6901 -2.690098,2.6901 z m 0,-1.3566 c 0.745375,0 1.356549,-0.5881 1.356537,-1.3335 1.2e-5,-0.7454 -0.611162,-1.3565 -1.356537,-1.3565 -0.745374,0 -1.356511,0.6111 -1.356524,1.3565 0,0.7454 0.61115,1.3335 1.356537,1.3335 z"
           id="connector25pin"
           inkscape:label="" />
        <path
           style="display:inline;fill:#f7bd13;fill-opacity:1;stroke:none"
           inkscape:connector-curvature="0"
           d="m 70.849261,77.11117 c -1.484474,0 -2.69006,-1.2056 -2.69006,-2.6901 -1.3e-5,-1.4845 1.205586,-2.6901 2.69006,-2.6901 1.484499,0 2.690086,1.2056 2.690098,2.6901 0,1.4845 -1.205599,2.6901 -2.690098,2.6901 z m 0,-1.3566 c 0.745375,0 1.356549,-0.5881 1.356537,-1.3335 1.2e-5,-0.7454 -0.611162,-1.3565 -1.356537,-1.3565 -0.745374,0 -1.356511,0.6111 -1.356524,1.3565 0,0.7454 0.61115,1.3335 1.356537,1.3335 z"
           id="connector29pin"
           inkscape:label="" />
        <path
           style="display:inline;fill:#f7bd13;fill-opacity:1;stroke:none"
           inkscape:connector-curvature="0"
           d="m 77.889497,77.11117 c -1.484474,0 -2.69006,-1.2056 -2.69006,-2.6901 -1.3e-5,-1.4845 1.205586,-2.6901 2.69006,-2.6901 1.484499,0 2.690086,1.2056 2.690098,2.6901 0,1.4845 -1.205599,2.6901 -2.690098,2.6901 z m 0,-1.3566 c 0.745375,0 1.356549,-0.5881 1.356537,-1.3335 1.2e-5,-0.7454 -0.611162,-1.3565 -1.356537,-1.3565 -0.745374,0 -1.356511,0.6111 -1.356524,1.3565 0,0.7454 0.61115,1.3335 1.356537,1.3335 z"
           id="connector30pin"
           inkscape:label="" />
        <path
           style="display:inline;fill:#f7bd13;fill-opacity:1;stroke:none"
           inkscape:connector-curvature="0"
           d="m 85.044983,77.11117 c -1.484474,0 -2.69006,-1.2056 -2.69006,-2.6901 -1.3e-5,-1.4845 1.205586,-2.6901 2.69006,-2.6901 1.484499,0 2.690086,1.2056 2.690098,2.6901 0,1.4845 -1.205599,2.6901 -2.690098,2.6901 z m 0,-1.3566 c 0.745375,0 1.356549,-0.5881 1.356537,-1.3335 1.2e-5,-0.7454 -0.611162,-1.3565 -1.356537,-1.3565 -0.745374,0 -1.356511,0.6111 -1.356524,1.3565 0,0.7454 0.61115,1.3335 1.356537,1.3335 z"
           id="connector31pin"
           inkscape:label="" />
        <path
           style="display:inline;fill:#f7bd13;fill-opacity:1;stroke:none"
           inkscape:connector-curvature="0"
           d="m 92.142805,103.68597 c -1.484474,0 -2.69006,-1.2056 -2.69006,-2.6901 -1.3e-5,-1.484498 1.205586,-2.690098 2.69006,-2.690098 1.484499,0 2.690086,1.2056 2.690098,2.690098 0,1.4845 -1.205599,2.6901 -2.690098,2.6901 z m 0,-1.3566 c 0.745375,0 1.356549,-0.5881 1.356537,-1.3335 1.2e-5,-0.7454 -0.611162,-1.356498 -1.356537,-1.356498 -0.745374,0 -1.356511,0.611098 -1.356524,1.356498 0,0.7454 0.61115,1.3335 1.356537,1.3335 z"
           id="connector36pin"
           inkscape:label="" />
        <path
           style="display:inline;fill:#f7bd13;fill-opacity:1;stroke:none"
           inkscape:connector-curvature="0"
           d="m 85.044943,103.68597 c -1.484474,0 -2.69006,-1.2056 -2.69006,-2.6901 -1.3e-5,-1.484498 1.205586,-2.690098 2.69006,-2.690098 1.484499,0 2.690086,1.2056 2.690098,2.690098 0,1.4845 -1.205599,2.6901 -2.690098,2.6901 z m 0,-1.3566 c 0.745375,0 1.356549,-0.5881 1.356537,-1.3335 1.2e-5,-0.7454 -0.611162,-1.356498 -1.356537,-1.356498 -0.745374,0 -1.356511,0.611098 -1.356524,1.356498 0,0.7454 0.61115,1.3335 1.356537,1.3335 z"
           id="connector35pin"
           inkscape:label="" />
        <path
           style="display:inline;fill:#f7bd13;fill-opacity:1;stroke:none"
           inkscape:connector-curvature="0"
           d="m 77.889457,103.68597 c -1.484474,0 -2.69006,-1.2056 -2.69006,-2.6901 -1.3e-5,-1.4845 1.205586,-2.6901 2.69006,-2.6901 1.484499,0 2.690086,1.2056 2.690098,2.6901 0,1.4845 -1.205599,2.6901 -2.690098,2.6901 z m 0,-1.3566 c 0.745375,0 1.356549,-0.5881 1.356537,-1.3335 1.2e-5,-0.7454 -0.611162,-1.3565 -1.356537,-1.3565 -0.745374,0 -1.356511,0.6111 -1.356524,1.3565 0,0.7454 0.61115,1.3335 1.356537,1.3335 z"
           id="connector34pin"
           inkscape:label="" />
        <path
           style="display:inline;fill:#f7bd13;fill-opacity:1;stroke:none"
           inkscape:connector-curvature="0"
           d="m 70.849221,103.68597 c -1.484474,0 -2.69006,-1.2056 -2.69006,-2.6901 -1.3e-5,-1.484499 1.205586,-2.690101 2.69006,-2.690101 1.484499,0 2.690086,1.205602 2.690098,2.690101 0,1.4845 -1.205599,2.6901 -2.690098,2.6901 z m 0,-1.3566 c 0.745375,0 1.356549,-0.5881 1.356537,-1.3335 1.2e-5,-0.7454 -0.611162,-1.356499 -1.356537,-1.356499 -0.745374,0 -1.356511,0.611099 -1.356524,1.356499 0,0.7454 0.61115,1.3335 1.356537,1.3335 z"
           id="connector33pin"
           inkscape:label="" />
        <path
           style="display:inline;fill:#f7bd13;fill-opacity:1;stroke:none"
           inkscape:connector-curvature="0"
           d="m 70.849221,130.26078 c -1.484474,0 -2.69006,-1.2056 -2.69006,-2.6901 -1.3e-5,-1.4845 1.205586,-2.6901 2.69006,-2.6901 1.484499,0 2.690086,1.2056 2.690098,2.6901 0,1.4845 -1.205599,2.6901 -2.690098,2.6901 z m 0,-1.3566 c 0.745375,0 1.356549,-0.5881 1.356537,-1.3335 1.2e-5,-0.7454 -0.611162,-1.3565 -1.356537,-1.3565 -0.745374,0 -1.356511,0.6111 -1.356524,1.3565 0,0.7454 0.61115,1.3335 1.356537,1.3335 z"
           id="connector37pin"
           inkscape:label="" />
        <path
           style="display:inline;fill:#f7bd13;fill-opacity:1;stroke:none"
           inkscape:connector-curvature="0"
           d="m 77.889457,130.26078 c -1.484474,0 -2.69006,-1.2056 -2.69006,-2.6901 -1.3e-5,-1.4845 1.205586,-2.6901 2.69006,-2.6901 1.484499,0 2.690086,1.2056 2.690098,2.6901 0,1.4845 -1.205599,2.6901 -2.690098,2.6901 z m 0,-1.3566 c 0.745375,0 1.356549,-0.5881 1.356537,-1.3335 1.2e-5,-0.7454 -0.611162,-1.3565 -1.356537,-1.3565 -0.745374,0 -1.356511,0.6111 -1.356524,1.3565 0,0.7454 0.61115,1.3335 1.356537,1.3335 z"
           id="connector38pin"
           inkscape:label="" />
        <path
           style="display:inline;fill:#f7bd13;fill-opacity:1;stroke:none"
           inkscape:connector-curvature="0"
           d="m 85.044943,130.26078 c -1.484474,0 -2.69006,-1.2056 -2.69006,-2.6901 -1.3e-5,-1.4845 1.205586,-2.6901 2.69006,-2.6901 1.484499,0 2.690086,1.2056 2.690098,2.6901 0,1.4845 -1.205599,2.6901 -2.690098,2.6901 z m 0,-1.3566 c 0.745375,0 1.356549,-0.5881 1.356537,-1.3335 1.2e-5,-0.7454 -0.611162,-1.3565 -1.356537,-1.3565 -0.745374,0 -1.356511,0.6111 -1.356524,1.3565 0,0.7454 0.61115,1.3335 1.356537,1.3335 z"
           id="connector39pin"
           inkscape:label="" />
        <path
           style="display:inline;fill:#f7bd13;fill-opacity:1;stroke:none"
           inkscape:connector-curvature="0"
           d="m 76.181067,185.17051 c -1.484474,0 -2.69006,-1.2056 -2.69006,-2.6901 -1.3e-5,-1.4845 1.205586,-2.6901 2.69006,-2.6901 1.484499,0 2.690086,1.2056 2.690098,2.6901 0,1.4845 -1.205599,2.6901 -2.690098,2.6901 z m 0,-1.3566 c 0.745375,0 1.356549,-0.5881 1.356537,-1.3335 1.2e-5,-0.7454 -0.611162,-1.3565 -1.356537,-1.3565 -0.745374,0 -1.356511,0.6111 -1.356524,1.3565 0,0.7454 0.61115,1.3335 1.356537,1.3335 z"
           id="connector45pin"
           inkscape:label="" />
        <path
           style="display:inline;fill:#f7bd13;fill-opacity:1;stroke:none"
           inkscape:connector-curvature="0"
           d="m 85.180149,185.17041 c -1.484474,0 -2.69006,-1.2056 -2.69006,-2.6901 -1.3e-5,-1.4845 1.205586,-2.6901 2.69006,-2.6901 1.484499,0 2.690086,1.2056 2.690098,2.6901 0,1.4845 -1.205599,2.6901 -2.690098,2.6901 z m 0,-1.3566 c 0.745375,0 1.356549,-0.5881 1.356537,-1.3335 1.2e-5,-0.7454 -0.611162,-1.3565 -1.356537,-1.3565 -0.745374,0 -1.356511,0.6111 -1.356524,1.3565 0,0.7454 0.61115,1.3335 1.356537,1.3335 z"
           id="connector48pin"
           inkscape:label="" />
        <path
           style="display:inline;fill:#f7bd13;fill-opacity:1;stroke:none"
           inkscape:connector-curvature="0"
           d="m 85.180149,194.17296 c -1.484474,0 -2.69006,-1.2056 -2.69006,-2.6901 -1.3e-5,-1.4845 1.205586,-2.6901 2.69006,-2.6901 1.484499,0 2.690086,1.2056 2.690098,2.6901 0,1.4845 -1.205599,2.6901 -2.690098,2.6901 z m 0,-1.3566 c 0.745375,0 1.356549,-0.5881 1.356537,-1.3335 1.2e-5,-0.7454 -0.611162,-1.3565 -1.356537,-1.3565 -0.745374,0 -1.356511,0.6111 -1.356524,1.3565 0,0.7454 0.61115,1.3335 1.356537,1.3335 z"
           id="connector49pin"
           inkscape:label="" />
        <path
           style="display:inline;fill:#f7bd13;fill-opacity:1;stroke:none"
           inkscape:connector-curvature="0"
           d="m 85.180149,203.17546 c -1.484474,0 -2.690061,-1.2056 -2.690061,-2.6901 -1.3e-5,-1.4845 1.205587,-2.6901 2.690061,-2.6901 1.484499,0 2.690086,1.2056 2.690098,2.6901 0,1.4845 -1.205599,2.6901 -2.690098,2.6901 z m 0,-1.3566 c 0.745375,0 1.356549,-0.5881 1.356537,-1.3335 1.2e-5,-0.7454 -0.611162,-1.3565 -1.356537,-1.3565 -0.745374,0 -1.356511,0.6111 -1.356524,1.3565 0,0.7454 0.61115,1.3335 1.356537,1.3335 z"
           id="connector50pin"
           inkscape:label="" />
        <path
           style="display:inline;fill:#f7bd13;fill-opacity:1;stroke:none"
           inkscape:connector-curvature="0"
           d="m 76.181087,203.17546 c -1.484474,0 -2.690061,-1.2056 -2.690061,-2.6901 -1.3e-5,-1.4845 1.205587,-2.6901 2.690061,-2.6901 1.484499,0 2.690086,1.2056 2.690098,2.6901 0,1.4845 -1.205599,2.6901 -2.690098,2.6901 z m 0,-1.3566 c 0.745375,0 1.356549,-0.5881 1.356537,-1.3335 1.2e-5,-0.7454 -0.611162,-1.3565 -1.356537,-1.3565 -0.745374,0 -1.356511,0.6111 -1.356524,1.3565 0,0.7454 0.61115,1.3335 1.356537,1.3335 z"
           id="connector47pin"
           inkscape:label="" />
        <path
           style="display:inline;fill:#f7bd13;fill-opacity:1;stroke:none"
           inkscape:connector-curvature="0"
           d="m 76.181087,194.17296 c -1.484474,0 -2.690061,-1.2056 -2.690061,-2.6901 -1.3e-5,-1.4845 1.205587,-2.6901 2.690061,-2.6901 1.484499,0 2.690086,1.2056 2.690098,2.6901 0,1.4845 -1.205599,2.6901 -2.690098,2.6901 z m 0,-1.3566 c 0.745375,0 1.356549,-0.5881 1.356537,-1.3335 1.2e-5,-0.7454 -0.611162,-1.3565 -1.356537,-1.3565 -0.745374,0 -1.356511,0.6111 -1.356524,1.3565 0,0.7454 0.61115,1.3335 1.356537,1.3335 z"
           id="connector46pin"
           inkscape:label="" />
      </g>
    </g>
  </g>
</svg>
