<?xml version="1.0" encoding="UTF-8" standalone="no"?>
<!-- Created with Inkscape (http://www.inkscape.org/) -->

<svg
   xmlns:dc="http://purl.org/dc/elements/1.1/"
   xmlns:cc="http://creativecommons.org/ns#"
   xmlns:rdf="http://www.w3.org/1999/02/22-rdf-syntax-ns#"
   xmlns:svg="http://www.w3.org/2000/svg"
   xmlns="http://www.w3.org/2000/svg"
   xmlns:sodipodi="http://sodipodi.sourceforge.net/DTD/sodipodi-0.dtd"
   xmlns:inkscape="http://www.inkscape.org/namespaces/inkscape"
   width="34mm"
   height="58.5mm"
   viewBox="0 0 120.47243 207.28346"
   id="svg11021"
   version="1.1"
   inkscape:version="0.91 r13725"
   sodipodi:docname="Ndogo_shield_PCB.svg">
  <defs
     id="defs11023" />
  <sodipodi:namedview
     id="base"
     pagecolor="#ffffff"
     bordercolor="#666666"
     borderopacity="1.0"
     inkscape:pageopacity="0.0"
     inkscape:pageshadow="2"
     inkscape:zoom="2.8284271"
     inkscape:cx="-125.30183"
     inkscape:cy="78.031386"
     inkscape:document-units="px"
     inkscape:current-layer="layer9"
     showgrid="true"
     showguides="false"
     inkscape:guide-bbox="true"
     inkscape:snap-nodes="false"
     inkscape:snap-global="true"
     inkscape:window-width="1920"
     inkscape:window-height="1017"
     inkscape:window-x="-8"
     inkscape:window-y="1072"
     inkscape:window-maximized="1"
     inkscape:snap-object-midpoints="true"
     inkscape:snap-center="false"
     inkscape:snap-bbox="true"
     inkscape:bbox-nodes="false"
     inkscape:snap-bbox-edge-midpoints="false"
     inkscape:snap-grids="false"
     inkscape:snap-to-guides="false"
     inkscape:object-nodes="true"
     inkscape:snap-intersection-paths="true"
     inkscape:object-paths="true"
     inkscape:snap-smooth-nodes="true"
     inkscape:snap-midpoints="true"
     inkscape:snap-bbox-midpoints="true">
    <inkscape:grid
       type="xygrid"
       id="grid11569"
       empspacing="10"
       units="mm"
       spacingx="7.0866141"
       spacingy="7.0866141" />
    <sodipodi:guide
       position="0,207"
       orientation="1,0"
       id="guide11584" />
    <sodipodi:guide
       position="119.72834,190"
       orientation="1,0"
       id="guide11586"
       inkscape:label=""
       inkscape:color="rgb(39,255,0)" />
    <sodipodi:guide
       position="94.642856,0"
       orientation="0,1"
       id="guide11588"
       inkscape:label=""
       inkscape:color="rgb(0,0,255)" />
    <sodipodi:guide
       position="6.2007872,181.19611"
       orientation="1,0"
       id="guide11607"
       inkscape:label=""
       inkscape:color="rgb(0,0,255)" />
    <sodipodi:guide
       position="114.41338,-29.464285"
       orientation="1,0"
       id="guide12223"
       inkscape:label=""
       inkscape:color="rgb(0,0,255)" />
    <sodipodi:guide
       position="76.181101,-6.5659915"
       orientation="1,0"
       id="guide12486"
       inkscape:label=""
       inkscape:color="rgb(0,0,255)" />
    <sodipodi:guide
       position="82.57997,24.803149"
       orientation="0,1"
       id="guide12488"
       inkscape:label=""
       inkscape:color="rgb(0,0,255)" />
    <sodipodi:guide
       position="-44.999999,26.574803"
       orientation="0,1"
       id="guide13154"
       inkscape:label=""
       inkscape:color="rgb(0,0,255)" />
    <sodipodi:guide
       position="-8.9999999,53.149606"
       orientation="0,1"
       id="guide13156"
       inkscape:label=""
       inkscape:color="rgb(0,0,255)" />
    <sodipodi:guide
       position="0,79.724408"
       orientation="0,1"
       id="guide13277"
       inkscape:label=""
       inkscape:color="rgb(0,0,255)" />
    <sodipodi:guide
       position="144,106.29921"
       orientation="0,1"
       id="guide13279"
       inkscape:label=""
       inkscape:color="rgb(0,0,255)" />
    <sodipodi:guide
       position="162,132.87401"
       orientation="0,1"
       id="guide13281"
       inkscape:label=""
       inkscape:color="rgb(0,0,255)" />
    <sodipodi:guide
       position="243.98437,217.34375"
       orientation="0,1"
       id="guide13283" />
    <sodipodi:guide
       position="135,159.44882"
       orientation="0,1"
       id="guide13423"
       inkscape:label=""
       inkscape:color="rgb(0,0,255)" />
    <sodipodi:guide
       position="37.204724,62.25065"
       orientation="1,0"
       id="guide4530"
       inkscape:label=""
       inkscape:color="rgb(0,0,255)" />
    <sodipodi:guide
       position="81.496062,56.189735"
       orientation="1,0"
       id="guide4532"
       inkscape:label=""
       inkscape:color="rgb(0,0,255)" />
    <sodipodi:guide
       position="96.520074,186.024"
       orientation="0,1"
       id="guide7052"
       inkscape:label=""
       inkscape:color="rgb(255,0,23)" />
    <sodipodi:guide
       position="83.267999,207.28346"
       orientation="1,0"
       id="guide7054"
       inkscape:label=""
       inkscape:color="rgb(255,55,0)" />
    <sodipodi:guide
       position="113.52756,194.88189"
       orientation="0,1"
       id="guide7056"
       inkscape:label=""
       inkscape:color="rgb(12,255,0)" />
    <sodipodi:guide
       position="26.870057,207.28346"
       orientation="0,1"
       id="guide8688"
       inkscape:label=""
       inkscape:color="rgb(0,0,255)" />
    <sodipodi:guide
       position="65.55118,199.75766"
       orientation="1,0"
       id="guide8690"
       inkscape:label=""
       inkscape:color="rgb(0,0,255)" />
    <sodipodi:guide
       position="15.944882,204.17708"
       orientation="1,0"
       id="guide8692"
       inkscape:label=""
       inkscape:color="rgb(0,0,255)" />
    <sodipodi:guide
       position="26.575,201.375"
       orientation="1,0"
       id="guide8694"
       inkscape:label=""
       inkscape:color="rgb(255,0,248)" />
    <sodipodi:guide
       position="54.920999,207.28346"
       orientation="1,0"
       id="guide8696"
       inkscape:label=""
       inkscape:color="rgb(255,0,213)" />
    <sodipodi:guide
       position="23.375,196.654"
       orientation="0,1"
       id="guide8797"
       inkscape:label=""
       inkscape:color="rgb(0,0,0)" />
    <sodipodi:guide
       position="23.031,198"
       orientation="1,0"
       id="guide8799"
       inkscape:label=""
       inkscape:color="rgb(0,0,0)" />
    <sodipodi:guide
       position="40.561999,200.197"
       orientation="0,1"
       id="guide8821"
       inkscape:label=""
       inkscape:color="rgb(0,0,0)" />
    <sodipodi:guide
       position="59.172999,204.5"
       orientation="1,0"
       id="guide8823"
       inkscape:label=""
       inkscape:color="rgb(0,0,0)" />
    <sodipodi:guide
       position="42.812499,190.62992"
       orientation="0,1"
       id="guide8829"
       inkscape:label=""
       inkscape:color="rgb(0,0,0)" />
    <sodipodi:guide
       position="49.497474,186.02362"
       orientation="0,1"
       id="guide8831"
       inkscape:label=""
       inkscape:color="rgb(0,0,0)" />
    <sodipodi:guide
       position="32.598425,194.88189"
       orientation="1,0"
       id="guide8853"
       inkscape:label=""
       inkscape:color="rgb(0,0,0)" />
    <sodipodi:guide
       position="46.062991,203.73514"
       orientation="1,0"
       id="guide8855"
       inkscape:label=""
       inkscape:color="rgb(0,0,0)" />
    <sodipodi:guide
       position="90.70866,15.4375"
       orientation="1,0"
       id="guide8859"
       inkscape:label=""
       inkscape:color="rgb(249,255,0)" />
    <sodipodi:guide
       position="70.51181,21.5"
       orientation="1,0"
       id="guide8861"
       inkscape:label=""
       inkscape:color="rgb(255,237,0)" />
    <sodipodi:guide
       position="97.687498,23.385826"
       orientation="0,1"
       id="guide8863"
       inkscape:label=""
       inkscape:color="rgb(255,253,0)" />
    <sodipodi:guide
       position="97.999998,14.527559"
       orientation="0,1"
       id="guide8865"
       inkscape:label=""
       inkscape:color="rgb(255,252,0)" />
    <sodipodi:guide
       position="98.937498,5.3149606"
       orientation="0,1"
       id="guide8867"
       inkscape:label=""
       inkscape:color="rgb(255,250,0)" />
    <sodipodi:guide
       position="0.88582674,173.15277"
       orientation="1,0"
       id="guide8983"
       inkscape:label=""
       inkscape:color="rgb(13,255,0)" />
    <sodipodi:guide
       position="27.374999,73.218749"
       orientation="1,0"
       id="guide4818" />
    <sodipodi:guide
       position="36.312499,78.156249"
       orientation="1,0"
       id="guide4820" />
    <sodipodi:guide
       position="69.898608,157.78425"
       orientation="1,0"
       id="guide4822" />
    <sodipodi:guide
       position="93.082029,157.82031"
       orientation="1,0"
       id="guide4824" />
    <sodipodi:guide
       position="78.832029,133.9375"
       orientation="1,0"
       id="guide4826" />
    <sodipodi:guide
       position="84.093748,160.8125"
       orientation="1,0"
       id="guide4828" />
  </sodipodi:namedview>
  <metadata
     id="metadata11026">
    <rdf:RDF>
      <cc:Work
         rdf:about="">
        <dc:format>image/svg+xml</dc:format>
        <dc:type
           rdf:resource="http://purl.org/dc/dcmitype/StillImage" />
        <dc:title />
      </cc:Work>
    </rdf:RDF>
  </metadata>
  <g
     inkscape:groupmode="layer"
     id="layer5"
     inkscape:label="Board"
     style="display:inline"
     sodipodi:insensitive="true">
    <path
       style="display:inline;fill:#000000;fill-opacity:1;fill-rule:evenodd;stroke:none;stroke-width:0.01;stroke-linecap:butt;stroke-linejoin:miter;stroke-miterlimit:4;stroke-dasharray:none;stroke-opacity:1"
       d="m 26.574219,0 -10.628907,12.402344 -8.8789058,0 c -3.4236426,3e-4 -6.17968745,2.756067 -6.17968745,6.179687 l 0,182.521489 c 0,3.4236 2.75604595,6.17968 6.17968745,6.17968 l 106.4824238,0 c 3.42364,0 6.17969,-2.75608 6.17969,-6.17968 l 0,-182.521489 c 0,-3.42362 -2.75605,-6.179687 -6.17969,-6.179687 l -47.998049,0 L 54.921875,0 26.574219,0 Z m 8.757812,46.59375 c 0.328051,-0.01134 0.660087,0.100495 0.904297,0.361328 0.177014,0.189062 0.359168,0.465593 0.404297,0.615234 0.09377,0.31091 -0.169326,1.02317 -0.46875,1.271485 -0.330914,0.274428 -1.104797,0.304319 -1.488281,0.05859 -0.438849,-0.281207 -0.647698,-0.795908 -0.544922,-1.34375 0.109325,-0.582751 0.646608,-0.943996 1.193359,-0.962891 z m -6.996093,0.01758 c 1.293126,0 1.760876,1.724173 0.626953,2.310547 -0.454025,0.234785 -0.838862,0.2332 -1.279297,-0.0059 -1.106212,-0.600319 -0.623953,-2.304688 0.652344,-2.304688 z m 21.34375,0 c 0.36755,0 0.56265,0.08315 0.80664,0.34375 0.436173,0.465861 0.518788,0.809225 0.3125,1.302734 -0.230209,0.55074 -0.476738,0.737435 -1.080078,0.81836 -0.449254,0.06026 -0.546289,0.02207 -0.941406,-0.373047 -0.488934,-0.488933 -0.555956,-0.880872 -0.251953,-1.46875 0.237746,-0.45975 0.539303,-0.623047 1.154297,-0.623047 z m 21.15625,0 c 1.552897,0 1.726768,2.271082 0.1875,2.449219 -0.274896,0.03181 -0.6125,-0.0085 -0.75,-0.08789 -1.164992,-0.672688 -0.76271,-2.361328 0.5625,-2.361328 z m 7.09375,0 c 1.170957,0 1.666664,1.422132 0.761718,2.183594 -0.554819,0.466849 -1.143876,0.430342 -1.68164,-0.107422 -0.472444,-0.472445 -0.535344,-0.871115 -0.234375,-1.453125 0.237728,-0.459716 0.539484,-0.623047 1.154297,-0.623047 z m 7.05664,0 c 0.621256,0 0.921804,0.162125 1.160156,0.623047 0.300969,0.58201 0.236117,0.98068 -0.236328,1.453125 -0.478971,0.478971 -1.066488,0.564992 -1.546875,0.228516 -1.036128,-0.725732 -0.609291,-2.304688 0.623047,-2.304688 z m 7.185547,0.0039 c 1.198487,0.01 1.694614,1.402307 0.775391,2.175782 -0.559952,0.471168 -1.147882,0.436102 -1.6875,-0.103516 -0.472444,-0.472445 -0.535344,-0.871115 -0.234375,-1.453125 0.237759,-0.459775 0.541175,-0.624186 1.146484,-0.619141 z m -49.648437,0.002 c 1.22023,0 1.730968,1.389483 0.798828,2.173828 -0.242272,0.203858 -0.532365,0.320312 -0.798828,0.320312 -0.266464,0 -0.556557,-0.116454 -0.798829,-0.320312 -0.93214,-0.784345 -0.421401,-2.173834 0.798829,-2.173828 z M 28.402344,73.11137 c 0.514059,0 1.183594,0.734888 1.183594,1.298828 0,0.782809 -0.946619,1.505817 -1.625,1.242188 -0.103125,-0.04008 -0.342187,-0.216417 -0.53125,-0.392578 C 26.625177,74.5102 27.258346,73.11137 28.402344,73.11137 Z m 42.367187,0 c 1.45261,0 1.837651,1.993299 0.484375,2.507813 -0.364872,0.138724 -0.515225,0.137172 -0.86914,-0.0059 -0.423723,-0.171203 -0.798829,-0.742919 -0.798828,-1.21875 0,-0.548896 0.677441,-1.283203 1.183593,-1.283203 z m 7.085938,0.03906 c 0.19522,-0.0031 0.395863,0.04132 0.58789,0.140625 0.38924,0.201284 0.767564,0.758862 0.767579,1.132812 0,0.403385 -0.401221,0.96129 -0.816407,1.134766 -0.532283,0.222402 -0.53075,0.222742 -1.05664,-0.04102 -0.537015,-0.26934 -0.780563,-0.709921 -0.699219,-1.267578 0.09556,-0.655144 0.631137,-1.090263 1.216797,-1.099609 z m 14.326172,0 c 0.624831,0.05081 1.279297,0.660548 1.279297,1.273437 0,0.403385 -0.401221,0.96129 -0.816407,1.134766 -0.510447,0.213278 -0.517031,0.212688 -1.019531,-0.0059 -1.125439,-0.489487 -0.922316,-2.145612 0.292969,-2.388672 0.08609,-0.01722 0.17441,-0.02093 0.263672,-0.01367 z m -56.923829,0.0098 c 0.517298,-0.05461 1.046642,0.221706 1.28125,0.783203 0.442257,1.058465 -0.605825,2.081994 -1.65625,1.617188 C 34.056579,75.194943 33.8371,74.301396 34.40625,73.625 c 0.236245,-0.280761 0.541184,-0.432076 0.851562,-0.464844 z m 14.25,0 c 0.517298,-0.05461 1.046642,0.221706 1.28125,0.783203 0.442257,1.058465 -0.605826,2.081994 -1.65625,1.617188 C 48.306579,75.194943 48.0871,74.301396 48.65625,73.625 c 0.236245,-0.280761 0.541187,-0.432076 0.851562,-0.464844 z m 35.710938,0.0039 c 0.279562,0.04566 0.548773,0.196098 0.773438,0.445313 0.610241,0.676925 0.385647,1.591238 -0.480469,1.953125 -0.503016,0.210173 -0.507559,0.210467 -1.023438,-0.01367 -0.887678,-0.385678 -0.952486,-1.675215 -0.109375,-2.203125 0.269201,-0.168559 0.560282,-0.227297 0.839844,-0.181641 z m -42.695312,0.0098 c 0.484639,0 0.635218,0.05949 0.884765,0.34961 0.165431,0.192323 0.336726,0.494054 0.380859,0.669921 0.12153,0.48421 -0.250992,1.149071 -0.763671,1.363282 -0.518863,0.216795 -0.522258,0.216219 -1.033203,-0.0059 -0.485394,-0.21099 -0.851805,-0.889549 -0.734376,-1.357422 0.04414,-0.175867 0.215428,-0.477596 0.38086,-0.669921 0.249547,-0.290116 0.400126,-0.34961 0.884766,-0.34961 z m 7.058593,26.550781 c 0.466423,-0.0014 0.938841,0.275779 1.199219,0.779299 0.592328,1.14544 -1.030054,2.31607 -1.984375,1.43164 -0.594404,-0.55088 -0.594404,-1.34562 0,-1.89649 0.228723,-0.211844 0.505303,-0.313594 0.785156,-0.314449 z m 42.535157,0 c 0.28896,-0.01051 0.578756,0.115479 0.86914,0.374999 1.087982,0.97211 -0.143083,2.6393 -1.472656,1.99414 -0.340927,-0.16543 -0.677734,-0.74663 -0.677734,-1.16992 0,-0.21655 0.150706,-0.4886 0.423828,-0.76172 0.280211,-0.280277 0.568461,-0.426988 0.857422,-0.437499 z m -56.761719,0.002 c 0.479396,0.0059 0.956763,0.296479 1.169922,0.806639 0.222049,0.53144 0.102171,1.02065 -0.339844,1.39258 -0.49661,0.41787 -1.193536,0.42063 -1.638672,0.008 -0.593297,-0.55084 -0.594035,-1.344 0,-1.89453 0.232768,-0.215607 0.520956,-0.316031 0.808594,-0.312499 z m -7.142578,0.002 c 0.08939,-0.0096 0.179669,-0.0097 0.267578,0 0.586059,0.06492 1.105469,0.546019 1.105469,1.257819 0,1.13888 -1.329575,1.68994 -2.134766,0.88476 -0.514525,-0.51453 -0.514525,-1.25501 0,-1.76954 0.226459,-0.226342 0.493549,-0.344367 0.761719,-0.373039 z m 42.5,0 c 0.08939,-0.0096 0.179669,-0.0097 0.267578,0 0.586059,0.06492 1.105469,0.546019 1.105469,1.257819 0,1.13888 -1.329575,1.68994 -2.134766,0.88476 -0.514525,-0.51453 -0.514525,-1.25501 0,-1.76954 0.226459,-0.226324 0.493549,-0.344367 0.761719,-0.373039 z m 14.248047,0.0059 c 0.08718,-0.0083 0.174479,-0.0084 0.261718,0.002 0.232638,0.02766 0.459616,0.124264 0.652344,0.302729 1.26424,1.17166 -0.405918,2.98453 -1.691406,1.83594 -0.33547,-0.29974 -0.404297,-0.45372 -0.404297,-0.88867 0,-0.69772 0.571395,-1.194128 1.181641,-1.251952 z m -42.4375,0.002 c 0.587105,0 1.170549,0.529579 1.269531,1.152339 0.06563,0.41292 0.02389,0.51518 -0.367188,0.90625 -0.61391,0.61392 -1.19273,0.61392 -1.80664,0 -0.391076,-0.39107 -0.430864,-0.49333 -0.365235,-0.90625 0.09898,-0.62276 0.682426,-1.152339 1.269532,-1.152339 z m 35.429687,0.0078 c 0.271336,0.02478 0.544721,0.142321 0.783203,0.355469 1.110197,0.99196 -0.198181,2.69093 -1.511719,1.96289 -0.60863,-0.33733 -0.797999,-1.08296 -0.43164,-1.70312 0.262221,-0.44423 0.70793,-0.656545 1.160156,-0.615239 z M 49.458984,126.29102 c 0.08652,-0.0121 0.174288,-0.0116 0.265625,0 0.121784,0.0154 0.249662,0.0529 0.384766,0.10937 0.946659,0.39554 1.052125,1.68991 0.181641,2.2207 -0.42103,0.25673 -0.734128,0.28775 -1.15625,0.11719 -0.809093,-0.32691 -1.044345,-1.40097 -0.439454,-2.00586 0.260152,-0.26015 0.504102,-0.40507 0.763672,-0.4414 z m 28.333985,0 c 0.450564,-0.0325 0.921025,0.19473 1.173828,0.60937 0.293507,0.48137 0.304663,0.73145 0.05469,1.21484 -0.291513,0.56373 -1.00038,0.86299 -1.560546,0.65821 -1.042958,-0.38126 -1.107349,-1.84223 -0.103516,-2.36133 0.1374,-0.071 0.285359,-0.11025 0.435547,-0.12109 z m 14.25,0 c 0.450564,-0.0325 0.921025,0.19473 1.173828,0.60937 0.293507,0.48137 0.304663,0.73145 0.05469,1.21484 -0.291513,0.56373 -1.000369,0.86299 -1.560546,0.65821 -1.042958,-0.38126 -1.107349,-1.84223 -0.103516,-2.36133 0.1374,-0.071 0.285359,-0.11025 0.435547,-0.12109 z m -56.53711,0.002 c 0.403361,0.0795 0.833362,0.38544 1.015625,0.76953 0.482497,1.01679 -0.578435,2.10338 -1.636718,1.67578 -0.422444,-0.17068 -0.798828,-0.74197 -0.798828,-1.21484 0,-0.49222 0.508426,-1.09632 1.035156,-1.22852 0.118305,-0.0297 0.250312,-0.0285 0.384765,-0.002 z m 49.601563,0.006 c 0.591334,0.006 1.094448,0.44492 1.1875,1.13867 0.05919,0.4413 0.01857,0.5688 -0.289063,0.91016 -0.460861,0.5114 -1.08058,0.62136 -1.617187,0.28515 -0.88308,-0.55328 -0.824823,-1.73073 0.109375,-2.18945 0.204866,-0.1006 0.412264,-0.14668 0.609375,-0.14453 z m -42.523438,0.004 c 1.018701,0.0436 1.670085,1.37883 0.830078,2.16797 -0.3263,0.30654 -1.008784,0.44448 -1.390624,0.2793 -1.064043,-0.46027 -0.996702,-2.01775 0.103515,-2.38086 0.157218,-0.0519 0.311503,-0.0726 0.457031,-0.0664 z m -14.248046,0.002 c 0.697168,0 1.25,0.56834 1.25,1.28515 0,0.90024 -1.044027,1.54957 -1.8125,1.12696 -0.768617,-0.42269 -0.918733,-1.34266 -0.326172,-2.00586 0.299743,-0.33547 0.453727,-0.40625 0.888672,-0.40625 z m 42.482421,0 c 1.308608,0 1.791459,1.77409 0.644532,2.36719 -0.404339,0.20909 -0.68229,0.22632 -1.078125,0.0664 -0.810729,-0.32757 -1.034181,-1.35953 -0.4375,-2.02734 0.295879,-0.33114 0.456488,-0.40625 0.871093,-0.40625 z m -35.455078,26.55469 c 0.480516,-0.0357 0.934136,0.25683 1.177735,0.83984 0.519182,1.24258 -1.124158,2.26255 -2.089844,1.29687 -0.528353,-0.52836 -0.50599,-1.14245 0.06055,-1.70898 0.266002,-0.266 0.563253,-0.40634 0.851562,-0.42773 z m 14.199219,0.002 c 0.277965,-0.0323 0.55541,0.0513 0.810547,0.25195 0.982001,0.77244 0.494321,2.24805 -0.742188,2.24805 -0.371556,0 -0.628895,-0.0847 -0.857421,-0.28125 -0.220751,-0.18988 -0.350697,-0.45267 -0.398438,-0.8086 -0.06443,-0.48035 -0.03239,-0.56722 0.369141,-0.96875 0.260589,-0.26059 0.540394,-0.40912 0.818359,-0.4414 z m 35.527344,0 c 0.2792,0.028 0.562852,0.16832 0.820312,0.42578 0.472445,0.47245 0.537297,0.86916 0.236328,1.45117 -0.238352,0.46093 -0.5389,0.62305 -1.160156,0.62305 -0.360962,0 -0.576144,-0.086 -0.8125,-0.32227 -0.426555,-0.42656 -0.530639,-0.93543 -0.285156,-1.41015 0.284265,-0.54971 0.735838,-0.81432 1.201172,-0.76758 z m -42.566406,0.004 c 0.273637,0 0.547447,0.10489 0.798828,0.31641 0.93214,0.78434 0.421402,2.17383 -0.798828,2.17383 -0.287529,0 -0.614257,-0.0907 -0.767579,-0.21485 -0.67078,-0.54335 -0.684153,-1.4096 -0.03125,-1.95898 0.251381,-0.21152 0.52519,-0.31641 0.798829,-0.31641 z m -14.212891,0.0117 c 0.684529,-0.008 1.275389,0.54041 1.275391,1.26172 0,1.11154 -1.341579,1.6506 -2.134766,0.85742 -0.690423,-0.69043 -0.379834,-1.84405 0.560547,-2.08007 0.100152,-0.0251 0.201038,-0.0378 0.298828,-0.0391 z m 42.404297,0.002 c 0.140267,-0.0129 0.288862,-0.002 0.443359,0.0371 0.940381,0.23602 1.252922,1.38964 0.5625,2.08007 -0.514525,0.51452 -1.255007,0.51452 -1.769531,0 -0.783943,-0.78394 -0.218198,-2.02663 0.763672,-2.11718 z m 7.152344,0.002 c 0.279032,-0.008 0.569532,0.0815 0.830078,0.30078 0.932392,0.78455 0.420948,2.17632 -0.798828,2.17383 -0.275003,-5.6e-4 -0.598445,-0.0589 -0.71875,-0.12891 -0.120314,-0.0701 -0.308761,-0.30053 -0.417969,-0.51172 -0.468477,-0.90593 0.268371,-1.80909 1.105469,-1.83398 z m 14.25,0 c 0.279032,-0.008 0.569532,0.0815 0.830078,0.30078 0.932392,0.78455 0.420951,2.17632 -0.798828,2.17383 -0.275003,-5.6e-4 -0.598439,-0.0589 -0.71875,-0.12891 -0.120314,-0.0701 -0.308761,-0.30053 -0.417969,-0.51172 -0.468477,-0.90593 0.268371,-1.80909 1.105469,-1.83398 z m -63.78125,26.60547 c 1.293126,0 1.760876,1.72417 0.626953,2.31055 -0.454025,0.23478 -0.838862,0.2331 -1.279297,-0.006 -1.106212,-0.60032 -0.623953,-2.30469 0.652344,-2.30469 z m 7.044921,0 c 0.419164,0 0.601956,0.073 0.855469,0.34375 0.436173,0.46586 0.518788,0.80922 0.3125,1.30273 -0.230209,0.55074 -0.476738,0.73743 -1.080078,0.81836 -0.451785,0.0606 -0.547232,0.0231 -0.958984,-0.38867 -0.418391,-0.41839 -0.449551,-0.50332 -0.384766,-0.98633 0.0948,-0.70677 0.535748,-1.08984 1.255859,-1.08984 z m 14.298829,0 c 0.36755,0 0.56265,0.0832 0.80664,0.34375 0.436173,0.46586 0.518788,0.80922 0.3125,1.30273 -0.230209,0.55074 -0.476738,0.73743 -1.080078,0.81836 -0.449254,0.0603 -0.546289,0.0221 -0.941406,-0.37305 -0.488934,-0.48893 -0.555956,-0.88088 -0.251953,-1.46874 0.237746,-0.45976 0.539303,-0.62305 1.154297,-0.62305 z m -7.15625,0.006 c 1.22023,0 1.730968,1.38948 0.798828,2.17383 -0.242272,0.20385 -0.532365,0.32031 -0.798828,0.32031 -0.266464,0 -0.556557,-0.11646 -0.798829,-0.32031 -0.93214,-0.78435 -0.421401,-2.17383 0.798829,-2.17383 z m 33.746093,1.74219 c 0.201447,-0.003 0.398128,0.0377 0.572266,0.13085 0.282888,0.15139 0.619132,0.75311 0.619141,1.10938 0,0.97185 -1.198414,1.61046 -1.986329,1.05859 -0.375178,-0.26279 -0.634799,-0.89056 -0.550781,-1.33008 0.105964,-0.5543 0.741364,-0.95852 1.345703,-0.96874 z m 9,0 c 0.201447,-0.003 0.398128,0.0377 0.572266,0.13085 0.282888,0.15139 0.619137,0.75311 0.619141,1.10938 0,0.97185 -1.198414,1.61046 -1.986329,1.05859 -0.375178,-0.26279 -0.634799,-0.89056 -0.550781,-1.33008 0.105964,-0.5543 0.741364,-0.95852 1.345703,-0.96874 z m -9,9 c 0.201447,-0.003 0.398128,0.0377 0.572266,0.13085 0.282888,0.15139 0.619138,0.75311 0.619141,1.10938 0,0.97185 -1.198414,1.61046 -1.986329,1.05859 -0.375178,-0.26279 -0.634799,-0.89056 -0.550781,-1.33008 0.105964,-0.5543 0.741364,-0.95852 1.345703,-0.96874 z m 9,0 c 0.201447,-0.003 0.398128,0.0377 0.572266,0.13085 0.282888,0.15139 0.619137,0.75311 0.619141,1.10938 0,0.97185 -1.198414,1.61046 -1.986329,1.05859 -0.375178,-0.26279 -0.634799,-0.89056 -0.550781,-1.33008 0.105964,-0.5543 0.741364,-0.95852 1.345703,-0.96874 z m 0,9 c 0.201447,-0.003 0.398128,0.0377 0.572266,0.13085 0.282888,0.15139 0.619137,0.75311 0.619141,1.10938 0,0.97185 -1.198414,1.61046 -1.986329,1.05859 -0.375178,-0.26279 -0.634799,-0.89056 -0.550781,-1.33008 0.105964,-0.5543 0.741364,-0.95852 1.345703,-0.96874 z m -9.123047,0.01 c 0.255721,-0.014 0.515383,0.0248 0.695313,0.12109 0.282888,0.15139 0.61914,0.75311 0.619141,1.10938 0,0.97185 -1.198414,1.61046 -1.986329,1.05859 -0.160059,-0.11211 -0.370012,-0.39336 -0.466797,-0.625 -0.151296,-0.36211 -0.151296,-0.48165 0,-0.84375 0.09678,-0.23164 0.306738,-0.51289 0.466797,-0.625 0.164502,-0.11522 0.416154,-0.18126 0.671875,-0.19531 z"
       transform="translate(-7.6293945e-6,0)"
       id="silkscreen"
       inkscape:connector-curvature="0" />
  </g>
  <g
     inkscape:groupmode="layer"
     id="layer9"
     inkscape:label="copper"
     style="display:inline">
    <g
       id="copper0"
       inkscape:label="">
      <g
         inkscape:label=""
         id="copper1">
        <path
           style="display:inline;fill:#f7bd13;fill-opacity:1"
           inkscape:connector-curvature="0"
           d="m 28.32859,50.53639 c -1.48447,0 -2.69006,-1.2056 -2.69006,-2.6901 -10e-6,-1.4845 1.20559,-2.6901 2.69006,-2.6901 1.4845,0 2.69009,1.2056 2.6901,2.6901 0,1.4845 -1.2056,2.6901 -2.6901,2.6901 z m 0,-1.3566 c 0.74538,0 1.35655,-0.5881 1.35654,-1.3335 10e-6,-0.7454 -0.61116,-1.3565 -1.35654,-1.3565 -0.74537,0 -1.35651,0.6111 -1.35652,1.3565 0,0.7454 0.61115,1.3335 1.35654,1.3335 z"
           id="D10"
           inkscape:label="" />
        <path
           style="display:inline;fill:#f7bd13;fill-opacity:1"
           inkscape:connector-curvature="0"
           d="m 35.368827,50.53639 c -1.484474,0 -2.69006,-1.2056 -2.69006,-2.6901 -1.3e-5,-1.4845 1.205586,-2.6901 2.69006,-2.6901 1.484499,0 2.690086,1.2056 2.690098,2.6901 0,1.4845 -1.205599,2.6901 -2.690098,2.6901 z m 0,-1.3566 c 0.745375,0 1.356549,-0.5881 1.356537,-1.3335 1.2e-5,-0.7454 -0.611162,-1.3565 -1.356537,-1.3565 -0.745374,0 -1.356511,0.6111 -1.356524,1.3565 0,0.7454 0.61115,1.3335 1.356537,1.3335 z"
           id="D11"
           inkscape:label="" />
        <path
           style="display:inline;fill:#f7bd13;fill-opacity:1"
           inkscape:connector-curvature="0"
           d="m 42.524313,50.53639 c -1.484474,0 -2.69006,-1.2056 -2.69006,-2.6901 -1.3e-5,-1.4845 1.205586,-2.6901 2.69006,-2.6901 1.484499,0 2.690086,1.2056 2.690098,2.6901 0,1.4845 -1.205599,2.6901 -2.690098,2.6901 z m 0,-1.3566 c 0.745375,0 1.356549,-0.5881 1.356537,-1.3335 1.2e-5,-0.7454 -0.611162,-1.3565 -1.356537,-1.3565 -0.745374,0 -1.356511,0.6111 -1.356524,1.3565 0,0.7454 0.61115,1.3335 1.356537,1.3335 z"
           id="3V3_1_1"
           inkscape:label="" />
        <path
           style="display:inline;fill:#f7bd13;fill-opacity:1"
           inkscape:connector-curvature="0"
           d="m 49.622175,50.53639 c -1.484474,0 -2.69006,-1.2056 -2.69006,-2.6901 -1.3e-5,-1.4845 1.205586,-2.6901 2.69006,-2.6901 1.484499,0 2.690086,1.2056 2.690098,2.6901 0,1.4845 -1.205599,2.6901 -2.690098,2.6901 z m 0,-1.3566 c 0.745375,0 1.356549,-0.5881 1.356537,-1.3335 1.2e-5,-0.7454 -0.611162,-1.3565 -1.356537,-1.3565 -0.745374,0 -1.356511,0.6111 -1.356524,1.3565 0,0.7454 0.61115,1.3335 1.356537,1.3335 z"
           id="GND_1_1"
           inkscape:label="" />
        <path
           style="display:inline;fill:#f7bd13;fill-opacity:1"
           inkscape:connector-curvature="0"
           d="m 28.32859,77.11117 c -1.484474,0 -2.69006,-1.2056 -2.69006,-2.6901 -1.3e-5,-1.4845 1.205586,-2.6901 2.69006,-2.6901 1.484499,0 2.690086,1.2056 2.690098,2.6901 0,1.4845 -1.205599,2.6901 -2.690098,2.6901 z m 0,-1.3566 c 0.745375,0 1.356549,-0.5881 1.356537,-1.3335 1.2e-5,-0.7454 -0.611162,-1.3565 -1.356537,-1.3565 -0.745374,0 -1.356511,0.6111 -1.356524,1.3565 0,0.7454 0.61115,1.3335 1.356537,1.3335 z"
           id="D8"
           inkscape:label="" />
        <path
           style="display:inline;fill:#f7bd13;fill-opacity:1"
           inkscape:connector-curvature="0"
           d="m 35.368826,77.11117 c -1.484474,0 -2.69006,-1.2056 -2.69006,-2.6901 -1.3e-5,-1.4845 1.205586,-2.6901 2.69006,-2.6901 1.484499,0 2.690086,1.2056 2.690098,2.6901 0,1.4845 -1.205599,2.6901 -2.690098,2.6901 z m 0,-1.3566 c 0.745375,0 1.356549,-0.5881 1.356537,-1.3335 1.2e-5,-0.7454 -0.611162,-1.3565 -1.356537,-1.3565 -0.745374,0 -1.356511,0.6111 -1.356524,1.3565 0,0.7454 0.61115,1.3335 1.356537,1.3335 z"
           id="D9"
           inkscape:label="" />
        <path
           style="display:inline;fill:#f7bd13;fill-opacity:1"
           inkscape:connector-curvature="0"
           d="m 42.524312,77.11117 c -1.484474,0 -2.69006,-1.2056 -2.69006,-2.6901 -1.3e-5,-1.4845 1.205586,-2.6901 2.69006,-2.6901 1.484499,0 2.690086,1.2056 2.690098,2.6901 0,1.4845 -1.205599,2.6901 -2.690098,2.6901 z m 0,-1.3566 c 0.745375,0 1.356549,-0.5881 1.356537,-1.3335 1.2e-5,-0.7454 -0.611162,-1.3565 -1.356537,-1.3565 -0.745374,0 -1.356511,0.6111 -1.356524,1.3565 0,0.7454 0.61115,1.3335 1.356537,1.3335 z"
           id="3V3_1_2"
           inkscape:label="" />
        <path
           style="display:inline;fill:#f7bd13;fill-opacity:1"
           inkscape:connector-curvature="0"
           d="m 49.622174,77.11117 c -1.484474,0 -2.69006,-1.2056 -2.69006,-2.6901 -1.3e-5,-1.4845 1.205586,-2.6901 2.69006,-2.6901 1.484499,0 2.690086,1.2056 2.690098,2.6901 0,1.4845 -1.205599,2.6901 -2.690098,2.6901 z m 0,-1.3566 c 0.745375,0 1.356549,-0.5881 1.356537,-1.3335 1.2e-5,-0.7454 -0.611162,-1.3565 -1.356537,-1.3565 -0.745374,0 -1.356511,0.6111 -1.356524,1.3565 0,0.7454 0.61115,1.3335 1.356537,1.3335 z"
           id="GND_1_2"
           inkscape:label="" />
        <path
           style="display:inline;fill:#f7bd13;fill-opacity:1"
           inkscape:connector-curvature="0"
           d="m 28.32859,103.68597 c -1.484474,0 -2.69006,-1.2056 -2.69006,-2.6901 -1.3e-5,-1.4845 1.205586,-2.6901 2.69006,-2.6901 1.484499,0 2.690086,1.2056 2.690098,2.6901 0,1.4845 -1.205599,2.6901 -2.690098,2.6901 z m 0,-1.3566 c 0.745375,0 1.356549,-0.5881 1.356537,-1.3335 1.2e-5,-0.7454 -0.611162,-1.3565 -1.356537,-1.3565 -0.745374,0 -1.356511,0.6111 -1.356524,1.3565 0,0.7454 0.61115,1.3335 1.356537,1.3335 z"
           id="SCL"
           inkscape:label="" />
        <path
           style="display:inline;fill:#f7bd13;fill-opacity:1"
           inkscape:connector-curvature="0"
           d="m 35.368826,103.68597 c -1.484474,0 -2.69006,-1.2056 -2.69006,-2.6901 -1.3e-5,-1.4845 1.205586,-2.6901 2.69006,-2.6901 1.484499,0 2.690086,1.2056 2.690098,2.6901 0,1.4845 -1.205599,2.6901 -2.690098,2.6901 z m 0,-1.3566 c 0.745375,0 1.356549,-0.5881 1.356537,-1.3335 1.2e-5,-0.7454 -0.611162,-1.3565 -1.356537,-1.3565 -0.745374,0 -1.356511,0.6111 -1.356524,1.3565 0,0.7454 0.61115,1.3335 1.356537,1.3335 z"
           id="SDA"
           inkscape:label="" />
        <path
           style="display:inline;fill:#f7bd13;fill-opacity:1"
           inkscape:connector-curvature="0"
           d="m 42.524312,103.68597 c -1.484474,0 -2.69006,-1.2056 -2.69006,-2.6901 -1.3e-5,-1.4845 1.205586,-2.6901 2.69006,-2.6901 1.484499,0 2.690086,1.2056 2.690098,2.6901 0,1.4845 -1.205599,2.6901 -2.690098,2.6901 z m 0,-1.3566 c 0.745375,0 1.356549,-0.5881 1.356537,-1.3335 1.2e-5,-0.7454 -0.611162,-1.3565 -1.356537,-1.3565 -0.745374,0 -1.356511,0.6111 -1.356524,1.3565 0,0.7454 0.61115,1.3335 1.356537,1.3335 z"
           id="3V3_1_3"
           inkscape:label="" />
        <path
           style="display:inline;fill:#f7bd13;fill-opacity:1"
           inkscape:connector-curvature="0"
           d="m 49.622174,103.68597 c -1.484474,0 -2.69006,-1.2056 -2.69006,-2.6901 -1.3e-5,-1.4845 1.205586,-2.6901 2.69006,-2.6901 1.484499,0 2.690086,1.2056 2.690098,2.6901 0,1.4845 -1.205599,2.6901 -2.690098,2.6901 z m 0,-1.3566 c 0.745375,0 1.356549,-0.5881 1.356537,-1.3335 1.2e-5,-0.7454 -0.611162,-1.3565 -1.356537,-1.3565 -0.745374,0 -1.356511,0.6111 -1.356524,1.3565 0,0.7454 0.61115,1.3335 1.356537,1.3335 z"
           id="GND_1_3"
           inkscape:label="" />
        <path
           style="display:inline;fill:#f7bd13;fill-opacity:1"
           inkscape:connector-curvature="0"
           d="m 28.32859,130.26078 c -1.484474,0 -2.69006,-1.2056 -2.69006,-2.6901 -1.3e-5,-1.4845 1.205586,-2.6901 2.69006,-2.6901 1.484499,0 2.690086,1.2056 2.690098,2.6901 0,1.4845 -1.205599,2.6901 -2.690098,2.6901 z m 0,-1.3566 c 0.745375,0 1.356549,-0.5881 1.356537,-1.3335 1.2e-5,-0.7454 -0.611162,-1.3565 -1.356537,-1.3565 -0.745374,0 -1.356511,0.6111 -1.356524,1.3565 0,0.7454 0.61115,1.3335 1.356537,1.3335 z"
           id="D6"
           inkscape:label="" />
        <path
           style="display:inline;fill:#f7bd13;fill-opacity:1"
           inkscape:connector-curvature="0"
           d="m 35.368826,130.26078 c -1.484474,0 -2.69006,-1.2056 -2.69006,-2.6901 -1.3e-5,-1.4845 1.205586,-2.6901 2.69006,-2.6901 1.484499,0 2.690086,1.2056 2.690098,2.6901 0,1.4845 -1.205599,2.6901 -2.690098,2.6901 z m 0,-1.3566 c 0.745375,0 1.356549,-0.5881 1.356537,-1.3335 1.2e-5,-0.7454 -0.611162,-1.3565 -1.356537,-1.3565 -0.745374,0 -1.356511,0.6111 -1.356524,1.3565 0,0.7454 0.61115,1.3335 1.356537,1.3335 z"
           id="D7"
           inkscape:label="" />
        <path
           style="display:inline;fill:#f7bd13;fill-opacity:1"
           inkscape:connector-curvature="0"
           d="m 42.524312,130.26078 c -1.484474,0 -2.69006,-1.2056 -2.69006,-2.6901 -1.3e-5,-1.4845 1.205586,-2.6901 2.69006,-2.6901 1.484499,0 2.690086,1.2056 2.690098,2.6901 0,1.4845 -1.205599,2.6901 -2.690098,2.6901 z m 0,-1.3566 c 0.745375,0 1.356549,-0.5881 1.356537,-1.3335 1.2e-5,-0.7454 -0.611162,-1.3565 -1.356537,-1.3565 -0.745374,0 -1.356511,0.6111 -1.356524,1.3565 0,0.7454 0.61115,1.3335 1.356537,1.3335 z"
           id="3V3_1_4"
           inkscape:label="" />
        <path
           style="display:inline;fill:#f7bd13;fill-opacity:1"
           inkscape:connector-curvature="0"
           d="m 49.622174,130.26078 c -1.484474,0 -2.69006,-1.2056 -2.69006,-2.6901 -1.3e-5,-1.4845 1.205586,-2.6901 2.69006,-2.6901 1.484499,0 2.690086,1.2056 2.690098,2.6901 0,1.4845 -1.205599,2.6901 -2.690098,2.6901 z m 0,-1.3566 c 0.745375,0 1.356549,-0.5881 1.356537,-1.3335 1.2e-5,-0.7454 -0.611162,-1.3565 -1.356537,-1.3565 -0.745374,0 -1.356511,0.6111 -1.356524,1.3565 0,0.7454 0.61115,1.3335 1.356537,1.3335 z"
           id="GND_1_4"
           inkscape:label="" />
        <path
           style="display:inline;fill:#f7bd13;fill-opacity:1"
           inkscape:connector-curvature="0"
           d="m 49.622174,156.83558 c -1.484474,0 -2.69006,-1.2056 -2.69006,-2.6901 -1.3e-5,-1.4845 1.205586,-2.6901 2.69006,-2.6901 1.484499,0 2.690086,1.2056 2.690098,2.6901 0,1.4845 -1.205599,2.6901 -2.690098,2.6901 z m 0,-1.3566 c 0.745375,0 1.356549,-0.5881 1.356537,-1.3335 1.2e-5,-0.7454 -0.611162,-1.3565 -1.356537,-1.3565 -0.745374,0 -1.356511,0.6111 -1.356524,1.3565 0,0.7454 0.61115,1.3335 1.356537,1.3335 z"
           id="GND_1_5"
           inkscape:label="" />
        <path
           style="display:inline;fill:#f7bd13;fill-opacity:1"
           inkscape:connector-curvature="0"
           d="m 42.524312,156.83558 c -1.484474,0 -2.69006,-1.2056 -2.69006,-2.6901 -1.3e-5,-1.4845 1.205586,-2.6901 2.69006,-2.6901 1.484499,0 2.690086,1.2056 2.690098,2.6901 0,1.4845 -1.205599,2.6901 -2.690098,2.6901 z m 0,-1.3566 c 0.745375,0 1.356549,-0.5881 1.356537,-1.3335 1.2e-5,-0.7454 -0.611162,-1.3565 -1.356537,-1.3565 -0.745374,0 -1.356511,0.6111 -1.356524,1.3565 0,0.7454 0.61115,1.3335 1.356537,1.3335 z"
           id="3V3_1_5"
           inkscape:label="" />
        <path
           style="display:inline;fill:#f7bd13;fill-opacity:1"
           inkscape:connector-curvature="0"
           d="m 35.368826,156.83558 c -1.484474,0 -2.69006,-1.2056 -2.69006,-2.6901 -1.3e-5,-1.4845 1.205586,-2.6901 2.69006,-2.6901 1.484499,0 2.690086,1.2056 2.690098,2.6901 0,1.4845 -1.205599,2.6901 -2.690098,2.6901 z m 0,-1.3566 c 0.745375,0 1.356549,-0.5881 1.356537,-1.3335 1.2e-5,-0.7454 -0.611162,-1.3565 -1.356537,-1.3565 -0.745374,0 -1.356511,0.6111 -1.356524,1.3565 0,0.7454 0.61115,1.3335 1.356537,1.3335 z"
           id="D5"
           inkscape:label="" />
        <path
           style="display:inline;fill:#f7bd13;fill-opacity:1"
           inkscape:connector-curvature="0"
           d="m 28.32859,156.83558 c -1.484474,0 -2.69006,-1.2056 -2.69006,-2.6901 -1.3e-5,-1.4845 1.205586,-2.6901 2.69006,-2.6901 1.484499,0 2.690086,1.2056 2.690098,2.6901 0,1.4845 -1.205599,2.6901 -2.690098,2.6901 z m 0,-1.3566 c 0.745375,0 1.356549,-0.5881 1.356537,-1.3335 1.2e-5,-0.7454 -0.611162,-1.3565 -1.356537,-1.3565 -0.745374,0 -1.356511,0.6111 -1.356524,1.3565 0,0.7454 0.61115,1.3335 1.356537,1.3335 z"
           id="D4"
           inkscape:label="" />
        <path
           style="display:inline;fill:#f7bd13;fill-opacity:1"
           inkscape:connector-curvature="0"
           d="m 28.32859,183.40971 c -1.484474,0 -2.69006,-1.2056 -2.69006,-2.6901 -1.3e-5,-1.4845 1.205586,-2.6901 2.69006,-2.6901 1.484499,0 2.690086,1.2056 2.690098,2.6901 0,1.4845 -1.205599,2.6901 -2.690098,2.6901 z m 0,-1.3566 c 0.745375,0 1.356549,-0.5881 1.356537,-1.3335 1.2e-5,-0.7454 -0.611162,-1.3565 -1.356537,-1.3565 -0.745374,0 -1.356511,0.6111 -1.356524,1.3565 0,0.7454 0.61115,1.3335 1.356537,1.3335 z"
           id="RXD0"
           inkscape:label="" />
        <path
           style="display:inline;fill:#f7bd13;fill-opacity:1"
           inkscape:connector-curvature="0"
           d="m 35.368826,183.40971 c -1.484474,0 -2.69006,-1.2056 -2.69006,-2.6901 -1.3e-5,-1.4845 1.205586,-2.6901 2.69006,-2.6901 1.484499,0 2.690086,1.2056 2.690098,2.6901 0,1.4845 -1.205599,2.6901 -2.690098,2.6901 z m 0,-1.3566 c 0.745375,0 1.356549,-0.5881 1.356537,-1.3335 1.2e-5,-0.7454 -0.611162,-1.3565 -1.356537,-1.3565 -0.745374,0 -1.356511,0.6111 -1.356524,1.3565 0,0.7454 0.61115,1.3335 1.356537,1.3335 z"
           id="TXD0"
           inkscape:label="" />
        <path
           style="display:inline;fill:#f7bd13;fill-opacity:1"
           inkscape:connector-curvature="0"
           d="m 42.524312,183.40971 c -1.484474,0 -2.69006,-1.2056 -2.69006,-2.6901 -1.3e-5,-1.4845 1.205586,-2.6901 2.69006,-2.6901 1.484499,0 2.690086,1.2056 2.690098,2.6901 0,1.4845 -1.205599,2.6901 -2.690098,2.6901 z m 0,-1.3566 c 0.745375,0 1.356549,-0.5881 1.356537,-1.3335 1.2e-5,-0.7454 -0.611162,-1.3565 -1.356537,-1.3565 -0.745374,0 -1.356511,0.6111 -1.356524,1.3565 0,0.7454 0.61115,1.3335 1.356537,1.3335 z"
           id="3V3_1_6"
           inkscape:label="" />
        <path
           style="display:inline;fill:#f7bd13;fill-opacity:1"
           inkscape:connector-curvature="0"
           d="m 49.622174,183.40971 c -1.484474,0 -2.69006,-1.2056 -2.69006,-2.6901 -1.3e-5,-1.4845 1.205586,-2.6901 2.69006,-2.6901 1.484499,0 2.690086,1.2056 2.690098,2.6901 0,1.4845 -1.205599,2.6901 -2.690098,2.6901 z m 0,-1.3566 c 0.745375,0 1.356549,-0.5881 1.356537,-1.3335 1.2e-5,-0.7454 -0.611162,-1.3565 -1.356537,-1.3565 -0.745374,0 -1.356511,0.6111 -1.356524,1.3565 0,0.7454 0.61115,1.3335 1.356537,1.3335 z"
           id="GND_1_6"
           inkscape:label="" />
        <path
           style="display:inline;fill:#f7bd13;fill-opacity:1"
           inkscape:connector-curvature="0"
           d="m 70.849261,156.8356 c -1.484474,0 -2.69006,-1.2056 -2.69006,-2.6901 -1.3e-5,-1.4845 1.205586,-2.6901 2.69006,-2.6901 1.484499,0 2.690086,1.2056 2.690098,2.6901 0,1.4845 -1.205599,2.6901 -2.690098,2.6901 z m 0,-1.3566 c 0.745375,0 1.356549,-0.5881 1.356537,-1.3335 1.2e-5,-0.7454 -0.611162,-1.3565 -1.356537,-1.3565 -0.745374,0 -1.356511,0.6111 -1.356524,1.3565 0,0.7454 0.61115,1.3335 1.356537,1.3335 z"
           id="RXD1"
           inkscape:label="" />
        <path
           style="display:inline;fill:#f7bd13;fill-opacity:1"
           inkscape:connector-curvature="0"
           d="m 77.889497,156.8356 c -1.484474,0 -2.69006,-1.2056 -2.69006,-2.6901 -1.3e-5,-1.4845 1.205586,-2.6901 2.69006,-2.6901 1.484499,0 2.690086,1.2056 2.690098,2.6901 0,1.4845 -1.205599,2.6901 -2.690098,2.6901 z m 0,-1.3566 c 0.745375,0 1.356549,-0.5881 1.356537,-1.3335 1.2e-5,-0.7454 -0.611162,-1.3565 -1.356537,-1.3565 -0.745374,0 -1.356511,0.6111 -1.356524,1.3565 0,0.7454 0.61115,1.3335 1.356537,1.3335 z"
           id="TXD1"
           inkscape:label="" />
        <path
           style="display:inline;fill:#f7bd13;fill-opacity:1"
           inkscape:connector-curvature="0"
           d="m 85.044983,156.8356 c -1.484474,0 -2.69006,-1.2056 -2.69006,-2.6901 -1.3e-5,-1.4845 1.205586,-2.6901 2.69006,-2.6901 1.484499,0 2.690086,1.2056 2.690098,2.6901 0,1.4845 -1.205599,2.6901 -2.690098,2.6901 z m 0,-1.3566 c 0.745375,0 1.356549,-0.5881 1.356537,-1.3335 1.2e-5,-0.7454 -0.611162,-1.3565 -1.356537,-1.3565 -0.745374,0 -1.356511,0.6111 -1.356524,1.3565 0,0.7454 0.61115,1.3335 1.356537,1.3335 z"
           id="3V3_2_5"
           inkscape:label="" />
        <path
           style="display:inline;fill:#f7bd13;fill-opacity:1"
           inkscape:connector-curvature="0"
           d="m 92.142845,156.8356 c -1.484474,0 -2.69006,-1.2056 -2.69006,-2.6901 -1.3e-5,-1.4845 1.205586,-2.6901 2.69006,-2.6901 1.484499,0 2.690086,1.2056 2.690098,2.6901 0,1.4845 -1.205599,2.6901 -2.690098,2.6901 z m 0,-1.3566 c 0.745375,0 1.356549,-0.5881 1.356537,-1.3335 1.2e-5,-0.7454 -0.611162,-1.3565 -1.356537,-1.3565 -0.745374,0 -1.356511,0.6111 -1.356524,1.3565 0,0.7454 0.61115,1.3335 1.356537,1.3335 z"
           id="GND_2_5"
           inkscape:label="" />
        <path
           style="display:inline;fill:#f7bd13;fill-opacity:1"
           inkscape:connector-curvature="0"
           d="m 92.142805,130.26078 c -1.484474,0 -2.69006,-1.2056 -2.69006,-2.6901 -1.3e-5,-1.4845 1.205586,-2.6901 2.69006,-2.6901 1.484499,0 2.690086,1.2056 2.690098,2.6901 0,1.4845 -1.205599,2.6901 -2.690098,2.6901 z m 0,-1.3566 c 0.745375,0 1.356549,-0.5881 1.356537,-1.3335 1.2e-5,-0.7454 -0.611162,-1.3565 -1.356537,-1.3565 -0.745374,0 -1.356511,0.6111 -1.356524,1.3565 0,0.7454 0.61115,1.3335 1.356537,1.3335 z"
           id="GND_2_4"
           inkscape:label="" />
        <path
           style="display:inline;fill:#f7bd13;fill-opacity:1"
           inkscape:connector-curvature="0"
           d="m 92.142845,77.11117 c -1.484474,0 -2.690061,-1.2056 -2.690061,-2.6901 -1.3e-5,-1.4845 1.205587,-2.6901 2.690061,-2.6901 1.484499,0 2.690086,1.2056 2.690098,2.6901 0,1.4845 -1.205599,2.6901 -2.690098,2.6901 z m 0,-1.3566 c 0.745375,0 1.356549,-0.5881 1.356537,-1.3335 1.2e-5,-0.7454 -0.611162,-1.3565 -1.356537,-1.3565 -0.745374,0 -1.356511,0.6111 -1.356524,1.3565 0,0.7454 0.61115,1.3335 1.356537,1.3335 z"
           id="GND_2_2"
           inkscape:label="" />
        <path
           style="display:inline;fill:#f7bd13;fill-opacity:1"
           inkscape:connector-curvature="0"
           d="m 92.142805,50.53636 c -1.484474,0 -2.69006,-1.2056 -2.69006,-2.6901 -1.3e-5,-1.4845 1.205586,-2.6901 2.69006,-2.6901 1.484499,0 2.690086,1.2056 2.690098,2.6901 0,1.4845 -1.205599,2.6901 -2.690098,2.6901 z m 0,-1.3566 c 0.745375,0 1.356549,-0.5881 1.356537,-1.3335 1.2e-5,-0.7454 -0.611162,-1.3565 -1.356537,-1.3565 -0.745374,0 -1.356511,0.6111 -1.356524,1.3565 0,0.7454 0.61115,1.3335 1.356537,1.3335 z"
           id="GND_2_1"
           inkscape:label="" />
        <path
           style="display:inline;fill:#f7bd13;fill-opacity:1"
           inkscape:connector-curvature="0"
           d="m 85.044943,50.53636 c -1.484474,0 -2.69006,-1.2056 -2.69006,-2.6901 -1.3e-5,-1.4845 1.205586,-2.6901 2.69006,-2.6901 1.484499,0 2.690086,1.2056 2.690098,2.6901 0,1.4845 -1.205599,2.6901 -2.690098,2.6901 z m 0,-1.3566 c 0.745375,0 1.356549,-0.5881 1.356537,-1.3335 1.2e-5,-0.7454 -0.611162,-1.3565 -1.356537,-1.3565 -0.745374,0 -1.356511,0.6111 -1.356524,1.3565 0,0.7454 0.61115,1.3335 1.356537,1.3335 z"
           id="3V3_2_1"
           inkscape:label="" />
        <path
           style="display:inline;fill:#f7bd13;fill-opacity:1"
           inkscape:connector-curvature="0"
           d="m 77.889457,50.53636 c -1.484474,0 -2.69006,-1.2056 -2.69006,-2.6901 -1.3e-5,-1.4845 1.205586,-2.6901 2.69006,-2.6901 1.484499,0 2.690086,1.2056 2.690098,2.6901 0,1.4845 -1.205599,2.6901 -2.690098,2.6901 z m 0,-1.3566 c 0.745375,0 1.356549,-0.5881 1.356537,-1.3335 1.2e-5,-0.7454 -0.611162,-1.3565 -1.356537,-1.3565 -0.745374,0 -1.356511,0.6111 -1.356524,1.3565 0,0.7454 0.61115,1.3335 1.356537,1.3335 z"
           id="A1"
           inkscape:label="" />
        <path
           style="display:inline;fill:#f7bd13;fill-opacity:1"
           inkscape:connector-curvature="0"
           d="m 70.849221,50.53636 c -1.484474,0 -2.69006,-1.2056 -2.69006,-2.6901 -1.3e-5,-1.4845 1.205586,-2.6901 2.69006,-2.6901 1.484499,0 2.690086,1.2056 2.690098,2.6901 0,1.4845 -1.205599,2.6901 -2.690098,2.6901 z m 0,-1.3566 c 0.745375,0 1.356549,-0.5881 1.356537,-1.3335 1.2e-5,-0.7454 -0.611162,-1.3565 -1.356537,-1.3565 -0.745374,0 -1.356511,0.6111 -1.356524,1.3565 0,0.7454 0.61115,1.3335 1.356537,1.3335 z"
           id="D22"
           inkscape:label="" />
        <path
           style="display:inline;fill:#f7bd13;fill-opacity:1"
           inkscape:connector-curvature="0"
           d="m 70.849261,77.11117 c -1.484474,0 -2.69006,-1.2056 -2.69006,-2.6901 -1.3e-5,-1.4845 1.205586,-2.6901 2.69006,-2.6901 1.484499,0 2.690086,1.2056 2.690098,2.6901 0,1.4845 -1.205599,2.6901 -2.690098,2.6901 z m 0,-1.3566 c 0.745375,0 1.356549,-0.5881 1.356537,-1.3335 1.2e-5,-0.7454 -0.611162,-1.3565 -1.356537,-1.3565 -0.745374,0 -1.356511,0.6111 -1.356524,1.3565 0,0.7454 0.61115,1.3335 1.356537,1.3335 z"
           id="A6"
           inkscape:label="" />
        <path
           style="display:inline;fill:#f7bd13;fill-opacity:1"
           inkscape:connector-curvature="0"
           d="m 77.889497,77.11117 c -1.484474,0 -2.69006,-1.2056 -2.69006,-2.6901 -1.3e-5,-1.4845 1.205586,-2.6901 2.69006,-2.6901 1.484499,0 2.690086,1.2056 2.690098,2.6901 0,1.4845 -1.205599,2.6901 -2.690098,2.6901 z m 0,-1.3566 c 0.745375,0 1.356549,-0.5881 1.356537,-1.3335 1.2e-5,-0.7454 -0.611162,-1.3565 -1.356537,-1.3565 -0.745374,0 -1.356511,0.6111 -1.356524,1.3565 0,0.7454 0.61115,1.3335 1.356537,1.3335 z"
           id="A7"
           inkscape:label="" />
        <path
           style="display:inline;fill:#f7bd13;fill-opacity:1"
           inkscape:connector-curvature="0"
           d="m 85.044983,77.11117 c -1.484474,0 -2.69006,-1.2056 -2.69006,-2.6901 -1.3e-5,-1.4845 1.205586,-2.6901 2.69006,-2.6901 1.484499,0 2.690086,1.2056 2.690098,2.6901 0,1.4845 -1.205599,2.6901 -2.690098,2.6901 z m 0,-1.3566 c 0.745375,0 1.356549,-0.5881 1.356537,-1.3335 1.2e-5,-0.7454 -0.611162,-1.3565 -1.356537,-1.3565 -0.745374,0 -1.356511,0.6111 -1.356524,1.3565 0,0.7454 0.61115,1.3335 1.356537,1.3335 z"
           id="3V3_2_2"
           inkscape:label="" />
        <path
           style="display:inline;fill:#f7bd13;fill-opacity:1"
           inkscape:connector-curvature="0"
           d="m 92.142805,103.68597 c -1.484474,0 -2.69006,-1.2056 -2.69006,-2.6901 -1.3e-5,-1.484498 1.205586,-2.690098 2.69006,-2.690098 1.484499,0 2.690086,1.2056 2.690098,2.690098 0,1.4845 -1.205599,2.6901 -2.690098,2.6901 z m 0,-1.3566 c 0.745375,0 1.356549,-0.5881 1.356537,-1.3335 1.2e-5,-0.7454 -0.611162,-1.356498 -1.356537,-1.356498 -0.745374,0 -1.356511,0.611098 -1.356524,1.356498 0,0.7454 0.61115,1.3335 1.356537,1.3335 z"
           id="GND_2_3"
           inkscape:label="" />
        <path
           style="display:inline;fill:#f7bd13;fill-opacity:1"
           inkscape:connector-curvature="0"
           d="m 85.044943,103.68597 c -1.484474,0 -2.69006,-1.2056 -2.69006,-2.6901 -1.3e-5,-1.484498 1.205586,-2.690098 2.69006,-2.690098 1.484499,0 2.690086,1.2056 2.690098,2.690098 0,1.4845 -1.205599,2.6901 -2.690098,2.6901 z m 0,-1.3566 c 0.745375,0 1.356549,-0.5881 1.356537,-1.3335 1.2e-5,-0.7454 -0.611162,-1.356498 -1.356537,-1.356498 -0.745374,0 -1.356511,0.611098 -1.356524,1.356498 0,0.7454 0.61115,1.3335 1.356537,1.3335 z"
           id="3V3_2_3"
           inkscape:label="" />
        <path
           style="display:inline;fill:#f7bd13;fill-opacity:1"
           inkscape:connector-curvature="0"
           d="m 77.889457,103.68597 c -1.484474,0 -2.69006,-1.2056 -2.69006,-2.6901 -1.3e-5,-1.4845 1.205586,-2.6901 2.69006,-2.6901 1.484499,0 2.690086,1.2056 2.690098,2.6901 0,1.4845 -1.205599,2.6901 -2.690098,2.6901 z m 0,-1.3566 c 0.745375,0 1.356549,-0.5881 1.356537,-1.3335 1.2e-5,-0.7454 -0.611162,-1.3565 -1.356537,-1.3565 -0.745374,0 -1.356511,0.6111 -1.356524,1.3565 0,0.7454 0.61115,1.3335 1.356537,1.3335 z"
           id="A5"
           inkscape:label="" />
        <path
           style="display:inline;fill:#f7bd13;fill-opacity:1"
           inkscape:connector-curvature="0"
           d="m 70.849221,103.68597 c -1.484474,0 -2.69006,-1.2056 -2.69006,-2.6901 -1.3e-5,-1.484499 1.205586,-2.690101 2.69006,-2.690101 1.484499,0 2.690086,1.205602 2.690098,2.690101 0,1.4845 -1.205599,2.6901 -2.690098,2.6901 z m 0,-1.3566 c 0.745375,0 1.356549,-0.5881 1.356537,-1.3335 1.2e-5,-0.7454 -0.611162,-1.356499 -1.356537,-1.356499 -0.745374,0 -1.356511,0.611099 -1.356524,1.356499 0,0.7454 0.61115,1.3335 1.356537,1.3335 z"
           id="A4"
           inkscape:label="" />
        <path
           style="display:inline;fill:#f7bd13;fill-opacity:1"
           inkscape:connector-curvature="0"
           d="m 70.849221,130.26078 c -1.484474,0 -2.69006,-1.2056 -2.69006,-2.6901 -1.3e-5,-1.4845 1.205586,-2.6901 2.69006,-2.6901 1.484499,0 2.690086,1.2056 2.690098,2.6901 0,1.4845 -1.205599,2.6901 -2.690098,2.6901 z m 0,-1.3566 c 0.745375,0 1.356549,-0.5881 1.356537,-1.3335 1.2e-5,-0.7454 -0.611162,-1.3565 -1.356537,-1.3565 -0.745374,0 -1.356511,0.6111 -1.356524,1.3565 0,0.7454 0.61115,1.3335 1.356537,1.3335 z"
           id="A2"
           inkscape:label="" />
        <path
           style="display:inline;fill:#f7bd13;fill-opacity:1"
           inkscape:connector-curvature="0"
           d="m 77.889457,130.26078 c -1.484474,0 -2.69006,-1.2056 -2.69006,-2.6901 -1.3e-5,-1.4845 1.205586,-2.6901 2.69006,-2.6901 1.484499,0 2.690086,1.2056 2.690098,2.6901 0,1.4845 -1.205599,2.6901 -2.690098,2.6901 z m 0,-1.3566 c 0.745375,0 1.356549,-0.5881 1.356537,-1.3335 1.2e-5,-0.7454 -0.611162,-1.3565 -1.356537,-1.3565 -0.745374,0 -1.356511,0.6111 -1.356524,1.3565 0,0.7454 0.61115,1.3335 1.356537,1.3335 z"
           id="A3"
           inkscape:label="" />
        <path
           style="display:inline;fill:#f7bd13;fill-opacity:1"
           inkscape:connector-curvature="0"
           d="m 85.044943,130.26078 c -1.484474,0 -2.69006,-1.2056 -2.69006,-2.6901 -1.3e-5,-1.4845 1.205586,-2.6901 2.69006,-2.6901 1.484499,0 2.690086,1.2056 2.690098,2.6901 0,1.4845 -1.205599,2.6901 -2.690098,2.6901 z m 0,-1.3566 c 0.745375,0 1.356549,-0.5881 1.356537,-1.3335 1.2e-5,-0.7454 -0.611162,-1.3565 -1.356537,-1.3565 -0.745374,0 -1.356511,0.6111 -1.356524,1.3565 0,0.7454 0.61115,1.3335 1.356537,1.3335 z"
           id="3V3_2_4"
           inkscape:label="" />
        <path
           style="display:inline;fill:#f7bd13;fill-opacity:1"
           inkscape:connector-curvature="0"
           d="m 76.181067,185.17051 c -1.484474,0 -2.69006,-1.2056 -2.69006,-2.6901 -1.3e-5,-1.4845 1.205586,-2.6901 2.69006,-2.6901 1.484499,0 2.690086,1.2056 2.690098,2.6901 0,1.4845 -1.205599,2.6901 -2.690098,2.6901 z m 0,-1.3566 c 0.745375,0 1.356549,-0.5881 1.356537,-1.3335 1.2e-5,-0.7454 -0.611162,-1.3565 -1.356537,-1.3565 -0.745374,0 -1.356511,0.6111 -1.356524,1.3565 0,0.7454 0.61115,1.3335 1.356537,1.3335 z"
           id="MISO_ICSP"
           inkscape:label="" />
        <path
           style="display:inline;fill:#f7bd13;fill-opacity:1"
           inkscape:connector-curvature="0"
           d="m 85.180149,185.17041 c -1.484474,0 -2.69006,-1.2056 -2.69006,-2.6901 -1.3e-5,-1.4845 1.205586,-2.6901 2.69006,-2.6901 1.484499,0 2.690086,1.2056 2.690098,2.6901 0,1.4845 -1.205599,2.6901 -2.690098,2.6901 z m 0,-1.3566 c 0.745375,0 1.356549,-0.5881 1.356537,-1.3335 1.2e-5,-0.7454 -0.611162,-1.3565 -1.356537,-1.3565 -0.745374,0 -1.356511,0.6111 -1.356524,1.3565 0,0.7454 0.61115,1.3335 1.356537,1.3335 z"
           id="3V3_ICSP"
           inkscape:label="" />
        <path
           style="display:inline;fill:#f7bd13;fill-opacity:1"
           inkscape:connector-curvature="0"
           d="m 85.180149,194.17296 c -1.484474,0 -2.69006,-1.2056 -2.69006,-2.6901 -1.3e-5,-1.4845 1.205586,-2.6901 2.69006,-2.6901 1.484499,0 2.690086,1.2056 2.690098,2.6901 0,1.4845 -1.205599,2.6901 -2.690098,2.6901 z m 0,-1.3566 c 0.745375,0 1.356549,-0.5881 1.356537,-1.3335 1.2e-5,-0.7454 -0.611162,-1.3565 -1.356537,-1.3565 -0.745374,0 -1.356511,0.6111 -1.356524,1.3565 0,0.7454 0.61115,1.3335 1.356537,1.3335 z"
           id="MOSI_ICSP"
           inkscape:label="" />
        <path
           style="display:inline;fill:#f7bd13;fill-opacity:1"
           inkscape:connector-curvature="0"
           d="m 85.180149,203.17546 c -1.484474,0 -2.690061,-1.2056 -2.690061,-2.6901 -1.3e-5,-1.4845 1.205587,-2.6901 2.690061,-2.6901 1.484499,0 2.690086,1.2056 2.690098,2.6901 0,1.4845 -1.205599,2.6901 -2.690098,2.6901 z m 0,-1.3566 c 0.745375,0 1.356549,-0.5881 1.356537,-1.3335 1.2e-5,-0.7454 -0.611162,-1.3565 -1.356537,-1.3565 -0.745374,0 -1.356511,0.6111 -1.356524,1.3565 0,0.7454 0.61115,1.3335 1.356537,1.3335 z"
           id="GND_ICSP"
           inkscape:label="" />
        <path
           style="display:inline;fill:#f7bd13;fill-opacity:1"
           inkscape:connector-curvature="0"
           d="m 76.181087,203.17546 c -1.484474,0 -2.690061,-1.2056 -2.690061,-2.6901 -1.3e-5,-1.4845 1.205587,-2.6901 2.690061,-2.6901 1.484499,0 2.690086,1.2056 2.690098,2.6901 0,1.4845 -1.205599,2.6901 -2.690098,2.6901 z m 0,-1.3566 c 0.745375,0 1.356549,-0.5881 1.356537,-1.3335 1.2e-5,-0.7454 -0.611162,-1.3565 -1.356537,-1.3565 -0.745374,0 -1.356511,0.6111 -1.356524,1.3565 0,0.7454 0.61115,1.3335 1.356537,1.3335 z"
           id="RESET_ICSP"
           inkscape:label="" />
        <path
           style="display:inline;fill:#f7bd13;fill-opacity:1"
           inkscape:connector-curvature="0"
           d="m 76.181087,194.17296 c -1.484474,0 -2.690061,-1.2056 -2.690061,-2.6901 -1.3e-5,-1.4845 1.205587,-2.6901 2.690061,-2.6901 1.484499,0 2.690086,1.2056 2.690098,2.6901 0,1.4845 -1.205599,2.6901 -2.690098,2.6901 z m 0,-1.3566 c 0.745375,0 1.356549,-0.5881 1.356537,-1.3335 1.2e-5,-0.7454 -0.611162,-1.3565 -1.356537,-1.3565 -0.745374,0 -1.356511,0.6111 -1.356524,1.3565 0,0.7454 0.61115,1.3335 1.356537,1.3335 z"
           id="SCK_ICSP"
           inkscape:label="" />
      </g>
    </g>
  </g>
</svg>
