<?xml version="1.0" encoding="UTF-8" standalone="no"?>
<svg
   xmlns:dc="http://purl.org/dc/elements/1.1/"
   xmlns:cc="http://creativecommons.org/ns#"
   xmlns:rdf="http://www.w3.org/1999/02/22-rdf-syntax-ns#"
   xmlns:svg="http://www.w3.org/2000/svg"
   xmlns="http://www.w3.org/2000/svg"
   xmlns:sodipodi="http://sodipodi.sourceforge.net/DTD/sodipodi-0.dtd"
   xmlns:inkscape="http://www.inkscape.org/namespaces/inkscape"
   width="44mm"
   version="1.1"
   height="45mm"
   id="svg2"
   inkscape:version="0.91 r13725"
   sodipodi:docname="Grove_OLED_96x96_PCB.svg">
  <defs
     id="defs56" />
  <sodipodi:namedview
     pagecolor="#ffffff"
     bordercolor="#666666"
     borderopacity="1"
     objecttolerance="10"
     gridtolerance="10"
     guidetolerance="10"
     inkscape:pageopacity="0"
     inkscape:pageshadow="2"
     inkscape:window-width="1920"
     inkscape:window-height="1017"
     id="namedview54"
     showgrid="true"
     units="mm"
     inkscape:snap-center="true"
     inkscape:snap-object-midpoints="true"
     inkscape:snap-bbox="true"
     inkscape:snap-bbox-midpoints="true"
     showguides="true"
     inkscape:guide-bbox="true"
     inkscape:bbox-nodes="true"
     inkscape:snap-bbox-edge-midpoints="true"
     inkscape:zoom="4.1204247"
     inkscape:cx="20.874057"
     inkscape:cy="61.142651"
     inkscape:window-x="-8"
     inkscape:window-y="1072"
     inkscape:window-maximized="1"
     inkscape:current-layer="layer1"
     inkscape:snap-grids="false"
     inkscape:snap-to-guides="false"
     inkscape:snap-midpoints="true"
     inkscape:snap-smooth-nodes="true"
     inkscape:object-nodes="true"
     inkscape:snap-intersection-paths="true"
     inkscape:snap-nodes="false"
     inkscape:object-paths="true"
     inkscape:snap-others="true"
     inkscape:snap-global="true"
     inkscape:snap-text-baseline="false">
    <inkscape:grid
       type="xygrid"
       id="grid4747"
       units="mm"
       spacingx="3.5433071"
       spacingy="3.5433071"
       empcolor="#000000"
       empopacity="0.25098039"
       empspacing="2" />
    <sodipodi:guide
       position="77.952756,-6.8644068"
       orientation="1,0"
       id="guide4261"
       inkscape:label=""
       inkscape:color="rgb(0,0,255)" />
  </sodipodi:namedview>
  <metadata
     id="metadata13579">
    <rdf:RDF>
      <cc:Work
         rdf:about="">
        <dc:format>image/svg+xml</dc:format>
        <dc:type
           rdf:resource="http://purl.org/dc/dcmitype/StillImage" />
        <dc:title></dc:title>
      </cc:Work>
    </rdf:RDF>
  </metadata>
  <g
     inkscape:groupmode="layer"
     id="layer1"
     inkscape:label="silkscreen"
     style="display:inline"
     transform="translate(0,67.322835)"
     sodipodi:insensitive="true">
    <path
       style="display:inline;fill:none;stroke:#000000;stroke-opacity:1"
       d="m 113.41211,1.4628906 c -3.09966,0 -5.625,2.525342 -5.625,5.625 l -29.812501,0 -29.8125,0 c 0,3.0996604 -2.52535,5.5937504 -5.625,5.5937504 -3.09966,0 -5.59375,-2.49409 -5.59375,-5.5937504 l -26.9999996,0 c -1.570395,0 -2.8125,1.242107 -2.8125,2.8125 l 0,27.0000004 c -3.099659,0 -5.625,2.525341 -5.625,5.625 0,3.099659 2.525341,5.59375 5.625,5.59375 l 0,29.8125 c 0,1.570394 0,29.812499 0,29.812499 3.0996596,0 5.5937496,2.52534 5.5937496,5.625 0,3.09966 -2.49409,5.59375 -5.5937496,5.59375 l 0,27 c 0,1.57039 1.2421,2.8125 2.8125,2.8125 l 26.9999996,0 c 0,3.09966 2.49409,5.625 5.59375,5.625 3.09966,0 5.625,-2.52534 5.625,-5.625 l 29.8125,0 29.812501,0 c 0,-3.09966 2.52534,-5.59375 5.625,-5.59375 3.09966,0 5.59375,2.49409 5.59375,5.59375 l 27,0 c 1.57039,0 2.8125,-1.24211 2.8125,-2.8125 l 0,-27 c 3.09966,0 5.625,-2.49409 5.625,-5.59375 0,-3.09966 -2.52534,-5.625 -5.625,-5.625 l 0,-29.812499 c 0,-1.570393 0,-29.8125 0,-29.8125 -3.09966,0 -5.59375,-2.494091 -5.59375,-5.59375 0,-3.099658 2.49409,-5.625 5.59375,-5.625 l 0,-27.0000004 c 0,-1.570394 -1.2421,-2.8125 -2.8125,-2.8125 l -27,0 c 0,-3.099658 -2.49409,-5.625 -5.59375,-5.625 z m 0,2.375 c 1.79454,0 3.25,1.455462 3.25,3.25 0,1.794542 -1.45546,3.2500004 -3.25,3.2500004 -1.79454,0 -3.25,-1.4554584 -3.25,-3.2500004 0,-1.794538 1.45546,-3.25 3.25,-3.25 z M 7.1308594,39.275391 c 1.794539,0 3.2187496,1.455461 3.2187496,3.25 0,1.794539 -1.4242106,3.25 -3.2187496,3.25 -1.794539,0 -3.25,-1.455461 -3.25,-3.25 0,-1.794539 1.455461,-3.25 3.25,-3.25 z M 148.81836,110.11914 c 1.79454,0 3.25,1.45546 3.25,3.25 0,1.79454 -1.45546,3.25 -3.25,3.25 -1.79454,0 -3.21875,-1.45546 -3.21875,-3.25 0,-1.79454 1.42421,-3.25 3.21875,-3.25 z m -106.281251,35.4375 c 1.79454,0 3.25,1.42421 3.25,3.21875 0,1.79454 -1.45546,3.25 -3.25,3.25 -1.79454,0 -3.25,-1.45546 -3.25,-3.25 0,-1.79454 1.45546,-3.21875 3.25,-3.21875 z"
       transform="translate(0,-67.322835)"
       id="silkscreen"
       inkscape:connector-curvature="0"
       sodipodi:nodetypes="scccscsscscccscsscscccscsscscccscsscsssssssssssssssssssss"
       inkscape:label="" />
  </g>
  <g
     inkscape:groupmode="layer"
     id="layer4"
     inkscape:label="copper"
     style="display:inline"
     transform="translate(0,67.322835)"
     sodipodi:insensitive="true">
    <g
       id="copper0"
       inkscape:label="">
      <g
         inkscape:label=""
         id="copper1">
        <path
           style="fill:#f7bd13;fill-opacity:1;stroke:none;stroke-width:0.72000003;stroke-linecap:round;stroke-linejoin:round;stroke-miterlimit:4;stroke-dasharray:none;stroke-opacity:1"
           d="m 25.646246,21.260299 a 2.7,2.7 0 0 0 2.701171,2.701172 2.7,2.7 0 0 0 2.699219,-2.701172 2.7,2.7 0 0 0 -2.699219,-2.699219 2.7,2.7 0 0 0 -2.701171,2.699219 z m 1.351562,0 a 1.35,1.35 0 0 1 1.349609,-1.34961 1.35,1.35 0 0 1 1.34961,1.34961 1.35,1.35 0 0 1 -1.34961,1.351562 1.35,1.35 0 0 1 -1.349609,-1.351562 z"
           id="connector1pin"
           inkscape:connector-curvature="0"
           inkscape:label="" />
        <path
           style="fill:#f7bd13;fill-opacity:1;stroke:none;stroke-width:0.72000003;stroke-linecap:round;stroke-linejoin:round;stroke-miterlimit:4;stroke-dasharray:none;stroke-opacity:1"
           d="m 25.646262,14.172249 a 2.7,2.7 0 0 0 2.701171,2.701172 2.7,2.7 0 0 0 2.699219,-2.701172 2.7,2.7 0 0 0 -2.699219,-2.699219 2.7,2.7 0 0 0 -2.701171,2.699219 z m 1.351562,0 a 1.35,1.35 0 0 1 1.349609,-1.34961 1.35,1.35 0 0 1 1.34961,1.34961 1.35,1.35 0 0 1 -1.34961,1.351562 1.35,1.35 0 0 1 -1.349609,-1.351562 z"
           id="connector2pin"
           inkscape:connector-curvature="0"
           inkscape:label="" />
        <path
           style="fill:#f7bd13;fill-opacity:1;stroke:none;stroke-width:0.72000003;stroke-linecap:round;stroke-linejoin:round;stroke-miterlimit:4;stroke-dasharray:none;stroke-opacity:1"
           d="m 25.646261,7.0856339 a 2.7,2.7 0 0 0 2.701172,2.701172 2.7,2.7 0 0 0 2.699219,-2.701172 2.7,2.7 0 0 0 -2.699219,-2.699219 2.7,2.7 0 0 0 -2.701172,2.699219 z m 1.351563,0 a 1.35,1.35 0 0 1 1.349609,-1.34961 1.35,1.35 0 0 1 1.34961,1.34961 1.35,1.35 0 0 1 -1.34961,1.351562 1.35,1.35 0 0 1 -1.349609,-1.351562 z"
           id="connector3pin"
           inkscape:connector-curvature="0"
           inkscape:label="" />
        <path
           style="fill:#f7bd13;fill-opacity:1;stroke:none;stroke-width:0.72000003;stroke-linecap:round;stroke-linejoin:round;stroke-miterlimit:4;stroke-dasharray:none;stroke-opacity:1"
           d="M 25.646262,-9.7962388e-4 A 2.7,2.7 0 0 0 28.347433,2.7001924 2.7,2.7 0 0 0 31.046652,-9.7962388e-4 2.7,2.7 0 0 0 28.347433,-2.7001986 2.7,2.7 0 0 0 25.646262,-9.7962388e-4 Z m 1.351562,0 A 1.35,1.35 0 0 1 28.347433,-1.3505896 1.35,1.35 0 0 1 29.697043,-9.7962388e-4 1.35,1.35 0 0 1 28.347433,1.3505824 1.35,1.35 0 0 1 26.997824,-9.7962388e-4 Z"
           id="connector4pin"
           inkscape:connector-curvature="0"
           inkscape:label="" />
      </g>
    </g>
  </g>
</svg>
