<?xml version="1.0" encoding="UTF-8" standalone="no"?>
<!-- Created with Inkscape (http://www.inkscape.org/) -->

<svg
   xmlns:dc="http://purl.org/dc/elements/1.1/"
   xmlns:cc="http://creativecommons.org/ns#"
   xmlns:rdf="http://www.w3.org/1999/02/22-rdf-syntax-ns#"
   xmlns:svg="http://www.w3.org/2000/svg"
   xmlns="http://www.w3.org/2000/svg"
   xmlns:sodipodi="http://sodipodi.sourceforge.net/DTD/sodipodi-0.dtd"
   xmlns:inkscape="http://www.inkscape.org/namespaces/inkscape"
   width="1.4in"
   height="2.5999999in"
   viewBox="0 0 126 233.99999"
   id="svg2"
   version="1.1"
   inkscape:version="0.91 r13725"
   sodipodi:docname="Autonomo_front_PCB.svg">
  <defs
     id="defs4" />
  <sodipodi:namedview
     id="base"
     pagecolor="#ffffff"
     bordercolor="#666666"
     borderopacity="1.0"
     inkscape:pageopacity="0.0"
     inkscape:pageshadow="2"
     inkscape:zoom="3.1091957"
     inkscape:cx="33.039798"
     inkscape:cy="123.96785"
     inkscape:document-units="mm"
     inkscape:current-layer="layer2"
     showgrid="true"
     showguides="true"
     inkscape:guide-bbox="true"
     inkscape:snap-nodes="false"
     inkscape:object-paths="true"
     inkscape:snap-intersection-paths="true"
     inkscape:object-nodes="true"
     inkscape:snap-smooth-nodes="true"
     inkscape:snap-midpoints="true"
     inkscape:snap-bbox="true"
     inkscape:snap-bbox-midpoints="true"
     inkscape:snap-bbox-edge-midpoints="false"
     inkscape:bbox-nodes="false"
     inkscape:window-width="1920"
     inkscape:window-height="1017"
     inkscape:window-x="-8"
     inkscape:window-y="-8"
     inkscape:window-maximized="1"
     inkscape:snap-grids="false"
     inkscape:snap-to-guides="false"
     inkscape:snap-center="false"
     inkscape:snap-object-midpoints="true"
     inkscape:snap-others="true"
     units="in">
    <inkscape:grid
       type="xygrid"
       id="grid4136"
       units="in"
       spacingx="9.0000006"
       spacingy="9.0000005"
       empspacing="2"
       empcolor="#000000"
       empopacity="0.25098039" />
    <sodipodi:guide
       position="9.0000006,82.336411"
       orientation="1,0"
       id="guide5445"
       inkscape:label=""
       inkscape:color="rgb(255,0,87)" />
    <sodipodi:guide
       position="117.00001,-9.0000005"
       orientation="1,0"
       id="guide5447"
       inkscape:label=""
       inkscape:color="rgb(255,0,12)" />
  </sodipodi:namedview>
  <metadata
     id="metadata7">
    <rdf:RDF>
      <cc:Work
         rdf:about="">
        <dc:format>image/svg+xml</dc:format>
        <dc:type
           rdf:resource="http://purl.org/dc/dcmitype/StillImage" />
        <dc:title></dc:title>
      </cc:Work>
    </rdf:RDF>
  </metadata>
  <g
     inkscape:groupmode="layer"
     id="layer3"
     inkscape:label="silkscreen"
     style="display:inline"
     transform="translate(0,21.401561)"
     sodipodi:insensitive="true">
    <path
       style="fill:none;fill-opacity:1;stroke:#000000;stroke-width:1.00000012;stroke-linecap:round;stroke-linejoin:miter;stroke-miterlimit:4;stroke-dasharray:none;stroke-opacity:1"
       d="m 67.677734,-3.6447766 c -7.086532,0 -3.897758,12.402344 -10.984375,12.402344 l -46.064453,0 c -3.9259221,0 -7.0859373,3.1600586 -7.0859372,7.0859366 l 0,180.708986 c 0,3.926 3.1600151,7.08594 7.0859372,7.08594 l 104.669924,0 c 3.92596,0 7.08594,-3.15994 7.08594,-7.08594 l 0,-180.708986 c 0,-3.925878 -3.15998,-7.0859366 -7.08594,-7.0859366 l -9,0 c -6.850889,1e-5 -3.89777,-12.402344 -10.984377,-12.402344 z"
       id="silkscreen"
       inkscape:connector-curvature="0"
       inkscape:label=""
       sodipodi:nodetypes="sssssssssssss" />
  </g>
  <g
     inkscape:groupmode="layer"
     id="layer2"
     inkscape:label="copper"
     style="display:inline"
     transform="translate(0,21.401561)"
     sodipodi:insensitive="true">
    <g
       id="copper0"
       inkscape:label=""
       transform="translate(0,-8.9592296)">
      <g
         inkscape:label=""
         id="copper1">
        <rect
           style="display:inline;fill:#f7bd13;fill-opacity:1;stroke:none;stroke-width:1;stroke-linecap:round;stroke-linejoin:miter;stroke-miterlimit:4;stroke-dasharray:none;stroke-opacity:1"
           id="connector61pin"
           width="1.8000002"
           height="1.8000002"
           x="90.374008"
           y="120.05237"
           inkscape:label="" />
        <rect
           style="display:inline;fill:#f7bd13;fill-opacity:1;stroke:none;stroke-width:1;stroke-linecap:round;stroke-linejoin:miter;stroke-miterlimit:4;stroke-dasharray:none;stroke-opacity:1"
           id="connector64pin"
           width="1.8000002"
           height="1.8000002"
           x="94.874008"
           y="115.55237"
           inkscape:label="" />
        <rect
           style="display:inline;fill:#f7bd13;fill-opacity:1;stroke:none;stroke-width:1;stroke-linecap:round;stroke-linejoin:miter;stroke-miterlimit:4;stroke-dasharray:none;stroke-opacity:1"
           id="connector63pin"
           width="1.8000002"
           height="1.8000002"
           x="94.874008"
           y="120.05237"
           inkscape:label="" />
        <rect
           style="display:inline;fill:#f7bd13;fill-opacity:1;stroke:none;stroke-width:1;stroke-linecap:round;stroke-linejoin:miter;stroke-miterlimit:4;stroke-dasharray:none;stroke-opacity:1"
           id="connector65pin"
           width="1.8000002"
           height="1.8000002"
           x="99.37558"
           y="120.0508"
           inkscape:label="" />
        <rect
           style="display:inline;fill:#f7bd13;fill-opacity:1;stroke:none;stroke-width:1;stroke-linecap:round;stroke-linejoin:miter;stroke-miterlimit:4;stroke-dasharray:none;stroke-opacity:1"
           id="connector66pin"
           width="1.8000002"
           height="1.8000002"
           x="99.37558"
           y="115.5508"
           inkscape:label="" />
        <rect
           style="display:inline;fill:#f7bd13;fill-opacity:1;stroke:none;stroke-width:1;stroke-linecap:round;stroke-linejoin:miter;stroke-miterlimit:4;stroke-dasharray:none;stroke-opacity:1"
           id="connector68pin"
           width="1.8000002"
           height="1.8000002"
           x="103.87402"
           y="115.55237"
           inkscape:label="" />
        <rect
           style="display:inline;fill:#f7bd13;fill-opacity:1;stroke:none;stroke-width:1;stroke-linecap:round;stroke-linejoin:miter;stroke-miterlimit:4;stroke-dasharray:none;stroke-opacity:1"
           id="connector70pin"
           width="1.8000002"
           height="1.8000002"
           x="108.37558"
           y="115.5508"
           inkscape:label="" />
        <rect
           style="display:inline;fill:#f7bd13;fill-opacity:1;stroke:none;stroke-width:1;stroke-linecap:round;stroke-linejoin:miter;stroke-miterlimit:4;stroke-dasharray:none;stroke-opacity:1"
           id="connector69pin"
           width="1.8000002"
           height="1.8000002"
           x="108.37558"
           y="120.0508"
           inkscape:label="" />
        <rect
           style="display:inline;fill:#f7bd13;fill-opacity:1;stroke:none;stroke-width:1;stroke-linecap:round;stroke-linejoin:miter;stroke-miterlimit:4;stroke-dasharray:none;stroke-opacity:1"
           id="connector67pin"
           width="1.8000002"
           height="1.8000002"
           x="103.87559"
           y="120.0508"
           inkscape:label="" />
        <path
           style="display:inline;fill:#f7bd13;fill-opacity:1;stroke:none"
           inkscape:connector-curvature="0"
           d="m 117.00003,47.98592 c 1.48447,0 2.69006,1.2056 2.69006,2.6901 1e-5,1.4845 -1.20559,2.6901 -2.69006,2.6901 -1.4845,0 -2.69009,-1.2056 -2.6901,-2.6901 0,-1.4845 1.2056,-2.6901 2.6901,-2.6901 z m 0,1.3566 c -0.74538,0 -1.35655,0.5881 -1.35654,1.3335 -1e-5,0.7454 0.61116,1.3565 1.35654,1.3565 0.74537,0 1.35651,-0.6111 1.35652,-1.3565 0,-0.7454 -0.61115,-1.3335 -1.35653,-1.3335 z"
           id="connector38pin"
           inkscape:label="" />
        <path
           style="display:inline;fill:#f7bd13;fill-opacity:1;stroke:none"
           inkscape:connector-curvature="0"
           d="m 117.00003,38.98592 c 1.48447,0 2.69006,1.2056 2.69006,2.6901 1e-5,1.4845 -1.20559,2.6901 -2.69006,2.6901 -1.4845,0 -2.69009,-1.2056 -2.6901,-2.6901 0,-1.4845 1.2056,-2.6901 2.6901,-2.6901 z m 0,1.3566 c -0.74538,0 -1.35655,0.5881 -1.35654,1.3335 -1e-5,0.7454 0.61116,1.3565 1.35654,1.3565 0.74537,0 1.35651,-0.6111 1.35652,-1.3565 0,-0.7454 -0.61115,-1.3335 -1.35653,-1.3335 z"
           id="connector39pin"
           inkscape:label="" />
        <path
           style="display:inline;fill:#f7bd13;fill-opacity:1;stroke:none"
           inkscape:connector-curvature="0"
           d="m 117.00003,56.98592 c 1.48447,0 2.69006,1.2056 2.69006,2.6901 1e-5,1.4845 -1.20559,2.6901 -2.69006,2.6901 -1.4845,0 -2.69009,-1.2056 -2.6901,-2.6901 0,-1.4845 1.2056,-2.6901 2.6901,-2.6901 z m 0,1.3566 c -0.74538,0 -1.35655,0.5881 -1.35654,1.3335 -1e-5,0.7454 0.61116,1.3565 1.35654,1.3565 0.74537,0 1.35651,-0.6111 1.35652,-1.3565 0,-0.7454 -0.61115,-1.3335 -1.35653,-1.3335 z"
           id="connector37pin"
           inkscape:label="" />
        <path
           style="display:inline;fill:#f7bd13;fill-opacity:1;stroke:none"
           inkscape:connector-curvature="0"
           d="m 117.00003,65.98592 c 1.48447,0 2.69006,1.2056 2.69006,2.6901 1e-5,1.4845 -1.20559,2.6901 -2.69006,2.6901 -1.4845,0 -2.69009,-1.2056 -2.6901,-2.6901 0,-1.4845 1.2056,-2.6901 2.6901,-2.6901 z m 0,1.3566 c -0.74538,0 -1.35655,0.5881 -1.35654,1.3335 -1e-5,0.7454 0.61116,1.3565 1.35654,1.3565 0.74537,0 1.35651,-0.6111 1.35652,-1.3565 0,-0.7454 -0.61115,-1.3335 -1.35653,-1.3335 z"
           id="connector36pin"
           inkscape:label="" />
        <path
           style="display:inline;fill:#f7bd13;fill-opacity:1;stroke:none"
           inkscape:connector-curvature="0"
           d="m 117.00003,74.98592 c 1.48447,0 2.69006,1.2056 2.69006,2.6901 1e-5,1.4845 -1.20559,2.6901 -2.69006,2.6901 -1.4845,0 -2.69009,-1.2056 -2.6901,-2.6901 0,-1.4845 1.2056,-2.6901 2.6901,-2.6901 z m 0,1.3566 c -0.74538,0 -1.35655,0.5881 -1.35654,1.3335 -1e-5,0.7454 0.61116,1.3565 1.35654,1.3565 0.74537,0 1.35651,-0.6111 1.35652,-1.3565 0,-0.7454 -0.61115,-1.3335 -1.35653,-1.3335 z"
           id="connector35pin"
           inkscape:label="" />
        <path
           style="display:inline;fill:#f7bd13;fill-opacity:1;stroke:none"
           inkscape:connector-curvature="0"
           d="m 117.00003,83.98592 c 1.48447,0 2.69006,1.2056 2.69006,2.6901 1e-5,1.4845 -1.20559,2.6901 -2.69006,2.6901 -1.4845,0 -2.69009,-1.2056 -2.6901,-2.6901 0,-1.4845 1.2056,-2.6901 2.6901,-2.6901 z m 0,1.3566 c -0.74538,0 -1.35655,0.5881 -1.35654,1.3335 -1e-5,0.7454 0.61116,1.3565 1.35654,1.3565 0.74537,0 1.35651,-0.6111 1.35652,-1.3565 0,-0.7454 -0.61115,-1.3335 -1.35653,-1.3335 z"
           id="connector34pin"
           inkscape:label="" />
        <path
           style="display:inline;fill:#f7bd13;fill-opacity:1;stroke:none"
           inkscape:connector-curvature="0"
           d="m 117.00003,92.98592 c 1.48447,0 2.69006,1.2056 2.69006,2.6901 1e-5,1.4845 -1.20559,2.6901 -2.69006,2.6901 -1.4845,0 -2.69009,-1.2056 -2.6901,-2.6901 0,-1.4845 1.2056,-2.6901 2.6901,-2.6901 z m 0,1.3566 c -0.74538,0 -1.35655,0.5881 -1.35654,1.3335 -1e-5,0.7454 0.61116,1.3565 1.35654,1.3565 0.74537,0 1.35651,-0.6111 1.35652,-1.3565 0,-0.7454 -0.61115,-1.3335 -1.35653,-1.3335 z"
           id="connector33pin"
           inkscape:label="" />
        <path
           style="display:inline;fill:#f7bd13;fill-opacity:1;stroke:none"
           inkscape:connector-curvature="0"
           d="m 117.00003,101.98592 c 1.48447,0 2.69006,1.2056 2.69006,2.6901 1e-5,1.4845 -1.20559,2.6901 -2.69006,2.6901 -1.4845,0 -2.69009,-1.2056 -2.6901,-2.6901 0,-1.4845 1.2056,-2.6901 2.6901,-2.6901 z m 0,1.3566 c -0.74538,0 -1.35655,0.5881 -1.35654,1.3335 -1e-5,0.7454 0.61116,1.3565 1.35654,1.3565 0.74537,0 1.35651,-0.6111 1.35652,-1.3565 0,-0.7454 -0.61115,-1.3335 -1.35653,-1.3335 z"
           id="connector32pin"
           inkscape:label="" />
        <path
           style="display:inline;fill:#f7bd13;fill-opacity:1;stroke:none"
           inkscape:connector-curvature="0"
           d="m 117.00003,110.98592 c 1.48447,0 2.69006,1.2056 2.69006,2.6901 1e-5,1.4845 -1.20559,2.6901 -2.69006,2.6901 -1.4845,0 -2.69009,-1.2056 -2.6901,-2.6901 0,-1.4845 1.2056,-2.6901 2.6901,-2.6901 z m 0,1.3566 c -0.74538,0 -1.35655,0.5881 -1.35654,1.3335 -1e-5,0.7454 0.61116,1.3565 1.35654,1.3565 0.74537,0 1.35651,-0.6111 1.35652,-1.3565 0,-0.7454 -0.61115,-1.3335 -1.35653,-1.3335 z"
           id="connector31pin"
           inkscape:label="" />
        <path
           style="display:inline;fill:#f7bd13;fill-opacity:1;stroke:none"
           inkscape:connector-curvature="0"
           d="m 117.00003,119.98592 c 1.48447,0 2.69006,1.2056 2.69006,2.6901 1e-5,1.4845 -1.20559,2.6901 -2.69006,2.6901 -1.4845,0 -2.69009,-1.2056 -2.6901,-2.6901 0,-1.4845 1.2056,-2.6901 2.6901,-2.6901 z m 0,1.3566 c -0.74538,0 -1.35655,0.5881 -1.35654,1.3335 -1e-5,0.7454 0.61116,1.3565 1.35654,1.3565 0.74537,0 1.35651,-0.6111 1.35652,-1.3565 0,-0.7454 -0.61115,-1.3335 -1.35653,-1.3335 z"
           id="connector30pin"
           inkscape:label="" />
        <path
           style="display:inline;fill:#f7bd13;fill-opacity:1;stroke:none"
           inkscape:connector-curvature="0"
           d="m 117.00003,128.98592 c 1.48447,0 2.69006,1.2056 2.69006,2.6901 1e-5,1.4845 -1.20559,2.6901 -2.69006,2.6901 -1.4845,0 -2.69009,-1.2056 -2.6901,-2.6901 0,-1.4845 1.2056,-2.6901 2.6901,-2.6901 z m 0,1.3566 c -0.74538,0 -1.35655,0.5881 -1.35654,1.3335 -1e-5,0.7454 0.61116,1.3565 1.35654,1.3565 0.74537,0 1.35651,-0.6111 1.35652,-1.3565 0,-0.7454 -0.61115,-1.3335 -1.35653,-1.3335 z"
           id="connector29pin"
           inkscape:label="" />
        <path
           style="display:inline;fill:#f7bd13;fill-opacity:1;stroke:none"
           inkscape:connector-curvature="0"
           d="m 117.00003,137.98592 c 1.48447,0 2.69006,1.2056 2.69006,2.6901 1e-5,1.4845 -1.20559,2.6901 -2.69006,2.6901 -1.4845,0 -2.69009,-1.2056 -2.6901,-2.6901 0,-1.4845 1.2056,-2.6901 2.6901,-2.6901 z m 0,1.3566 c -0.74538,0 -1.35655,0.5881 -1.35654,1.3335 -1e-5,0.7454 0.61116,1.3565 1.35654,1.3565 0.74537,0 1.35651,-0.6111 1.35652,-1.3565 0,-0.7454 -0.61115,-1.3335 -1.35653,-1.3335 z"
           id="connector28pin"
           inkscape:label="" />
        <path
           style="display:inline;fill:#f7bd13;fill-opacity:1;stroke:none"
           inkscape:connector-curvature="0"
           d="m 117.00003,146.98592 c 1.48447,0 2.69006,1.2056 2.69006,2.6901 1e-5,1.4845 -1.20559,2.6901 -2.69006,2.6901 -1.4845,0 -2.69009,-1.2056 -2.6901,-2.6901 0,-1.4845 1.2056,-2.6901 2.6901,-2.6901 z m 0,1.3566 c -0.74538,0 -1.35655,0.5881 -1.35654,1.3335 -1e-5,0.7454 0.61116,1.3565 1.35654,1.3565 0.74537,0 1.35651,-0.6111 1.35652,-1.3565 0,-0.7454 -0.61115,-1.3335 -1.35653,-1.3335 z"
           id="connector27pin"
           inkscape:label="" />
        <path
           style="display:inline;fill:#f7bd13;fill-opacity:1;stroke:none"
           inkscape:connector-curvature="0"
           d="m 117.00003,155.98592 c 1.48447,0 2.69006,1.2056 2.69006,2.6901 1e-5,1.4845 -1.20559,2.6901 -2.69006,2.6901 -1.4845,0 -2.69009,-1.2056 -2.6901,-2.6901 0,-1.4845 1.2056,-2.6901 2.6901,-2.6901 z m 0,1.3566 c -0.74538,0 -1.35655,0.5881 -1.35654,1.3335 -1e-5,0.7454 0.61116,1.3565 1.35654,1.3565 0.74537,0 1.35651,-0.6111 1.35652,-1.3565 0,-0.7454 -0.61115,-1.3335 -1.35653,-1.3335 z"
           id="connector26pin"
           inkscape:label="" />
        <path
           style="display:inline;fill:#f7bd13;fill-opacity:1;stroke:none"
           inkscape:connector-curvature="0"
           d="m 117.00003,164.98593 c 1.48447,0 2.69006,1.2056 2.69006,2.6901 1e-5,1.4845 -1.20559,2.6901 -2.69006,2.6901 -1.4845,0 -2.69009,-1.2056 -2.6901,-2.6901 0,-1.4845 1.2056,-2.6901 2.6901,-2.6901 z m 0,1.3566 c -0.74538,0 -1.35655,0.5881 -1.35654,1.3335 -1e-5,0.7454 0.61116,1.3565 1.35654,1.3565 0.74537,0 1.35651,-0.6111 1.35652,-1.3565 0,-0.7454 -0.61115,-1.3335 -1.35653,-1.3335 z"
           id="connector25pin"
           inkscape:label="" />
        <path
           style="display:inline;fill:#f7bd13;fill-opacity:1;stroke:none"
           inkscape:connector-curvature="0"
           d="m 117.00003,173.98593 c 1.48447,0 2.69006,1.2056 2.69006,2.6901 1e-5,1.4845 -1.20559,2.6901 -2.69006,2.6901 -1.4845,0 -2.69009,-1.2056 -2.6901,-2.6901 0,-1.4845 1.2056,-2.6901 2.6901,-2.6901 z m 0,1.3566 c -0.74538,0 -1.35655,0.5881 -1.35654,1.3335 -1e-5,0.7454 0.61116,1.3565 1.35654,1.3565 0.74537,0 1.35651,-0.6111 1.35652,-1.3565 0,-0.7454 -0.61115,-1.3335 -1.35653,-1.3335 z"
           id="connector24pin"
           inkscape:label="" />
        <path
           style="display:inline;fill:#f7bd13;fill-opacity:1;stroke:none"
           inkscape:connector-curvature="0"
           d="m 117.00003,182.98593 c 1.48447,0 2.69006,1.2056 2.69006,2.6901 1e-5,1.4845 -1.20559,2.6901 -2.69006,2.6901 -1.4845,0 -2.69009,-1.2056 -2.6901,-2.6901 0,-1.4845 1.2056,-2.6901 2.6901,-2.6901 z m 0,1.3566 c -0.74538,0 -1.35655,0.5881 -1.35654,1.3335 -1e-5,0.7454 0.61116,1.3565 1.35654,1.3565 0.74537,0 1.35651,-0.6111 1.35652,-1.3565 0,-0.7454 -0.61115,-1.3335 -1.35653,-1.3335 z"
           id="connector23pin"
           inkscape:label="" />
        <path
           style="display:inline;fill:#f7bd13;fill-opacity:1;stroke:none"
           inkscape:connector-curvature="0"
           d="m 117.00003,191.98593 c 1.48447,0 2.69006,1.2056 2.69006,2.6901 1e-5,1.4845 -1.20559,2.6901 -2.69006,2.6901 -1.4845,0 -2.69009,-1.2056 -2.6901,-2.6901 0,-1.4845 1.2056,-2.6901 2.6901,-2.6901 z m 0,1.3566 c -0.74538,0 -1.35655,0.5881 -1.35654,1.3335 -1e-5,0.7454 0.61116,1.3565 1.35654,1.3565 0.74537,0 1.35651,-0.6111 1.35652,-1.3565 0,-0.7454 -0.61115,-1.3335 -1.35653,-1.3335 z"
           id="connector22pin"
           inkscape:label="" />
        <path
           style="display:inline;fill:#f7bd13;fill-opacity:1;stroke:none"
           inkscape:connector-curvature="0"
           d="m 117.00003,29.908327 c 1.48447,0 2.69006,1.2056 2.69006,2.6901 1e-5,1.4845 -1.20559,2.6901 -2.69006,2.6901 -1.4845,0 -2.69009,-1.2056 -2.6901,-2.6901 0,-1.4845 1.2056,-2.6901 2.6901,-2.6901 z m 0,1.3566 c -0.74538,0 -1.35655,0.5881 -1.35654,1.3335 -1e-5,0.7454 0.61116,1.3565 1.35654,1.3565 0.74537,0 1.35651,-0.6111 1.35652,-1.3565 0,-0.7454 -0.61115,-1.3335 -1.35653,-1.3335 z"
           id="connector40pin"
           inkscape:label="" />
        <path
           style="display:inline;fill:#f7bd13;fill-opacity:1;stroke:none"
           inkscape:connector-curvature="0"
           d="m 119.81151,200.76304 0,5.5354 -5.5115,0 0,-5.5354 5.5115,0 z m -2.75575,1.3658 c -0.77686,0 -1.41382,0.613 -1.41382,1.3899 0,0.7769 0.63696,1.4138 1.41382,1.4138 0.77685,0 1.41382,-0.6369 1.41382,-1.4138 0,-0.7769 -0.63697,-1.3899 -1.41386,-1.3898 z"
           id="connector21pin"
           inkscape:label="" />
        <path
           style="display:inline;fill:#f7bd13;fill-opacity:1;stroke:none"
           inkscape:connector-curvature="0"
           d="m 9.0000234,47.918227 c 1.4844746,0 2.6900606,1.2056 2.6900606,2.6901 1.3e-5,1.4845 -1.205586,2.6901 -2.6900606,2.6901 -1.4844994,0 -2.6900864,-1.2056 -2.6900984,-2.6901 0,-1.4845 1.205599,-2.6901 2.6900984,-2.6901 z m 0,1.3566 c -0.745375,0 -1.3565494,0.5881 -1.3565374,1.3335 -1.2e-5,0.7454 0.6111624,1.3565 1.3565374,1.3565 0.7453741,0 1.3565116,-0.6111 1.3565246,-1.3565 0,-0.7454 -0.6111505,-1.3335 -1.3565376,-1.3335 z"
           id="connector18pin"
           inkscape:label="" />
        <path
           style="display:inline;fill:#f7bd13;fill-opacity:1;stroke:none"
           inkscape:connector-curvature="0"
           d="m 9.0000234,38.918227 c 1.4844746,0 2.6900606,1.2056 2.6900606,2.6901 1.3e-5,1.4845 -1.205586,2.6901 -2.6900606,2.6901 -1.4844994,0 -2.6900864,-1.2056 -2.6900984,-2.6901 0,-1.4845 1.205599,-2.6901 2.6900984,-2.6901 z m 0,1.3566 c -0.745375,0 -1.3565494,0.5881 -1.3565374,1.3335 -1.2e-5,0.7454 0.6111624,1.3565 1.3565374,1.3565 0.7453741,0 1.3565116,-0.6111 1.3565246,-1.3565 0,-0.7454 -0.6111505,-1.3335 -1.3565376,-1.3335 z"
           id="connector19pin"
           inkscape:label="" />
        <path
           style="display:inline;fill:#f7bd13;fill-opacity:1;stroke:none"
           inkscape:connector-curvature="0"
           d="m 9.0000234,56.918227 c 1.4844746,0 2.6900606,1.2056 2.6900606,2.6901 1.3e-5,1.4845 -1.205586,2.6901 -2.6900606,2.6901 -1.4844994,0 -2.6900864,-1.2056 -2.6900984,-2.6901 0,-1.4845 1.205599,-2.6901 2.6900984,-2.6901 z m 0,1.3566 c -0.745375,0 -1.3565494,0.5881 -1.3565374,1.3335 -1.2e-5,0.7454 0.6111624,1.3565 1.3565374,1.3565 0.7453741,0 1.3565116,-0.6111 1.3565246,-1.3565 0,-0.7454 -0.6111505,-1.3335 -1.3565376,-1.3335 z"
           id="connector17pin"
           inkscape:label="" />
        <path
           style="display:inline;fill:#f7bd13;fill-opacity:1;stroke:none"
           inkscape:connector-curvature="0"
           d="m 9.0000234,65.918227 c 1.4844746,0 2.6900606,1.2056 2.6900606,2.6901 1.3e-5,1.4845 -1.205586,2.6901 -2.6900606,2.6901 -1.4844994,0 -2.6900864,-1.2056 -2.6900984,-2.6901 0,-1.4845 1.205599,-2.6901 2.6900984,-2.6901 z m 0,1.3566 c -0.745375,0 -1.3565494,0.5881 -1.3565374,1.3335 -1.2e-5,0.7454 0.6111624,1.3565 1.3565374,1.3565 0.7453741,0 1.3565116,-0.6111 1.3565246,-1.3565 0,-0.7454 -0.6111505,-1.3335 -1.3565376,-1.3335 z"
           id="connector16pin"
           inkscape:label="" />
        <path
           style="display:inline;fill:#f7bd13;fill-opacity:1;stroke:none"
           inkscape:connector-curvature="0"
           d="m 9.0000234,74.918227 c 1.4844746,0 2.6900606,1.2056 2.6900606,2.6901 1.3e-5,1.4845 -1.205586,2.6901 -2.6900606,2.6901 -1.4844994,0 -2.6900864,-1.2056 -2.6900984,-2.6901 0,-1.4845 1.205599,-2.6901 2.6900984,-2.6901 z m 0,1.3566 c -0.745375,0 -1.3565494,0.5881 -1.3565374,1.3335 -1.2e-5,0.7454 0.6111624,1.3565 1.3565374,1.3565 0.7453741,0 1.3565116,-0.6111 1.3565246,-1.3565 0,-0.7454 -0.6111505,-1.3335 -1.3565376,-1.3335 z"
           id="connector15pin"
           inkscape:label="" />
        <path
           style="display:inline;fill:#f7bd13;fill-opacity:1;stroke:none"
           inkscape:connector-curvature="0"
           d="m 9.0000234,83.918227 c 1.4844746,0 2.6900606,1.2056 2.6900606,2.6901 1.3e-5,1.4845 -1.205586,2.6901 -2.6900606,2.6901 -1.4844994,0 -2.6900864,-1.2056 -2.6900984,-2.6901 0,-1.4845 1.205599,-2.6901 2.6900984,-2.6901 z m 0,1.3566 c -0.745375,0 -1.3565494,0.5881 -1.3565374,1.3335 -1.2e-5,0.7454 0.6111624,1.3565 1.3565374,1.3565 0.7453741,0 1.3565116,-0.6111 1.3565246,-1.3565 0,-0.7454 -0.6111505,-1.3335 -1.3565376,-1.3335 z"
           id="connector14pin"
           inkscape:label="" />
        <path
           style="display:inline;fill:#f7bd13;fill-opacity:1;stroke:none"
           inkscape:connector-curvature="0"
           d="m 9.0000234,92.918227 c 1.4844746,0 2.6900606,1.2056 2.6900606,2.6901 1.3e-5,1.4845 -1.205586,2.6901 -2.6900606,2.6901 -1.4844994,0 -2.6900864,-1.2056 -2.6900984,-2.6901 0,-1.4845 1.205599,-2.6901 2.6900984,-2.6901 z m 0,1.3566 c -0.745375,0 -1.3565494,0.5881 -1.3565374,1.3335 -1.2e-5,0.7454 0.6111624,1.3565 1.3565374,1.3565 0.7453741,0 1.3565116,-0.6111 1.3565246,-1.3565 0,-0.7454 -0.6111505,-1.3335 -1.3565376,-1.3335 z"
           id="connector13pin"
           inkscape:label="" />
        <path
           style="display:inline;fill:#f7bd13;fill-opacity:1;stroke:none"
           inkscape:connector-curvature="0"
           d="m 9.0000234,101.91823 c 1.4844746,0 2.6900606,1.2056 2.6900606,2.6901 1.3e-5,1.4845 -1.205586,2.6901 -2.6900606,2.6901 -1.4844994,0 -2.6900864,-1.2056 -2.6900984,-2.6901 0,-1.4845 1.205599,-2.6901 2.6900984,-2.6901 z m 0,1.3566 c -0.745375,0 -1.3565494,0.5881 -1.3565374,1.3335 -1.2e-5,0.7454 0.6111624,1.3565 1.3565374,1.3565 0.7453741,0 1.3565116,-0.6111 1.3565246,-1.3565 0,-0.7454 -0.6111505,-1.3335 -1.3565376,-1.3335 z"
           id="connector12pin"
           inkscape:label="" />
        <path
           style="display:inline;fill:#f7bd13;fill-opacity:1;stroke:none"
           inkscape:connector-curvature="0"
           d="m 9.0000234,110.91823 c 1.4844746,0 2.6900606,1.2056 2.6900606,2.6901 1.3e-5,1.4845 -1.205586,2.6901 -2.6900606,2.6901 -1.4844994,0 -2.6900864,-1.2056 -2.6900984,-2.6901 0,-1.4845 1.205599,-2.6901 2.6900984,-2.6901 z m 0,1.3566 c -0.745375,0 -1.3565494,0.5881 -1.3565374,1.3335 -1.2e-5,0.7454 0.6111624,1.3565 1.3565374,1.3565 0.7453741,0 1.3565116,-0.6111 1.3565246,-1.3565 0,-0.7454 -0.6111505,-1.3335 -1.3565376,-1.3335 z"
           id="connector11pin"
           inkscape:label="" />
        <path
           style="display:inline;fill:#f7bd13;fill-opacity:1;stroke:none"
           inkscape:connector-curvature="0"
           d="m 9.0000234,119.91823 c 1.4844746,0 2.6900606,1.2056 2.6900606,2.6901 1.3e-5,1.4845 -1.205586,2.6901 -2.6900606,2.6901 -1.4844994,0 -2.6900864,-1.2056 -2.6900984,-2.6901 0,-1.4845 1.205599,-2.6901 2.6900984,-2.6901 z m 0,1.3566 c -0.745375,0 -1.3565494,0.5881 -1.3565374,1.3335 -1.2e-5,0.7454 0.6111624,1.3565 1.3565374,1.3565 0.7453741,0 1.3565116,-0.6111 1.3565246,-1.3565 0,-0.7454 -0.6111505,-1.3335 -1.3565376,-1.3335 z"
           id="connector10pin"
           inkscape:label="" />
        <path
           style="display:inline;fill:#f7bd13;fill-opacity:1;stroke:none"
           inkscape:connector-curvature="0"
           d="m 9.0000234,128.91823 c 1.4844746,0 2.6900606,1.2056 2.6900606,2.6901 1.3e-5,1.4845 -1.205586,2.6901 -2.6900606,2.6901 -1.4844994,0 -2.6900864,-1.2056 -2.6900984,-2.6901 0,-1.4845 1.205599,-2.6901 2.6900984,-2.6901 z m 0,1.3566 c -0.745375,0 -1.3565494,0.5881 -1.3565374,1.3335 -1.2e-5,0.7454 0.6111624,1.3565 1.3565374,1.3565 0.7453741,0 1.3565116,-0.6111 1.3565246,-1.3565 0,-0.7454 -0.6111505,-1.3335 -1.3565376,-1.3335 z"
           id="connector9pin"
           inkscape:label="" />
        <path
           style="display:inline;fill:#f7bd13;fill-opacity:1;stroke:none"
           inkscape:connector-curvature="0"
           d="m 9.0000234,137.91823 c 1.4844746,0 2.6900606,1.2056 2.6900606,2.6901 1.3e-5,1.4845 -1.205586,2.6901 -2.6900606,2.6901 -1.4844994,0 -2.6900864,-1.2056 -2.6900984,-2.6901 0,-1.4845 1.205599,-2.6901 2.6900984,-2.6901 z m 0,1.3566 c -0.745375,0 -1.3565494,0.5881 -1.3565374,1.3335 -1.2e-5,0.74541 0.6111624,1.3565 1.3565374,1.3565 0.7453741,0 1.3565116,-0.61109 1.3565246,-1.3565 0,-0.7454 -0.6111505,-1.3335 -1.3565376,-1.3335 z"
           id="connector8pin"
           inkscape:label="" />
        <path
           style="display:inline;fill:#f7bd13;fill-opacity:1;stroke:none"
           inkscape:connector-curvature="0"
           d="m 9.0000234,146.91823 c 1.4844746,0 2.6900606,1.20561 2.6900606,2.69011 1.3e-5,1.4845 -1.205586,2.6901 -2.6900606,2.6901 -1.4844994,0 -2.6900864,-1.2056 -2.6900984,-2.6901 0,-1.4845 1.205599,-2.69011 2.6900984,-2.69011 z m 0,1.35661 c -0.745375,0 -1.3565494,0.5881 -1.3565374,1.3335 -1.2e-5,0.7454 0.6111624,1.3565 1.3565374,1.3565 0.7453741,0 1.3565116,-0.6111 1.3565246,-1.3565 0,-0.7454 -0.6111505,-1.3335 -1.3565376,-1.3335 z"
           id="connector7pin"
           inkscape:label="" />
        <path
           style="display:inline;fill:#f7bd13;fill-opacity:1;stroke:none"
           inkscape:connector-curvature="0"
           d="m 9.0000234,155.91824 c 1.4844746,0 2.6900606,1.2056 2.6900606,2.6901 1.3e-5,1.4845 -1.205586,2.6901 -2.6900606,2.6901 -1.4844994,0 -2.6900864,-1.2056 -2.6900984,-2.6901 0,-1.4845 1.205599,-2.6901 2.6900984,-2.6901 z m 0,1.3566 c -0.745375,0 -1.3565494,0.5881 -1.3565374,1.3335 -1.2e-5,0.7454 0.6111624,1.3565 1.3565374,1.3565 0.7453741,0 1.3565116,-0.6111 1.3565246,-1.3565 0,-0.7454 -0.6111505,-1.3335 -1.3565376,-1.3335 z"
           id="connector6pin"
           inkscape:label="" />
        <path
           style="display:inline;fill:#f7bd13;fill-opacity:1;stroke:none"
           inkscape:connector-curvature="0"
           d="m 9.0000234,164.91824 c 1.4844746,0 2.6900606,1.2056 2.6900606,2.6901 1.3e-5,1.4845 -1.205586,2.6901 -2.6900606,2.6901 -1.4844994,0 -2.6900864,-1.2056 -2.6900984,-2.6901 0,-1.4845 1.205599,-2.6901 2.6900984,-2.6901 z m 0,1.3566 c -0.745375,0 -1.3565494,0.5881 -1.3565374,1.3335 -1.2e-5,0.7454 0.6111624,1.3565 1.3565374,1.3565 0.7453741,0 1.3565116,-0.6111 1.3565246,-1.3565 0,-0.7454 -0.6111505,-1.3335 -1.3565376,-1.3335 z"
           id="connector5pin"
           inkscape:label="" />
        <path
           style="display:inline;fill:#f7bd13;fill-opacity:1;stroke:none"
           inkscape:connector-curvature="0"
           d="m 9.0000234,173.91824 c 1.4844746,0 2.6900606,1.2056 2.6900606,2.6901 1.3e-5,1.4845 -1.205586,2.6901 -2.6900606,2.6901 -1.4844994,0 -2.6900864,-1.2056 -2.6900984,-2.6901 0,-1.4845 1.205599,-2.6901 2.6900984,-2.6901 z m 0,1.3566 c -0.745375,0 -1.3565494,0.5881 -1.3565374,1.3335 -1.2e-5,0.7454 0.6111624,1.3565 1.3565374,1.3565 0.7453741,0 1.3565116,-0.6111 1.3565246,-1.3565 0,-0.7454 -0.6111505,-1.3335 -1.3565376,-1.3335 z"
           id="connector4pin"
           inkscape:label="" />
        <path
           style="display:inline;fill:#f7bd13;fill-opacity:1;stroke:none"
           inkscape:connector-curvature="0"
           d="m 9.0000234,182.91824 c 1.4844746,0 2.6900606,1.2056 2.6900606,2.6901 1.3e-5,1.4845 -1.205586,2.6901 -2.6900606,2.6901 -1.4844994,0 -2.6900864,-1.2056 -2.6900984,-2.6901 0,-1.4845 1.205599,-2.6901 2.6900984,-2.6901 z m 0,1.3566 c -0.745375,0 -1.3565494,0.5881 -1.3565374,1.3335 -1.2e-5,0.7454 0.6111624,1.3565 1.3565374,1.3565 0.7453741,0 1.3565116,-0.6111 1.3565246,-1.3565 0,-0.7454 -0.6111505,-1.3335 -1.3565376,-1.3335 z"
           id="connector3pin"
           inkscape:label="" />
        <path
           style="display:inline;fill:#f7bd13;fill-opacity:1;stroke:none"
           inkscape:connector-curvature="0"
           d="m 9.0000234,191.91824 c 1.4844746,0 2.6900606,1.2056 2.6900606,2.6901 1.3e-5,1.4845 -1.205586,2.6901 -2.6900606,2.6901 -1.4844994,0 -2.6900864,-1.2056 -2.6900984,-2.6901 0,-1.4845 1.205599,-2.6901 2.6900984,-2.6901 z m 0,1.3566 c -0.745375,0 -1.3565494,0.5881 -1.3565374,1.3335 -1.2e-5,0.7454 0.6111624,1.3565 1.3565374,1.3565 0.7453741,0 1.3565116,-0.6111 1.3565246,-1.3565 0,-0.7454 -0.6111505,-1.3335 -1.3565376,-1.3335 z"
           id="connector2pin"
           inkscape:label="" />
        <path
           style="display:inline;fill:#f7bd13;fill-opacity:1;stroke:none"
           inkscape:connector-curvature="0"
           d="m 9.0000234,29.918227 c 1.4844746,0 2.6900606,1.2056 2.6900606,2.6901 1.3e-5,1.4845 -1.205586,2.6901 -2.6900606,2.6901 -1.4844994,0 -2.6900864,-1.2056 -2.6900984,-2.6901 0,-1.4845 1.205599,-2.6901 2.6900984,-2.6901 z m 0,1.3566 c -0.745375,0 -1.3565494,0.5881 -1.3565374,1.3335 -1.2e-5,0.7454 0.6111624,1.3565 1.3565374,1.3565 0.7453741,0 1.3565116,-0.6111 1.3565246,-1.3565 0,-0.7454 -0.6111505,-1.3335 -1.3565376,-1.3335 z"
           id="connector20pin"
           inkscape:label="" />
        <path
           style="display:inline;fill:#f7bd13;fill-opacity:1;stroke:none"
           inkscape:connector-curvature="0"
           d="m 6.3000004,206.29844 0,-5.5354 5.5114956,0 0,5.5354 -5.5114956,0 z m 2.755748,-1.3658 c 0.7768616,0 1.4138236,-0.613 1.4138236,-1.3899 0,-0.7769 -0.636962,-1.4138 -1.4138236,-1.4138 -0.77685,0 -1.413824,0.6369 -1.413824,1.4138 0,0.7769 0.636974,1.3899 1.413861,1.3898 z"
           id="connector1pin"
           inkscape:label="" />
        <path
           style="display:inline;fill:#f7bd13;fill-opacity:1;stroke:none"
           inkscape:connector-curvature="0"
           d="m 24.095007,85.552925 c 1.484474,0 2.69006,1.2056 2.69006,2.6901 1.3e-5,1.4845 -1.205586,2.690097 -2.69006,2.690097 -1.4845,0 -2.690087,-1.205597 -2.690099,-2.690097 0,-1.4845 1.205599,-2.6901 2.690099,-2.6901 z m 0,1.3566 c -0.745375,0 -1.35655,0.5881 -1.356538,1.3335 -1.2e-5,0.7454 0.611163,1.3565 1.356538,1.3565 0.745374,0 1.356511,-0.6111 1.356524,-1.3565 0,-0.7454 -0.61115,-1.3335 -1.356537,-1.3335 z"
           id="connector50pin"
           inkscape:label="" />
        <path
           style="display:inline;fill:#f7bd13;fill-opacity:1;stroke:none"
           inkscape:connector-curvature="0"
           d="m 24.095007,78.353928 c 1.484474,0 2.69006,1.2056 2.69006,2.6901 1.3e-5,1.4845 -1.205586,2.690097 -2.69006,2.690097 -1.4845,0 -2.690088,-1.205597 -2.6901,-2.690097 0,-1.4845 1.2056,-2.6901 2.6901,-2.6901 z m 0,1.3566 c -0.745375,0 -1.35655,0.5881 -1.356538,1.3335 -1.2e-5,0.7454 0.611163,1.3565 1.356538,1.3565 0.745374,0 1.356511,-0.6111 1.356524,-1.3565 0,-0.7454 -0.61115,-1.3335 -1.356537,-1.3335 z"
           id="connector49pin"
           inkscape:label="" />
        <path
           style="display:inline;fill:#f7bd13;fill-opacity:1;stroke:none"
           inkscape:connector-curvature="0"
           d="m 24.095007,71.152932 c 1.484474,0 2.69006,1.205601 2.69006,2.690101 1.3e-5,1.4845 -1.205586,2.690097 -2.69006,2.690097 -1.484501,0 -2.690088,-1.205597 -2.6901,-2.690097 0,-1.4845 1.205599,-2.690101 2.6901,-2.690101 z m 0,1.356601 c -0.745376,0 -1.356551,0.5881 -1.356539,1.3335 -1.2e-5,0.7454 0.611163,1.3565 1.356539,1.3565 0.745374,0 1.356511,-0.6111 1.356524,-1.3565 0,-0.7454 -0.61115,-1.3335 -1.356537,-1.3335 z"
           id="connector48pin"
           inkscape:label="" />
        <path
           style="display:inline;fill:#f7bd13;fill-opacity:1;stroke:none"
           inkscape:connector-curvature="0"
           d="m 24.095006,63.952923 c 1.484474,0 2.690061,1.2056 2.690061,2.6901 1.3e-5,1.4845 -1.205587,2.690097 -2.690061,2.690097 -1.4845,0 -2.690087,-1.205597 -2.690099,-2.690097 0,-1.4845 1.205599,-2.6901 2.690099,-2.6901 z m 0,1.3566 c -0.745375,0 -1.35655,0.5881 -1.356538,1.3335 -1.2e-5,0.7454 0.611163,1.3565 1.356538,1.3565 0.745374,0 1.356511,-0.6111 1.356524,-1.3565 0,-0.7454 -0.61115,-1.3335 -1.356537,-1.3335 z"
           id="connector47pin"
           inkscape:label="" />
        <path
           style="display:inline;fill:#f7bd13;fill-opacity:1;stroke:none"
           inkscape:connector-curvature="0"
           d="m 24.095007,56.753927 c 1.484474,0 2.69006,1.2056 2.69006,2.690101 1.3e-5,1.4845 -1.205586,2.690097 -2.69006,2.690097 -1.484501,0 -2.690088,-1.205597 -2.6901,-2.690097 0,-1.484501 1.205599,-2.690101 2.6901,-2.690101 z m 0,1.3566 c -0.745376,0 -1.356551,0.5881 -1.356539,1.333501 -1.2e-5,0.7454 0.611163,1.3565 1.356539,1.3565 0.745374,0 1.356511,-0.6111 1.356524,-1.3565 0,-0.745401 -0.61115,-1.333501 -1.356537,-1.333501 z"
           id="connector46pin"
           inkscape:label="" />
        <path
           style="display:inline;fill:#f7bd13;fill-opacity:1;stroke:none"
           inkscape:connector-curvature="0"
           d="m 24.095007,49.552926 c 1.484474,0 2.69006,1.2056 2.69006,2.6901 1.3e-5,1.4845 -1.205586,2.690097 -2.69006,2.690097 -1.4845,0 -2.690087,-1.205597 -2.690099,-2.690097 0,-1.4845 1.205599,-2.6901 2.690099,-2.6901 z m 0,1.3566 c -0.745375,0 -1.35655,0.5881 -1.356538,1.3335 -1.2e-5,0.7454 0.611163,1.3565 1.356538,1.3565 0.745374,0 1.356511,-0.6111 1.356524,-1.3565 0,-0.7454 -0.61115,-1.3335 -1.356537,-1.3335 z"
           id="connector45pin"
           inkscape:label="" />
        <path
           style="display:inline;fill:#f7bd13;fill-opacity:1;stroke:none"
           inkscape:connector-curvature="0"
           d="m 24.095007,42.353928 c 1.484474,0 2.69006,1.2056 2.69006,2.6901 1.3e-5,1.4845 -1.205586,2.690098 -2.69006,2.690098 -1.4845,0 -2.690087,-1.205598 -2.690099,-2.690098 0,-1.4845 1.205599,-2.6901 2.690099,-2.6901 z m 0,1.3566 c -0.745375,0 -1.35655,0.5881 -1.356538,1.3335 -1.2e-5,0.7454 0.611163,1.3565 1.356538,1.3565 0.745374,0 1.356511,-0.6111 1.356524,-1.3565 0,-0.7454 -0.61115,-1.3335 -1.356537,-1.3335 z"
           id="connector44pin"
           inkscape:label="" />
        <path
           style="display:inline;fill:#f7bd13;fill-opacity:1;stroke:none"
           inkscape:connector-curvature="0"
           d="m 24.095007,35.152934 c 1.484474,0 2.69006,1.2056 2.69006,2.6901 1.3e-5,1.4845 -1.205586,2.690097 -2.69006,2.690097 -1.4845,0 -2.690087,-1.205597 -2.690099,-2.690097 0,-1.4845 1.205599,-2.6901 2.690099,-2.6901 z m 0,1.3566 c -0.745375,0 -1.35655,0.5881 -1.356538,1.3335 -1.2e-5,0.7454 0.611163,1.3565 1.356538,1.3565 0.745374,0 1.356511,-0.6111 1.356524,-1.3565 0,-0.7454 -0.61115,-1.3335 -1.356537,-1.3335 z"
           id="connector43pin"
           inkscape:label="" />
        <path
           style="display:inline;fill:#f7bd13;fill-opacity:1;stroke:none"
           inkscape:connector-curvature="0"
           d="m 24.095007,27.953933 c 1.484474,0 2.69006,1.2056 2.69006,2.6901 1.3e-5,1.4845 -1.205586,2.690097 -2.69006,2.690097 -1.4845,0 -2.690087,-1.205597 -2.690099,-2.690097 0,-1.4845 1.205599,-2.6901 2.690099,-2.6901 z m 0,1.3566 c -0.745375,0 -1.35655,0.5881 -1.356538,1.3335 -1.2e-5,0.7454 0.611163,1.3565 1.356538,1.3565 0.745374,0 1.356511,-0.6111 1.356524,-1.3565 0,-0.7454 -0.61115,-1.3335 -1.356537,-1.3335 z"
           id="connector42pin"
           inkscape:label="" />
        <path
           style="display:inline;fill:#f7bd13;fill-opacity:1;stroke:none"
           inkscape:connector-curvature="0"
           d="m 24.095007,20.752935 c 1.484474,0 2.69006,1.2056 2.69006,2.6901 1.3e-5,1.4845 -1.205586,2.690097 -2.69006,2.690097 -1.4845,0 -2.690087,-1.205597 -2.690099,-2.690097 0,-1.4845 1.205599,-2.6901 2.690099,-2.6901 z m 0,1.3566 c -0.745375,0 -1.35655,0.5881 -1.356538,1.3335 -1.2e-5,0.7454 0.611163,1.3565 1.356538,1.3565 0.745374,0 1.356511,-0.6111 1.356524,-1.3565 0,-0.7454 -0.61115,-1.3335 -1.356537,-1.3335 z"
           id="connector41pin"
           inkscape:label="" />
        <path
           style="display:inline;fill:#f7bd13;fill-opacity:1;stroke:none"
           inkscape:connector-curvature="0"
           d="m 102.04777,85.55292 c 1.48447,0 2.69006,1.2056 2.69006,2.6901 1e-5,1.4845 -1.20559,2.690097 -2.69006,2.690097 -1.4845,0 -2.69009,-1.205597 -2.690102,-2.690097 0,-1.4845 1.205602,-2.6901 2.690102,-2.6901 z m 0,1.3566 c -0.74538,0 -1.35655,0.5881 -1.35654,1.3335 -1e-5,0.7454 0.61116,1.3565 1.35654,1.3565 0.74537,0 1.35651,-0.6111 1.35652,-1.3565 0,-0.7454 -0.61115,-1.3335 -1.35654,-1.3335 z"
           id="connector51pin"
           inkscape:label="" />
        <path
           style="display:inline;fill:#f7bd13;fill-opacity:1;stroke:none"
           inkscape:connector-curvature="0"
           d="m 102.04777,78.353922 c 1.48448,0 2.69006,1.2056 2.69006,2.6901 2e-5,1.4845 -1.20558,2.690098 -2.69006,2.690098 -1.4845,0 -2.690083,-1.205598 -2.690103,-2.690098 0,-1.4845 1.205603,-2.6901 2.690103,-2.6901 z m 0,1.3566 c -0.74537,0 -1.35655,0.5881 -1.35653,1.3335 -2e-5,0.7454 0.61116,1.3565 1.35653,1.3565 0.74538,0 1.35651,-0.6111 1.35653,-1.3565 0,-0.7454 -0.61115,-1.3335 -1.35654,-1.3335 z"
           id="connector52pin"
           inkscape:label="" />
        <path
           style="display:inline;fill:#f7bd13;fill-opacity:1;stroke:none"
           inkscape:connector-curvature="0"
           d="m 102.04777,71.152926 c 1.48447,0 2.69006,1.2056 2.69006,2.6901 1e-5,1.4845 -1.20559,2.690098 -2.69006,2.690098 -1.4845,0 -2.690093,-1.205598 -2.690103,-2.690098 0,-1.4845 1.205603,-2.6901 2.690103,-2.6901 z m 0,1.3566 c -0.74538,0 -1.35655,0.5881 -1.35654,1.3335 -1e-5,0.7454 0.61116,1.3565 1.35654,1.3565 0.74537,0 1.35651,-0.6111 1.35652,-1.3565 0,-0.7454 -0.61115,-1.3335 -1.35653,-1.3335 z"
           id="connector53pin"
           inkscape:label="" />
        <path
           style="display:inline;fill:#f7bd13;fill-opacity:1;stroke:none"
           inkscape:connector-curvature="0"
           d="m 102.04777,63.952928 c 1.48447,0 2.69006,1.2056 2.69006,2.6901 1e-5,1.4845 -1.20559,2.690097 -2.69006,2.690097 -1.4845,0 -2.690094,-1.205597 -2.690104,-2.690097 0,-1.4845 1.205604,-2.6901 2.690104,-2.6901 z m 0,1.3566 c -0.74538,0 -1.35655,0.5881 -1.35654,1.3335 -1e-5,0.7454 0.61116,1.3565 1.35654,1.3565 0.74537,0 1.35651,-0.6111 1.35652,-1.3565 0,-0.7454 -0.61115,-1.3335 -1.35654,-1.3335 z"
           id="connector54pin"
           inkscape:label="" />
        <path
           style="display:inline;fill:#f7bd13;fill-opacity:1;stroke:none"
           inkscape:connector-curvature="0"
           d="m 102.04777,56.753922 c 1.48447,0 2.69006,1.2056 2.69006,2.6901 1e-5,1.4845 -1.20559,2.690097 -2.69006,2.690097 -1.4845,0 -2.690093,-1.205597 -2.690103,-2.690097 0,-1.4845 1.205603,-2.6901 2.690103,-2.6901 z m 0,1.3566 c -0.74538,0 -1.35655,0.5881 -1.35654,1.3335 -1e-5,0.7454 0.61116,1.3565 1.35654,1.3565 0.74537,0 1.35651,-0.6111 1.35652,-1.3565 0,-0.7454 -0.61115,-1.3335 -1.35654,-1.3335 z"
           id="connector55pin"
           inkscape:label="" />
        <path
           style="display:inline;fill:#f7bd13;fill-opacity:1;stroke:none"
           inkscape:connector-curvature="0"
           d="m 102.04777,49.552931 c 1.48448,0 2.69006,1.2056 2.69006,2.6901 1e-5,1.4845 -1.20558,2.690097 -2.69006,2.690097 -1.4845,0 -2.690094,-1.205597 -2.690104,-2.690097 0,-1.4845 1.205604,-2.6901 2.690104,-2.6901 z m 0,1.3566 c -0.74537,0 -1.35655,0.5881 -1.35654,1.3335 -1e-5,0.7454 0.61117,1.3565 1.35654,1.3565 0.74538,0 1.35651,-0.6111 1.35653,-1.3565 0,-0.7454 -0.61115,-1.3335 -1.35654,-1.3335 z"
           id="connector56pin"
           inkscape:label="" />
        <path
           style="display:inline;fill:#f7bd13;fill-opacity:1;stroke:none"
           inkscape:connector-curvature="0"
           d="m 102.04777,42.353934 c 1.48447,0 2.69006,1.2056 2.69006,2.6901 1e-5,1.4845 -1.20559,2.690098 -2.69006,2.690098 -1.4845,0 -2.690092,-1.205598 -2.690104,-2.690098 0,-1.4845 1.205604,-2.6901 2.690104,-2.6901 z m 0,1.3566 c -0.74538,0 -1.35655,0.5881 -1.35654,1.3335 -1e-5,0.7454 0.61116,1.3565 1.35654,1.3565 0.74537,0 1.35651,-0.6111 1.35652,-1.3565 0,-0.7454 -0.61115,-1.3335 -1.35654,-1.3335 z"
           id="connector57pin"
           inkscape:label="" />
        <path
           style="display:inline;fill:#f7bd13;fill-opacity:1;stroke:none"
           inkscape:connector-curvature="0"
           d="m 102.04777,35.152928 c 1.48447,0 2.69006,1.205601 2.69006,2.690101 1e-5,1.4845 -1.20559,2.690097 -2.69006,2.690097 -1.4845,0 -2.69009,-1.205597 -2.690102,-2.690097 0,-1.4845 1.205602,-2.690101 2.690102,-2.690101 z m 0,1.356601 c -0.74538,0 -1.35655,0.5881 -1.35654,1.3335 -1e-5,0.7454 0.61116,1.3565 1.35654,1.3565 0.74537,0 1.35651,-0.6111 1.35652,-1.3565 0,-0.7454 -0.61115,-1.3335 -1.35654,-1.3335 z"
           id="connector58pin"
           inkscape:label="" />
        <path
           style="display:inline;fill:#f7bd13;fill-opacity:1;stroke:none"
           inkscape:connector-curvature="0"
           d="m 102.04777,27.953933 c 1.48447,0 2.69006,1.2056 2.69006,2.690101 1e-5,1.4845 -1.20559,2.690097 -2.69006,2.690097 -1.4845,0 -2.690091,-1.205597 -2.690103,-2.690097 0,-1.484501 1.205603,-2.690101 2.690103,-2.690101 z m 0,1.3566 c -0.74538,0 -1.35655,0.5881 -1.35654,1.333501 -1e-5,0.7454 0.61116,1.3565 1.35654,1.3565 0.74537,0 1.35651,-0.6111 1.35652,-1.3565 0,-0.745401 -0.61115,-1.333501 -1.35654,-1.333501 z"
           id="connector59pin"
           inkscape:label="" />
        <path
           style="display:inline;fill:#f7bd13;fill-opacity:1;stroke:none"
           inkscape:connector-curvature="0"
           d="m 102.04777,20.752935 c 1.48447,0 2.69006,1.2056 2.69006,2.6901 1e-5,1.4845 -1.20559,2.690097 -2.69006,2.690097 -1.4845,0 -2.690091,-1.205597 -2.690103,-2.690097 0,-1.4845 1.205603,-2.6901 2.690103,-2.6901 z m 0,1.3566 c -0.74538,0 -1.35655,0.5881 -1.35654,1.3335 -1e-5,0.7454 0.61116,1.3565 1.35654,1.3565 0.74537,0 1.35651,-0.6111 1.35652,-1.3565 0,-0.7454 -0.61115,-1.3335 -1.35654,-1.3335 z"
           id="connector60pin"
           inkscape:label="" />
        <rect
           style="fill:#f7bd13;fill-opacity:1;stroke:none;stroke-width:1;stroke-linecap:round;stroke-linejoin:miter;stroke-miterlimit:4;stroke-dasharray:none;stroke-opacity:1"
           id="connector71pin"
           width="3.5433073"
           height="10.629922"
           x="24.80315"
           y="184.60631"
           inkscape:label="" />
        <rect
           style="display:inline;fill:#f7bd13;fill-opacity:1;stroke:none;stroke-width:1;stroke-linecap:round;stroke-linejoin:miter;stroke-miterlimit:4;stroke-dasharray:none;stroke-opacity:1"
           id="connector72pin"
           width="3.5433075"
           height="10.629923"
           x="31.889765"
           y="184.60631"
           inkscape:label="" />
        <rect
           style="display:inline;fill:#f7bd13;fill-opacity:1;stroke:none;stroke-width:1;stroke-linecap:round;stroke-linejoin:miter;stroke-miterlimit:4;stroke-dasharray:none;stroke-opacity:1"
           id="connector73pin"
           width="3.5433075"
           height="10.629923"
           x="55.629925"
           y="184.60631"
           inkscape:label="" />
        <rect
           style="display:inline;fill:#f7bd13;fill-opacity:1;stroke:none;stroke-width:1;stroke-linecap:round;stroke-linejoin:miter;stroke-miterlimit:4;stroke-dasharray:none;stroke-opacity:1"
           id="connector74pin"
           width="3.5433078"
           height="10.629924"
           x="62.716541"
           y="184.60631"
           inkscape:label="" />
        <rect
           style="display:inline;fill:#f7bd13;fill-opacity:1;stroke:none;stroke-width:1;stroke-linecap:round;stroke-linejoin:miter;stroke-miterlimit:4;stroke-dasharray:none;stroke-opacity:1"
           id="connector62pin"
           width="1.8000001"
           height="1.8000001"
           x="90.37558"
           y="115.5508"
           inkscape:label="" />
      </g>
    </g>
  </g>
</svg>
