<?xml version="1.0" encoding="UTF-8" standalone="no"?>
<!-- Created with Inkscape (http://www.inkscape.org/) -->

<svg
   xmlns:dc="http://purl.org/dc/elements/1.1/"
   xmlns:cc="http://creativecommons.org/ns#"
   xmlns:rdf="http://www.w3.org/1999/02/22-rdf-syntax-ns#"
   xmlns:svg="http://www.w3.org/2000/svg"
   xmlns="http://www.w3.org/2000/svg"
   xmlns:sodipodi="http://sodipodi.sourceforge.net/DTD/sodipodi-0.dtd"
   xmlns:inkscape="http://www.inkscape.org/namespaces/inkscape"
   width="1.4in"
   height="2.5999999in"
   viewBox="0 0 126 233.99999"
   id="svg2"
   version="1.1"
   inkscape:version="0.91 r13725"
   sodipodi:docname="Autonomo_back_PCB.svg">
  <defs
     id="defs4" />
  <sodipodi:namedview
     id="base"
     pagecolor="#ffffff"
     bordercolor="#666666"
     borderopacity="1.0"
     inkscape:pageopacity="0.0"
     inkscape:pageshadow="2"
     inkscape:zoom="3.1091957"
     inkscape:cx="33.039798"
     inkscape:cy="123.96785"
     inkscape:document-units="mm"
     inkscape:current-layer="layer3"
     showgrid="true"
     showguides="true"
     inkscape:guide-bbox="true"
     inkscape:snap-nodes="false"
     inkscape:object-paths="true"
     inkscape:snap-intersection-paths="true"
     inkscape:object-nodes="true"
     inkscape:snap-smooth-nodes="true"
     inkscape:snap-midpoints="true"
     inkscape:snap-bbox="true"
     inkscape:snap-bbox-midpoints="true"
     inkscape:snap-bbox-edge-midpoints="false"
     inkscape:bbox-nodes="false"
     inkscape:window-width="1920"
     inkscape:window-height="1017"
     inkscape:window-x="1912"
     inkscape:window-y="-8"
     inkscape:window-maximized="1"
     inkscape:snap-grids="false"
     inkscape:snap-to-guides="false"
     inkscape:snap-center="false"
     inkscape:snap-object-midpoints="true"
     inkscape:snap-others="true"
     units="in">
    <inkscape:grid
       type="xygrid"
       id="grid4136"
       units="in"
       spacingx="9.0000006"
       spacingy="9.0000005"
       empspacing="2"
       empcolor="#000000"
       empopacity="0.25098039" />
    <sodipodi:guide
       position="9.0000006,82.336411"
       orientation="1,0"
       id="guide5445"
       inkscape:label=""
       inkscape:color="rgb(255,0,87)" />
    <sodipodi:guide
       position="117.00001,-9.0000005"
       orientation="1,0"
       id="guide5447"
       inkscape:label=""
       inkscape:color="rgb(255,0,12)" />
  </sodipodi:namedview>
  <metadata
     id="metadata7">
    <rdf:RDF>
      <cc:Work
         rdf:about="">
        <dc:format>image/svg+xml</dc:format>
        <dc:type
           rdf:resource="http://purl.org/dc/dcmitype/StillImage" />
        <dc:title />
      </cc:Work>
    </rdf:RDF>
  </metadata>
  <g
     inkscape:groupmode="layer"
     id="layer3"
     inkscape:label="silkscreen"
     style="display:inline"
     transform="translate(0,21.401561)"
     sodipodi:insensitive="true">
    <path
       style="fill:none;fill-opacity:1;stroke:#000000;stroke-width:1.00000012;stroke-linecap:round;stroke-linejoin:miter;stroke-miterlimit:4;stroke-dasharray:none;stroke-opacity:1"
       d="m 58.250005,-3.6447766 c 7.086532,0 3.897758,12.402344 10.984375,12.402344 l 46.06445,0 c 3.92592,0 7.08594,3.1600586 7.08594,7.0859366 l 0,180.708986 c 0,3.926 -3.16002,7.08594 -7.08594,7.08594 l -104.669921,0 c -3.9259602,0 -7.0859402,-3.15994 -7.0859402,-7.08594 l 0,-180.708986 c 0,-3.925878 3.15998,-7.0859366 7.0859402,-7.0859366 l 9,0 c 6.850889,1e-5 3.89777,-12.402344 10.984377,-12.402344 z"
       id="silkscreen"
       inkscape:connector-curvature="0"
       inkscape:label=""
       sodipodi:nodetypes="sssssssssssss" />
  </g>
  <g
     inkscape:groupmode="layer"
     id="layer2"
     inkscape:label="copper"
     style="display:inline"
     transform="translate(0,21.401561)"
     sodipodi:insensitive="true">
    <g
       id="copper0"
       inkscape:label="">
      <g
         inkscape:label=""
         id="copper1">
        <path
           style="display:inline;fill:#f7bd13;fill-opacity:1;stroke:none"
           inkscape:connector-curvature="0"
           d="m 9.11148,39.02669 c -1.48447,0 -2.69006,1.2056 -2.69006,2.6901 -1e-5,1.4845 1.20559,2.6901 2.69006,2.6901 1.4845,0 2.69009,-1.2056 2.6901,-2.6901 0,-1.4845 -1.2056,-2.6901 -2.6901,-2.6901 z m 0,1.3566 c 0.74538,0 1.35655,0.5881 1.35654,1.3335 1e-5,0.7454 -0.61116,1.3565 -1.35654,1.3565 -0.74537,0 -1.35651,-0.6111 -1.35652,-1.3565 0,-0.7454 0.61115,-1.3335 1.35653,-1.3335 z"
           id="connector38pin"
           inkscape:label="" />
        <path
           style="display:inline;fill:#f7bd13;fill-opacity:1;stroke:none"
           inkscape:connector-curvature="0"
           d="m 9.11148,30.02669 c -1.48447,0 -2.69006,1.2056 -2.69006,2.6901 -1e-5,1.4845 1.20559,2.6901 2.69006,2.6901 1.4845,0 2.69009,-1.2056 2.6901,-2.6901 0,-1.4845 -1.2056,-2.6901 -2.6901,-2.6901 z m 0,1.3566 c 0.74538,0 1.35655,0.5881 1.35654,1.3335 1e-5,0.7454 -0.61116,1.3565 -1.35654,1.3565 -0.74537,0 -1.35651,-0.6111 -1.35652,-1.3565 0,-0.7454 0.61115,-1.3335 1.35653,-1.3335 z"
           id="connector39pin"
           inkscape:label="" />
        <path
           style="display:inline;fill:#f7bd13;fill-opacity:1;stroke:none"
           inkscape:connector-curvature="0"
           d="m 9.11148,48.02669 c -1.48447,0 -2.69006,1.2056 -2.69006,2.6901 -1e-5,1.4845 1.20559,2.6901 2.69006,2.6901 1.4845,0 2.69009,-1.2056 2.6901,-2.6901 0,-1.4845 -1.2056,-2.6901 -2.6901,-2.6901 z m 0,1.3566 c 0.74538,0 1.35655,0.5881 1.35654,1.3335 1e-5,0.7454 -0.61116,1.3565 -1.35654,1.3565 -0.74537,0 -1.35651,-0.6111 -1.35652,-1.3565 0,-0.7454 0.61115,-1.3335 1.35653,-1.3335 z"
           id="connector37pin"
           inkscape:label="" />
        <path
           style="display:inline;fill:#f7bd13;fill-opacity:1;stroke:none"
           inkscape:connector-curvature="0"
           d="m 9.11148,57.02669 c -1.48447,0 -2.69006,1.2056 -2.69006,2.6901 -1e-5,1.4845 1.20559,2.6901 2.69006,2.6901 1.4845,0 2.69009,-1.2056 2.6901,-2.6901 0,-1.4845 -1.2056,-2.6901 -2.6901,-2.6901 z m 0,1.3566 c 0.74538,0 1.35655,0.5881 1.35654,1.3335 1e-5,0.7454 -0.61116,1.3565 -1.35654,1.3565 -0.74537,0 -1.35651,-0.6111 -1.35652,-1.3565 0,-0.7454 0.61115,-1.3335 1.35653,-1.3335 z"
           id="connector36pin"
           inkscape:label="" />
        <path
           style="display:inline;fill:#f7bd13;fill-opacity:1;stroke:none"
           inkscape:connector-curvature="0"
           d="m 9.11148,66.02669 c -1.48447,0 -2.69006,1.2056 -2.69006,2.6901 -1e-5,1.4845 1.20559,2.6901 2.69006,2.6901 1.4845,0 2.69009,-1.2056 2.6901,-2.6901 0,-1.4845 -1.2056,-2.6901 -2.6901,-2.6901 z m 0,1.3566 c 0.74538,0 1.35655,0.5881 1.35654,1.3335 1e-5,0.7454 -0.61116,1.3565 -1.35654,1.3565 -0.74537,0 -1.35651,-0.6111 -1.35652,-1.3565 0,-0.7454 0.61115,-1.3335 1.35653,-1.3335 z"
           id="connector35pin"
           inkscape:label="" />
        <path
           style="display:inline;fill:#f7bd13;fill-opacity:1;stroke:none"
           inkscape:connector-curvature="0"
           d="m 9.11148,75.02669 c -1.48447,0 -2.69006,1.2056 -2.69006,2.6901 -1e-5,1.4845 1.20559,2.6901 2.69006,2.6901 1.4845,0 2.69009,-1.2056 2.6901,-2.6901 0,-1.4845 -1.2056,-2.6901 -2.6901,-2.6901 z m 0,1.3566 c 0.74538,0 1.35655,0.5881 1.35654,1.3335 1e-5,0.7454 -0.61116,1.3565 -1.35654,1.3565 -0.74537,0 -1.35651,-0.6111 -1.35652,-1.3565 0,-0.7454 0.61115,-1.3335 1.35653,-1.3335 z"
           id="connector34pin"
           inkscape:label="" />
        <path
           style="display:inline;fill:#f7bd13;fill-opacity:1;stroke:none"
           inkscape:connector-curvature="0"
           d="m 9.11148,84.02669 c -1.48447,0 -2.69006,1.2056 -2.69006,2.6901 -1e-5,1.4845 1.20559,2.6901 2.69006,2.6901 1.4845,0 2.69009,-1.2056 2.6901,-2.6901 0,-1.4845 -1.2056,-2.6901 -2.6901,-2.6901 z m 0,1.3566 c 0.74538,0 1.35655,0.5881 1.35654,1.3335 1e-5,0.7454 -0.61116,1.3565 -1.35654,1.3565 -0.74537,0 -1.35651,-0.6111 -1.35652,-1.3565 0,-0.7454 0.61115,-1.3335 1.35653,-1.3335 z"
           id="connector33pin"
           inkscape:label="" />
        <path
           style="display:inline;fill:#f7bd13;fill-opacity:1;stroke:none"
           inkscape:connector-curvature="0"
           d="m 9.11148,93.02669 c -1.48447,0 -2.69006,1.2056 -2.69006,2.6901 -1e-5,1.4845 1.20559,2.6901 2.69006,2.6901 1.4845,0 2.69009,-1.2056 2.6901,-2.6901 0,-1.4845 -1.2056,-2.6901 -2.6901,-2.6901 z m 0,1.3566 c 0.74538,0 1.35655,0.5881 1.35654,1.3335 1e-5,0.7454 -0.61116,1.3565 -1.35654,1.3565 -0.74537,0 -1.35651,-0.6111 -1.35652,-1.3565 0,-0.7454 0.61115,-1.3335 1.35653,-1.3335 z"
           id="connector32pin"
           inkscape:label="" />
        <path
           style="display:inline;fill:#f7bd13;fill-opacity:1;stroke:none"
           inkscape:connector-curvature="0"
           d="m 9.11148,102.02669 c -1.48447,0 -2.69006,1.2056 -2.69006,2.6901 -1e-5,1.4845 1.20559,2.6901 2.69006,2.6901 1.4845,0 2.69009,-1.2056 2.6901,-2.6901 0,-1.4845 -1.2056,-2.6901 -2.6901,-2.6901 z m 0,1.3566 c 0.74538,0 1.35655,0.5881 1.35654,1.3335 1e-5,0.7454 -0.61116,1.3565 -1.35654,1.3565 -0.74537,0 -1.35651,-0.6111 -1.35652,-1.3565 0,-0.7454 0.61115,-1.3335 1.35653,-1.3335 z"
           id="connector31pin"
           inkscape:label="" />
        <path
           style="display:inline;fill:#f7bd13;fill-opacity:1;stroke:none"
           inkscape:connector-curvature="0"
           d="m 9.11148,111.02669 c -1.48447,0 -2.69006,1.2056 -2.69006,2.6901 -1e-5,1.4845 1.20559,2.6901 2.69006,2.6901 1.4845,0 2.69009,-1.2056 2.6901,-2.6901 0,-1.4845 -1.2056,-2.6901 -2.6901,-2.6901 z m 0,1.3566 c 0.74538,0 1.35655,0.5881 1.35654,1.3335 1e-5,0.7454 -0.61116,1.3565 -1.35654,1.3565 -0.74537,0 -1.35651,-0.6111 -1.35652,-1.3565 0,-0.7454 0.61115,-1.3335 1.35653,-1.3335 z"
           id="connector30pin"
           inkscape:label="" />
        <path
           style="display:inline;fill:#f7bd13;fill-opacity:1;stroke:none"
           inkscape:connector-curvature="0"
           d="m 9.11148,120.02669 c -1.48447,0 -2.69006,1.2056 -2.69006,2.6901 -1e-5,1.4845 1.20559,2.6901 2.69006,2.6901 1.4845,0 2.69009,-1.2056 2.6901,-2.6901 0,-1.4845 -1.2056,-2.6901 -2.6901,-2.6901 z m 0,1.3566 c 0.74538,0 1.35655,0.5881 1.35654,1.3335 1e-5,0.7454 -0.61116,1.3565 -1.35654,1.3565 -0.74537,0 -1.35651,-0.6111 -1.35652,-1.3565 0,-0.7454 0.61115,-1.3335 1.35653,-1.3335 z"
           id="connector29pin"
           inkscape:label="" />
        <path
           style="display:inline;fill:#f7bd13;fill-opacity:1;stroke:none"
           inkscape:connector-curvature="0"
           d="m 9.11148,129.02669 c -1.48447,0 -2.69006,1.2056 -2.69006,2.6901 -1e-5,1.4845 1.20559,2.6901 2.69006,2.6901 1.4845,0 2.69009,-1.2056 2.6901,-2.6901 0,-1.4845 -1.2056,-2.6901 -2.6901,-2.6901 z m 0,1.3566 c 0.74538,0 1.35655,0.5881 1.35654,1.3335 1e-5,0.7454 -0.61116,1.3565 -1.35654,1.3565 -0.74537,0 -1.35651,-0.6111 -1.35652,-1.3565 0,-0.7454 0.61115,-1.3335 1.35653,-1.3335 z"
           id="connector28pin"
           inkscape:label="" />
        <path
           style="display:inline;fill:#f7bd13;fill-opacity:1;stroke:none"
           inkscape:connector-curvature="0"
           d="m 9.11148,138.02669 c -1.48447,0 -2.69006,1.2056 -2.69006,2.6901 -1e-5,1.4845 1.20559,2.6901 2.69006,2.6901 1.4845,0 2.69009,-1.2056 2.6901,-2.6901 0,-1.4845 -1.2056,-2.6901 -2.6901,-2.6901 z m 0,1.3566 c 0.74538,0 1.35655,0.5881 1.35654,1.3335 1e-5,0.7454 -0.61116,1.3565 -1.35654,1.3565 -0.74537,0 -1.35651,-0.6111 -1.35652,-1.3565 0,-0.7454 0.61115,-1.3335 1.35653,-1.3335 z"
           id="connector27pin"
           inkscape:label="" />
        <path
           style="display:inline;fill:#f7bd13;fill-opacity:1;stroke:none"
           inkscape:connector-curvature="0"
           d="m 9.11148,147.02669 c -1.48447,0 -2.69006,1.2056 -2.69006,2.6901 -1e-5,1.4845 1.20559,2.6901 2.69006,2.6901 1.4845,0 2.69009,-1.2056 2.6901,-2.6901 0,-1.4845 -1.2056,-2.6901 -2.6901,-2.6901 z m 0,1.3566 c 0.74538,0 1.35655,0.5881 1.35654,1.3335 1e-5,0.7454 -0.61116,1.3565 -1.35654,1.3565 -0.74537,0 -1.35651,-0.6111 -1.35652,-1.3565 0,-0.7454 0.61115,-1.3335 1.35653,-1.3335 z"
           id="connector26pin"
           inkscape:label="" />
        <path
           style="display:inline;fill:#f7bd13;fill-opacity:1;stroke:none"
           inkscape:connector-curvature="0"
           d="m 9.11148,156.0267 c -1.48447,0 -2.69006,1.2056 -2.69006,2.6901 -1e-5,1.4845 1.20559,2.6901 2.69006,2.6901 1.4845,0 2.69009,-1.2056 2.6901,-2.6901 0,-1.4845 -1.2056,-2.6901 -2.6901,-2.6901 z m 0,1.3566 c 0.74538,0 1.35655,0.5881 1.35654,1.3335 1e-5,0.7454 -0.61116,1.3565 -1.35654,1.3565 -0.74537,0 -1.35651,-0.6111 -1.35652,-1.3565 0,-0.7454 0.61115,-1.3335 1.35653,-1.3335 z"
           id="connector25pin"
           inkscape:label="" />
        <path
           style="display:inline;fill:#f7bd13;fill-opacity:1;stroke:none"
           inkscape:connector-curvature="0"
           d="m 9.11148,165.0267 c -1.48447,0 -2.69006,1.2056 -2.69006,2.6901 -1e-5,1.4845 1.20559,2.6901 2.69006,2.6901 1.4845,0 2.69009,-1.2056 2.6901,-2.6901 0,-1.4845 -1.2056,-2.6901 -2.6901,-2.6901 z m 0,1.3566 c 0.74538,0 1.35655,0.5881 1.35654,1.3335 1e-5,0.7454 -0.61116,1.3565 -1.35654,1.3565 -0.74537,0 -1.35651,-0.6111 -1.35652,-1.3565 0,-0.7454 0.61115,-1.3335 1.35653,-1.3335 z"
           id="connector24pin"
           inkscape:label="" />
        <path
           style="display:inline;fill:#f7bd13;fill-opacity:1;stroke:none"
           inkscape:connector-curvature="0"
           d="m 9.11148,174.0267 c -1.48447,0 -2.69006,1.2056 -2.69006,2.6901 -1e-5,1.4845 1.20559,2.6901 2.69006,2.6901 1.4845,0 2.69009,-1.2056 2.6901,-2.6901 0,-1.4845 -1.2056,-2.6901 -2.6901,-2.6901 z m 0,1.3566 c 0.74538,0 1.35655,0.5881 1.35654,1.3335 1e-5,0.7454 -0.61116,1.3565 -1.35654,1.3565 -0.74537,0 -1.35651,-0.6111 -1.35652,-1.3565 0,-0.7454 0.61115,-1.3335 1.35653,-1.3335 z"
           id="connector23pin"
           inkscape:label="" />
        <path
           style="display:inline;fill:#f7bd13;fill-opacity:1;stroke:none"
           inkscape:connector-curvature="0"
           d="m 9.11148,183.0267 c -1.48447,0 -2.69006,1.2056 -2.69006,2.6901 -1e-5,1.4845 1.20559,2.6901 2.69006,2.6901 1.4845,0 2.69009,-1.2056 2.6901,-2.6901 0,-1.4845 -1.2056,-2.6901 -2.6901,-2.6901 z m 0,1.3566 c 0.74538,0 1.35655,0.5881 1.35654,1.3335 1e-5,0.7454 -0.61116,1.3565 -1.35654,1.3565 -0.74537,0 -1.35651,-0.6111 -1.35652,-1.3565 0,-0.7454 0.61115,-1.3335 1.35653,-1.3335 z"
           id="connector22pin"
           inkscape:label="" />
        <path
           style="display:inline;fill:#f7bd13;fill-opacity:1;stroke:none"
           inkscape:connector-curvature="0"
           d="m 9.11148,20.949097 c -1.48447,0 -2.69006,1.2056 -2.69006,2.6901 -1e-5,1.4845 1.20559,2.6901 2.69006,2.6901 1.4845,0 2.69009,-1.2056 2.6901,-2.6901 0,-1.4845 -1.2056,-2.6901 -2.6901,-2.6901 z m 0,1.3566 c 0.74538,0 1.35655,0.5881 1.35654,1.3335 1e-5,0.7454 -0.61116,1.3565 -1.35654,1.3565 -0.74537,0 -1.35651,-0.6111 -1.35652,-1.3565 0,-0.7454 0.61115,-1.3335 1.35653,-1.3335 z"
           id="connector40pin"
           inkscape:label="" />
        <path
           style="display:inline;fill:#f7bd13;fill-opacity:1;stroke:none"
           inkscape:connector-curvature="0"
           d="m 6.3,191.80381 0,5.5354 5.5115,0 0,-5.5354 -5.5115,0 z m 2.75575,1.3658 c 0.77686,0 1.41382,0.613 1.41382,1.3899 0,0.7769 -0.63696,1.4138 -1.41382,1.4138 -0.77685,0 -1.41382,-0.6369 -1.41382,-1.4138 0,-0.7769 0.63697,-1.3899 1.41386,-1.3898 z"
           id="connector21pin"
           inkscape:label="" />
        <path
           style="display:inline;fill:#f7bd13;fill-opacity:1;stroke:none"
           inkscape:connector-curvature="0"
           d="m 117.11149,38.958997 c -1.48448,0 -2.69006,1.2056 -2.69006,2.6901 -2e-5,1.4845 1.20558,2.6901 2.69006,2.6901 1.4845,0 2.69008,-1.2056 2.69009,-2.6901 0,-1.4845 -1.20559,-2.6901 -2.69009,-2.6901 z m 0,1.3566 c 0.74537,0 1.35655,0.5881 1.35653,1.3335 2e-5,0.7454 -0.61116,1.3565 -1.35653,1.3565 -0.74538,0 -1.35651,-0.6111 -1.35653,-1.3565 0,-0.7454 0.61115,-1.3335 1.35654,-1.3335 z"
           id="connector18pin"
           inkscape:label="" />
        <path
           style="display:inline;fill:#f7bd13;fill-opacity:1;stroke:none"
           inkscape:connector-curvature="0"
           d="m 117.11149,29.958997 c -1.48448,0 -2.69006,1.2056 -2.69006,2.6901 -2e-5,1.4845 1.20558,2.6901 2.69006,2.6901 1.4845,0 2.69008,-1.2056 2.69009,-2.6901 0,-1.4845 -1.20559,-2.6901 -2.69009,-2.6901 z m 0,1.3566 c 0.74537,0 1.35655,0.5881 1.35653,1.3335 2e-5,0.7454 -0.61116,1.3565 -1.35653,1.3565 -0.74538,0 -1.35651,-0.6111 -1.35653,-1.3565 0,-0.7454 0.61115,-1.3335 1.35654,-1.3335 z"
           id="connector19pin"
           inkscape:label="" />
        <path
           style="display:inline;fill:#f7bd13;fill-opacity:1;stroke:none"
           inkscape:connector-curvature="0"
           d="m 117.11149,47.958997 c -1.48448,0 -2.69006,1.2056 -2.69006,2.6901 -2e-5,1.4845 1.20558,2.6901 2.69006,2.6901 1.4845,0 2.69008,-1.2056 2.69009,-2.6901 0,-1.4845 -1.20559,-2.6901 -2.69009,-2.6901 z m 0,1.3566 c 0.74537,0 1.35655,0.5881 1.35653,1.3335 2e-5,0.7454 -0.61116,1.3565 -1.35653,1.3565 -0.74538,0 -1.35651,-0.6111 -1.35653,-1.3565 0,-0.7454 0.61115,-1.3335 1.35654,-1.3335 z"
           id="connector17pin"
           inkscape:label="" />
        <path
           style="display:inline;fill:#f7bd13;fill-opacity:1;stroke:none"
           inkscape:connector-curvature="0"
           d="m 117.11149,56.958997 c -1.48448,0 -2.69006,1.2056 -2.69006,2.6901 -2e-5,1.4845 1.20558,2.6901 2.69006,2.6901 1.4845,0 2.69008,-1.2056 2.69009,-2.6901 0,-1.4845 -1.20559,-2.6901 -2.69009,-2.6901 z m 0,1.3566 c 0.74537,0 1.35655,0.5881 1.35653,1.3335 2e-5,0.7454 -0.61116,1.3565 -1.35653,1.3565 -0.74538,0 -1.35651,-0.6111 -1.35653,-1.3565 0,-0.7454 0.61115,-1.3335 1.35654,-1.3335 z"
           id="connector16pin"
           inkscape:label="" />
        <path
           style="display:inline;fill:#f7bd13;fill-opacity:1;stroke:none"
           inkscape:connector-curvature="0"
           d="m 117.11149,65.958997 c -1.48448,0 -2.69006,1.2056 -2.69006,2.6901 -2e-5,1.4845 1.20558,2.6901 2.69006,2.6901 1.4845,0 2.69008,-1.2056 2.69009,-2.6901 0,-1.4845 -1.20559,-2.6901 -2.69009,-2.6901 z m 0,1.3566 c 0.74537,0 1.35655,0.5881 1.35653,1.3335 2e-5,0.7454 -0.61116,1.3565 -1.35653,1.3565 -0.74538,0 -1.35651,-0.6111 -1.35653,-1.3565 0,-0.7454 0.61115,-1.3335 1.35654,-1.3335 z"
           id="connector15pin"
           inkscape:label="" />
        <path
           style="display:inline;fill:#f7bd13;fill-opacity:1;stroke:none"
           inkscape:connector-curvature="0"
           d="m 117.11149,74.958997 c -1.48448,0 -2.69006,1.2056 -2.69006,2.6901 -2e-5,1.4845 1.20558,2.6901 2.69006,2.6901 1.4845,0 2.69008,-1.2056 2.69009,-2.6901 0,-1.4845 -1.20559,-2.6901 -2.69009,-2.6901 z m 0,1.3566 c 0.74537,0 1.35655,0.5881 1.35653,1.3335 2e-5,0.7454 -0.61116,1.3565 -1.35653,1.3565 -0.74538,0 -1.35651,-0.6111 -1.35653,-1.3565 0,-0.7454 0.61115,-1.3335 1.35654,-1.3335 z"
           id="connector14pin"
           inkscape:label="" />
        <path
           style="display:inline;fill:#f7bd13;fill-opacity:1;stroke:none"
           inkscape:connector-curvature="0"
           d="m 117.11149,83.958997 c -1.48448,0 -2.69006,1.2056 -2.69006,2.6901 -2e-5,1.4845 1.20558,2.6901 2.69006,2.6901 1.4845,0 2.69008,-1.2056 2.69009,-2.6901 0,-1.4845 -1.20559,-2.6901 -2.69009,-2.6901 z m 0,1.3566 c 0.74537,0 1.35655,0.5881 1.35653,1.3335 2e-5,0.7454 -0.61116,1.3565 -1.35653,1.3565 -0.74538,0 -1.35651,-0.6111 -1.35653,-1.3565 0,-0.7454 0.61115,-1.3335 1.35654,-1.3335 z"
           id="connector13pin"
           inkscape:label="" />
        <path
           style="display:inline;fill:#f7bd13;fill-opacity:1;stroke:none"
           inkscape:connector-curvature="0"
           d="m 117.11149,92.959 c -1.48448,0 -2.69006,1.2056 -2.69006,2.6901 -2e-5,1.4845 1.20558,2.6901 2.69006,2.6901 1.4845,0 2.69008,-1.2056 2.69009,-2.6901 0,-1.4845 -1.20559,-2.6901 -2.69009,-2.6901 z m 0,1.3566 c 0.74537,0 1.35655,0.5881 1.35653,1.3335 2e-5,0.7454 -0.61116,1.3565 -1.35653,1.3565 -0.74538,0 -1.35651,-0.6111 -1.35653,-1.3565 0,-0.7454 0.61115,-1.3335 1.35654,-1.3335 z"
           id="connector12pin"
           inkscape:label="" />
        <path
           style="display:inline;fill:#f7bd13;fill-opacity:1;stroke:none"
           inkscape:connector-curvature="0"
           d="m 117.11149,101.959 c -1.48448,0 -2.69006,1.2056 -2.69006,2.6901 -2e-5,1.4845 1.20558,2.6901 2.69006,2.6901 1.4845,0 2.69008,-1.2056 2.69009,-2.6901 0,-1.4845 -1.20559,-2.6901 -2.69009,-2.6901 z m 0,1.3566 c 0.74537,0 1.35655,0.5881 1.35653,1.3335 2e-5,0.7454 -0.61116,1.3565 -1.35653,1.3565 -0.74538,0 -1.35651,-0.6111 -1.35653,-1.3565 0,-0.7454 0.61115,-1.3335 1.35654,-1.3335 z"
           id="connector11pin"
           inkscape:label="" />
        <path
           style="display:inline;fill:#f7bd13;fill-opacity:1;stroke:none"
           inkscape:connector-curvature="0"
           d="m 117.11149,110.959 c -1.48448,0 -2.69006,1.2056 -2.69006,2.6901 -2e-5,1.4845 1.20558,2.6901 2.69006,2.6901 1.4845,0 2.69008,-1.2056 2.69009,-2.6901 0,-1.4845 -1.20559,-2.6901 -2.69009,-2.6901 z m 0,1.3566 c 0.74537,0 1.35655,0.5881 1.35653,1.3335 2e-5,0.7454 -0.61116,1.3565 -1.35653,1.3565 -0.74538,0 -1.35651,-0.6111 -1.35653,-1.3565 0,-0.7454 0.61115,-1.3335 1.35654,-1.3335 z"
           id="connector10pin"
           inkscape:label="" />
        <path
           style="display:inline;fill:#f7bd13;fill-opacity:1;stroke:none"
           inkscape:connector-curvature="0"
           d="m 117.11149,119.959 c -1.48448,0 -2.69006,1.2056 -2.69006,2.6901 -2e-5,1.4845 1.20558,2.6901 2.69006,2.6901 1.4845,0 2.69008,-1.2056 2.69009,-2.6901 0,-1.4845 -1.20559,-2.6901 -2.69009,-2.6901 z m 0,1.3566 c 0.74537,0 1.35655,0.5881 1.35653,1.3335 2e-5,0.7454 -0.61116,1.3565 -1.35653,1.3565 -0.74538,0 -1.35651,-0.6111 -1.35653,-1.3565 0,-0.7454 0.61115,-1.3335 1.35654,-1.3335 z"
           id="connector9pin"
           inkscape:label="" />
        <path
           style="display:inline;fill:#f7bd13;fill-opacity:1;stroke:none"
           inkscape:connector-curvature="0"
           d="m 117.11149,128.959 c -1.48448,0 -2.69006,1.2056 -2.69006,2.6901 -2e-5,1.4845 1.20558,2.6901 2.69006,2.6901 1.4845,0 2.69008,-1.2056 2.69009,-2.6901 0,-1.4845 -1.20559,-2.6901 -2.69009,-2.6901 z m 0,1.3566 c 0.74537,0 1.35655,0.5881 1.35653,1.3335 2e-5,0.74541 -0.61116,1.3565 -1.35653,1.3565 -0.74538,0 -1.35651,-0.61109 -1.35653,-1.3565 0,-0.7454 0.61115,-1.3335 1.35654,-1.3335 z"
           id="connector8pin"
           inkscape:label="" />
        <path
           style="display:inline;fill:#f7bd13;fill-opacity:1;stroke:none"
           inkscape:connector-curvature="0"
           d="m 117.11149,137.959 c -1.48448,0 -2.69006,1.20561 -2.69006,2.69011 -2e-5,1.4845 1.20558,2.6901 2.69006,2.6901 1.4845,0 2.69008,-1.2056 2.69009,-2.6901 0,-1.4845 -1.20559,-2.69011 -2.69009,-2.69011 z m 0,1.35661 c 0.74537,0 1.35655,0.5881 1.35653,1.3335 2e-5,0.7454 -0.61116,1.3565 -1.35653,1.3565 -0.74538,0 -1.35651,-0.6111 -1.35653,-1.3565 0,-0.7454 0.61115,-1.3335 1.35654,-1.3335 z"
           id="connector7pin"
           inkscape:label="" />
        <path
           style="display:inline;fill:#f7bd13;fill-opacity:1;stroke:none"
           inkscape:connector-curvature="0"
           d="m 117.11149,146.95901 c -1.48448,0 -2.69006,1.2056 -2.69006,2.6901 -2e-5,1.4845 1.20558,2.6901 2.69006,2.6901 1.4845,0 2.69008,-1.2056 2.69009,-2.6901 0,-1.4845 -1.20559,-2.6901 -2.69009,-2.6901 z m 0,1.3566 c 0.74537,0 1.35655,0.5881 1.35653,1.3335 2e-5,0.7454 -0.61116,1.3565 -1.35653,1.3565 -0.74538,0 -1.35651,-0.6111 -1.35653,-1.3565 0,-0.7454 0.61115,-1.3335 1.35654,-1.3335 z"
           id="connector6pin"
           inkscape:label="" />
        <path
           style="display:inline;fill:#f7bd13;fill-opacity:1;stroke:none"
           inkscape:connector-curvature="0"
           d="m 117.11149,155.95901 c -1.48448,0 -2.69006,1.2056 -2.69006,2.6901 -2e-5,1.4845 1.20558,2.6901 2.69006,2.6901 1.4845,0 2.69008,-1.2056 2.69009,-2.6901 0,-1.4845 -1.20559,-2.6901 -2.69009,-2.6901 z m 0,1.3566 c 0.74537,0 1.35655,0.5881 1.35653,1.3335 2e-5,0.7454 -0.61116,1.3565 -1.35653,1.3565 -0.74538,0 -1.35651,-0.6111 -1.35653,-1.3565 0,-0.7454 0.61115,-1.3335 1.35654,-1.3335 z"
           id="connector5pin"
           inkscape:label="" />
        <path
           style="display:inline;fill:#f7bd13;fill-opacity:1;stroke:none"
           inkscape:connector-curvature="0"
           d="m 117.11149,164.95901 c -1.48448,0 -2.69006,1.2056 -2.69006,2.6901 -2e-5,1.4845 1.20558,2.6901 2.69006,2.6901 1.4845,0 2.69008,-1.2056 2.69009,-2.6901 0,-1.4845 -1.20559,-2.6901 -2.69009,-2.6901 z m 0,1.3566 c 0.74537,0 1.35655,0.5881 1.35653,1.3335 2e-5,0.7454 -0.61116,1.3565 -1.35653,1.3565 -0.74538,0 -1.35651,-0.6111 -1.35653,-1.3565 0,-0.7454 0.61115,-1.3335 1.35654,-1.3335 z"
           id="connector4pin"
           inkscape:label="" />
        <path
           style="display:inline;fill:#f7bd13;fill-opacity:1;stroke:none"
           inkscape:connector-curvature="0"
           d="m 117.11149,173.95901 c -1.48448,0 -2.69006,1.2056 -2.69006,2.6901 -2e-5,1.4845 1.20558,2.6901 2.69006,2.6901 1.4845,0 2.69008,-1.2056 2.69009,-2.6901 0,-1.4845 -1.20559,-2.6901 -2.69009,-2.6901 z m 0,1.3566 c 0.74537,0 1.35655,0.5881 1.35653,1.3335 2e-5,0.7454 -0.61116,1.3565 -1.35653,1.3565 -0.74538,0 -1.35651,-0.6111 -1.35653,-1.3565 0,-0.7454 0.61115,-1.3335 1.35654,-1.3335 z"
           id="connector3pin"
           inkscape:label="" />
        <path
           style="display:inline;fill:#f7bd13;fill-opacity:1;stroke:none"
           inkscape:connector-curvature="0"
           d="m 117.11149,182.95901 c -1.48448,0 -2.69006,1.2056 -2.69006,2.6901 -2e-5,1.4845 1.20558,2.6901 2.69006,2.6901 1.4845,0 2.69008,-1.2056 2.69009,-2.6901 0,-1.4845 -1.20559,-2.6901 -2.69009,-2.6901 z m 0,1.3566 c 0.74537,0 1.35655,0.5881 1.35653,1.3335 2e-5,0.7454 -0.61116,1.3565 -1.35653,1.3565 -0.74538,0 -1.35651,-0.6111 -1.35653,-1.3565 0,-0.7454 0.61115,-1.3335 1.35654,-1.3335 z"
           id="connector2pin"
           inkscape:label="" />
        <path
           style="display:inline;fill:#f7bd13;fill-opacity:1;stroke:none"
           inkscape:connector-curvature="0"
           d="m 117.11149,20.958997 c -1.48448,0 -2.69006,1.2056 -2.69006,2.6901 -2e-5,1.4845 1.20558,2.6901 2.69006,2.6901 1.4845,0 2.69008,-1.2056 2.69009,-2.6901 0,-1.4845 -1.20559,-2.6901 -2.69009,-2.6901 z m 0,1.3566 c 0.74537,0 1.35655,0.5881 1.35653,1.3335 2e-5,0.7454 -0.61116,1.3565 -1.35653,1.3565 -0.74538,0 -1.35651,-0.6111 -1.35653,-1.3565 0,-0.7454 0.61115,-1.3335 1.35654,-1.3335 z"
           id="connector20pin"
           inkscape:label="" />
        <path
           style="display:inline;fill:#f7bd13;fill-opacity:1;stroke:none"
           inkscape:connector-curvature="0"
           d="m 119.81151,197.33921 0,-5.5354 -5.5115,0 0,5.5354 5.5115,0 z m -2.75575,-1.3658 c -0.77686,0 -1.41382,-0.613 -1.41382,-1.3899 0,-0.7769 0.63696,-1.4138 1.41382,-1.4138 0.77685,0 1.41383,0.6369 1.41383,1.4138 0,0.7769 -0.63698,1.3899 -1.41387,1.3898 z"
           id="connector1pin"
           inkscape:label="" />
      </g>
    </g>
  </g>
</svg>
