<?xml version="1.0" encoding="UTF-8" standalone="no"?>
<svg
   xmlns:dc="http://purl.org/dc/elements/1.1/"
   xmlns:cc="http://creativecommons.org/ns#"
   xmlns:rdf="http://www.w3.org/1999/02/22-rdf-syntax-ns#"
   xmlns:svg="http://www.w3.org/2000/svg"
   xmlns="http://www.w3.org/2000/svg"
   xmlns:sodipodi="http://sodipodi.sourceforge.net/DTD/sodipodi-0.dtd"
   xmlns:inkscape="http://www.inkscape.org/namespaces/inkscape"
   height="26mm"
   width="22mm"
   version="1.1"
   id="svg2"
   inkscape:version="0.91 r13725"
   sodipodi:docname="Grove_Light_Sensor.svg">
  <defs
     id="defs61" />
  <sodipodi:namedview
     pagecolor="#ffffff"
     bordercolor="#666666"
     borderopacity="1"
     objecttolerance="10"
     gridtolerance="10"
     guidetolerance="10"
     inkscape:pageopacity="0"
     inkscape:pageshadow="2"
     inkscape:window-width="1920"
     inkscape:window-height="1017"
     id="namedview59"
     showgrid="true"
     units="mm"
     inkscape:snap-object-midpoints="true"
     inkscape:snap-bbox="true"
     inkscape:snap-bbox-midpoints="true"
     showguides="true"
     inkscape:guide-bbox="true"
     inkscape:bbox-nodes="false"
     inkscape:snap-bbox-edge-midpoints="true"
     inkscape:bbox-paths="false"
     inkscape:zoom="8.2408494"
     inkscape:cx="29.720192"
     inkscape:cy="48.379063"
     inkscape:window-x="-8"
     inkscape:window-y="1072"
     inkscape:window-maximized="1"
     inkscape:current-layer="layer1">
    <inkscape:grid
       type="xygrid"
       id="grid4189"
       units="mm"
       spacingx="3.5433071"
       spacingy="3.5433071"
       empcolor="#000000"
       empopacity="0.25098039"
       empspacing="2" />
    <sodipodi:guide
       position="54.100106,15.487818"
       orientation="0,1"
       id="guide4270" />
  </sodipodi:namedview>
  <metadata
     id="metadata13579">
    <rdf:RDF>
      <cc:Work
         rdf:about="">
        <dc:format>image/svg+xml</dc:format>
        <dc:type
           rdf:resource="http://purl.org/dc/dcmitype/StillImage" />
        <dc:title></dc:title>
      </cc:Work>
    </rdf:RDF>
  </metadata>
  <g
     inkscape:groupmode="layer"
     id="layer1"
     inkscape:label="Board"
     style="display:inline"
     sodipodi:insensitive="true">
    <path
       style="display:inline;fill:#274a88"
       inkscape:connector-curvature="0"
       d="m 38.980807,3.4593996 c -3.099659,0 -5.625,2.525341 -5.625,5.625 l -26.9999999,0 c -1.570394,0 -2.8125,1.2421064 -2.8125,2.8125004 l 0,27 c 3.099659,0 5.59375,2.525341 5.59375,5.625 0,3.099659 -2.494091,5.59375 -5.59375,5.59375 l 0,27 c 0,1.570394 1.242106,2.8125 2.8125,2.8125 l 26.9999999,0 c 0,3.099659 2.525341,5.625 5.625,5.625 3.099662,0 5.593752,-2.525341 5.593752,-5.625 l 27,0 c 1.57039,0 2.8125,-1.242106 2.8125,-2.8125 l 0,-27 c -3.09966,0 -5.59375,-2.494091 -5.59375,-5.59375 0,-3.099659 2.49409,-5.625 5.59375,-5.625 l 0,-27 c 0,-1.570394 -1.24211,-2.8125004 -2.8125,-2.8125004 l -27,0 c 0,-3.099659 -2.49409,-5.625 -5.593752,-5.625 z m 0,2.375 c 1.794542,0 3.250002,1.455461 3.250002,3.25 0,1.7945404 -1.45546,3.2500004 -3.250002,3.2500004 -1.794539,0 -3.25,-1.45546 -3.25,-3.2500004 0,-1.794539 1.455461,-3.25 3.25,-3.25 z m 0,70.8750004 c 1.794542,0 3.250002,1.424211 3.250002,3.21875 0,1.794539 -1.45546,3.25 -3.250002,3.25 -1.794539,0 -3.25,-1.455461 -3.25,-3.25 0,-1.794539 1.455461,-3.21875 3.25,-3.21875 z"
       id="Board"
       inkscape:label="" />
  </g>
  <g
     inkscape:groupmode="layer"
     id="layer2"
     inkscape:label="Components"
     style="display:inline"
     sodipodi:insensitive="true">
    <g
       id="Grove_socket"
       transform="matrix(0,-1.2499976,1.2499976,0,-1257.1293,88.580091)"
       inkscape:label="">
      <path
         d="m 31.61401,1022.5921 0,4.5426 -1.561524,0 0.01745,-2.9811 -9.10275,0 0,4.9685 -1.561524,0 0,-1.7034 -2.271347,0 0,-4.8266 14.479696,0 z"
         id="path16826-7"
         inkscape:connector-curvature="0"
         style="fill:#ffffff" />
      <path
         d="m 31.61401,1046.6114 0,4.5426 -14.479696,0 0,-4.8265 2.271347,0 0,-1.7035 1.561524,0 0,4.9685 9.085301,0 0,-2.9811 1.561524,0 z"
         id="path16828-7"
         inkscape:connector-curvature="0"
         style="fill:#ffffff" />
      <path
         d="m 20.967185,1049.5925 0,-4.9685 0,-15.5019 0,-4.9685 9.10275,0 -0.01745,2.9811 0,19.4767 0,2.9811 -9.085301,0 z m 3.832871,-20.5271 1.419471,0 0,-1.4196 -1.419471,0 0,1.4196 z m 1.419471,5.6322 0,-1.4196 -1.419471,0 0,1.4196 1.419471,0 z m 0,9.9831 -1.419471,0 0,1.4196 1.419471,0 0,-1.4196 z m -1.419471,-4.2587 1.419471,0 0,-1.4196 -1.419471,0 0,1.4196 z"
         id="path16830-7"
         inkscape:connector-curvature="0"
         style="fill:#ffffff" />
      <path
         d="m 31.61401,1046.6114 -1.561524,0 0,-19.4767 1.561524,0 0,19.4767 z"
         id="path16832-7"
         inkscape:connector-curvature="0"
         style="fill:#ffffff" />
      <path
         d="m 19.405661,1031.9045 0,-2.7824 1.561524,0 0,15.5019 -1.561524,0 0,-2.7824 0,-9.9371 z"
         id="path16834-3"
         inkscape:connector-curvature="0"
         style="fill:#ffffff" />
      <path
         d="m 16.992349,1031.9045 2.413312,0 0,9.9371 -2.413312,0 0,-9.9371 z"
         id="path16836-3"
         inkscape:connector-curvature="0"
         style="fill:#dbdbdb" />
      <path
         d="m 31.61401,1027.1347 0,-4.5426"
         id="path22208-5"
         stroke-miterlimit="10"
         inkscape:connector-curvature="0"
         style="fill:none;stroke:#000000;stroke-width:0.088122;stroke-miterlimit:10" />
      <path
         d="m 31.61401,1027.1347 -1.561524,0"
         id="path22210-9"
         stroke-miterlimit="10"
         inkscape:connector-curvature="0"
         style="fill:none;stroke:#000000;stroke-width:0.088122;stroke-miterlimit:10" />
      <path
         d="m 30.069935,1024.1536 -0.01745,2.9811"
         id="path22212-9"
         stroke-miterlimit="10"
         inkscape:connector-curvature="0"
         style="fill:none;stroke:#000000;stroke-width:0.088122;stroke-miterlimit:10" />
      <path
         d="m 20.967185,1024.1536 9.10275,0"
         id="path22214-8"
         stroke-miterlimit="10"
         inkscape:connector-curvature="0"
         style="fill:none;stroke:#000000;stroke-width:0.088122;stroke-miterlimit:10" />
      <path
         d="m 20.967185,1029.1221 -1.561524,0"
         id="path22216-1"
         stroke-miterlimit="10"
         inkscape:connector-curvature="0"
         style="fill:none;stroke:#000000;stroke-width:0.088122;stroke-miterlimit:10" />
      <path
         d="m 19.405661,1027.4187 0,1.7034"
         id="path22218-8"
         stroke-miterlimit="10"
         inkscape:connector-curvature="0"
         style="fill:none;stroke:#000000;stroke-width:0.088122;stroke-miterlimit:10" />
      <path
         d="m 31.61401,1046.6114 0,-19.4767"
         id="path22220-2"
         stroke-miterlimit="10"
         inkscape:connector-curvature="0"
         style="fill:none;stroke:#000000;stroke-width:0.088122;stroke-miterlimit:10" />
      <path
         d="m 19.405661,1029.1221 0,2.7824"
         id="path22222-6"
         stroke-miterlimit="10"
         inkscape:connector-curvature="0"
         style="fill:none;stroke:#000000;stroke-width:0.088122;stroke-miterlimit:10" />
      <path
         d="m 17.134314,1022.5921 0,4.8266"
         id="path22240-6"
         stroke-miterlimit="10"
         inkscape:connector-curvature="0"
         style="fill:none;stroke:#000000;stroke-width:0.088122;stroke-miterlimit:10" />
      <path
         d="m 19.405661,1027.4187 -2.271347,0"
         id="path22242-0"
         stroke-miterlimit="10"
         inkscape:connector-curvature="0"
         style="fill:none;stroke:#000000;stroke-width:0.088122;stroke-miterlimit:10" />
      <path
         d="m 19.405661,1031.9045 -2.413312,0"
         id="path22244-3"
         stroke-miterlimit="10"
         inkscape:connector-curvature="0"
         style="fill:none;stroke:#000000;stroke-width:0.088122;stroke-miterlimit:10" />
      <path
         d="m 30.052486,1049.5925 -9.085301,0"
         id="path22246-8"
         stroke-miterlimit="10"
         inkscape:connector-curvature="0"
         style="fill:none;stroke:#000000;stroke-width:0.088122;stroke-miterlimit:10" />
      <path
         d="m 30.052486,1046.6114 0,2.9811"
         id="path22248-0"
         stroke-miterlimit="10"
         inkscape:connector-curvature="0"
         style="fill:none;stroke:#000000;stroke-width:0.088122;stroke-miterlimit:10" />
      <path
         d="m 31.61401,1046.6114 -1.561524,0"
         id="path22250-1"
         stroke-miterlimit="10"
         inkscape:connector-curvature="0"
         style="fill:none;stroke:#000000;stroke-width:0.088122;stroke-miterlimit:10" />
      <path
         d="m 31.61401,1046.6114 0,4.5426"
         id="path22252-2"
         stroke-miterlimit="10"
         inkscape:connector-curvature="0"
         style="fill:none;stroke:#000000;stroke-width:0.088122;stroke-miterlimit:10" />
      <path
         d="m 19.405661,1046.3275 0,-1.7035"
         id="path22254-5"
         stroke-miterlimit="10"
         inkscape:connector-curvature="0"
         style="fill:none;stroke:#000000;stroke-width:0.088122;stroke-miterlimit:10" />
      <path
         d="m 19.405661,1044.624 1.561524,0"
         id="path22256-0"
         stroke-miterlimit="10"
         inkscape:connector-curvature="0"
         style="fill:none;stroke:#000000;stroke-width:0.088122;stroke-miterlimit:10" />
      <path
         d="m 19.405661,1044.624 0,-2.7824"
         id="path22258-9"
         stroke-miterlimit="10"
         inkscape:connector-curvature="0"
         style="fill:none;stroke:#000000;stroke-width:0.088122;stroke-miterlimit:10" />
      <path
         d="m 17.134314,1051.154 0,-4.8265"
         id="path22276-4"
         stroke-miterlimit="10"
         inkscape:connector-curvature="0"
         style="fill:none;stroke:#000000;stroke-width:0.088122;stroke-miterlimit:10" />
      <path
         d="m 19.405661,1046.3275 -2.271347,0"
         id="path22278-7"
         stroke-miterlimit="10"
         inkscape:connector-curvature="0"
         style="fill:none;stroke:#000000;stroke-width:0.088122;stroke-miterlimit:10" />
      <path
         d="m 19.405661,1041.8416 -2.413312,0"
         id="path22280-8"
         stroke-miterlimit="10"
         inkscape:connector-curvature="0"
         style="fill:none;stroke:#000000;stroke-width:0.088122;stroke-miterlimit:10" />
      <path
         d="m 17.134314,1022.5921 14.479696,0"
         id="path29506-3"
         stroke-miterlimit="10"
         inkscape:connector-curvature="0"
         style="fill:none;stroke:#000000;stroke-width:0.088122;stroke-miterlimit:10" />
      <path
         d="m 19.405661,1031.9045 0,9.9371"
         id="path29508-5"
         stroke-miterlimit="10"
         inkscape:connector-curvature="0"
         style="fill:none;stroke:#000000;stroke-width:0.088122;stroke-miterlimit:10" />
      <path
         d="m 31.61401,1051.154 -14.479696,0"
         id="path29510-1"
         stroke-miterlimit="10"
         inkscape:connector-curvature="0"
         style="fill:none;stroke:#000000;stroke-width:0.088122;stroke-miterlimit:10" />
      <path
         d="m 30.052486,1027.1347 0,19.4767"
         id="path29512-2"
         stroke-miterlimit="10"
         inkscape:connector-curvature="0"
         style="fill:none;stroke:#000000;stroke-width:0.088122;stroke-miterlimit:10" />
    </g>
    <g
       transform="matrix(1.2130459,0,0,1.29649,8.2729731,21.259842)"
       id="Light_Sensor"
       inkscape:label="">
      <path
         inkscape:connector-curvature="0"
         id="path13"
         d="m 4.864,5.465 c 0,2.178 0.959,4.127 2.473,5.467 l 9.655,0 C 18.509,9.594 19.469,7.646 19.469,5.465 19.469,3.288 18.509,1.339 16.992,0 L 7.336,0 C 5.823,1.337 4.864,3.287 4.864,5.465 Z" />
      <rect
         y="0"
         id="rect15"
         width="9.6560001"
         x="7.336"
         height="10.932" />
      <path
         style="fill:#cccccc"
         inkscape:connector-curvature="0"
         id="path17"
         d="m 17.009,10.306 c 0,0 -2.349,0.229 -4.845,0.229 -2.496,0 -4.844,-0.229 -4.844,-0.229 0,0 -0.224,-2.344 -0.224,-4.841 0,-2.496 0.225,-4.844 0.225,-4.844 0,0 2.348,-0.229 4.844,-0.229 2.495,0 4.844,0.229 4.844,0.229 0,0 0.228,2.348 0.228,4.844 -0.005,2.497 -0.228,4.841 -0.228,4.841 z" />
      <path
         style="fill:#8f0000"
         inkscape:connector-curvature="0"
         id="path19"
         d="M 16.482,1.36 16.451,1.178 16.267,1.147 C 16.246,1.144 14.288,0.835 12.163,0.835 11.054,0.835 10,0.922 9.312,0.981 8.621,1.055 8.262,1.095 8.068,1.145 8.011,1.145 7.963,1.166 7.923,1.207 7.861,1.235 7.848,1.288 7.846,1.35 7.786,1.538 7.738,1.9 7.667,2.613 7.614,3.149 7.525,4.24 7.525,5.47 c 0,2.136 0.32,4.088 0.323,4.105 l 0.031,0.181 0.181,0.03 c 0.019,0.004 1.971,0.314 4.105,0.314 2.138,0 4.086,-0.312 4.104,-0.312 l 0.184,-0.03 0.029,-0.181 c 0.004,-0.021 0.32,-1.979 0.32,-4.105 0,-2.126 -0.318,-4.093 -0.32,-4.112 z M 8.326,9.303 C 8.249,8.779 8.036,7.185 8.036,5.465 8.036,3.665 8.224,2.083 8.307,1.626 8.49,1.599 8.834,1.552 9.271,1.505 9.264,1.548 9.253,1.583 9.253,1.63 c 0,0.306 0.188,0.821 0.21,0.879 0.045,0.119 0.167,0.189 0.292,0.162 0.012,-0.002 1.157,-0.235 2.41,-0.235 1.188,0 2.271,0.209 2.39,0.23 0.002,0.005 0.012,0.02 0.012,0.061 0,0.104 -0.049,0.271 -0.103,0.416 -0.282,-0.049 -0.815,-0.125 -1.434,-0.125 -0.887,0 -1.736,0.158 -1.771,0.165 -0.075,0.021 -0.138,0.062 -0.176,0.126 -0.017,0.03 -0.103,0.196 -0.103,0.521 0,0.271 0.071,0.646 0.074,0.676 0.013,0.062 0.051,0.127 0.107,0.165 0.057,0.039 0.127,0.052 0.195,0.039 0.003,0 0.389,-0.075 0.809,-0.075 0.26,0 0.495,0.028 0.646,0.05 0.021,0.065 0.021,0.147 0.021,0.241 0,0.103 -0.012,0.204 -0.023,0.29 l -0.645,0 -0.858,0 c -0.119,0 -0.222,0.081 -0.25,0.195 -0.003,0.012 -0.076,0.31 -0.076,0.604 0,0.301 0.075,0.524 0.082,0.551 0.03,0.086 0.104,0.151 0.194,0.169 0.018,0.003 0.436,0.084 0.908,0.084 0.247,0 0.476,-0.02 0.645,-0.044 0.021,0.105 0.025,0.229 0.025,0.335 0,0.074 -0.009,0.119 -0.016,0.163 -0.28,0.044 -0.896,0.129 -1.521,0.129 -0.833,0 -1.535,-0.146 -1.542,-0.146 -0.1,-0.021 -0.2,0.016 -0.26,0.097 -0.02,0.024 -0.231,0.313 -0.231,0.657 0,0.345 0.211,0.63 0.236,0.661 0.038,0.049 0.092,0.083 0.152,0.096 0.048,0.012 1.207,0.246 2.513,0.246 0.985,0 1.885,-0.134 2.29,-0.203 0.054,0.177 0.105,0.384 0.105,0.495 0,0.083 -0.029,0.139 -0.062,0.179 C 13.822,9.546 13.012,9.597 12.159,9.597 10.445,9.593 8.85,9.381 8.326,9.303 Z m 7.676,0 C 15.813,9.331 15.481,9.378 15.061,9.423 15.067,9.382 15.082,9.348 15.082,9.3 15.082,8.996 14.894,8.48 14.871,8.423 14.827,8.303 14.704,8.234 14.579,8.26 14.562,8.262 13.421,8.495 12.169,8.495 11.127,8.495 10.168,8.335 9.866,8.28 9.825,8.208 9.782,8.1 9.782,8.006 9.782,7.93 9.808,7.85 9.838,7.781 c 0.275,0.048 0.826,0.132 1.465,0.132 0.886,0 1.736,-0.159 1.771,-0.165 0.07,-0.021 0.139,-0.062 0.176,-0.128 0.02,-0.03 0.104,-0.194 0.104,-0.521 0,-0.287 -0.062,-0.66 -0.062,-0.675 C 13.271,6.358 13.23,6.298 13.188,6.262 13.126,6.223 13.059,6.209 13,6.221 12.975,6.226 12.586,6.3 12.17,6.3 11.909,6.3 11.674,6.272 11.523,6.251 11.511,6.185 11.501,6.105 11.501,6.011 c 0,-0.104 0.012,-0.204 0.025,-0.291 l 0.644,0 0.855,0 c 0.119,0 0.226,-0.082 0.252,-0.196 0.002,-0.013 0.074,-0.312 0.074,-0.604 0,-0.302 -0.074,-0.524 -0.082,-0.552 C 13.24,4.27 13.165,4.218 13.078,4.2 13.058,4.179 12.641,4.097 12.169,4.097 11.921,4.097 11.694,4.119 11.524,4.159 11.51,4.053 11.498,3.93 11.498,3.806 c 0,-0.062 0.009,-0.104 0.015,-0.146 0.28,-0.044 0.896,-0.146 1.521,-0.146 0.829,0 1.532,0.153 1.541,0.154 0.118,0.026 0.239,-0.035 0.288,-0.146 0.021,-0.06 0.219,-0.492 0.219,-0.812 0,-0.376 -0.264,-0.53 -0.398,-0.562 -0.05,-0.021 -1.207,-0.241 -2.515,-0.241 -0.985,0 -1.884,0.136 -2.291,0.2 -0.055,-0.188 -0.11,-0.392 -0.11,-0.492 0,-0.081 0.031,-0.146 0.06,-0.187 0.681,-0.062 1.498,-0.104 2.339,-0.104 1.72,0 3.312,0.212 3.838,0.286 0.076,0.521 0.289,2.115 0.289,3.84 -0.005,1.734 -0.214,3.328 -0.292,3.853 z" />
      <circle
         style="fill:#8c8c8c"
         cy="5.4660001"
         cx="6.4330001"
         r="1.3789999"
         id="circle21" />
      <circle
         style="fill:#8c8c8c"
         cy="5.4650002"
         cx="17.895"
         r="1.3789999"
         id="circle23" />
      <path
         style="opacity:0.2"
         inkscape:connector-curvature="0"
         id="path25"
         d="M 16.992,0 7.336,0 C 5.823,1.337 4.864,3.287 4.864,5.465 c 0,2.178 0.959,4.127 2.473,5.467 l 9.655,0 C 18.509,9.594 19.469,7.646 19.469,5.465 19.466,3.287 18.507,1.337 16.992,0 Z m -5.124,9.661 c -2.485,0 -4.5,-2.021 -4.5,-4.5 0,-2.485 2.015,-4.501 4.5,-4.501 2.483,0 4.501,2.016 4.501,4.501 0,2.484 -2.015,4.5 -4.501,4.5 z" />
      <circle
         style="opacity:0.8;fill:#ffffff"
         cy="3.398"
         cx="10.357"
         r="1.17"
         id="circle27" />
    </g>
    <g
       id="IC1"
       inkscape:label=""
       transform="translate(-46.062993,7.0866138)">
      <rect
         height="14.173228"
         x="85.039368"
         y="21.259842"
         width="17.716536"
         id="rect4321"
         style="fill:#333333" />
      <rect
         y="17.716536"
         x="85.039368"
         height="3.5433071"
         width="1.7716535"
         id="rect4272"
         style="fill:#8c8c8c;fill-opacity:1;stroke:none;stroke-width:1;stroke-linecap:round;stroke-linejoin:miter;stroke-miterlimit:4;stroke-dasharray:none;stroke-opacity:1" />
      <rect
         y="17.716536"
         x="90.354332"
         height="3.5433071"
         width="1.7716535"
         id="rect4272-7"
         style="fill:#8c8c8c;fill-opacity:1;stroke:none;stroke-width:1;stroke-linecap:round;stroke-linejoin:miter;stroke-miterlimit:4;stroke-dasharray:none;stroke-opacity:1" />
      <rect
         y="17.716536"
         x="100.98425"
         height="3.5433071"
         width="1.7716535"
         id="rect4272-1"
         style="fill:#8c8c8c;fill-opacity:1;stroke:none;stroke-width:1;stroke-linecap:round;stroke-linejoin:miter;stroke-miterlimit:4;stroke-dasharray:none;stroke-opacity:1" />
      <rect
         y="17.716536"
         x="95.669289"
         height="3.5433071"
         width="1.7716535"
         id="rect4272-0"
         style="fill:#8c8c8c;fill-opacity:1;stroke:none;stroke-width:1;stroke-linecap:round;stroke-linejoin:miter;stroke-miterlimit:4;stroke-dasharray:none;stroke-opacity:1" />
      <rect
         y="35.433071"
         x="85.039368"
         height="3.5433071"
         width="1.7716535"
         id="rect4272-06"
         style="fill:#8c8c8c;fill-opacity:1;stroke:none;stroke-width:1;stroke-linecap:round;stroke-linejoin:miter;stroke-miterlimit:4;stroke-dasharray:none;stroke-opacity:1" />
      <rect
         y="35.433071"
         x="90.354332"
         height="3.5433071"
         width="1.7716535"
         id="rect4272-7-6"
         style="fill:#8c8c8c;fill-opacity:1;stroke:none;stroke-width:1;stroke-linecap:round;stroke-linejoin:miter;stroke-miterlimit:4;stroke-dasharray:none;stroke-opacity:1" />
      <rect
         y="35.433071"
         x="100.98425"
         height="3.5433071"
         width="1.7716535"
         id="rect4272-1-3"
         style="fill:#8c8c8c;fill-opacity:1;stroke:none;stroke-width:1;stroke-linecap:round;stroke-linejoin:miter;stroke-miterlimit:4;stroke-dasharray:none;stroke-opacity:1" />
      <rect
         y="35.433071"
         x="95.669296"
         height="3.5433071"
         width="1.7716535"
         id="rect4272-0-6"
         style="fill:#8c8c8c;fill-opacity:1;stroke:none;stroke-width:1;stroke-linecap:round;stroke-linejoin:miter;stroke-miterlimit:4;stroke-dasharray:none;stroke-opacity:1" />
    </g>
  </g>
  <g
     inkscape:groupmode="layer"
     id="layer3"
     inkscape:label="Labels"
     style="display:inline"
     sodipodi:insensitive="true">
    <text
       style="font-style:normal;font-variant:normal;font-weight:normal;font-stretch:normal;font-size:4px;line-height:125%;font-family:OCRA;-inkscape-font-specification:'OCRA, Normal';text-align:center;writing-mode:lr-tb;text-anchor:middle;fill:#ffffff"
       font-size="3.2"
       id="Main_label"
       y="17.461227"
       x="38.97369"
       inkscape:label=""
       sodipodi:linespacing="125%">Light Sensor</text>
    <text
       xml:space="preserve"
       style="font-style:normal;font-variant:normal;font-weight:normal;font-stretch:normal;font-size:4px;line-height:125%;font-family:OCRA;-inkscape-font-specification:'OCRA, Normal';text-align:start;letter-spacing:0px;word-spacing:0px;writing-mode:lr-tb;text-anchor:start;display:inline;fill:#ffffff;fill-opacity:1;stroke:none;stroke-width:1px;stroke-linecap:butt;stroke-linejoin:miter;stroke-opacity:1"
       x="-77.090164"
       y="51.166298"
       id="Label_GND"
       sodipodi:linespacing="125%"
       transform="matrix(0,-1,1,0,0,0)"
       inkscape:label=""><tspan
         sodipodi:role="line"
         id="tspan4153"
         x="-77.090164"
         y="51.166298"
         style="font-style:normal;font-variant:normal;font-weight:normal;font-stretch:normal;font-size:4px;line-height:125%;font-family:OCRA;-inkscape-font-specification:'OCRA, Normal';text-align:start;writing-mode:lr-tb;text-anchor:start">GND</tspan></text>
    <text
       xml:space="preserve"
       style="font-style:normal;font-variant:normal;font-weight:normal;font-stretch:normal;font-size:3.75px;line-height:125%;font-family:OCRA;-inkscape-font-specification:'OCRA, Normal';text-align:start;letter-spacing:0px;word-spacing:0px;writing-mode:lr-tb;text-anchor:start;display:inline;fill:#000000;fill-opacity:1;stroke:none;stroke-width:1px;stroke-linecap:butt;stroke-linejoin:miter;stroke-opacity:1"
       x="-77.090164"
       y="44.079685"
       id="Label_VCC"
       sodipodi:linespacing="125%"
       transform="matrix(0,-1,1,0,0,0)"
       inkscape:label=""><tspan
         sodipodi:role="line"
         id="tspan4157"
         x="-77.090164"
         y="44.079685"
         style="font-style:normal;font-variant:normal;font-weight:normal;font-stretch:normal;font-size:4px;line-height:125%;font-family:OCRA;-inkscape-font-specification:'OCRA, Normal';text-align:start;writing-mode:lr-tb;text-anchor:start;fill:#ffffff">VCC</tspan></text>
    <text
       xml:space="preserve"
       style="font-style:normal;font-variant:normal;font-weight:normal;font-stretch:normal;font-size:3.75px;line-height:125%;font-family:OCRA;-inkscape-font-specification:'OCRA, Normal';text-align:start;letter-spacing:0px;word-spacing:0px;writing-mode:lr-tb;text-anchor:start;display:inline;fill:#000000;fill-opacity:1;stroke:none;stroke-width:1px;stroke-linecap:butt;stroke-linejoin:miter;stroke-opacity:1"
       x="-77.090164"
       y="36.993073"
       id="Label_NC"
       sodipodi:linespacing="125%"
       transform="matrix(0,-1,1,0,0,0)"
       inkscape:label=""><tspan
         sodipodi:role="line"
         id="tspan4161"
         x="-77.090164"
         y="36.993073"
         style="font-style:normal;font-variant:normal;font-weight:normal;font-stretch:normal;font-size:4px;line-height:125%;font-family:OCRA;-inkscape-font-specification:'OCRA, Normal';text-align:start;writing-mode:lr-tb;text-anchor:start;fill:#ffffff">NC</tspan></text>
    <text
       xml:space="preserve"
       style="font-style:normal;font-variant:normal;font-weight:normal;font-stretch:normal;font-size:3.75px;line-height:125%;font-family:OCRA;-inkscape-font-specification:'OCRA, Normal';text-align:start;letter-spacing:0px;word-spacing:0px;writing-mode:lr-tb;text-anchor:start;display:inline;fill:#000000;fill-opacity:1;stroke:none;stroke-width:1px;stroke-linecap:butt;stroke-linejoin:miter;stroke-opacity:1"
       x="-77.090164"
       y="29.906456"
       id="Label_SIG"
       sodipodi:linespacing="125%"
       transform="matrix(0,-1,1,0,0,0)"
       inkscape:label=""><tspan
         sodipodi:role="line"
         id="tspan4165"
         x="-77.090164"
         y="29.906456"
         style="font-style:normal;font-variant:normal;font-weight:normal;font-stretch:normal;font-size:4px;line-height:125%;font-family:OCRA;-inkscape-font-specification:'OCRA, Normal';text-align:start;writing-mode:lr-tb;text-anchor:start;fill:#ffffff">SIG</tspan></text>
  </g>
  <g
     inkscape:groupmode="layer"
     id="layer4"
     inkscape:label="Pins"
     style="display:inline"
     sodipodi:insensitive="true">
    <path
       d="m 29.19998,57.58008 -1.774496,0 0,-1.774335 1.774496,0 0,1.774335 z"
       id="connector1pin"
       inkscape:connector-curvature="0"
       style="fill:#ffe500;stroke:#000000;stroke-width:0.10999979;stroke-linejoin:round"
       inkscape:label="" />
    <path
       d="m 34.46572,55.805745 1.774497,0 0,1.774335 -1.774497,0 0,-1.774335 z"
       id="connector2pin"
       inkscape:connector-curvature="0"
       style="fill:#ffe500;stroke:#000000;stroke-width:0.10999979;stroke-linejoin:round"
       inkscape:label="" />
    <path
       d="m 41.621206,57.58008 0,-1.774335 1.774497,0 0,1.774335 -1.774497,0 z"
       id="connector3pin"
       inkscape:connector-curvature="0"
       style="fill:#ffe500;stroke:#000000;stroke-width:0.10999979;stroke-linejoin:round"
       inkscape:label="" />
    <path
       d="m 48.719068,57.58008 0,-1.774335 1.774496,0 0,1.774335 -1.774496,0 z"
       id="connector4pin"
       inkscape:connector-curvature="0"
       style="fill:#ffe500;stroke:#000000;stroke-width:0.10999979;stroke-linejoin:round"
       inkscape:label="" />
  </g>
</svg>
