<?xml version="1.0" encoding="UTF-8" standalone="no"?>
<svg
   xmlns:dc="http://purl.org/dc/elements/1.1/"
   xmlns:cc="http://creativecommons.org/ns#"
   xmlns:rdf="http://www.w3.org/1999/02/22-rdf-syntax-ns#"
   xmlns:svg="http://www.w3.org/2000/svg"
   xmlns="http://www.w3.org/2000/svg"
   xmlns:sodipodi="http://sodipodi.sourceforge.net/DTD/sodipodi-0.dtd"
   xmlns:inkscape="http://www.inkscape.org/namespaces/inkscape"
   width="22mm"
   gorn="0"
   version="1.1"
   height="26mm"
   id="svg2"
   inkscape:version="0.91 r13725"
   sodipodi:docname="Grove_Rotary_Angle_Sensor_P.svg">
  <sodipodi:namedview
     pagecolor="#ffffff"
     bordercolor="#666666"
     borderopacity="1"
     objecttolerance="10"
     gridtolerance="10"
     guidetolerance="10"
     inkscape:pageopacity="0"
     inkscape:pageshadow="2"
     inkscape:window-width="1920"
     inkscape:window-height="1017"
     id="namedview143"
     showgrid="true"
     units="mm"
     inkscape:snap-bbox="true"
     inkscape:object-paths="true"
     inkscape:snap-intersection-paths="true"
     inkscape:object-nodes="true"
     inkscape:snap-smooth-nodes="true"
     inkscape:snap-midpoints="true"
     inkscape:snap-nodes="false"
     inkscape:snap-bbox-midpoints="false"
     inkscape:snap-center="true"
     inkscape:snap-object-midpoints="true"
     inkscape:bbox-nodes="true"
     inkscape:snap-bbox-edge-midpoints="true"
     inkscape:zoom="8.2408494"
     inkscape:cx="6.726407"
     inkscape:cy="22.667799"
     inkscape:window-x="-8"
     inkscape:window-y="1072"
     inkscape:window-maximized="1"
     inkscape:current-layer="layer3">
    <inkscape:grid
       type="xygrid"
       id="grid4271"
       units="mm"
       spacingx="3.5433071"
       spacingy="3.5433071"
       empcolor="#000000"
       empopacity="0.25098039"
       empspacing="2" />
  </sodipodi:namedview>
  <desc
     id="desc3">
    <referenceFile>svg.breadboard.grove_potentiometer_breadboard.svg</referenceFile>
  </desc>
  <defs
     id="defs53" />
  <metadata
     id="metadata13579">
    <rdf:RDF>
      <cc:Work
         rdf:about="">
        <dc:format>image/svg+xml</dc:format>
        <dc:type
           rdf:resource="http://purl.org/dc/dcmitype/StillImage" />
        <dc:title />
      </cc:Work>
    </rdf:RDF>
  </metadata>
  <g
     inkscape:groupmode="layer"
     id="layer1"
     inkscape:label="Board"
     sodipodi:insensitive="true">
    <path
       style="display:inline;fill:#274a88"
       inkscape:connector-curvature="0"
       d="m 38.980807,7.0027067 c -3.099659,0 -5.625,2.525341 -5.625,5.6249993 l -26.9999999,0 c -1.570394,0 -2.8125,1.242108 -2.8125,2.812502 l 0,26.999999 c 3.099659,0 5.59375,2.525341 5.59375,5.625 0,3.099659 -2.494091,5.59375 -5.59375,5.59375 l 0,27 c 0,1.570394 1.242106,2.8125 2.8125,2.8125 l 26.9999999,0 c 0,3.099659 2.525341,5.625 5.625,5.625 3.099662,0 5.593752,-2.525341 5.593752,-5.625 l 27,0 c 1.57039,0 2.8125,-1.242106 2.8125,-2.8125 l 0,-27 c -3.09966,0 -5.59375,-2.494091 -5.59375,-5.59375 0,-3.099659 2.49409,-5.625 5.59375,-5.625 l 0,-26.999999 c 0,-1.570394 -1.24211,-2.812502 -2.8125,-2.812502 l -27,0 c 0,-3.0996583 -2.49409,-5.6249993 -5.593752,-5.6249993 z m 0,2.375 c 1.794542,0 3.250002,1.4554603 3.250002,3.2499993 0,1.794542 -1.45546,3.250002 -3.250002,3.250002 -1.794539,0 -3.25,-1.45546 -3.25,-3.250002 0,-1.794539 1.455461,-3.2499993 3.25,-3.2499993 z m 0,70.8750003 c 1.794542,0 3.250002,1.424211 3.250002,3.21875 0,1.794539 -1.45546,3.25 -3.250002,3.25 -1.794539,0 -3.25,-1.455461 -3.25,-3.25 0,-1.794539 1.455461,-3.21875 3.25,-3.21875 z"
       id="Board"
       inkscape:label="" />
  </g>
  <g
     inkscape:groupmode="layer"
     id="layer2"
     inkscape:label="Components"
     sodipodi:insensitive="true">
    <g
       id="Encoder"
       inkscape:label=""
       transform="translate(-95.669287,4.4291334)">
      <path
         sodipodi:nodetypes="ccccccc"
         inkscape:connector-curvature="0"
         id="path4653"
         d="m 141.73228,21.259842 3.54331,-7.086614 17.71654,0 0,42.519685 -17.71654,0 -3.54331,-7.086614 z"
         style="fill:#a05a2c;fill-opacity:1;fill-rule:evenodd;stroke:none;stroke-width:1px;stroke-linecap:butt;stroke-linejoin:miter;stroke-opacity:1" />
      <g
         transform="matrix(1.5,0,0,1.4999977,-72.078429,-15.550524)"
         id="g4641">
        <g
           id="g83"
           transform="matrix(-1.1507334,0,0,-1.0475286,182.45359,61.446888)">
          <g
             id="g85">
            <path
               style="fill:#cccccc;fill-opacity:1;stroke:none"
               inkscape:connector-curvature="0"
               id="path3049"
               gorn="0.3.0.0.7.0.0"
               d="m 55.212756,26.211958 a 12.316691,13.530197 0 1 1 -24.633383,0 12.316691,13.530197 0 1 1 24.633383,0 z" />
          </g>
        </g>
        <path
           style="fill:none;stroke:#808080;stroke-width:0.27868885"
           inkscape:connector-curvature="0"
           id="path4323-1"
           gorn="0.3.0.0.8"
           d="m 126.21408,33.989138 c 0,-3.7984 3.0792,-6.87761 6.87759,-6.87761 3.7984,0 6.8776,3.07921 6.8776,6.87761 0,3.79839 -3.0792,6.87759 -6.8776,6.87759 -3.79839,0 -6.87759,-3.0792 -6.87759,-6.87759 z" />
        <g
           id="g89"
           transform="matrix(0,-1,1,0,-860.74168,117.85802)">
          <g
             id="g91">
            <g
               id="g5078"
               gorn="0.3.0.0.9.0.0">
              <path
                 inkscape:connector-curvature="0"
                 id="path4323-6"
                 gorn="0.3.0.0.9.0.0.0"
                 style="opacity:0.92181067;fill:#1a1a1a"
                 d="m 89.18387,993.83333 c 0,2.93537 -2.379589,5.31496 -5.31496,5.31496 -2.935372,0 -5.314961,-2.37959 -5.314961,-5.31496 0,-2.93537 2.379589,-5.31496 5.314961,-5.31496 2.935371,0 5.31496,2.37959 5.31496,5.31496 z" />
              <path
                 inkscape:connector-curvature="0"
                 id="path4323-6-7"
                 gorn="0.3.0.0.9.0.0.1"
                 style="fill:#4d4d4d"
                 d="m 83.87137,988.52078 c -0.832939,0 -1.610734,0.221 -2.3125,0.5625 l 0,9.5313 c 0.701766,0.3416 1.479561,0.5313 2.3125,0.5313 2.935369,0 5.3125,-2.3772 5.3125,-5.3126 0,-2.9353 -2.377131,-5.3125 -5.3125,-5.3125 z" />
              <path
                 inkscape:connector-curvature="0"
                 id="path4323-6-7-0"
                 gorn="0.3.0.0.9.0.0.2"
                 style="opacity:1;fill:#333333"
                 d="m 81.55887,992.84893 0,1.9688 7.53125,0 c 0.05921,-0.3178 0.09375,-0.6337 0.09375,-0.9688 0,-0.3443 -0.03126,-0.674 -0.09375,-1 l -7.53125,0 z" />
            </g>
          </g>
        </g>
      </g>
      <rect
         y="16.830709"
         x="148.81889"
         height="8.8582678"
         width="14.173228"
         id="rect4755"
         style="fill:#8c8c8c;fill-opacity:1;stroke:none;stroke-width:1;stroke-linecap:round;stroke-linejoin:miter;stroke-miterlimit:4;stroke-dasharray:none;stroke-opacity:1" />
      <rect
         y="45.177166"
         x="148.81889"
         height="8.8582678"
         width="14.173228"
         id="rect4755-5"
         style="fill:#8c8c8c;fill-opacity:1;stroke:none;stroke-width:1;stroke-linecap:round;stroke-linejoin:miter;stroke-miterlimit:4;stroke-dasharray:none;stroke-opacity:1" />
      <rect
         y="31.003937"
         x="148.81889"
         height="8.8582678"
         width="14.173228"
         id="rect4755-8"
         style="fill:#8c8c8c;fill-opacity:1;stroke:none;stroke-width:1;stroke-linecap:round;stroke-linejoin:miter;stroke-miterlimit:4;stroke-dasharray:none;stroke-opacity:1" />
      <circle
         r="1.3287401"
         cy="21.259842"
         cx="152.3622"
         id="path4799"
         style="fill:#000000;fill-opacity:1;stroke:none;stroke-width:1;stroke-linecap:round;stroke-linejoin:miter;stroke-miterlimit:4;stroke-dasharray:none;stroke-opacity:1" />
      <circle
         r="1.3287401"
         cy="35.433071"
         cx="152.3622"
         id="path4799-2"
         style="fill:#000000;fill-opacity:1;stroke:none;stroke-width:1;stroke-linecap:round;stroke-linejoin:miter;stroke-miterlimit:4;stroke-dasharray:none;stroke-opacity:1" />
      <circle
         r="1.3287401"
         cy="49.6063"
         cx="152.3622"
         id="path4799-6"
         style="fill:#000000;fill-opacity:1;stroke:none;stroke-width:1;stroke-linecap:round;stroke-linejoin:miter;stroke-miterlimit:4;stroke-dasharray:none;stroke-opacity:1" />
    </g>
  </g>
  <g
     inkscape:groupmode="layer"
     id="layer3"
     inkscape:label="Labels">
    <text
       style="font-style:normal;font-variant:normal;font-weight:normal;font-stretch:normal;font-size:4px;line-height:125%;font-family:OCRA;-inkscape-font-specification:'OCRA, Normal';text-align:center;writing-mode:lr-tb;text-anchor:middle;display:inline;fill:#ffffff"
       font-size="3.2"
       id="Main_label"
       y="67.281906"
       x="39.391663"
       inkscape:label=""
       sodipodi:linespacing="125%">
      <tspan
         sodipodi:role="line"
         id="tspan4893"
         x="39.391663"
         y="67.281906"
         style="font-style:normal;font-variant:normal;font-weight:normal;font-stretch:normal;font-size:5.625px;line-height:125%;font-family:OCRA;-inkscape-font-specification:'OCRA, Normal';text-align:center;writing-mode:lr-tb;text-anchor:middle">Rotary(P)</tspan>
    </text>
    <text
       xml:space="preserve"
       style="font-style:normal;font-variant:normal;font-weight:normal;font-stretch:normal;font-size:4px;line-height:125%;font-family:OCRA;-inkscape-font-specification:'OCRA, Normal';text-align:start;letter-spacing:0px;word-spacing:0px;writing-mode:lr-tb;text-anchor:start;display:inline;fill:#ffffff;fill-opacity:1;stroke:none;stroke-width:1px;stroke-linecap:butt;stroke-linejoin:miter;stroke-opacity:1"
       x="28.344357"
       y="76.846947"
       id="Label_GND"
       sodipodi:linespacing="125%"
       inkscape:label=""><tspan
         sodipodi:role="line"
         id="tspan4153"
         x="28.344357"
         y="76.846947"
         style="font-style:normal;font-variant:normal;font-weight:normal;font-stretch:normal;font-size:3.125px;line-height:125%;font-family:OCRA;-inkscape-font-specification:'OCRA, Normal';text-align:center;writing-mode:lr-tb;text-anchor:middle">GND</tspan></text>
    <text
       xml:space="preserve"
       style="font-style:normal;font-variant:normal;font-weight:normal;font-stretch:normal;font-size:3.75px;line-height:125%;font-family:OCRA;-inkscape-font-specification:'OCRA, Normal';text-align:start;letter-spacing:0px;word-spacing:0px;writing-mode:lr-tb;text-anchor:start;display:inline;fill:#000000;fill-opacity:1;stroke:none;stroke-width:1px;stroke-linecap:butt;stroke-linejoin:miter;stroke-opacity:1"
       x="35.430973"
       y="76.846947"
       id="Label_VCC"
       sodipodi:linespacing="125%"
       inkscape:label=""><tspan
         sodipodi:role="line"
         id="tspan4157"
         x="35.430973"
         y="76.846947"
         style="font-style:normal;font-variant:normal;font-weight:normal;font-stretch:normal;font-size:3.125px;line-height:125%;font-family:OCRA;-inkscape-font-specification:'OCRA, Normal';text-align:center;writing-mode:lr-tb;text-anchor:middle;fill:#ffffff">VCC</tspan></text>
    <text
       xml:space="preserve"
       style="font-style:normal;font-variant:normal;font-weight:normal;font-stretch:normal;font-size:3.75px;line-height:125%;font-family:OCRA;-inkscape-font-specification:'OCRA, Normal';text-align:start;letter-spacing:0px;word-spacing:0px;writing-mode:lr-tb;text-anchor:start;display:inline;fill:#000000;fill-opacity:1;stroke:none;stroke-width:1px;stroke-linecap:butt;stroke-linejoin:miter;stroke-opacity:1"
       x="42.517586"
       y="76.846947"
       id="Label_NC"
       sodipodi:linespacing="125%"
       inkscape:label=""><tspan
         sodipodi:role="line"
         id="tspan4161"
         x="42.517586"
         y="76.846947"
         style="font-style:normal;font-variant:normal;font-weight:normal;font-stretch:normal;font-size:3.125px;line-height:125%;font-family:OCRA;-inkscape-font-specification:'OCRA, Normal';text-align:center;writing-mode:lr-tb;text-anchor:middle;fill:#ffffff">NC</tspan></text>
    <text
       xml:space="preserve"
       style="font-style:normal;font-variant:normal;font-weight:normal;font-stretch:normal;font-size:3.75px;line-height:125%;font-family:OCRA;-inkscape-font-specification:'OCRA, Normal';text-align:start;letter-spacing:0px;word-spacing:0px;writing-mode:lr-tb;text-anchor:start;display:inline;fill:#000000;fill-opacity:1;stroke:none;stroke-width:1px;stroke-linecap:butt;stroke-linejoin:miter;stroke-opacity:1"
       x="49.604198"
       y="76.846947"
       id="Label_SIG"
       sodipodi:linespacing="125%"
       inkscape:label=""><tspan
         sodipodi:role="line"
         id="tspan4165"
         x="49.604198"
         y="76.846947"
         style="font-style:normal;font-variant:normal;font-weight:normal;font-stretch:normal;font-size:3.125px;line-height:125%;font-family:OCRA;-inkscape-font-specification:'OCRA, Normal';text-align:center;writing-mode:lr-tb;text-anchor:middle;fill:#ffffff">SIG</tspan></text>
  </g>
  <g
     inkscape:groupmode="layer"
     id="layer4"
     inkscape:label="Pins"
     sodipodi:insensitive="true">
    <path
       d="m 29.199963,71.753661 -1.774496,0 0,-1.774335 1.774496,0 0,1.774335 z"
       id="connector4pin"
       inkscape:connector-curvature="0"
       style="display:inline;fill:#ffe500;stroke:#000000;stroke-width:0.10999979;stroke-linejoin:round"
       inkscape:label="" />
    <path
       d="m 34.465703,69.979326 1.774497,0 0,1.774335 -1.774497,0 0,-1.774335 z"
       id="connector3pin"
       inkscape:connector-curvature="0"
       style="display:inline;fill:#ffe500;stroke:#000000;stroke-width:0.10999979;stroke-linejoin:round"
       inkscape:label="" />
    <path
       d="m 41.621189,71.753661 0,-1.774335 1.774497,0 0,1.774335 -1.774497,0 z"
       id="connector2pin"
       inkscape:connector-curvature="0"
       style="display:inline;fill:#ffe500;stroke:#000000;stroke-width:0.10999979;stroke-linejoin:round"
       inkscape:label="" />
    <path
       d="m 48.719051,71.753661 0,-1.774335 1.774496,0 0,1.774335 -1.774496,0 z"
       id="connector1pin"
       inkscape:connector-curvature="0"
       style="display:inline;fill:#ffe500;stroke:#000000;stroke-width:0.10999979;stroke-linejoin:round"
       inkscape:label="" />
  </g>
</svg>
