<?xml version="1.0" encoding="UTF-8" standalone="no"?>
<svg
   xmlns:dc="http://purl.org/dc/elements/1.1/"
   xmlns:cc="http://creativecommons.org/ns#"
   xmlns:rdf="http://www.w3.org/1999/02/22-rdf-syntax-ns#"
   xmlns:svg="http://www.w3.org/2000/svg"
   xmlns="http://www.w3.org/2000/svg"
   xmlns:sodipodi="http://sodipodi.sourceforge.net/DTD/sodipodi-0.dtd"
   xmlns:inkscape="http://www.inkscape.org/namespaces/inkscape"
   width="22mm"
   version="1.1"
   height="26mm"
   id="svg2"
   inkscape:version="0.91 r13725"
   sodipodi:docname="Grove_Buzzer_PCB.svg">
  <defs
     id="defs56" />
  <sodipodi:namedview
     pagecolor="#ffffff"
     bordercolor="#666666"
     borderopacity="1"
     objecttolerance="10"
     gridtolerance="10"
     guidetolerance="10"
     inkscape:pageopacity="0"
     inkscape:pageshadow="2"
     inkscape:window-width="1920"
     inkscape:window-height="1017"
     id="namedview54"
     showgrid="true"
     units="mm"
     inkscape:zoom="4.6630807"
     inkscape:cx="-3.146512"
     inkscape:cy="45.97411"
     inkscape:window-x="-8"
     inkscape:window-y="1072"
     inkscape:window-maximized="1"
     inkscape:current-layer="layer5"
     inkscape:snap-bbox="true"
     inkscape:snap-bbox-midpoints="true"
     inkscape:snap-grids="false"
     inkscape:snap-object-midpoints="true"
     showguides="true"
     inkscape:guide-bbox="true">
    <inkscape:grid
       type="xygrid"
       id="grid4184"
       units="mm"
       spacingx="3.5433071"
       spacingy="3.5433071"
       empspacing="2"
       empcolor="#00002d"
       empopacity="0.25098039" />
  </sodipodi:namedview>
  <metadata
     id="metadata13579">
    <rdf:RDF>
      <cc:Work
         rdf:about="">
        <dc:format>image/svg+xml</dc:format>
        <dc:type
           rdf:resource="http://purl.org/dc/dcmitype/StillImage" />
        <dc:title />
      </cc:Work>
    </rdf:RDF>
  </metadata>
  <g
     inkscape:groupmode="layer"
     id="layer1"
     inkscape:label="silkscreen"
     style="display:inline"
     transform="translate(0,14.173228)">
    <path
       style="display:inline;fill:none;stroke:#000000;stroke-opacity:1"
       d="m 38.980469,3.4589844 c -3.099659,0 -5.625,2.525341 -5.625,5.625 l -27.0000002,0 c -1.5703941,0 -2.8125001,1.2421056 -2.8125,2.8124996 l 0,27 c 3.0996588,0 5.5937498,2.525341 5.59375,5.625 0,3.099659 -2.4940914,5.59375 -5.59375,5.59375 l 0,27 c 0,1.570394 1.2421059,2.8125 2.8125,2.8125 l 27.0000002,0 c 0,3.099663 2.525341,5.625 5.625,5.625 3.099659,0 5.59375,-2.525337 5.59375,-5.625 l 27,0 c 1.570394,0 2.8125,-1.242106 2.8125,-2.8125 l 0,-27 c -3.099659,0 -5.59375,-2.494091 -5.59375,-5.59375 0,-3.099659 2.494091,-5.625 5.59375,-5.625 l 0,-27 c 0,-1.570394 -1.242106,-2.8124996 -2.8125,-2.8124996 l -27,0 c 0,-3.099659 -2.494091,-5.625 -5.59375,-5.625 z m 0,2.375 c 1.794539,0 3.25,1.455461 3.25,3.25 0,1.7945396 -1.455461,3.2499996 -3.25,3.2499996 -1.794539,0 -3.25,-1.45546 -3.25,-3.2499996 0,-1.794539 1.455461,-3.25 3.25,-3.25 z m 0,70.8749996 c 1.794539,0 3.25,1.424211 3.25,3.21875 0,1.794539 -1.455461,3.25 -3.25,3.25 -1.794539,0 -3.25,-1.455461 -3.25,-3.25 0,-1.794539 1.455461,-3.21875 3.25,-3.21875 z"
       transform="translate(0,-14.173228)"
       id="silkscreen"
       inkscape:connector-curvature="0"
       sodipodi:nodetypes="scsscscsscscsscscsscsssssssssss" />
  </g>
  <g
     inkscape:groupmode="layer"
     id="layer5"
     inkscape:label="copper"
     style="display:inline"
     transform="translate(0,14.173228)">
    <g
       id="copper0"
       inkscape:label=""
       transform="translate(0,-31.889392)">
      <g
         inkscape:label=""
         id="copper1">
        <path
           style="fill:#f7bd13;fill-opacity:1;stroke:none;stroke-width:0.72000003;stroke-linecap:round;stroke-linejoin:round;stroke-miterlimit:4;stroke-dasharray:none;stroke-opacity:1"
           d="m 46.883006,45.225228 a 2.7,2.7 0 0 0 2.701171,2.701172 2.7,2.7 0 0 0 2.699219,-2.701172 2.7,2.7 0 0 0 -2.699219,-2.699219 2.7,2.7 0 0 0 -2.701171,2.699219 z m 1.351562,0 a 1.35,1.35 0 0 1 1.349609,-1.34961 1.35,1.35 0 0 1 1.34961,1.34961 1.35,1.35 0 0 1 -1.34961,1.351562 1.35,1.35 0 0 1 -1.349609,-1.351562 z"
           id="connector1pin"
           inkscape:connector-curvature="0"
           inkscape:label="" />
        <path
           style="fill:#f7bd13;fill-opacity:1;stroke:none;stroke-width:0.72000003;stroke-linecap:round;stroke-linejoin:round;stroke-miterlimit:4;stroke-dasharray:none;stroke-opacity:1"
           d="m 39.79639,45.225228 a 2.7,2.7 0 0 0 2.701171,2.701172 2.7,2.7 0 0 0 2.699219,-2.701172 2.7,2.7 0 0 0 -2.699219,-2.699219 2.7,2.7 0 0 0 -2.701171,2.699219 z m 1.351562,0 a 1.35,1.35 0 0 1 1.349609,-1.34961 1.35,1.35 0 0 1 1.34961,1.34961 1.35,1.35 0 0 1 -1.34961,1.351562 1.35,1.35 0 0 1 -1.349609,-1.351562 z"
           id="connector2pin"
           inkscape:connector-curvature="0"
           inkscape:label="" />
        <path
           style="fill:#f7bd13;fill-opacity:1;stroke:none;stroke-width:0.72000003;stroke-linecap:round;stroke-linejoin:round;stroke-miterlimit:4;stroke-dasharray:none;stroke-opacity:1"
           d="m 32.709777,45.225228 a 2.7,2.7 0 0 0 2.701172,2.701172 2.7,2.7 0 0 0 2.699219,-2.701172 2.7,2.7 0 0 0 -2.699219,-2.699219 2.7,2.7 0 0 0 -2.701172,2.699219 z m 1.351563,0 a 1.35,1.35 0 0 1 1.349609,-1.34961 1.35,1.35 0 0 1 1.34961,1.34961 1.35,1.35 0 0 1 -1.34961,1.351562 1.35,1.35 0 0 1 -1.349609,-1.351562 z"
           id="connector3pin"
           inkscape:connector-curvature="0"
           inkscape:label="" />
        <path
           style="fill:#f7bd13;fill-opacity:1;stroke:none;stroke-width:0.72000003;stroke-linecap:round;stroke-linejoin:round;stroke-miterlimit:4;stroke-dasharray:none;stroke-opacity:1"
           d="m 25.623163,45.225228 a 2.7,2.7 0 0 0 2.701171,2.701172 2.7,2.7 0 0 0 2.699219,-2.701172 2.7,2.7 0 0 0 -2.699219,-2.699219 2.7,2.7 0 0 0 -2.701171,2.699219 z m 1.351562,0 a 1.35,1.35 0 0 1 1.349609,-1.34961 1.35,1.35 0 0 1 1.34961,1.34961 1.35,1.35 0 0 1 -1.34961,1.351562 1.35,1.35 0 0 1 -1.349609,-1.351562 z"
           id="connector4pin"
           inkscape:connector-curvature="0"
           inkscape:label="" />
      </g>
    </g>
  </g>
</svg>
