<?xml version="1.0" encoding="UTF-8" standalone="no"?>
<!-- Created with Inkscape (http://www.inkscape.org/) -->

<svg
   xmlns:osb="http://www.openswatchbook.org/uri/2009/osb"
   xmlns:dc="http://purl.org/dc/elements/1.1/"
   xmlns:cc="http://creativecommons.org/ns#"
   xmlns:rdf="http://www.w3.org/1999/02/22-rdf-syntax-ns#"
   xmlns:svg="http://www.w3.org/2000/svg"
   xmlns="http://www.w3.org/2000/svg"
   xmlns:sodipodi="http://sodipodi.sourceforge.net/DTD/sodipodi-0.dtd"
   xmlns:inkscape="http://www.inkscape.org/namespaces/inkscape"
   width="34mm"
   height="58.5mm"
   viewBox="0 0 120.47243 207.28346"
   id="svg11021"
   version="1.1"
   inkscape:version="0.91 r13725"
   sodipodi:docname="Ndogo_front_PCB.svg">
  <defs
     id="defs11023">
    <linearGradient
       id="linearGradient9418"
       osb:paint="solid">
      <stop
         style="stop-color:#ffffff;stop-opacity:1;"
         offset="0"
         id="stop9420" />
    </linearGradient>
  </defs>
  <sodipodi:namedview
     id="base"
     pagecolor="#ffffff"
     bordercolor="#666666"
     borderopacity="1.0"
     inkscape:pageopacity="0.0"
     inkscape:pageshadow="2"
     inkscape:zoom="3.9258404"
     inkscape:cx="27.445081"
     inkscape:cy="57.688877"
     inkscape:document-units="px"
     inkscape:current-layer="layer2"
     showgrid="true"
     showguides="false"
     inkscape:guide-bbox="true"
     inkscape:snap-nodes="false"
     inkscape:snap-global="true"
     inkscape:window-width="1920"
     inkscape:window-height="1017"
     inkscape:window-x="-8"
     inkscape:window-y="1072"
     inkscape:window-maximized="1"
     inkscape:snap-object-midpoints="true"
     inkscape:snap-center="false"
     inkscape:snap-bbox="true"
     inkscape:bbox-nodes="true"
     inkscape:snap-bbox-edge-midpoints="false"
     inkscape:snap-grids="false"
     inkscape:snap-to-guides="true"
     inkscape:object-nodes="true"
     inkscape:snap-intersection-paths="true"
     inkscape:object-paths="false"
     inkscape:snap-smooth-nodes="true"
     inkscape:snap-midpoints="true"
     inkscape:snap-bbox-midpoints="true">
    <inkscape:grid
       type="xygrid"
       id="grid11569"
       empspacing="10"
       units="in"
       spacingx="8.9999991"
       spacingy="8.9999999" />
    <sodipodi:guide
       position="119.72834,190"
       orientation="1,0"
       id="guide11586"
       inkscape:label=""
       inkscape:color="rgb(39,255,0)" />
    <sodipodi:guide
       position="94.642856,0"
       orientation="0,1"
       id="guide11588"
       inkscape:label=""
       inkscape:color="rgb(0,0,255)" />
    <sodipodi:guide
       position="6.2007872,181.19611"
       orientation="1,0"
       id="guide11607"
       inkscape:label=""
       inkscape:color="rgb(0,0,255)" />
    <sodipodi:guide
       position="114.41338,-29.464285"
       orientation="1,0"
       id="guide12223"
       inkscape:label=""
       inkscape:color="rgb(0,0,255)" />
    <sodipodi:guide
       position="243.98437,217.34375"
       orientation="0,1"
       id="guide13283" />
    <sodipodi:guide
       position="113.52756,194.88189"
       orientation="0,1"
       id="guide7056"
       inkscape:label=""
       inkscape:color="rgb(12,255,0)" />
    <sodipodi:guide
       position="26.870057,207.28346"
       orientation="0,1"
       id="guide8688"
       inkscape:label=""
       inkscape:color="rgb(0,0,255)" />
    <sodipodi:guide
       position="65.692911,199.75766"
       orientation="1,0"
       id="guide8690"
       inkscape:label=""
       inkscape:color="rgb(0,0,255)" />
    <sodipodi:guide
       position="104.66929,204.17708"
       orientation="1,0"
       id="guide8692"
       inkscape:label=""
       inkscape:color="rgb(0,0,255)" />
    <sodipodi:guide
       position="94.039367,201.375"
       orientation="1,0"
       id="guide8694"
       inkscape:label=""
       inkscape:color="rgb(0,0,255)" />
    <sodipodi:guide
       position="0.88582674,173.15277"
       orientation="1,0"
       id="guide8983"
       inkscape:label=""
       inkscape:color="rgb(13,255,0)" />
    <sodipodi:guide
       position="47.303148,207.28346"
       orientation="1,0"
       id="guide12048"
       inkscape:label=""
       inkscape:color="rgb(237,255,0)" />
    <sodipodi:guide
       position="345.49999,182.83464"
       orientation="0,1"
       id="guide12050"
       inkscape:label=""
       inkscape:color="rgb(246,255,0)" />
    <sodipodi:guide
       position="214.99999,8.5039369"
       orientation="0,1"
       id="guide12052"
       inkscape:label=""
       inkscape:color="rgb(255,243,0)" />
    <sodipodi:guide
       position="92.303147,64.5"
       orientation="1,0"
       id="guide12054"
       inkscape:label=""
       inkscape:color="rgb(255,244,0)" />
    <sodipodi:guide
       position="84.957147,12.401575"
       orientation="0,1"
       id="guide12058"
       inkscape:label=""
       inkscape:color="rgb(247,255,0)" />
    <sodipodi:guide
       position="29.232283,52.149125"
       orientation="1,0"
       id="guide12062"
       inkscape:label=""
       inkscape:color="rgb(255,252,0)" />
    <sodipodi:guide
       position="59.704722,34.875"
       orientation="1,0"
       id="guide12316"
       inkscape:label=""
       inkscape:color="rgb(247,255,0)" />
    <sodipodi:guide
       position="272.2361,76.181101"
       orientation="0,1"
       id="guide12357"
       inkscape:label=""
       inkscape:color="rgb(255,0,15)" />
    <sodipodi:guide
       position="79.901572,50.204581"
       orientation="1,0"
       id="guide12361"
       inkscape:label=""
       inkscape:color="rgb(255,9,0)" />
    <sodipodi:guide
       position="142.79527,142.79527"
       orientation="0,1"
       id="guide13400"
       inkscape:label=""
       inkscape:color="rgb(0,255,240)" />
    <sodipodi:guide
       position="64.665352,163.342"
       orientation="1,0"
       id="guide13402"
       inkscape:label=""
       inkscape:color="rgb(0,246,255)" />
    <sodipodi:guide
       position="9.7440942,196.1875"
       orientation="1,0"
       id="guide13436"
       inkscape:label=""
       inkscape:color="rgb(0,0,255)" />
    <sodipodi:guide
       position="34.471455,-5.8778251"
       orientation="0,1"
       id="guide13484" />
    <sodipodi:guide
       position="110.87008,61.75"
       orientation="1,0"
       id="guide14453"
       inkscape:label=""
       inkscape:color="rgb(0,0,255)" />
    <sodipodi:guide
       position="105.21026,-1.0629921"
       orientation="0,1"
       id="guide17945"
       inkscape:label=""
       inkscape:color="rgb(0,0,255)" />
    <sodipodi:guide
       position="23.031494,26.300101"
       orientation="1,0"
       id="guide4258"
       inkscape:label=""
       inkscape:color="rgb(0,0,255)" />
  </sodipodi:namedview>
  <metadata
     id="metadata11026">
    <rdf:RDF>
      <cc:Work
         rdf:about="">
        <dc:format>image/svg+xml</dc:format>
        <dc:type
           rdf:resource="http://purl.org/dc/dcmitype/StillImage" />
        <dc:title />
      </cc:Work>
    </rdf:RDF>
  </metadata>
  <g
     inkscape:groupmode="layer"
     id="layer2"
     inkscape:label="silkscreen"
     style="display:inline"
     sodipodi:insensitive="true">
    <path
       style="fill:#000000;fill-opacity:1;fill-rule:evenodd;stroke:#000000;stroke-width:0.01062992;stroke-linecap:butt;stroke-linejoin:miter;stroke-miterlimit:4;stroke-dasharray:none;stroke-opacity:1"
       d="m 65.693359,0 -10.628906,12.402344 -47.9980468,0 c -3.42364,0 -6.17968745,2.756067 -6.17968745,6.179687 l 0,182.521489 c 0,3.4236 2.75604815,6.17968 6.17968745,6.17968 l 106.4824238,0 c 3.42363,0 6.17969,-2.75608 6.17969,-6.17968 l 0,-182.521489 c 0,-3.42362 -2.75605,-6.179387 -6.17969,-6.179687 l -8.87891,0 L 94.041016,0 65.693359,0 Z M 6.203125,25.933594 A 1.35,1.35 0 0 1 7.5527344,27.283203 1.35,1.35 0 0 1 6.203125,28.632812 1.35,1.35 0 0 1 4.8535156,27.283203 1.35,1.35 0 0 1 6.203125,25.933594 Z m 108.212895,0 a 1.35,1.35 0 0 1 1.3496,1.349609 1.35,1.35 0 0 1 -1.3496,1.349609 1.35,1.35 0 0 1 -1.35157,-1.349609 1.35,1.35 0 0 1 1.35157,-1.349609 z m -108.212895,9 A 1.35,1.35 0 0 1 7.5527344,36.283203 1.35,1.35 0 0 1 6.203125,37.632812 1.35,1.35 0 0 1 4.8535156,36.283203 1.35,1.35 0 0 1 6.203125,34.933594 Z m 108.212895,0 a 1.35,1.35 0 0 1 1.3496,1.349609 1.35,1.35 0 0 1 -1.3496,1.349609 1.35,1.35 0 0 1 -1.35157,-1.349609 1.35,1.35 0 0 1 1.35157,-1.349609 z m -108.212895,9 A 1.35,1.35 0 0 1 7.5527344,45.283203 1.35,1.35 0 0 1 6.203125,46.632812 1.35,1.35 0 0 1 4.8535156,45.283203 1.35,1.35 0 0 1 6.203125,43.933594 Z m 108.212895,0 a 1.35,1.35 0 0 1 1.3496,1.349609 1.35,1.35 0 0 1 -1.3496,1.349609 1.35,1.35 0 0 1 -1.35157,-1.349609 1.35,1.35 0 0 1 1.35157,-1.349609 z m -108.212895,9 A 1.35,1.35 0 0 1 7.5527344,54.283203 1.35,1.35 0 0 1 6.203125,55.632812 1.35,1.35 0 0 1 4.8535156,54.283203 1.35,1.35 0 0 1 6.203125,52.933594 Z m 108.212895,0 a 1.35,1.35 0 0 1 1.3496,1.349609 1.35,1.35 0 0 1 -1.3496,1.349609 1.35,1.35 0 0 1 -1.35157,-1.349609 1.35,1.35 0 0 1 1.35157,-1.349609 z m -108.212895,9 A 1.35,1.35 0 0 1 7.5527344,63.283203 1.35,1.35 0 0 1 6.203125,64.632812 1.35,1.35 0 0 1 4.8535156,63.283203 1.35,1.35 0 0 1 6.203125,61.933594 Z m 108.212895,0 a 1.35,1.35 0 0 1 1.3496,1.349609 1.35,1.35 0 0 1 -1.3496,1.349609 1.35,1.35 0 0 1 -1.35157,-1.349609 1.35,1.35 0 0 1 1.35157,-1.349609 z m -108.212895,9 A 1.35,1.35 0 0 1 7.5527344,72.283203 1.35,1.35 0 0 1 6.203125,73.632812 1.35,1.35 0 0 1 4.8535156,72.283203 1.35,1.35 0 0 1 6.203125,70.933594 Z m 108.212895,0 a 1.35,1.35 0 0 1 1.3496,1.349609 1.35,1.35 0 0 1 -1.3496,1.349609 1.35,1.35 0 0 1 -1.35157,-1.349609 1.35,1.35 0 0 1 1.35157,-1.349609 z m -108.212895,9 A 1.35,1.35 0 0 1 7.5527344,81.283203 1.35,1.35 0 0 1 6.203125,82.632812 1.35,1.35 0 0 1 4.8535156,81.283203 1.35,1.35 0 0 1 6.203125,79.933594 Z m 108.212895,0 a 1.35,1.35 0 0 1 1.3496,1.349609 1.35,1.35 0 0 1 -1.3496,1.349609 1.35,1.35 0 0 1 -1.35157,-1.349609 1.35,1.35 0 0 1 1.35157,-1.349609 z m -108.212895,9 A 1.35,1.35 0 0 1 7.5527344,90.283203 1.35,1.35 0 0 1 6.203125,91.632812 1.35,1.35 0 0 1 4.8535156,90.283203 1.35,1.35 0 0 1 6.203125,88.933594 Z m 108.212895,0 a 1.35,1.35 0 0 1 1.3496,1.349609 1.35,1.35 0 0 1 -1.3496,1.349609 1.35,1.35 0 0 1 -1.35157,-1.349609 1.35,1.35 0 0 1 1.35157,-1.349609 z m -108.212895,9 A 1.35,1.35 0 0 1 7.5527344,99.283203 1.35,1.35 0 0 1 6.203125,100.63281 1.35,1.35 0 0 1 4.8535156,99.283203 1.35,1.35 0 0 1 6.203125,97.933594 Z m 108.212895,0 a 1.35,1.35 0 0 1 1.3496,1.349609 1.35,1.35 0 0 1 -1.3496,1.349607 1.35,1.35 0 0 1 -1.35157,-1.349607 1.35,1.35 0 0 1 1.35157,-1.349609 z M 6.203125,106.93359 a 1.35,1.35 0 0 1 1.3496094,1.34961 1.35,1.35 0 0 1 -1.3496094,1.34961 1.35,1.35 0 0 1 -1.3496094,-1.34961 1.35,1.35 0 0 1 1.3496094,-1.34961 z m 108.212895,0 a 1.35,1.35 0 0 1 1.3496,1.34961 1.35,1.35 0 0 1 -1.3496,1.34961 1.35,1.35 0 0 1 -1.35157,-1.34961 1.35,1.35 0 0 1 1.35157,-1.34961 z m -108.212895,9 a 1.35,1.35 0 0 1 1.3496094,1.34961 1.35,1.35 0 0 1 -1.3496094,1.34961 1.35,1.35 0 0 1 -1.3496094,-1.34961 1.35,1.35 0 0 1 1.3496094,-1.34961 z m 108.212895,0 a 1.35,1.35 0 0 1 1.3496,1.34961 1.35,1.35 0 0 1 -1.3496,1.34961 1.35,1.35 0 0 1 -1.35157,-1.34961 1.35,1.35 0 0 1 1.35157,-1.34961 z m -108.212895,9 a 1.35,1.35 0 0 1 1.3496094,1.34961 1.35,1.35 0 0 1 -1.3496094,1.34961 1.35,1.35 0 0 1 -1.3496094,-1.34961 1.35,1.35 0 0 1 1.3496094,-1.34961 z m 108.212895,0 a 1.35,1.35 0 0 1 1.3496,1.34961 1.35,1.35 0 0 1 -1.3496,1.34961 1.35,1.35 0 0 1 -1.35157,-1.34961 1.35,1.35 0 0 1 1.35157,-1.34961 z m -108.212895,9 a 1.35,1.35 0 0 1 1.3496094,1.34961 1.35,1.35 0 0 1 -1.3496094,1.34961 1.35,1.35 0 0 1 -1.3496094,-1.34961 1.35,1.35 0 0 1 1.3496094,-1.34961 z m 108.212895,0 a 1.35,1.35 0 0 1 1.3496,1.34961 1.35,1.35 0 0 1 -1.3496,1.34961 1.35,1.35 0 0 1 -1.35157,-1.34961 1.35,1.35 0 0 1 1.35157,-1.34961 z m -108.212895,9 a 1.35,1.35 0 0 1 1.3496094,1.34961 1.35,1.35 0 0 1 -1.3496094,1.34961 1.35,1.35 0 0 1 -1.3496094,-1.34961 1.35,1.35 0 0 1 1.3496094,-1.34961 z m 108.212895,0 a 1.35,1.35 0 0 1 1.3496,1.34961 1.35,1.35 0 0 1 -1.3496,1.34961 1.35,1.35 0 0 1 -1.35157,-1.34961 1.35,1.35 0 0 1 1.35157,-1.34961 z m -108.212895,9 a 1.35,1.35 0 0 1 1.3496094,1.34961 1.35,1.35 0 0 1 -1.3496094,1.34961 1.35,1.35 0 0 1 -1.3496094,-1.34961 1.35,1.35 0 0 1 1.3496094,-1.34961 z m 108.212895,0 a 1.35,1.35 0 0 1 1.3496,1.34961 1.35,1.35 0 0 1 -1.3496,1.34961 1.35,1.35 0 0 1 -1.35157,-1.34961 1.35,1.35 0 0 1 1.35157,-1.34961 z m -108.212895,9 a 1.35,1.35 0 0 1 1.3496094,1.34961 1.35,1.35 0 0 1 -1.3496094,1.34961 1.35,1.35 0 0 1 -1.3496094,-1.34961 1.35,1.35 0 0 1 1.3496094,-1.34961 z m 108.212895,0 a 1.35,1.35 0 0 1 1.3496,1.34961 1.35,1.35 0 0 1 -1.3496,1.34961 1.35,1.35 0 0 1 -1.35157,-1.34961 1.35,1.35 0 0 1 1.35157,-1.34961 z m -108.212895,9 a 1.35,1.35 0 0 1 1.3496094,1.34961 1.35,1.35 0 0 1 -1.3496094,1.34961 1.35,1.35 0 0 1 -1.3496094,-1.34961 1.35,1.35 0 0 1 1.3496094,-1.34961 z m 108.212895,0 a 1.35,1.35 0 0 1 1.3496,1.34961 1.35,1.35 0 0 1 -1.3496,1.34961 1.35,1.35 0 0 1 -1.35157,-1.34961 1.35,1.35 0 0 1 1.35157,-1.34961 z m -90.498051,5.46094 1.771484,0 0,12.75586 -1.771484,0 0,-12.75586 z m 7.085937,0 1.771485,0 0,12.75586 -1.771485,0 0,-12.75586 z m 23.386719,0 1.771484,0 0,12.75586 -1.771484,0 0,-12.75586 z m 7.085937,0 1.771485,0 0,12.75586 -1.771485,0 0,-12.75586 z m -55.273437,3.53906 a 1.35,1.35 0 0 1 1.3496094,1.34961 1.35,1.35 0 0 1 -1.3496094,1.34961 1.35,1.35 0 0 1 -1.3496094,-1.34961 1.35,1.35 0 0 1 1.3496094,-1.34961 z m 108.212895,0 a 1.35,1.35 0 0 1 1.3496,1.34961 1.35,1.35 0 0 1 -1.3496,1.34961 1.35,1.35 0 0 1 -1.35157,-1.34961 1.35,1.35 0 0 1 1.35157,-1.34961 z m -108.212895,9 a 1.35,1.35 0 0 1 1.3496094,1.34961 1.35,1.35 0 0 1 -1.3496094,1.34961 1.35,1.35 0 0 1 -1.3496094,-1.34961 1.35,1.35 0 0 1 1.3496094,-1.34961 z m 108.212895,0 a 1.35,1.35 0 0 1 1.3496,1.34961 1.35,1.35 0 0 1 -1.3496,1.34961 1.35,1.35 0 0 1 -1.35157,-1.34961 1.35,1.35 0 0 1 1.35157,-1.34961 z m -108.212895,9 a 1.35,1.35 0 0 1 1.3496094,1.34961 1.35,1.35 0 0 1 -1.3496094,1.34961 1.35,1.35 0 0 1 -1.3496094,-1.34961 1.35,1.35 0 0 1 1.3496094,-1.34961 z m 108.212895,0 a 1.35,1.35 0 0 1 1.3496,1.34961 1.35,1.35 0 0 1 -1.3496,1.34961 1.35,1.35 0 0 1 -1.35157,-1.34961 1.35,1.35 0 0 1 1.35157,-1.34961 z"
       transform="translate(-7.6293945e-6,0)"
       id="silkscreen"
       inkscape:connector-curvature="0" />
  </g>
  <g
     inkscape:groupmode="layer"
     id="layer7"
     inkscape:label="copper"
     style="display:inline"
     sodipodi:insensitive="true">
    <g
       id="copper0"
       inkscape:label="">
      <g
         inkscape:label=""
         id="copper1">
        <path
           style="display:inline;fill:#f7bd13;fill-opacity:1"
           inkscape:connector-curvature="0"
           d="m 114.41243,182.97356 c -1.48447,0 -2.69006,-1.2056 -2.69006,-2.6901 -1e-5,-1.4845 1.20559,-2.6901 2.69006,-2.6901 1.4845,0 2.69009,1.2056 2.6901,2.6901 0,1.4845 -1.2056,2.6901 -2.6901,2.6901 z m 0,-1.3566 c 0.74538,0 1.35655,-0.5881 1.35654,-1.3335 1e-5,-0.7454 -0.61116,-1.3565 -1.35654,-1.3565 -0.74537,0 -1.35651,0.6111 -1.35652,1.3565 0,0.7454 0.61115,1.3335 1.35653,1.3335 z"
           id="connector_R18"
           inkscape:label="" />
        <path
           style="display:inline;fill:#f7bd13;fill-opacity:1"
           inkscape:connector-curvature="0"
           d="m 114.41243,191.97356 c -1.48447,0 -2.69006,-1.2056 -2.69006,-2.6901 -1e-5,-1.4845 1.20559,-2.6901 2.69006,-2.6901 1.4845,0 2.69009,1.2056 2.6901,2.6901 0,1.4845 -1.2056,2.6901 -2.6901,2.6901 z m 0,-1.3566 c 0.74538,0 1.35655,-0.5881 1.35654,-1.3335 1e-5,-0.7454 -0.61116,-1.3565 -1.35654,-1.3565 -0.74537,0 -1.35651,0.6111 -1.35652,1.3565 0,0.7454 0.61115,1.3335 1.35653,1.3335 z"
           id="connector_R19"
           inkscape:label="" />
        <path
           style="display:inline;fill:#f7bd13;fill-opacity:1"
           inkscape:connector-curvature="0"
           d="m 114.41243,173.97356 c -1.48447,0 -2.69006,-1.2056 -2.69006,-2.6901 -1e-5,-1.4845 1.20559,-2.6901 2.69006,-2.6901 1.4845,0 2.69009,1.2056 2.6901,2.6901 0,1.4845 -1.2056,2.6901 -2.6901,2.6901 z m 0,-1.3566 c 0.74538,0 1.35655,-0.5881 1.35654,-1.3335 1e-5,-0.7454 -0.61116,-1.3565 -1.35654,-1.3565 -0.74537,0 -1.35651,0.6111 -1.35652,1.3565 0,0.7454 0.61115,1.3335 1.35653,1.3335 z"
           id="connector_R17"
           inkscape:label="" />
        <path
           style="display:inline;fill:#f7bd13;fill-opacity:1"
           inkscape:connector-curvature="0"
           d="m 114.41243,164.97356 c -1.48447,0 -2.69006,-1.2056 -2.69006,-2.6901 -1e-5,-1.4845 1.20559,-2.6901 2.69006,-2.6901 1.4845,0 2.69009,1.2056 2.6901,2.6901 0,1.4845 -1.2056,2.6901 -2.6901,2.6901 z m 0,-1.3566 c 0.74538,0 1.35655,-0.5881 1.35654,-1.3335 1e-5,-0.7454 -0.61116,-1.3565 -1.35654,-1.3565 -0.74537,0 -1.35651,0.6111 -1.35652,1.3565 0,0.7454 0.61115,1.3335 1.35653,1.3335 z"
           id="connector_R16"
           inkscape:label="" />
        <path
           style="display:inline;fill:#f7bd13;fill-opacity:1"
           inkscape:connector-curvature="0"
           d="m 114.41243,155.97356 c -1.48447,0 -2.69006,-1.2056 -2.69006,-2.6901 -1e-5,-1.4845 1.20559,-2.6901 2.69006,-2.6901 1.4845,0 2.69009,1.2056 2.6901,2.6901 0,1.4845 -1.2056,2.6901 -2.6901,2.6901 z m 0,-1.3566 c 0.74538,0 1.35655,-0.5881 1.35654,-1.3335 1e-5,-0.7454 -0.61116,-1.3565 -1.35654,-1.3565 -0.74537,0 -1.35651,0.6111 -1.35652,1.3565 0,0.7454 0.61115,1.3335 1.35653,1.3335 z"
           id="connector_R15"
           inkscape:label="" />
        <path
           style="display:inline;fill:#f7bd13;fill-opacity:1"
           inkscape:connector-curvature="0"
           d="m 114.41243,146.97356 c -1.48447,0 -2.69006,-1.2056 -2.69006,-2.6901 -1e-5,-1.4845 1.20559,-2.6901 2.69006,-2.6901 1.4845,0 2.69009,1.2056 2.6901,2.6901 0,1.4845 -1.2056,2.6901 -2.6901,2.6901 z m 0,-1.3566 c 0.74538,0 1.35655,-0.5881 1.35654,-1.3335 1e-5,-0.7454 -0.61116,-1.3565 -1.35654,-1.3565 -0.74537,0 -1.35651,0.6111 -1.35652,1.3565 0,0.7454 0.61115,1.3335 1.35653,1.3335 z"
           id="connector_R14"
           inkscape:label="" />
        <path
           style="display:inline;fill:#f7bd13;fill-opacity:1"
           inkscape:connector-curvature="0"
           d="m 114.41243,137.97356 c -1.48447,0 -2.69006,-1.2056 -2.69006,-2.6901 -1e-5,-1.4845 1.20559,-2.6901 2.69006,-2.6901 1.4845,0 2.69009,1.2056 2.6901,2.6901 0,1.4845 -1.2056,2.6901 -2.6901,2.6901 z m 0,-1.3566 c 0.74538,0 1.35655,-0.5881 1.35654,-1.3335 1e-5,-0.7454 -0.61116,-1.3565 -1.35654,-1.3565 -0.74537,0 -1.35651,0.6111 -1.35652,1.3565 0,0.7454 0.61115,1.3335 1.35653,1.3335 z"
           id="connector_R13"
           inkscape:label="" />
        <path
           style="display:inline;fill:#f7bd13;fill-opacity:1"
           inkscape:connector-curvature="0"
           d="m 114.41243,128.97356 c -1.48447,0 -2.69006,-1.2056 -2.69006,-2.6901 -1e-5,-1.4845 1.20559,-2.6901 2.69006,-2.6901 1.4845,0 2.69009,1.2056 2.6901,2.6901 0,1.4845 -1.2056,2.6901 -2.6901,2.6901 z m 0,-1.3566 c 0.74538,0 1.35655,-0.5881 1.35654,-1.3335 1e-5,-0.7454 -0.61116,-1.3565 -1.35654,-1.3565 -0.74537,0 -1.35651,0.6111 -1.35652,1.3565 0,0.7454 0.61115,1.3335 1.35653,1.3335 z"
           id="connector_R12"
           inkscape:label="" />
        <path
           style="display:inline;fill:#f7bd13;fill-opacity:1"
           inkscape:connector-curvature="0"
           d="m 114.41243,119.97356 c -1.48447,0 -2.69006,-1.2056 -2.69006,-2.6901 -1e-5,-1.4845 1.20559,-2.6901 2.69006,-2.6901 1.4845,0 2.69009,1.2056 2.6901,2.6901 0,1.4845 -1.2056,2.6901 -2.6901,2.6901 z m 0,-1.3566 c 0.74538,0 1.35655,-0.5881 1.35654,-1.3335 1e-5,-0.7454 -0.61116,-1.3565 -1.35654,-1.3565 -0.74537,0 -1.35651,0.6111 -1.35652,1.3565 0,0.7454 0.61115,1.3335 1.35653,1.3335 z"
           id="connector_R11"
           inkscape:label="" />
        <path
           style="display:inline;fill:#f7bd13;fill-opacity:1"
           inkscape:connector-curvature="0"
           d="m 114.41243,110.97356 c -1.48447,0 -2.69006,-1.2056 -2.69006,-2.6901 -1e-5,-1.4845 1.20559,-2.6901 2.69006,-2.6901 1.4845,0 2.69009,1.2056 2.6901,2.6901 0,1.4845 -1.2056,2.6901 -2.6901,2.6901 z m 0,-1.3566 c 0.74538,0 1.35655,-0.5881 1.35654,-1.3335 1e-5,-0.7454 -0.61116,-1.3565 -1.35654,-1.3565 -0.74537,0 -1.35651,0.6111 -1.35652,1.3565 0,0.7454 0.61115,1.3335 1.35653,1.3335 z"
           id="connector_R10"
           inkscape:label="" />
        <path
           style="display:inline;fill:#f7bd13;fill-opacity:1"
           inkscape:connector-curvature="0"
           d="m 114.41243,101.97356 c -1.48447,0 -2.69006,-1.2056 -2.69006,-2.6901 -1e-5,-1.4845 1.20559,-2.6901 2.69006,-2.6901 1.4845,0 2.69009,1.2056 2.6901,2.6901 0,1.4845 -1.2056,2.6901 -2.6901,2.6901 z m 0,-1.3566 c 0.74538,0 1.35655,-0.5881 1.35654,-1.3335 1e-5,-0.7454 -0.61116,-1.3565 -1.35654,-1.3565 -0.74537,0 -1.35651,0.6111 -1.35652,1.3565 0,0.7454 0.61115,1.3335 1.35653,1.3335 z"
           id="connector_R09"
           inkscape:label="" />
        <path
           style="display:inline;fill:#f7bd13;fill-opacity:1"
           inkscape:connector-curvature="0"
           d="m 114.41243,92.97356 c -1.48447,0 -2.69006,-1.2056 -2.69006,-2.6901 -1e-5,-1.4845 1.20559,-2.6901 2.69006,-2.6901 1.4845,0 2.69009,1.2056 2.6901,2.6901 0,1.4845 -1.2056,2.6901 -2.6901,2.6901 z m 0,-1.3566 c 0.74538,0 1.35655,-0.5881 1.35654,-1.3335 1e-5,-0.7454 -0.61116,-1.3565 -1.35654,-1.3565 -0.74537,0 -1.35651,0.6111 -1.35652,1.3565 0,0.7454 0.61115,1.3335 1.35653,1.3335 z"
           id="connector_R08"
           inkscape:label="" />
        <path
           style="display:inline;fill:#f7bd13;fill-opacity:1"
           inkscape:connector-curvature="0"
           d="m 114.41243,83.97356 c -1.48447,0 -2.69006,-1.2056 -2.69006,-2.6901 -1e-5,-1.4845 1.20559,-2.6901 2.69006,-2.6901 1.4845,0 2.69009,1.2056 2.6901,2.6901 0,1.4845 -1.2056,2.6901 -2.6901,2.6901 z m 0,-1.3566 c 0.74538,0 1.35655,-0.5881 1.35654,-1.3335 1e-5,-0.7454 -0.61116,-1.3565 -1.35654,-1.3565 -0.74537,0 -1.35651,0.6111 -1.35652,1.3565 0,0.7454 0.61115,1.3335 1.35653,1.3335 z"
           id="connector_R07"
           inkscape:label="" />
        <path
           style="display:inline;fill:#f7bd13;fill-opacity:1"
           inkscape:connector-curvature="0"
           d="m 114.41243,74.97356 c -1.48447,0 -2.69006,-1.2056 -2.69006,-2.6901 -1e-5,-1.4845 1.20559,-2.6901 2.69006,-2.6901 1.4845,0 2.69009,1.2056 2.6901,2.6901 0,1.4845 -1.2056,2.6901 -2.6901,2.6901 z m 0,-1.3566 c 0.74538,0 1.35655,-0.5881 1.35654,-1.3335 1e-5,-0.7454 -0.61116,-1.3565 -1.35654,-1.3565 -0.74537,0 -1.35651,0.6111 -1.35652,1.3565 0,0.7454 0.61115,1.3335 1.35653,1.3335 z"
           id="connector_R06"
           inkscape:label="" />
        <path
           style="display:inline;fill:#f7bd13;fill-opacity:1"
           inkscape:connector-curvature="0"
           d="m 114.41243,65.97356 c -1.48447,0 -2.69006,-1.2056 -2.69006,-2.6901 -1e-5,-1.4845 1.20559,-2.6901 2.69006,-2.6901 1.4845,0 2.69009,1.2056 2.6901,2.6901 0,1.4845 -1.2056,2.6901 -2.6901,2.6901 z m 0,-1.3566 c 0.74538,0 1.35655,-0.5881 1.35654,-1.3335 1e-5,-0.7454 -0.61116,-1.3565 -1.35654,-1.3565 -0.74537,0 -1.35651,0.6111 -1.35652,1.3565 0,0.7454 0.61115,1.3335 1.35653,1.3335 z"
           id="connector_R05"
           inkscape:label="" />
        <path
           style="display:inline;fill:#f7bd13;fill-opacity:1"
           inkscape:connector-curvature="0"
           d="m 114.41243,56.97356 c -1.48447,0 -2.69006,-1.2056 -2.69006,-2.6901 -1e-5,-1.4845 1.20559,-2.6901 2.69006,-2.6901 1.4845,0 2.69009,1.2056 2.6901,2.6901 0,1.4845 -1.2056,2.6901 -2.6901,2.6901 z m 0,-1.3566 c 0.74538,0 1.35655,-0.5881 1.35654,-1.3335 1e-5,-0.7454 -0.61116,-1.3565 -1.35654,-1.3565 -0.74537,0 -1.35651,0.6111 -1.35652,1.3565 0,0.7454 0.61115,1.3335 1.35653,1.3335 z"
           id="connector_R04"
           inkscape:label="" />
        <path
           style="display:inline;fill:#f7bd13;fill-opacity:1"
           inkscape:connector-curvature="0"
           d="m 114.41243,47.97356 c -1.48447,0 -2.69006,-1.2056 -2.69006,-2.6901 -1e-5,-1.4845 1.20559,-2.6901 2.69006,-2.6901 1.4845,0 2.69009,1.2056 2.6901,2.6901 0,1.4845 -1.2056,2.6901 -2.6901,2.6901 z m 0,-1.3566 c 0.74538,0 1.35655,-0.5881 1.35654,-1.3335 1e-5,-0.7454 -0.61116,-1.3565 -1.35654,-1.3565 -0.74537,0 -1.35651,0.6111 -1.35652,1.3565 0,0.7454 0.61115,1.3335 1.35653,1.3335 z"
           id="connector_R03"
           inkscape:label="" />
        <path
           style="display:inline;fill:#f7bd13;fill-opacity:1"
           inkscape:connector-curvature="0"
           d="m 114.41243,38.97356 c -1.48447,0 -2.69006,-1.2056 -2.69006,-2.6901 -1e-5,-1.4845 1.20559,-2.6901 2.69006,-2.6901 1.4845,0 2.69009,1.2056 2.6901,2.6901 0,1.4845 -1.2056,2.6901 -2.6901,2.6901 z m 0,-1.3566 c 0.74538,0 1.35655,-0.5881 1.35654,-1.3335 1e-5,-0.7454 -0.61116,-1.3565 -1.35654,-1.3565 -0.74537,0 -1.35651,0.6111 -1.35652,1.3565 0,0.7454 0.61115,1.3335 1.35653,1.3335 z"
           id="connector_R02"
           inkscape:label="" />
        <path
           style="display:inline;fill:#f7bd13;fill-opacity:1"
           inkscape:connector-curvature="0"
           d="m 114.41243,29.97356 c -1.48447,0 -2.69006,-1.2056 -2.69006,-2.6901 -1e-5,-1.4845 1.20559,-2.6901 2.69006,-2.6901 1.4845,0 2.69009,1.2056 2.6901,2.6901 0,1.4845 -1.2056,2.6901 -2.6901,2.6901 z m 0,-1.3566 c 0.74538,0 1.35655,-0.5881 1.35654,-1.3335 1e-5,-0.7454 -0.61116,-1.3565 -1.35654,-1.3565 -0.74537,0 -1.35651,0.6111 -1.35652,1.3565 0,0.7454 0.61115,1.3335 1.35653,1.3335 z"
           id="connector_R01"
           inkscape:label="" />
        <path
           style="display:inline;fill:#f7bd13;fill-opacity:1"
           inkscape:connector-curvature="0"
           d="m 111.6567,201.05116 0,-5.5354 5.5115,0 0,5.5354 -5.5115,0 z m 2.75575,-1.3658 c 0.77686,0 1.41382,-0.613 1.41382,-1.3899 0,-0.7769 -0.63696,-1.4138 -1.41382,-1.4138 -0.77685,0 -1.41382,0.6369 -1.41382,1.4138 0,0.7769 0.63697,1.3899 1.41386,1.3898 z"
           id="connector_R20"
           inkscape:label="" />
        <path
           style="display:inline;fill:#f7bd13;fill-opacity:1"
           inkscape:connector-curvature="0"
           d="m 6.1998273,182.97356 c -1.484474,0 -2.69006,-1.2056 -2.69006,-2.6901 -1.3e-5,-1.4845 1.205586,-2.6901 2.69006,-2.6901 1.484499,0 2.690086,1.2056 2.690098,2.6901 0,1.4845 -1.205599,2.6901 -2.690098,2.6901 z m 0,-1.3566 c 0.745375,0 1.356549,-0.5881 1.356537,-1.3335 1.2e-5,-0.7454 -0.611162,-1.3565 -1.356537,-1.3565 -0.745374,0 -1.356511,0.6111 -1.356524,1.3565 0,0.7454 0.61115,1.3335 1.356537,1.3335 z"
           id="connector_L18"
           inkscape:label="" />
        <path
           style="display:inline;fill:#f7bd13;fill-opacity:1"
           inkscape:connector-curvature="0"
           d="m 6.1998273,191.97356 c -1.484474,0 -2.69006,-1.2056 -2.69006,-2.6901 -1.3e-5,-1.4845 1.205586,-2.6901 2.69006,-2.6901 1.484499,0 2.690086,1.2056 2.690098,2.6901 0,1.4845 -1.205599,2.6901 -2.690098,2.6901 z m 0,-1.3566 c 0.745375,0 1.356549,-0.5881 1.356537,-1.3335 1.2e-5,-0.7454 -0.611162,-1.3565 -1.356537,-1.3565 -0.745374,0 -1.356511,0.6111 -1.356524,1.3565 0,0.7454 0.61115,1.3335 1.356537,1.3335 z"
           id="connector_L19"
           inkscape:label="" />
        <path
           style="display:inline;fill:#f7bd13;fill-opacity:1"
           inkscape:connector-curvature="0"
           d="m 6.1998273,173.97356 c -1.484474,0 -2.69006,-1.2056 -2.69006,-2.6901 -1.3e-5,-1.4845 1.205586,-2.6901 2.69006,-2.6901 1.484499,0 2.690086,1.2056 2.690098,2.6901 0,1.4845 -1.205599,2.6901 -2.690098,2.6901 z m 0,-1.3566 c 0.745375,0 1.356549,-0.5881 1.356537,-1.3335 1.2e-5,-0.7454 -0.611162,-1.3565 -1.356537,-1.3565 -0.745374,0 -1.356511,0.6111 -1.356524,1.3565 0,0.7454 0.61115,1.3335 1.356537,1.3335 z"
           id="connector_L17"
           inkscape:label="" />
        <path
           style="display:inline;fill:#f7bd13;fill-opacity:1"
           inkscape:connector-curvature="0"
           d="m 6.1998273,164.97356 c -1.484474,0 -2.69006,-1.2056 -2.69006,-2.6901 -1.3e-5,-1.4845 1.205586,-2.6901 2.69006,-2.6901 1.484499,0 2.690086,1.2056 2.690098,2.6901 0,1.4845 -1.205599,2.6901 -2.690098,2.6901 z m 0,-1.3566 c 0.745375,0 1.356549,-0.5881 1.356537,-1.3335 1.2e-5,-0.7454 -0.611162,-1.3565 -1.356537,-1.3565 -0.745374,0 -1.356511,0.6111 -1.356524,1.3565 0,0.7454 0.61115,1.3335 1.356537,1.3335 z"
           id="connector_L16"
           inkscape:label="" />
        <path
           style="display:inline;fill:#f7bd13;fill-opacity:1"
           inkscape:connector-curvature="0"
           d="m 6.1998273,155.97356 c -1.484474,0 -2.69006,-1.2056 -2.69006,-2.6901 -1.3e-5,-1.4845 1.205586,-2.6901 2.69006,-2.6901 1.484499,0 2.690086,1.2056 2.690098,2.6901 0,1.4845 -1.205599,2.6901 -2.690098,2.6901 z m 0,-1.3566 c 0.745375,0 1.356549,-0.5881 1.356537,-1.3335 1.2e-5,-0.7454 -0.611162,-1.3565 -1.356537,-1.3565 -0.745374,0 -1.356511,0.6111 -1.356524,1.3565 0,0.7454 0.61115,1.3335 1.356537,1.3335 z"
           id="connector_L15"
           inkscape:label="" />
        <path
           style="display:inline;fill:#f7bd13;fill-opacity:1"
           inkscape:connector-curvature="0"
           d="m 6.1998273,146.97356 c -1.484474,0 -2.69006,-1.2056 -2.69006,-2.6901 -1.3e-5,-1.4845 1.205586,-2.6901 2.69006,-2.6901 1.484499,0 2.690086,1.2056 2.690098,2.6901 0,1.4845 -1.205599,2.6901 -2.690098,2.6901 z m 0,-1.3566 c 0.745375,0 1.356549,-0.5881 1.356537,-1.3335 1.2e-5,-0.7454 -0.611162,-1.3565 -1.356537,-1.3565 -0.745374,0 -1.356511,0.6111 -1.356524,1.3565 0,0.7454 0.61115,1.3335 1.356537,1.3335 z"
           id="connector_L14"
           inkscape:label="" />
        <path
           style="display:inline;fill:#f7bd13;fill-opacity:1"
           inkscape:connector-curvature="0"
           d="m 6.1998273,137.97356 c -1.484474,0 -2.69006,-1.2056 -2.69006,-2.6901 -1.3e-5,-1.4845 1.205586,-2.6901 2.69006,-2.6901 1.484499,0 2.690086,1.2056 2.690098,2.6901 0,1.4845 -1.205599,2.6901 -2.690098,2.6901 z m 0,-1.3566 c 0.745375,0 1.356549,-0.5881 1.356537,-1.3335 1.2e-5,-0.7454 -0.611162,-1.3565 -1.356537,-1.3565 -0.745374,0 -1.356511,0.6111 -1.356524,1.3565 0,0.7454 0.61115,1.3335 1.356537,1.3335 z"
           id="connector_L13"
           inkscape:label="" />
        <path
           style="display:inline;fill:#f7bd13;fill-opacity:1"
           inkscape:connector-curvature="0"
           d="m 6.1998273,128.97356 c -1.484474,0 -2.69006,-1.2056 -2.69006,-2.6901 -1.3e-5,-1.4845 1.205586,-2.6901 2.69006,-2.6901 1.484499,0 2.690086,1.2056 2.690098,2.6901 0,1.4845 -1.205599,2.6901 -2.690098,2.6901 z m 0,-1.3566 c 0.745375,0 1.356549,-0.5881 1.356537,-1.3335 1.2e-5,-0.7454 -0.611162,-1.3565 -1.356537,-1.3565 -0.745374,0 -1.356511,0.6111 -1.356524,1.3565 0,0.7454 0.61115,1.3335 1.356537,1.3335 z"
           id="connector_L12"
           inkscape:label="" />
        <path
           style="display:inline;fill:#f7bd13;fill-opacity:1"
           inkscape:connector-curvature="0"
           d="m 6.1998273,119.97356 c -1.484474,0 -2.69006,-1.2056 -2.69006,-2.6901 -1.3e-5,-1.4845 1.205586,-2.6901 2.69006,-2.6901 1.484499,0 2.690086,1.2056 2.690098,2.6901 0,1.4845 -1.205599,2.6901 -2.690098,2.6901 z m 0,-1.3566 c 0.745375,0 1.356549,-0.5881 1.356537,-1.3335 1.2e-5,-0.7454 -0.611162,-1.3565 -1.356537,-1.3565 -0.745374,0 -1.356511,0.6111 -1.356524,1.3565 0,0.7454 0.61115,1.3335 1.356537,1.3335 z"
           id="connector_L11"
           inkscape:label="" />
        <path
           style="display:inline;fill:#f7bd13;fill-opacity:1"
           inkscape:connector-curvature="0"
           d="m 6.1998273,110.97356 c -1.484474,0 -2.69006,-1.2056 -2.69006,-2.6901 -1.3e-5,-1.4845 1.205586,-2.6901 2.69006,-2.6901 1.484499,0 2.690086,1.2056 2.690098,2.6901 0,1.4845 -1.205599,2.6901 -2.690098,2.6901 z m 0,-1.3566 c 0.745375,0 1.356549,-0.5881 1.356537,-1.3335 1.2e-5,-0.7454 -0.611162,-1.3565 -1.356537,-1.3565 -0.745374,0 -1.356511,0.6111 -1.356524,1.3565 0,0.7454 0.61115,1.3335 1.356537,1.3335 z"
           id="connector_L10"
           inkscape:label="" />
        <path
           style="display:inline;fill:#f7bd13;fill-opacity:1"
           inkscape:connector-curvature="0"
           d="m 6.1998273,101.97356 c -1.484474,0 -2.69006,-1.2056 -2.69006,-2.6901 -1.3e-5,-1.4845 1.205586,-2.6901 2.69006,-2.6901 1.484499,0 2.690086,1.2056 2.690098,2.6901 0,1.4845 -1.205599,2.6901 -2.690098,2.6901 z m 0,-1.3566 c 0.745375,0 1.356549,-0.5881 1.356537,-1.3335 1.2e-5,-0.7454 -0.611162,-1.3565 -1.356537,-1.3565 -0.745374,0 -1.356511,0.6111 -1.356524,1.3565 0,0.7454 0.61115,1.3335 1.356537,1.3335 z"
           id="connector_L09"
           inkscape:label="" />
        <path
           style="display:inline;fill:#f7bd13;fill-opacity:1"
           inkscape:connector-curvature="0"
           d="m 6.1998273,92.97356 c -1.484474,0 -2.69006,-1.2056 -2.69006,-2.6901 -1.3e-5,-1.4845 1.205586,-2.6901 2.69006,-2.6901 1.484499,0 2.690086,1.2056 2.690098,2.6901 0,1.4845 -1.205599,2.6901 -2.690098,2.6901 z m 0,-1.3566 c 0.745375,0 1.356549,-0.5881 1.356537,-1.3335 1.2e-5,-0.7454 -0.611162,-1.3565 -1.356537,-1.3565 -0.745374,0 -1.356511,0.6111 -1.356524,1.3565 0,0.7454 0.61115,1.3335 1.356537,1.3335 z"
           id="connector_L08"
           inkscape:label="" />
        <path
           style="display:inline;fill:#f7bd13;fill-opacity:1"
           inkscape:connector-curvature="0"
           d="m 6.1998273,83.97356 c -1.484474,0 -2.69006,-1.2056 -2.69006,-2.6901 -1.3e-5,-1.4845 1.205586,-2.6901 2.69006,-2.6901 1.484499,0 2.690086,1.2056 2.690098,2.6901 0,1.4845 -1.205599,2.6901 -2.690098,2.6901 z m 0,-1.3566 c 0.745375,0 1.356549,-0.5881 1.356537,-1.3335 1.2e-5,-0.7454 -0.611162,-1.3565 -1.356537,-1.3565 -0.745374,0 -1.356511,0.6111 -1.356524,1.3565 0,0.7454 0.61115,1.3335 1.356537,1.3335 z"
           id="connector_L07"
           inkscape:label="" />
        <path
           style="display:inline;fill:#f7bd13;fill-opacity:1"
           inkscape:connector-curvature="0"
           d="m 6.1998273,74.97356 c -1.484474,0 -2.69006,-1.2056 -2.69006,-2.6901 -1.3e-5,-1.4845 1.205586,-2.6901 2.69006,-2.6901 1.484499,0 2.690086,1.2056 2.690098,2.6901 0,1.4845 -1.205599,2.6901 -2.690098,2.6901 z m 0,-1.3566 c 0.745375,0 1.356549,-0.5881 1.356537,-1.3335 1.2e-5,-0.7454 -0.611162,-1.3565 -1.356537,-1.3565 -0.745374,0 -1.356511,0.6111 -1.356524,1.3565 0,0.7454 0.61115,1.3335 1.356537,1.3335 z"
           id="connector_L06"
           inkscape:label="" />
        <path
           style="display:inline;fill:#f7bd13;fill-opacity:1"
           inkscape:connector-curvature="0"
           d="m 6.1998273,65.97356 c -1.484474,0 -2.69006,-1.2056 -2.69006,-2.6901 -1.3e-5,-1.4845 1.205586,-2.6901 2.69006,-2.6901 1.484499,0 2.690086,1.2056 2.690098,2.6901 0,1.4845 -1.205599,2.6901 -2.690098,2.6901 z m 0,-1.3566 c 0.745375,0 1.356549,-0.5881 1.356537,-1.3335 1.2e-5,-0.7454 -0.611162,-1.3565 -1.356537,-1.3565 -0.745374,0 -1.356511,0.6111 -1.356524,1.3565 0,0.7454 0.61115,1.3335 1.356537,1.3335 z"
           id="connector_L05"
           inkscape:label="" />
        <path
           style="display:inline;fill:#f7bd13;fill-opacity:1"
           inkscape:connector-curvature="0"
           d="m 6.1998273,56.97356 c -1.484474,0 -2.69006,-1.2056 -2.69006,-2.6901 -1.3e-5,-1.4845 1.205586,-2.6901 2.69006,-2.6901 1.484499,0 2.690086,1.2056 2.690098,2.6901 0,1.4845 -1.205599,2.6901 -2.690098,2.6901 z m 0,-1.3566 c 0.745375,0 1.356549,-0.5881 1.356537,-1.3335 1.2e-5,-0.7454 -0.611162,-1.3565 -1.356537,-1.3565 -0.745374,0 -1.356511,0.6111 -1.356524,1.3565 0,0.7454 0.61115,1.3335 1.356537,1.3335 z"
           id="connector_L04"
           inkscape:label="" />
        <path
           style="display:inline;fill:#f7bd13;fill-opacity:1"
           inkscape:connector-curvature="0"
           d="m 6.1998273,47.97356 c -1.484474,0 -2.69006,-1.2056 -2.69006,-2.6901 -1.3e-5,-1.4845 1.205586,-2.6901 2.69006,-2.6901 1.484499,0 2.690086,1.2056 2.690098,2.6901 0,1.4845 -1.205599,2.6901 -2.690098,2.6901 z m 0,-1.3566 c 0.745375,0 1.356549,-0.5881 1.356537,-1.3335 1.2e-5,-0.7454 -0.611162,-1.3565 -1.356537,-1.3565 -0.745374,0 -1.356511,0.6111 -1.356524,1.3565 0,0.7454 0.61115,1.3335 1.356537,1.3335 z"
           id="connector_L03"
           inkscape:label="" />
        <path
           style="display:inline;fill:#f7bd13;fill-opacity:1"
           inkscape:connector-curvature="0"
           d="m 6.1998273,38.97356 c -1.484474,0 -2.69006,-1.2056 -2.69006,-2.6901 -1.3e-5,-1.4845 1.205586,-2.6901 2.69006,-2.6901 1.484499,0 2.690086,1.2056 2.690098,2.6901 0,1.4845 -1.205599,2.6901 -2.690098,2.6901 z m 0,-1.3566 c 0.745375,0 1.356549,-0.5881 1.356537,-1.3335 1.2e-5,-0.7454 -0.611162,-1.3565 -1.356537,-1.3565 -0.745374,0 -1.356511,0.6111 -1.356524,1.3565 0,0.7454 0.61115,1.3335 1.356537,1.3335 z"
           id="connector_L02"
           inkscape:label="" />
        <path
           style="display:inline;fill:#f7bd13;fill-opacity:1"
           inkscape:connector-curvature="0"
           d="m 6.1998273,29.97356 c -1.484474,0 -2.69006,-1.2056 -2.69006,-2.6901 -1.3e-5,-1.4845 1.205586,-2.6901 2.69006,-2.6901 1.484499,0 2.690086,1.2056 2.690098,2.6901 0,1.4845 -1.205599,2.6901 -2.690098,2.6901 z m 0,-1.3566 c 0.745375,0 1.356549,-0.5881 1.356537,-1.3335 1.2e-5,-0.7454 -0.611162,-1.3565 -1.356537,-1.3565 -0.745374,0 -1.356511,0.6111 -1.356524,1.3565 0,0.7454 0.61115,1.3335 1.356537,1.3335 z"
           id="connector_L01"
           inkscape:label="" />
        <path
           style="display:inline;fill:#f7bd13;fill-opacity:1"
           inkscape:connector-curvature="0"
           d="m 3.4440983,201.05116 0,-5.5354 5.511496,0 0,5.5354 -5.511496,0 z m 2.755748,-1.3658 c 0.776862,0 1.413824,-0.613 1.413824,-1.3899 0,-0.7769 -0.636962,-1.4138 -1.413824,-1.4138 -0.77685,0 -1.413824,0.6369 -1.413824,1.4138 0,0.7769 0.636974,1.3899 1.413861,1.3898 z"
           id="connector_L20"
           inkscape:label="" />
        <rect
           style="fill:#f7bd13;fill-opacity:1;stroke:none;stroke-width:0.72000003;stroke-linecap:round;stroke-linejoin:round;stroke-miterlimit:4;stroke-dasharray:none;stroke-opacity:1"
           id="connector_LIPO_V"
           width="3.5433071"
           height="16.299213"
           x="23.031488"
           y="173.62204"
           inkscape:label="" />
        <rect
           style="display:inline;fill:#f7bd13;fill-opacity:1;stroke:none;stroke-width:0.72000003;stroke-linecap:round;stroke-linejoin:round;stroke-miterlimit:4;stroke-dasharray:none;stroke-opacity:1"
           id="connector_LIPO_GND"
           width="3.5433071"
           height="16.299213"
           x="30.118103"
           y="173.62204"
           inkscape:label="" />
        <rect
           style="display:inline;fill:#f7bd13;fill-opacity:1;stroke:none;stroke-width:0.72000003;stroke-linecap:round;stroke-linejoin:round;stroke-miterlimit:4;stroke-dasharray:none;stroke-opacity:1"
           id="connector_SOLAR_V"
           width="3.5433071"
           height="16.299213"
           x="53.503929"
           y="173.62204"
           inkscape:label="" />
        <rect
           style="display:inline;fill:#f7bd13;fill-opacity:1;stroke:none;stroke-width:0.72000003;stroke-linecap:round;stroke-linejoin:round;stroke-miterlimit:4;stroke-dasharray:none;stroke-opacity:1"
           id="connector_SOLAR_GND"
           width="3.5433071"
           height="16.299213"
           x="60.590542"
           y="173.62204"
           inkscape:label="" />
      </g>
    </g>
  </g>
</svg>
