<?xml version="1.0" encoding="UTF-8" standalone="no"?>
<svg
   xmlns:dc="http://purl.org/dc/elements/1.1/"
   xmlns:cc="http://creativecommons.org/ns#"
   xmlns:rdf="http://www.w3.org/1999/02/22-rdf-syntax-ns#"
   xmlns:svg="http://www.w3.org/2000/svg"
   xmlns="http://www.w3.org/2000/svg"
   xmlns:sodipodi="http://sodipodi.sourceforge.net/DTD/sodipodi-0.dtd"
   xmlns:inkscape="http://www.inkscape.org/namespaces/inkscape"
   width="22mm"
   height="26mm"
   version="1.1"
   id="svg2"
   inkscape:version="0.91 r13725"
   sodipodi:docname="Grove_Button_P.svg">
  <defs
     id="defs53" />
  <sodipodi:namedview
     pagecolor="#ffffff"
     bordercolor="#666666"
     borderopacity="1"
     objecttolerance="10"
     gridtolerance="10"
     guidetolerance="10"
     inkscape:pageopacity="0"
     inkscape:pageshadow="2"
     inkscape:window-width="1920"
     inkscape:window-height="1017"
     id="namedview51"
     showgrid="true"
     units="mm"
     inkscape:snap-grids="true"
     inkscape:snap-object-midpoints="true"
     inkscape:snap-bbox="true"
     inkscape:snap-bbox-midpoints="true"
     inkscape:bbox-nodes="true"
     inkscape:snap-center="true"
     inkscape:bbox-paths="false"
     inkscape:snap-bbox-edge-midpoints="false"
     inkscape:zoom="9.3261616"
     inkscape:cx="23.508639"
     inkscape:cy="50.081399"
     inkscape:window-x="-8"
     inkscape:window-y="1072"
     inkscape:window-maximized="1"
     inkscape:current-layer="layer3">
    <inkscape:grid
       type="xygrid"
       id="grid4226"
       units="mm"
       spacingx="3.5433071"
       spacingy="3.5433071"
       empspacing="2"
       empcolor="#000000"
       empopacity="0.25098039" />
  </sodipodi:namedview>
  <metadata
     id="metadata13579">
    <rdf:RDF>
      <cc:Work
         rdf:about="">
        <dc:format>image/svg+xml</dc:format>
        <dc:type
           rdf:resource="http://purl.org/dc/dcmitype/StillImage" />
        <dc:title />
      </cc:Work>
    </rdf:RDF>
  </metadata>
  <g
     inkscape:groupmode="layer"
     id="layer1"
     inkscape:label="Board"
     style="display:inline"
     sodipodi:insensitive="true">
    <path
       style="display:inline;fill:#274a88"
       inkscape:connector-curvature="0"
       d="m 38.980807,3.4594 c -3.099659,0 -5.625,2.525341 -5.625,5.6249996 l -26.9999999,0 c -1.5703937,0 -2.8125,1.2421064 -2.8125,2.8125004 l 0,27 c 3.099659,0 5.59375,2.525341 5.59375,5.625 0,3.099659 -2.494091,5.59375 -5.59375,5.59375 l 0,27 c 0,1.570394 1.2421063,2.8125 2.8125,2.8125 l 26.9999999,0 c 0,3.099659 2.525341,5.625 5.625,5.625 3.099659,0 5.59375,-2.525341 5.59375,-5.625 l 27,0 c 1.570394,0 2.8125,-1.242106 2.8125,-2.8125 l 0,-27 c -3.099659,0 -5.59375,-2.494091 -5.59375,-5.59375 0,-3.099659 2.494091,-5.625 5.59375,-5.625 l 0,-27 c 0,-1.570394 -1.242106,-2.8125004 -2.8125,-2.8125004 l -27,0 C 44.574557,5.984741 42.080466,3.4594 38.980807,3.4594 Z m 0,2.375 c 1.794539,0 3.25,1.4554606 3.25,3.2499996 0,1.7945404 -1.455461,3.2500004 -3.25,3.2500004 -1.794539,0 -3.25,-1.45546 -3.25,-3.2500004 0,-1.794539 1.455461,-3.2499996 3.25,-3.2499996 z m 0,70.875 c 1.794539,0 3.25,1.424211 3.25,3.21875 0,1.794539 -1.455461,3.25 -3.25,3.25 -1.794539,0 -3.25,-1.455461 -3.25,-3.25 0,-1.794539 1.455461,-3.21875 3.25,-3.21875 z"
       id="Board"
       inkscape:label="#rect2992" />
  </g>
  <g
     inkscape:groupmode="layer"
     id="layer4"
     inkscape:label="Components"
     sodipodi:insensitive="true">
    <g
       id="Button"
       transform="translate(105.93547,-29.126763)"
       inkscape:label="">
      <rect
         width="28.346457"
         height="28.346457"
         id="rect4321"
         x="-81.132317"
         y="43.299992"
         style="fill:#ffffff" />
      <path
         d="m -61.64413,57.473211 c 0,2.935372 -2.379589,5.314961 -5.31496,5.314961 -2.935372,0 -5.314961,-2.379589 -5.314961,-5.314961 0,-2.935371 2.379589,-5.31496 5.314961,-5.31496 2.935371,0 5.31496,2.379589 5.31496,5.31496 z"
         id="path4323"
         inkscape:connector-curvature="0"
         style="fill:#1a1a1a" />
      <path
         d="m -60.769252,57.473216 c 0,3.418553 -2.771285,6.189838 -6.189837,6.189838 -3.418553,0 -6.189838,-2.771285 -6.189838,-6.189838 0,-3.418552 2.771285,-6.189837 6.189838,-6.189837 3.418552,0 6.189837,2.771285 6.189837,6.189837 z"
         id="path4323-1"
         inkscape:connector-curvature="0"
         style="fill:none;stroke:#808080;stroke-width:0.37622961" />
    </g>
  </g>
  <g
     inkscape:groupmode="layer"
     id="layer3"
     inkscape:label="Labels"
     style="display:inline">
    <text
       xml:space="preserve"
       style="font-style:normal;font-variant:normal;font-weight:normal;font-stretch:normal;font-size:4px;line-height:125%;font-family:OCRA;-inkscape-font-specification:'OCRA, Normal';text-align:start;letter-spacing:0px;word-spacing:0px;writing-mode:lr-tb;text-anchor:start;display:inline;fill:#ffffff;fill-opacity:1;stroke:none;stroke-width:1px;stroke-linecap:butt;stroke-linejoin:miter;stroke-opacity:1"
       x="-72.004646"
       y="29.906456"
       id="Label_GND"
       sodipodi:linespacing="125%"
       transform="matrix(0,-1,1,0,0,0)"
       inkscape:label=""><tspan
         sodipodi:role="line"
         id="tspan4153"
         x="-72.004646"
         y="29.906456"
         style="font-style:normal;font-variant:normal;font-weight:normal;font-stretch:normal;font-size:4px;line-height:125%;font-family:OCRA;-inkscape-font-specification:'OCRA, Normal';text-align:start;writing-mode:lr-tb;text-anchor:start">GND</tspan></text>
    <text
       xml:space="preserve"
       style="font-style:normal;font-variant:normal;font-weight:normal;font-stretch:normal;font-size:3.75px;line-height:125%;font-family:OCRA;-inkscape-font-specification:'OCRA, Normal';text-align:start;letter-spacing:0px;word-spacing:0px;writing-mode:lr-tb;text-anchor:start;display:inline;fill:#000000;fill-opacity:1;stroke:none;stroke-width:1px;stroke-linecap:butt;stroke-linejoin:miter;stroke-opacity:1"
       x="-72.004646"
       y="36.993073"
       id="Label_VCC"
       sodipodi:linespacing="125%"
       transform="matrix(0,-1,1,0,0,0)"
       inkscape:label=""><tspan
         sodipodi:role="line"
         id="tspan4157"
         x="-72.004646"
         y="36.993073"
         style="font-style:normal;font-variant:normal;font-weight:normal;font-stretch:normal;font-size:4px;line-height:125%;font-family:OCRA;-inkscape-font-specification:'OCRA, Normal';text-align:start;writing-mode:lr-tb;text-anchor:start;fill:#ffffff">VCC</tspan></text>
    <text
       xml:space="preserve"
       style="font-style:normal;font-variant:normal;font-weight:normal;font-stretch:normal;font-size:3.75px;line-height:125%;font-family:OCRA;-inkscape-font-specification:'OCRA, Normal';text-align:start;letter-spacing:0px;word-spacing:0px;writing-mode:lr-tb;text-anchor:start;display:inline;fill:#000000;fill-opacity:1;stroke:none;stroke-width:1px;stroke-linecap:butt;stroke-linejoin:miter;stroke-opacity:1"
       x="-69.114021"
       y="44.079685"
       id="Label_NC"
       sodipodi:linespacing="125%"
       transform="matrix(0,-1,1,0,0,0)"
       inkscape:label=""><tspan
         sodipodi:role="line"
         id="tspan4161"
         x="-69.114021"
         y="44.079685"
         style="font-style:normal;font-variant:normal;font-weight:normal;font-stretch:normal;font-size:4px;line-height:125%;font-family:OCRA;-inkscape-font-specification:'OCRA, Normal';text-align:start;writing-mode:lr-tb;text-anchor:start;fill:#ffffff">NC</tspan></text>
    <text
       xml:space="preserve"
       style="font-style:normal;font-variant:normal;font-weight:normal;font-stretch:normal;font-size:3.75px;line-height:125%;font-family:OCRA;-inkscape-font-specification:'OCRA, Normal';text-align:start;letter-spacing:0px;word-spacing:0px;writing-mode:lr-tb;text-anchor:start;display:inline;fill:#000000;fill-opacity:1;stroke:none;stroke-width:1px;stroke-linecap:butt;stroke-linejoin:miter;stroke-opacity:1"
       x="-72.235855"
       y="51.166298"
       id="Label_SIG"
       sodipodi:linespacing="125%"
       transform="matrix(0,-1,1,0,0,0)"
       inkscape:label=""><tspan
         sodipodi:role="line"
         id="tspan4165"
         x="-72.235855"
         y="51.166298"
         style="font-style:normal;font-variant:normal;font-weight:normal;font-stretch:normal;font-size:4px;line-height:125%;font-family:OCRA;-inkscape-font-specification:'OCRA, Normal';text-align:start;writing-mode:lr-tb;text-anchor:start;fill:#ffffff">SIG</tspan></text>
    <text
       xml:space="preserve"
       style="font-style:normal;font-variant:normal;font-weight:normal;font-stretch:normal;font-size:4px;line-height:125%;font-family:OCRA;-inkscape-font-specification:'OCRA, Normal';text-align:start;letter-spacing:0px;word-spacing:0px;writing-mode:lr-tb;text-anchor:start;fill:#000000;fill-opacity:1;stroke:none;stroke-width:1px;stroke-linecap:butt;stroke-linejoin:miter;stroke-opacity:1"
       x="39.391663"
       y="50.91378"
       id="Label_Main"
       sodipodi:linespacing="125%"
       inkscape:label=""><tspan
         sodipodi:role="line"
         id="tspan4156"
         x="39.391663"
         y="50.91378"
         style="font-style:normal;font-variant:normal;font-weight:normal;font-stretch:normal;font-size:5.625px;line-height:125%;font-family:OCRA;-inkscape-font-specification:'OCRA, Normal';text-align:center;writing-mode:lr-tb;text-anchor:middle;fill:#ffffff">Button(P)</tspan></text>
  </g>
  <g
     inkscape:groupmode="layer"
     id="layer2"
     inkscape:label="Pins"
     sodipodi:insensitive="true">
    <path
       id="connector1pin"
       d="m 50.493547,57.580433 -1.774496,0 0,-1.774335 1.774496,0 0,1.774335 z"
       inkscape:connector-curvature="0"
       style="display:inline;fill:#ffe500;stroke:#000000;stroke-width:0.10999979;stroke-linejoin:round"
       inkscape:label="" />
    <path
       id="connector2pin"
       d="m 41.632437,55.806098 1.774497,0 0,1.774335 -1.774497,0 0,-1.774335 z"
       inkscape:connector-curvature="0"
       style="display:inline;fill:#ffe500;stroke:#000000;stroke-width:0.10999979;stroke-linejoin:round"
       inkscape:label="" />
    <path
       id="connector3pin"
       d="m 34.545822,57.580433 0,-1.774335 1.774497,0 0,1.774335 -1.774497,0 z"
       inkscape:connector-curvature="0"
       style="display:inline;fill:#ffe500;stroke:#000000;stroke-width:0.10999979;stroke-linejoin:round"
       inkscape:label="" />
    <path
       id="connector4pin"
       d="m 27.459209,57.580433 0,-1.774335 1.774496,0 0,1.774335 -1.774496,0 z"
       inkscape:connector-curvature="0"
       style="display:inline;fill:#ffe500;stroke:#000000;stroke-width:0.10999979;stroke-linejoin:round"
       inkscape:label="" />
  </g>
</svg>
