<?xml version="1.0" encoding="UTF-8" standalone="no"?>
<svg
   xmlns:dc="http://purl.org/dc/elements/1.1/"
   xmlns:cc="http://creativecommons.org/ns#"
   xmlns:rdf="http://www.w3.org/1999/02/22-rdf-syntax-ns#"
   xmlns:svg="http://www.w3.org/2000/svg"
   xmlns="http://www.w3.org/2000/svg"
   xmlns:sodipodi="http://sodipodi.sourceforge.net/DTD/sodipodi-0.dtd"
   xmlns:inkscape="http://www.inkscape.org/namespaces/inkscape"
   width="44mm"
   version="1.1"
   height="25mm"
   id="svg2"
   inkscape:version="0.91 r13725"
   sodipodi:docname="Grove_Relay.svg">
  <defs
     id="defs56" />
  <sodipodi:namedview
     pagecolor="#ffffff"
     bordercolor="#666666"
     borderopacity="1"
     objecttolerance="10"
     gridtolerance="10"
     guidetolerance="10"
     inkscape:pageopacity="0"
     inkscape:pageshadow="2"
     inkscape:window-width="1920"
     inkscape:window-height="1017"
     id="namedview54"
     showgrid="true"
     units="mm"
     inkscape:snap-center="true"
     inkscape:snap-object-midpoints="true"
     inkscape:snap-bbox="true"
     inkscape:snap-bbox-midpoints="true"
     showguides="true"
     inkscape:guide-bbox="true"
     inkscape:bbox-nodes="false"
     inkscape:snap-bbox-edge-midpoints="true"
     inkscape:zoom="4.1204247"
     inkscape:cx="-15.701646"
     inkscape:cy="42.607691"
     inkscape:window-x="-8"
     inkscape:window-y="1072"
     inkscape:window-maximized="1"
     inkscape:current-layer="layer4"
     inkscape:snap-grids="true"
     inkscape:snap-to-guides="false"
     inkscape:snap-midpoints="true"
     inkscape:snap-smooth-nodes="true"
     inkscape:object-nodes="true"
     inkscape:snap-intersection-paths="true"
     inkscape:snap-nodes="true"
     inkscape:object-paths="true"
     inkscape:snap-others="true"
     inkscape:snap-global="true">
    <inkscape:grid
       type="xygrid"
       id="grid4747"
       units="mm"
       spacingx="3.5433071"
       spacingy="3.5433071"
       empcolor="#000000"
       empopacity="0.25098039"
       empspacing="2" />
    <sodipodi:guide
       position="70.866142,-6.8644068"
       orientation="1,0"
       id="guide4261"
       inkscape:label=""
       inkscape:color="rgb(0,0,255)" />
    <sodipodi:guide
       position="16.830709,63.767699"
       orientation="1,0"
       id="guide4293"
       inkscape:label=""
       inkscape:color="rgb(0,0,255)" />
  </sodipodi:namedview>
  <metadata
     id="metadata13579">
    <rdf:RDF>
      <cc:Work
         rdf:about="">
        <dc:format>image/svg+xml</dc:format>
        <dc:type
           rdf:resource="http://purl.org/dc/dcmitype/StillImage" />
        <dc:title></dc:title>
      </cc:Work>
    </rdf:RDF>
  </metadata>
  <g
     inkscape:groupmode="layer"
     id="layer1"
     inkscape:label="Board"
     style="display:inline"
     transform="translate(0,-3.5433071)"
     sodipodi:insensitive="true">
    <path
       style="display:inline;fill:#274a88"
       d="m 113.41265,5.0149117 c -3.09966,0 -5.625,2.5253407 -5.625,5.6249993 l -29.812503,0 c -1.570393,0 -29.8125,0 -29.8125,0 0,3.099659 -2.525342,5.59375 -5.625,5.59375 -3.099659,0 -5.59375,-2.494091 -5.59375,-5.59375 l -26.9999994,0 c -1.5703944,0 -2.8125,1.242107 -2.8125,2.8125 l 0,27 c -3.099659,0 -5.625,2.525341 -5.625,5.625 0,3.099659 2.525341,5.59375 5.625,5.59375 l 0,27 c 0,1.570394 1.2421056,2.8125 2.8125,2.8125 l 26.9999994,0 c 0,-3.099659 2.494091,-5.59375 5.59375,-5.59375 3.099658,0 5.625,2.494091 5.625,5.59375 l 29.8125,0 c 1.570394,0 29.812503,0 29.812503,0 0,3.099659 2.52534,5.625 5.625,5.625 3.09966,0 5.59375,-2.525341 5.59375,-5.625 l 27,0 c 1.5704,0 2.8125,-1.242106 2.8125,-2.8125 l 0,-27 c -3.09966,0 -5.59375,-2.494091 -5.59375,-5.59375 0,-3.099658 2.49409,-5.625 5.59375,-5.625 l 0,-27 c 0,-1.570394 -1.2421,-2.8125 -2.8125,-2.8125 l -27,0 c 0,-3.0996586 -2.49409,-5.6249993 -5.59375,-5.6249993 z m 0,2.3749997 c 1.79454,0 3.25,1.455461 3.25,3.2499996 0,1.794541 -1.45546,3.25 -3.25,3.25 -1.79454,0 -3.25,-1.455459 -3.25,-3.25 0,-1.7945386 1.45546,-3.2499996 3.25,-3.2499996 z M 7.1313976,42.827411 c 1.794539,0 3.2187494,1.455461 3.2187494,3.25 0,1.794539 -1.4242104,3.25 -3.2187494,3.25 -1.794539,0 -3.25,-1.455461 -3.25,-3.25 0,-1.794539 1.455461,-3.25 3.25,-3.25 z m 106.2812524,35.4375 c 1.79454,0 3.25,1.424211 3.25,3.21875 0,1.794539 -1.45546,3.25 -3.25,3.25 -1.79454,0 -3.25,-1.455461 -3.25,-3.25 0,-1.794539 1.45546,-3.21875 3.25,-3.21875 z"
       id="Board"
       inkscape:connector-curvature="0"
       sodipodi:nodetypes="scccscsscscsscscccscsscscsscssssssssssssssss" />
  </g>
  <g
     inkscape:groupmode="layer"
     id="layer2"
     inkscape:label="Components"
     style="display:inline"
     transform="translate(0,-3.5433071)"
     sodipodi:insensitive="true">
    <g
       id="Grove_Connector"
       inkscape:label=""
       transform="matrix(0,-1,1,0,0.01686243,85.021262)">
      <path
         id="path16826-7"
         d="m 56.810629,35.976715 -5.678239,0 0,-1.951902 3.726368,0.02181 0,-11.378416 -6.210613,0 0,-1.951901 2.129246,0 0,-2.839178 6.033238,0 0,18.099585 z"
         inkscape:connector-curvature="0"
         style="fill:#ffffff" />
      <path
         id="path16828-7"
         d="m 26.786562,35.976715 -5.678239,0 0,-18.099586 6.033113,0 0,2.839179 2.129371,0 0,1.951901 -6.210613,0 0,11.356604 3.726368,0 0,1.951902 z"
         inkscape:connector-curvature="0"
         style="fill:#ffffff" />
      <path
         id="path16830-7"
         d="m 23.060194,22.668209 6.210613,0 19.377338,0 6.210613,0 0,11.378416 -3.726368,-0.02181 -24.345828,0 -3.726368,0 0,-11.356604 z m 25.658826,4.791079 0,1.774336 1.774496,0 0,-1.774336 -1.774496,0 z m -7.040237,1.774336 1.774497,0 0,-1.774336 -1.774497,0 0,1.774336 z m -12.478851,0 0,-1.774336 -1.774496,0 0,1.774336 1.774496,0 z m 5.323365,-1.774336 0,1.774336 1.774497,0 0,-1.774336 -1.774497,0 z"
         inkscape:connector-curvature="0"
         style="fill:#ffffff" />
      <path
         id="path16832-7"
         d="m 26.786562,35.976715 0,-1.951902 24.345828,0 0,1.951902 -24.345828,0 z"
         inkscape:connector-curvature="0"
         style="fill:#ffffff" />
      <path
         id="path16834-3"
         d="m 45.170152,20.716308 3.477993,0 0,1.951901 -19.377338,0 0,-1.951901 3.477993,0 12.421352,0 z"
         inkscape:connector-curvature="0"
         style="fill:#ffffff" />
      <path
         id="path16836-3"
         d="m 45.170152,17.699673 0,3.016635 -12.421352,0 0,-3.016635 12.421352,0 z"
         inkscape:connector-curvature="0"
         style="fill:#dbdbdb" />
      <path
         id="path22208-5"
         d="m 51.13239,35.976715 5.678239,0"
         stroke-miterlimit="10"
         inkscape:connector-curvature="0"
         style="fill:none;stroke:#000000;stroke-width:0.11015229;stroke-miterlimit:10" />
      <path
         id="path22210-9"
         d="m 51.13239,35.976715 0,-1.951902"
         stroke-miterlimit="10"
         inkscape:connector-curvature="0"
         style="fill:none;stroke:#000000;stroke-width:0.11015229;stroke-miterlimit:10" />
      <path
         id="path22212-9"
         d="M 54.858758,34.046625 51.13239,34.024812"
         stroke-miterlimit="10"
         inkscape:connector-curvature="0"
         style="fill:none;stroke:#000000;stroke-width:0.11015229;stroke-miterlimit:10" />
      <path
         id="path22214-8"
         d="m 54.858758,22.668209 0,11.378416"
         stroke-miterlimit="10"
         inkscape:connector-curvature="0"
         style="fill:none;stroke:#000000;stroke-width:0.11015229;stroke-miterlimit:10" />
      <path
         id="path22216-1"
         d="m 48.648145,22.668209 0,-1.951901"
         stroke-miterlimit="10"
         inkscape:connector-curvature="0"
         style="fill:none;stroke:#000000;stroke-width:0.11015229;stroke-miterlimit:10" />
      <path
         id="path22218-8"
         d="m 50.777391,20.716308 -2.129246,0"
         stroke-miterlimit="10"
         inkscape:connector-curvature="0"
         style="fill:none;stroke:#000000;stroke-width:0.11015229;stroke-miterlimit:10" />
      <path
         id="path22220-2"
         d="m 26.786562,35.976715 24.345828,0"
         stroke-miterlimit="10"
         inkscape:connector-curvature="0"
         style="fill:none;stroke:#000000;stroke-width:0.11015229;stroke-miterlimit:10" />
      <path
         id="path22222-6"
         d="m 48.648145,20.716308 -3.477993,0"
         stroke-miterlimit="10"
         inkscape:connector-curvature="0"
         style="fill:none;stroke:#000000;stroke-width:0.11015229;stroke-miterlimit:10" />
      <path
         id="path22240-6"
         d="m 56.810629,17.877129 -6.033238,0"
         stroke-miterlimit="10"
         inkscape:connector-curvature="0"
         style="fill:none;stroke:#000000;stroke-width:0.11015229;stroke-miterlimit:10" />
      <path
         id="path22242-0"
         d="m 50.777391,20.716308 0,-2.839179"
         stroke-miterlimit="10"
         inkscape:connector-curvature="0"
         style="fill:none;stroke:#000000;stroke-width:0.11015229;stroke-miterlimit:10" />
      <path
         id="path22244-3"
         d="m 45.170152,20.716308 0,-3.016635"
         stroke-miterlimit="10"
         inkscape:connector-curvature="0"
         style="fill:none;stroke:#000000;stroke-width:0.11015229;stroke-miterlimit:10" />
      <path
         id="path22246-8"
         d="m 23.060194,34.024813 0,-11.356604"
         stroke-miterlimit="10"
         inkscape:connector-curvature="0"
         style="fill:none;stroke:#000000;stroke-width:0.11015229;stroke-miterlimit:10" />
      <path
         id="path22248-0"
         d="m 26.786562,34.024813 -3.726368,0"
         stroke-miterlimit="10"
         inkscape:connector-curvature="0"
         style="fill:none;stroke:#000000;stroke-width:0.11015229;stroke-miterlimit:10" />
      <path
         id="path22250-1"
         d="m 26.786562,35.976715 0,-1.951902"
         stroke-miterlimit="10"
         inkscape:connector-curvature="0"
         style="fill:none;stroke:#000000;stroke-width:0.11015229;stroke-miterlimit:10" />
      <path
         id="path22252-2"
         d="m 26.786562,35.976715 -5.678239,0"
         stroke-miterlimit="10"
         inkscape:connector-curvature="0"
         style="fill:none;stroke:#000000;stroke-width:0.11015229;stroke-miterlimit:10" />
      <path
         id="path22254-5"
         d="m 27.141436,20.716308 2.129371,0"
         stroke-miterlimit="10"
         inkscape:connector-curvature="0"
         style="fill:none;stroke:#000000;stroke-width:0.11015229;stroke-miterlimit:10" />
      <path
         id="path22256-0"
         d="m 29.270807,20.716308 0,1.951901"
         stroke-miterlimit="10"
         inkscape:connector-curvature="0"
         style="fill:none;stroke:#000000;stroke-width:0.11015229;stroke-miterlimit:10" />
      <path
         id="path22258-9"
         d="m 29.270807,20.716308 3.477993,0"
         stroke-miterlimit="10"
         inkscape:connector-curvature="0"
         style="fill:none;stroke:#000000;stroke-width:0.11015229;stroke-miterlimit:10" />
      <path
         id="path22276-4"
         d="m 21.108323,17.877129 6.033113,0"
         stroke-miterlimit="10"
         inkscape:connector-curvature="0"
         style="fill:none;stroke:#000000;stroke-width:0.11015229;stroke-miterlimit:10" />
      <path
         id="path22278-7"
         d="m 27.141436,20.716308 0,-2.839179"
         stroke-miterlimit="10"
         inkscape:connector-curvature="0"
         style="fill:none;stroke:#000000;stroke-width:0.11015229;stroke-miterlimit:10" />
      <path
         id="path22280-8"
         d="m 32.7488,20.716308 0,-3.016635"
         stroke-miterlimit="10"
         inkscape:connector-curvature="0"
         style="fill:none;stroke:#000000;stroke-width:0.11015229;stroke-miterlimit:10" />
      <path
         id="path29506-3"
         d="m 56.810629,17.877129 0,18.099586"
         stroke-miterlimit="10"
         inkscape:connector-curvature="0"
         style="fill:none;stroke:#000000;stroke-width:0.11015229;stroke-miterlimit:10" />
      <path
         id="path29508-5"
         d="m 45.170152,20.716308 -12.421352,0"
         stroke-miterlimit="10"
         inkscape:connector-curvature="0"
         style="fill:none;stroke:#000000;stroke-width:0.11015229;stroke-miterlimit:10" />
      <path
         id="path29510-1"
         d="m 21.108323,35.976715 0,-18.099586"
         stroke-miterlimit="10"
         inkscape:connector-curvature="0"
         style="fill:none;stroke:#000000;stroke-width:0.11015229;stroke-miterlimit:10" />
      <path
         id="path29512-2"
         d="m 51.13239,34.024813 -24.345828,0"
         stroke-miterlimit="10"
         inkscape:connector-curvature="0"
         style="fill:none;stroke:#000000;stroke-width:0.11015229;stroke-miterlimit:10" />
    </g>
    <g
       id="Screw_Terminal"
       inkscape:label=""
       transform="translate(1.7716533,5.3149624)">
      <rect
         y="47.834644"
         x="35.433071"
         height="10.629921"
         width="26.574802"
         id="rect4295"
         style="fill:#2bbb2c;fill-opacity:1;stroke:none;stroke-width:1;stroke-linecap:round;stroke-linejoin:miter;stroke-miterlimit:4;stroke-dasharray:none;stroke-opacity:1" />
      <circle
         r="4.4291339"
         cy="53.149605"
         cx="55.807087"
         id="path4297-5"
         style="display:inline;fill:#cccccc;fill-opacity:1;stroke:none;stroke-width:1;stroke-linecap:round;stroke-linejoin:miter;stroke-miterlimit:4;stroke-dasharray:none;stroke-opacity:1" />
      <rect
         y="38.976376"
         x="35.433071"
         height="8.8582678"
         width="26.574802"
         id="rect4314"
         style="fill:#3cd23d;fill-opacity:1;stroke:none;stroke-width:1;stroke-linecap:round;stroke-linejoin:miter;stroke-miterlimit:4;stroke-dasharray:none;stroke-opacity:1" />
      <circle
         r="4.4291339"
         cy="53.149605"
         cx="41.633858"
         id="path4297-5-6"
         style="display:inline;fill:#cccccc;fill-opacity:1;stroke:none;stroke-width:1;stroke-linecap:round;stroke-linejoin:miter;stroke-miterlimit:4;stroke-dasharray:none;stroke-opacity:1" />
      <rect
         y="58.464565"
         x="35.433071"
         height="5.3149605"
         width="26.574802"
         id="rect4314-6"
         style="display:inline;fill:#249a24;fill-opacity:1;stroke:none;stroke-width:1;stroke-linecap:round;stroke-linejoin:miter;stroke-miterlimit:4;stroke-dasharray:none;stroke-opacity:1" />
      <rect
         transform="matrix(0.8660254,-0.5,0.5,0.8660254,0,0)"
         y="62.416702"
         x="8.5953484"
         height="8.8582678"
         width="1.7716535"
         id="rect4346"
         style="fill:#b3b3b3;fill-opacity:1;stroke:none;stroke-width:1;stroke-linecap:round;stroke-linejoin:miter;stroke-miterlimit:4;stroke-dasharray:none;stroke-opacity:1" />
      <rect
         transform="matrix(0.8660254,-0.5,0.5,0.8660254,0,0)"
         y="69.503319"
         x="20.869726"
         height="8.8582678"
         width="1.7716535"
         id="rect4346-2"
         style="display:inline;fill:#b3b3b3;fill-opacity:1;stroke:none;stroke-width:1;stroke-linecap:round;stroke-linejoin:miter;stroke-miterlimit:4;stroke-dasharray:none;stroke-opacity:1" />
    </g>
    <g
       style="display:inline"
       id="Relay"
       inkscape:label=""
       transform="translate(3.5433068,-3.5445126)">
      <rect
         y="23.031498"
         x="70.866142"
         height="53.149605"
         width="63.779526"
         id="rect4205"
         style="fill:#000000;fill-opacity:1;stroke:none;stroke-width:1;stroke-linecap:round;stroke-linejoin:miter;stroke-miterlimit:4;stroke-dasharray:none;stroke-opacity:1" />
      <path
         sodipodi:nodetypes="ccccc"
         inkscape:connector-curvature="0"
         id="path4207"
         d="m 70.866142,23.031495 3.543307,3.543307 56.692911,0 3.54331,-3.543307 -63.779528,0"
         style="fill:#666666;fill-opacity:1;fill-rule:evenodd;stroke:none;stroke-width:1px;stroke-linecap:butt;stroke-linejoin:miter;stroke-opacity:1" />
      <path
         sodipodi:nodetypes="ccccc"
         inkscape:connector-curvature="0"
         id="path4207-0"
         d="m 70.866145,76.181101 3.543307,-3.543307 56.692908,0 3.54331,3.543307 -63.779525,0"
         style="display:inline;fill:#333333;fill-opacity:1;fill-rule:evenodd;stroke:none;stroke-width:1px;stroke-linecap:butt;stroke-linejoin:miter;stroke-opacity:1" />
      <path
         sodipodi:nodetypes="ccccc"
         inkscape:connector-curvature="0"
         id="path4207-0-4"
         d="m 70.866142,23.031501 3.543307,3.543301 0,46.062992 -3.543307,3.543307 0,-53.1496"
         style="display:inline;fill:#4d4d4d;fill-opacity:1;fill-rule:evenodd;stroke:none;stroke-width:1px;stroke-linecap:butt;stroke-linejoin:miter;stroke-opacity:1" />
      <path
         sodipodi:nodetypes="ccccc"
         inkscape:connector-curvature="0"
         id="path4207-0-4-5"
         d="m 134.64566,23.0315 -3.54331,3.543301 0,46.062992 3.54331,3.543307 0,-53.1496"
         style="display:inline;fill:#1a1a1a;fill-opacity:1;fill-rule:evenodd;stroke:none;stroke-width:1px;stroke-linecap:butt;stroke-linejoin:miter;stroke-opacity:1" />
    </g>
    <g
       style="display:inline"
       id="LED"
       inkscape:label="">
      <rect
         y="32.775589"
         x="56.692913"
         height="7.0866141"
         width="4.4291339"
         id="rect4428-9-0"
         style="fill:#f9f1da;fill-opacity:1;stroke:none;stroke-width:0.72000003;stroke-linecap:round;stroke-linejoin:round;stroke-miterlimit:4;stroke-dasharray:none;stroke-opacity:1" />
      <rect
         y="31.003937"
         x="56.692913"
         height="1.7716535"
         width="4.4291339"
         id="rect4428-0-7-4"
         style="display:inline;fill:#8c8c8c;fill-opacity:1;stroke:none;stroke-width:0.72000003;stroke-linecap:round;stroke-linejoin:round;stroke-miterlimit:4;stroke-dasharray:none;stroke-opacity:1" />
      <rect
         y="39.862202"
         x="56.692913"
         height="1.7716535"
         width="4.4291339"
         id="rect4428-0-7-7-6"
         style="display:inline;fill:#8c8c8c;fill-opacity:1;stroke:none;stroke-width:0.72000003;stroke-linecap:round;stroke-linejoin:round;stroke-miterlimit:4;stroke-dasharray:none;stroke-opacity:1" />
    </g>
  </g>
  <g
     inkscape:groupmode="layer"
     id="layer3"
     inkscape:label="Labels"
     style="display:inline"
     transform="translate(0,-3.5433071)"
     sodipodi:insensitive="true">
    <text
       xml:space="preserve"
       style="font-style:normal;font-variant:normal;font-weight:normal;font-stretch:normal;font-size:4px;line-height:125%;font-family:OCRA;-inkscape-font-specification:'OCRA, Normal';text-align:start;letter-spacing:0px;word-spacing:0px;writing-mode:lr-tb;text-anchor:start;display:inline;fill:#ffffff;fill-opacity:1;stroke:none;stroke-width:1px;stroke-linecap:butt;stroke-linejoin:miter;stroke-opacity:1"
       x="17.221506"
       y="58.057915"
       id="Label_GND"
       sodipodi:linespacing="125%"
       inkscape:label=""><tspan
         sodipodi:role="line"
         id="tspan4153"
         x="17.221506"
         y="58.057915"
         style="font-style:normal;font-variant:normal;font-weight:normal;font-stretch:normal;font-size:3.5px;line-height:125%;font-family:OCRA;-inkscape-font-specification:'OCRA, Normal';text-align:end;writing-mode:lr-tb;text-anchor:end">GND</tspan></text>
    <text
       xml:space="preserve"
       style="font-style:normal;font-variant:normal;font-weight:normal;font-stretch:normal;font-size:3.75px;line-height:125%;font-family:OCRA;-inkscape-font-specification:'OCRA, Normal';text-align:start;letter-spacing:0px;word-spacing:0px;writing-mode:lr-tb;text-anchor:start;display:inline;fill:#000000;fill-opacity:1;stroke:none;stroke-width:1px;stroke-linecap:butt;stroke-linejoin:miter;stroke-opacity:1"
       x="17.221506"
       y="50.971298"
       id="Label_VCC"
       sodipodi:linespacing="125%"
       inkscape:label=""><tspan
         sodipodi:role="line"
         id="tspan4157"
         x="17.221506"
         y="50.971298"
         style="font-style:normal;font-variant:normal;font-weight:normal;font-stretch:normal;font-size:3.5px;line-height:125%;font-family:OCRA;-inkscape-font-specification:'OCRA, Normal';text-align:end;writing-mode:lr-tb;text-anchor:end;fill:#ffffff">VCC</tspan></text>
    <text
       xml:space="preserve"
       style="font-style:normal;font-variant:normal;font-weight:normal;font-stretch:normal;font-size:3.125px;line-height:125%;font-family:OCRA;-inkscape-font-specification:'OCRA, Normal';text-align:start;letter-spacing:0px;word-spacing:0px;writing-mode:lr-tb;text-anchor:start;display:inline;fill:#000000;fill-opacity:1;stroke:none;stroke-width:1px;stroke-linecap:butt;stroke-linejoin:miter;stroke-opacity:1"
       x="17.221506"
       y="43.884686"
       id="Label_NC"
       sodipodi:linespacing="125%"
       inkscape:label=""><tspan
         sodipodi:role="line"
         id="tspan4161"
         x="17.221506"
         y="43.884686"
         style="font-style:normal;font-variant:normal;font-weight:normal;font-stretch:normal;font-size:3.5px;line-height:125%;font-family:OCRA;-inkscape-font-specification:'OCRA, Normal';text-align:end;writing-mode:lr-tb;text-anchor:end;fill:#ffffff">NC</tspan></text>
    <text
       xml:space="preserve"
       style="font-style:normal;font-variant:normal;font-weight:normal;font-stretch:normal;font-size:3.125px;line-height:125%;font-family:OCRA;-inkscape-font-specification:'OCRA, Normal';text-align:start;letter-spacing:0px;word-spacing:0px;writing-mode:lr-tb;text-anchor:start;display:inline;fill:#000000;fill-opacity:1;stroke:none;stroke-width:1px;stroke-linecap:butt;stroke-linejoin:miter;stroke-opacity:1"
       x="17.221506"
       y="36.798069"
       id="Label_SIG"
       sodipodi:linespacing="125%"
       inkscape:label=""><tspan
         sodipodi:role="line"
         id="tspan4165"
         x="17.221506"
         y="36.798069"
         style="font-style:normal;font-variant:normal;font-weight:normal;font-stretch:normal;font-size:3.5px;line-height:125%;font-family:OCRA;-inkscape-font-specification:'OCRA, Normal';text-align:end;writing-mode:lr-tb;text-anchor:end;fill:#ffffff">SIG</tspan></text>
    <text
       xml:space="preserve"
       style="font-style:normal;font-variant:normal;font-weight:normal;font-stretch:normal;font-size:4px;line-height:125%;font-family:OCRA;-inkscape-font-specification:'OCRA, Normal';text-align:start;letter-spacing:0px;word-spacing:0px;writing-mode:lr-tb;text-anchor:start;fill:#000000;fill-opacity:1;stroke:none;stroke-width:1px;stroke-linecap:butt;stroke-linejoin:miter;stroke-opacity:1"
       x="106.29543"
       y="33.487263"
       id="Label_Main"
       sodipodi:linespacing="125%"
       inkscape:label=""><tspan
         sodipodi:role="line"
         id="tspan4400"
         x="106.29543"
         y="33.487263"
         style="font-style:normal;font-variant:normal;font-weight:normal;font-stretch:normal;font-size:5.625px;line-height:125%;font-family:OCRA;-inkscape-font-specification:'OCRA, Normal';text-align:center;writing-mode:lr-tb;text-anchor:middle;fill:#ffffff">Relay</tspan></text>
  </g>
  <g
     inkscape:groupmode="layer"
     id="layer4"
     inkscape:label="Pins"
     style="display:inline"
     transform="translate(0,-3.5433071)">
    <path
       id="connector1pin"
       d="m 27.459209,34.545903 1.774496,0 0,1.774335 -1.774496,0 0,-1.774335 z"
       inkscape:connector-curvature="0"
       style="display:inline;fill:#ffe500;stroke:#000000;stroke-width:0.10999979;stroke-linejoin:round"
       inkscape:label="" />
    <path
       id="connector2pin"
       d="m 29.233705,43.406855 -1.774497,0 0,-1.774335 1.774497,0 0,1.774335 z"
       inkscape:connector-curvature="0"
       style="display:inline;fill:#ffe500;stroke:#000000;stroke-width:0.10999979;stroke-linejoin:round"
       inkscape:label="" />
    <path
       id="connector3pin"
       d="m 29.233705,48.719132 0,1.774335 -1.774497,0 0,-1.774335 1.774497,0 z"
       inkscape:connector-curvature="0"
       style="display:inline;fill:#ffe500;stroke:#000000;stroke-width:0.10999979;stroke-linejoin:round"
       inkscape:label="" />
    <path
       id="connector4pin"
       d="m 29.233705,55.805748 0,1.774335 -1.774496,0 0,-1.774335 1.774496,0 z"
       inkscape:connector-curvature="0"
       style="display:inline;fill:#ffe500;stroke:#000000;stroke-width:0.10999979;stroke-linejoin:round"
       inkscape:label="" />
  </g>
</svg>
