<?xml version="1.0" encoding="UTF-8" standalone="no"?>
<svg
   xmlns:dc="http://purl.org/dc/elements/1.1/"
   xmlns:cc="http://creativecommons.org/ns#"
   xmlns:rdf="http://www.w3.org/1999/02/22-rdf-syntax-ns#"
   xmlns:svg="http://www.w3.org/2000/svg"
   xmlns="http://www.w3.org/2000/svg"
   xmlns:sodipodi="http://sodipodi.sourceforge.net/DTD/sodipodi-0.dtd"
   xmlns:inkscape="http://www.inkscape.org/namespaces/inkscape"
   width="44mm"
   version="1.1"
   height="25mm"
   id="svg2"
   inkscape:version="0.91 r13725"
   sodipodi:docname="Grove_Relay_PCB.svg">
  <defs
     id="defs56" />
  <sodipodi:namedview
     pagecolor="#ffffff"
     bordercolor="#666666"
     borderopacity="1"
     objecttolerance="10"
     gridtolerance="10"
     guidetolerance="10"
     inkscape:pageopacity="0"
     inkscape:pageshadow="2"
     inkscape:window-width="1920"
     inkscape:window-height="1017"
     id="namedview54"
     showgrid="true"
     units="mm"
     inkscape:snap-center="true"
     inkscape:snap-object-midpoints="true"
     inkscape:snap-bbox="true"
     inkscape:snap-bbox-midpoints="true"
     showguides="true"
     inkscape:guide-bbox="true"
     inkscape:bbox-nodes="false"
     inkscape:snap-bbox-edge-midpoints="false"
     inkscape:zoom="8.2408494"
     inkscape:cx="18.604007"
     inkscape:cy="53.738573"
     inkscape:window-x="-8"
     inkscape:window-y="1072"
     inkscape:window-maximized="1"
     inkscape:current-layer="layer4"
     inkscape:snap-grids="false"
     inkscape:snap-to-guides="false"
     inkscape:snap-midpoints="true"
     inkscape:snap-smooth-nodes="true"
     inkscape:object-nodes="true"
     inkscape:snap-intersection-paths="true"
     inkscape:snap-nodes="true"
     inkscape:object-paths="true"
     inkscape:snap-others="true"
     inkscape:snap-global="true">
    <inkscape:grid
       type="xygrid"
       id="grid4747"
       units="mm"
       spacingx="3.5433071"
       spacingy="3.5433071"
       empcolor="#000000"
       empopacity="0.25098039"
       empspacing="2" />
    <sodipodi:guide
       position="70.866142,-6.8644068"
       orientation="1,0"
       id="guide4261"
       inkscape:label=""
       inkscape:color="rgb(0,0,255)" />
  </sodipodi:namedview>
  <metadata
     id="metadata13579">
    <rdf:RDF>
      <cc:Work
         rdf:about="">
        <dc:format>image/svg+xml</dc:format>
        <dc:type
           rdf:resource="http://purl.org/dc/dcmitype/StillImage" />
        <dc:title></dc:title>
      </cc:Work>
    </rdf:RDF>
  </metadata>
  <g
     inkscape:groupmode="layer"
     id="layer1"
     inkscape:label="silkscreen"
     style="display:inline"
     transform="translate(0,-3.5433071)"
     sodipodi:insensitive="true">
    <path
       style="display:inline;fill:none;stroke:#000000;stroke-opacity:1"
       d="m 113.41265,5.0149117 c -3.09966,0 -5.625,2.5253407 -5.625,5.6249993 l -29.812503,0 c -1.570393,0 -29.8125,0 -29.8125,0 0,3.099659 -2.525342,5.59375 -5.625,5.59375 -3.099659,0 -5.59375,-2.494091 -5.59375,-5.59375 l -26.9999994,0 c -1.5703944,0 -2.8125,1.242107 -2.8125,2.8125 l 0,27 c -3.099659,0 -5.625,2.525341 -5.625,5.625 0,3.099659 2.525341,5.59375 5.625,5.59375 l 0,27 c 0,1.570394 1.2421056,2.8125 2.8125,2.8125 l 26.9999994,0 c 0,-3.099659 2.494091,-5.59375 5.59375,-5.59375 3.099658,0 5.625,2.494091 5.625,5.59375 l 29.8125,0 c 1.570394,0 29.812503,0 29.812503,0 0,3.099659 2.52534,5.625 5.625,5.625 3.09966,0 5.59375,-2.525341 5.59375,-5.625 l 27,0 c 1.5704,0 2.8125,-1.242106 2.8125,-2.8125 l 0,-27 c -3.09966,0 -5.59375,-2.494091 -5.59375,-5.59375 0,-3.099658 2.49409,-5.625 5.59375,-5.625 l 0,-27 c 0,-1.570394 -1.2421,-2.8125 -2.8125,-2.8125 l -27,0 c 0,-3.0996586 -2.49409,-5.6249993 -5.59375,-5.6249993 z m 0,2.3749997 c 1.79454,0 3.25,1.455461 3.25,3.2499996 0,1.794541 -1.45546,3.25 -3.25,3.25 -1.79454,0 -3.25,-1.455459 -3.25,-3.25 0,-1.7945386 1.45546,-3.2499996 3.25,-3.2499996 z M 7.1313976,42.827411 c 1.794539,0 3.2187494,1.455461 3.2187494,3.25 0,1.794539 -1.4242104,3.25 -3.2187494,3.25 -1.794539,0 -3.25,-1.455461 -3.25,-3.25 0,-1.794539 1.455461,-3.25 3.25,-3.25 z m 106.2812524,35.4375 c 1.79454,0 3.25,1.424211 3.25,3.21875 0,1.794539 -1.45546,3.25 -3.25,3.25 -1.79454,0 -3.25,-1.455461 -3.25,-3.25 0,-1.794539 1.45546,-3.21875 3.25,-3.21875 z"
       id="silkscreen"
       inkscape:connector-curvature="0"
       sodipodi:nodetypes="scccscsscscsscscccscsscscsscssssssssssssssss"
       inkscape:label="" />
  </g>
  <g
     inkscape:groupmode="layer"
     id="layer4"
     inkscape:label="copper"
     style="display:inline"
     transform="translate(0,-3.5433071)">
    <g
       id="copper0"
       inkscape:label="">
      <g
         inkscape:label=""
         id="copper1">
        <path
           style="fill:#f7bd13;fill-opacity:1;stroke:none;stroke-width:0.72000003;stroke-linecap:round;stroke-linejoin:round;stroke-miterlimit:4;stroke-dasharray:none;stroke-opacity:1"
           d="m 22.103151,35.432097 a 2.7,2.7 0 0 0 2.701171,2.701172 2.7,2.7 0 0 0 2.699219,-2.701172 2.7,2.7 0 0 0 -2.699219,-2.699219 2.7,2.7 0 0 0 -2.701171,2.699219 z m 1.351562,0 a 1.35,1.35 0 0 1 1.349609,-1.34961 1.35,1.35 0 0 1 1.34961,1.34961 1.35,1.35 0 0 1 -1.34961,1.351562 1.35,1.35 0 0 1 -1.349609,-1.351562 z"
           id="connector1pin"
           inkscape:connector-curvature="0"
           inkscape:label="" />
        <path
           style="fill:#f7bd13;fill-opacity:1;stroke:none;stroke-width:0.72000003;stroke-linecap:round;stroke-linejoin:round;stroke-miterlimit:4;stroke-dasharray:none;stroke-opacity:1"
           d="m 22.10315,42.518714 a 2.7,2.7 0 0 0 2.701172,2.701172 2.7,2.7 0 0 0 2.699219,-2.701172 2.7,2.7 0 0 0 -2.699219,-2.699219 2.7,2.7 0 0 0 -2.701172,2.699219 z m 1.351562,0 a 1.35,1.35 0 0 1 1.34961,-1.34961 1.35,1.35 0 0 1 1.349609,1.34961 1.35,1.35 0 0 1 -1.349609,1.351562 1.35,1.35 0 0 1 -1.34961,-1.351562 z"
           id="connector2pin"
           inkscape:connector-curvature="0"
           inkscape:label="" />
        <path
           style="fill:#f7bd13;fill-opacity:1;stroke:none;stroke-width:0.72000003;stroke-linecap:round;stroke-linejoin:round;stroke-miterlimit:4;stroke-dasharray:none;stroke-opacity:1"
           d="m 22.10315,49.605326 a 2.7,2.7 0 0 0 2.701172,2.701172 2.7,2.7 0 0 0 2.699219,-2.701172 2.7,2.7 0 0 0 -2.699219,-2.699219 2.7,2.7 0 0 0 -2.701172,2.699219 z m 1.351563,0 a 1.35,1.35 0 0 1 1.349609,-1.34961 1.35,1.35 0 0 1 1.34961,1.34961 1.35,1.35 0 0 1 -1.34961,1.351562 1.35,1.35 0 0 1 -1.349609,-1.351562 z"
           id="connector3pin"
           inkscape:connector-curvature="0"
           inkscape:label="" />
        <path
           style="fill:#f7bd13;fill-opacity:1;stroke:none;stroke-width:0.72000003;stroke-linecap:round;stroke-linejoin:round;stroke-miterlimit:4;stroke-dasharray:none;stroke-opacity:1"
           d="m 22.103151,56.691942 a 2.7,2.7 0 0 0 2.701171,2.701172 2.7,2.7 0 0 0 2.699219,-2.701172 2.7,2.7 0 0 0 -2.699219,-2.699219 2.7,2.7 0 0 0 -2.701171,2.699219 z m 1.351562,0 a 1.35,1.35 0 0 1 1.349609,-1.34961 1.35,1.35 0 0 1 1.34961,1.34961 1.35,1.35 0 0 1 -1.34961,1.351562 1.35,1.35 0 0 1 -1.349609,-1.351562 z"
           id="connector4pin"
           inkscape:connector-curvature="0"
           inkscape:label="" />
      </g>
    </g>
  </g>
</svg>
