<?xml version="1.0" encoding="UTF-8" standalone="no"?>
<svg
   xmlns:dc="http://purl.org/dc/elements/1.1/"
   xmlns:cc="http://creativecommons.org/ns#"
   xmlns:rdf="http://www.w3.org/1999/02/22-rdf-syntax-ns#"
   xmlns:svg="http://www.w3.org/2000/svg"
   xmlns="http://www.w3.org/2000/svg"
   xmlns:sodipodi="http://sodipodi.sourceforge.net/DTD/sodipodi-0.dtd"
   xmlns:inkscape="http://www.inkscape.org/namespaces/inkscape"
   width="26mm"
   version="1.1"
   height="24mm"
   id="svg2"
   inkscape:version="0.91 r13725"
   sodipodi:docname="Grove_LED_Red_PCB.svg">
  <defs
     id="defs56" />
  <sodipodi:namedview
     pagecolor="#ffffff"
     bordercolor="#666666"
     borderopacity="1"
     objecttolerance="10"
     gridtolerance="10"
     guidetolerance="10"
     inkscape:pageopacity="0"
     inkscape:pageshadow="2"
     inkscape:window-width="1920"
     inkscape:window-height="1017"
     id="namedview54"
     showgrid="true"
     units="mm"
     inkscape:zoom="6.2785039"
     inkscape:cx="-12.201309"
     inkscape:cy="46.275388"
     inkscape:window-x="-8"
     inkscape:window-y="1072"
     inkscape:window-maximized="1"
     inkscape:current-layer="layer5"
     inkscape:snap-bbox="true"
     inkscape:snap-bbox-midpoints="false"
     inkscape:snap-bbox-edge-midpoints="false"
     showguides="true"
     inkscape:guide-bbox="true"
     inkscape:bbox-nodes="false"
     inkscape:snap-grids="false"
     inkscape:snap-object-midpoints="true"
     inkscape:snap-intersection-paths="true"
     inkscape:snap-center="true"
     inkscape:snap-smooth-nodes="false"
     inkscape:object-nodes="false"
     inkscape:snap-midpoints="true"
     inkscape:object-paths="false"
     inkscape:bbox-paths="false"
     inkscape:snap-nodes="false">
    <inkscape:grid
       type="xygrid"
       id="grid4184"
       units="mm"
       spacingx="3.5433071"
       spacingy="3.5433071"
       empspacing="2"
       empcolor="#00002d"
       empopacity="0.25098039" />
    <sodipodi:guide
       position="65.551181,33.661417"
       orientation="0,1"
       id="guide4582"
       inkscape:label=""
       inkscape:color="rgb(0,0,255)" />
  </sodipodi:namedview>
  <metadata
     id="metadata13579">
    <rdf:RDF>
      <cc:Work
         rdf:about="">
        <dc:format>image/svg+xml</dc:format>
        <dc:type
           rdf:resource="http://purl.org/dc/dcmitype/StillImage" />
        <dc:title />
      </cc:Work>
    </rdf:RDF>
  </metadata>
  <g
     inkscape:groupmode="layer"
     id="layer1"
     inkscape:label="silkscreen"
     style="display:inline"
     transform="translate(0,7.0866138)"
     sodipodi:insensitive="true">
    <path
       style="display:inline;fill:none;fill-opacity:1;stroke:#000000;stroke-opacity:1"
       d="m 13.441406,13.570312 c -1.570394,0 -2.8125,1.242108 -2.8125,2.8125 l 0,27 c -3.0996571,0 -5.6249996,2.525341 -5.6249998,5.625 0,3.099661 2.5253424,5.59375 5.6249998,5.59375 l 0,27 c 0,1.570394 1.242106,2.8125 2.8125,2.8125 l 27,0 c 0,-3.099659 2.494091,-5.59375 5.59375,-5.59375 3.099659,0 5.625,2.494091 5.625,5.59375 l 27,0 c 1.570394,0 2.8125,-1.242106 2.8125,-2.8125 l 0,-27 c 3.099659,0 5.625,-2.494089 5.625,-5.59375 0,-3.099659 -2.525341,-5.625 -5.625,-5.625 l 0,-27 c 0,-1.570392 -1.242106,-2.812497 -2.8125,-2.8125 l -25.521484,0 0,14.173829 -14.173828,0 0,-14.173829 z m -2.8125,32.1875 c 1.794539,0 3.21875,1.455464 3.21875,3.25 0,1.79454 -1.424211,3.25 -3.21875,3.25 -1.7945376,0 -3.2499996,-1.45546 -3.2499998,-3.25 0,-1.794539 1.4554622,-3.25 3.2499998,-3.25 z m 70.84375,0 c 1.794539,0 3.25,1.455464 3.25,3.25 0,1.79454 -1.455461,3.25 -3.25,3.25 -1.79454,0 -3.25,-1.45546 -3.25,-3.25 0,-1.794539 1.45546,-3.25 3.25,-3.25 z"
       id="silkscreen"
       inkscape:connector-curvature="0"
       inkscape:label=""
       transform="translate(0,-7.0866138)"
       sodipodi:nodetypes="sscscsscscsscscssccccsssssssssss" />
  </g>
  <g
     inkscape:groupmode="layer"
     id="layer5"
     inkscape:label="copper"
     transform="translate(0,7.0866138)"
     style="display:inline">
    <g
       id="copper0"
       inkscape:label="">
      <g
         inkscape:label=""
         id="copper1">
        <path
           style="display:inline;fill:#f7bd13;fill-opacity:1;stroke:none;stroke-width:0.72000003;stroke-linecap:round;stroke-linejoin:round;stroke-miterlimit:4;stroke-dasharray:none;stroke-opacity:1"
           d="m 35.431641,53.993464 a 2.7,2.7 0 0 0 -2.699219,2.699219 2.7,2.7 0 0 0 2.699219,2.701172 2.7,2.7 0 0 0 2.699218,-2.701172 2.7,2.7 0 0 0 -2.699218,-2.699219 z m 0,1.34961 a 1.35,1.35 0 0 1 1.349609,1.349609 1.35,1.35 0 0 1 -1.349609,1.349609 1.35,1.35 0 0 1 -1.34961,-1.349609 1.35,1.35 0 0 1 1.34961,-1.349609 z"
           id="connector4pin"
           inkscape:label=""
           inkscape:connector-curvature="0" />
        <path
           style="display:inline;fill:#f7bd13;fill-opacity:1;stroke:none;stroke-width:0.72000003;stroke-linecap:round;stroke-linejoin:round;stroke-miterlimit:4;stroke-dasharray:none;stroke-opacity:1"
           d="m 42.517578,53.993464 a 2.7,2.7 0 0 0 -2.699219,2.699219 2.7,2.7 0 0 0 2.699219,2.701172 2.7,2.7 0 0 0 2.701172,-2.701172 2.7,2.7 0 0 0 -2.701172,-2.699219 z m 0,1.34961 a 1.35,1.35 0 0 1 1.351563,1.349609 1.35,1.35 0 0 1 -1.351563,1.349609 1.35,1.35 0 0 1 -1.349609,-1.349609 1.35,1.35 0 0 1 1.349609,-1.349609 z"
           id="connector3pin"
           inkscape:label=""
           inkscape:connector-curvature="0" />
        <path
           style="display:inline;fill:#f7bd13;fill-opacity:1;stroke:none;stroke-width:0.72000003;stroke-linecap:round;stroke-linejoin:round;stroke-miterlimit:4;stroke-dasharray:none;stroke-opacity:1"
           d="m 49.605469,53.993464 a 2.7,2.7 0 0 0 -2.701172,2.699219 2.7,2.7 0 0 0 2.701172,2.701172 2.7,2.7 0 0 0 2.699219,-2.701172 2.7,2.7 0 0 0 -2.699219,-2.699219 z m 0,1.34961 a 1.35,1.35 0 0 1 1.349609,1.349609 1.35,1.35 0 0 1 -1.349609,1.349609 1.35,1.35 0 0 1 -1.351563,-1.349609 1.35,1.35 0 0 1 1.351563,-1.349609 z"
           id="connector2pin"
           inkscape:label=""
           inkscape:connector-curvature="0" />
        <path
           style="display:inline;fill:#f7bd13;fill-opacity:1;stroke:none;stroke-width:0.72000003;stroke-linecap:round;stroke-linejoin:round;stroke-miterlimit:4;stroke-dasharray:none;stroke-opacity:1"
           d="m 56.693359,53.993464 a 2.7,2.7 0 0 0 -2.701171,2.699219 2.7,2.7 0 0 0 2.701171,2.701172 2.7,2.7 0 0 0 2.699219,-2.701172 2.7,2.7 0 0 0 -2.699219,-2.699219 z m 0,1.34961 a 1.35,1.35 0 0 1 1.34961,1.349609 1.35,1.35 0 0 1 -1.34961,1.349609 1.35,1.35 0 0 1 -1.349609,-1.349609 1.35,1.35 0 0 1 1.349609,-1.349609 z"
           id="connector1pin"
           inkscape:label=""
           inkscape:connector-curvature="0" />
      </g>
    </g>
  </g>
</svg>
